<svg xmlns="http://www.w3.org/2000/svg" xmlns:xlink="http://www.w3.org/1999/xlink" width="2646.4" height="1870.4"><g transform="translate(0 0)"><path d="M1963.13 92.86V1400" fill="none"/><path d="M1963.13 92.86v9.9m0 9.9v19.8m0 9.92v19.8m0 9.9v19.8m0 9.9v19.82m0 9.9v19.8m0 9.9V281m0 9.9v19.82m0 9.9v19.8m0 9.9v19.8m0 9.92v19.8m0 9.9v19.8m0 9.9v19.82m0 9.9v19.8m0 9.9v19.8m0 9.92v19.8m0 9.9v19.8m0 9.9v19.82m0 9.9v19.8m0 9.9v19.8m0 9.9v19.82m0 9.9v19.8m0 9.9v19.8m0 9.92v19.8m0 9.9v19.8m0 9.9v19.82m0 9.9v19.8m0 9.9v19.8m0 9.9v19.82m0 9.9v19.8m0 9.9V994m0 9.9v19.8m0 9.9v19.8m0 9.9v19.82m0 9.9v19.8m0 9.9v19.8m0 9.92v19.8m0 9.9v19.8m0 9.9v19.82m0 9.9v19.8m0 9.9v19.8m0 9.9v19.82m0 9.9v19.8m0 9.9v19.8m0 9.92v9.9" stroke="#000" stroke-width="2" fill="none"/><path d="M1964.13 92.86h-2V92h.07l1.58-.25.35-.26z"/><path d="M1670 81v1319" fill="none"/><path d="M1670 81v10m0 9.98v20m0 9.98v20m0 9.98v19.98m0 10v19.98m0 10v19.98m0 10v19.98m0 10v19.97m0 10v19.98m0 10v20m0 9.98v20m0 9.98v19.98m0 10v19.98m0 10v19.98m0 10v19.97m0 10v19.98m0 10v19.98m0 10v19.98m0 10v19.98m0 10v19.98m0 10v19.98m0 10v19.98m0 10v19.98m0 9.98v20m0 9.98v20m0 9.98v19.98m0 10v19.98m0 10v19.98m0 10v19.98m0 10v19.97m0 10v19.98m0 10v20m0 9.98v20m0 9.98v19.98m0 10v19.98m0 10v19.98m0 10v19.97m0 10v19.98m0 10v19.98m0 10v19.98m0 10v19.98m0 10v19.98m0 10v19.98m0 10V1380m0 10v9.98" stroke="#000" stroke-width="2" fill="none"/><path d="M1671 81h-2v-1h2z"/><path d="M1458.33 81v1319" fill="none"/><path d="M1458.33 81v10m0 9.98v20m0 9.98v20m0 9.98v19.98m0 10v19.98m0 10v19.98m0 10v19.98m0 10v19.97m0 10v19.98m0 10v20m0 9.98v20m0 9.98v19.98m0 10v19.98m0 10v19.98m0 10v19.97m0 10v19.98m0 10v19.98m0 10v19.98m0 10v19.98m0 10v19.98m0 10v19.98m0 10v19.98m0 10v19.97m0 9.98v20m0 9.98v20m0 9.98v19.98m0 10v19.98m0 10v19.98m0 10v19.98m0 10v19.97m0 10v19.98m0 10v20m0 9.98v20m0 9.98v19.98m0 10v19.98m0 10v19.98m0 10v19.97m0 10v19.98m0 10v19.98m0 10v19.98m0 10v19.98m0 10v19.98m0 10v19.98m0 10V1380m0 10v9.98" stroke="#000" stroke-width="2" fill="none"/><path d="M1459.33 81h-2v-1h2z"/><path d="M1246.33 81v1319" fill="none"/><path d="M1246.33 81v10m0 9.98v20m0 9.98v20m0 9.98v19.98m0 10v19.98m0 10v19.98m0 10v19.98m0 10v19.97m0 10v19.98m0 10v20m0 9.98v20m0 9.98v19.98m0 10v19.98m0 10v19.98m0 10v19.97m0 10v19.98m0 10v19.98m0 10v19.98m0 10v19.98m0 10v19.98m0 10v19.98m0 10v19.98m0 10v19.97m0 9.98v20m0 9.98v20m0 9.98v19.98m0 10v19.98m0 10v19.98m0 10v19.98m0 10v19.97m0 10v19.98m0 10v20m0 9.98v20m0 9.98v19.98m0 10v19.98m0 10v19.98m0 10v19.97m0 10v19.98m0 10v19.98m0 10v19.98m0 10v19.98m0 10v19.98m0 10v19.98m0 10V1380m0 10v9.98" stroke="#000" stroke-width="2" fill="none"/><path d="M1247.33 81h-2v-1h2z"/><path d="M985.33 81.5V1420" fill="none"/><path d="M985.33 81.5v9.9m0 9.93v19.83m0 9.9v19.84m0 9.92v19.83m0 9.9v19.84m0 9.9v19.84m0 9.9v19.84m0 9.92v19.83m0 9.9v19.84m0 9.92v19.8m0 9.93v19.83m0 9.9v19.84m0 9.92v19.83m0 9.9v19.84m0 9.9v19.84m0 9.9v19.84m0 9.92v19.83m0 9.9v19.84m0 9.92v19.8m0 9.93v19.83m0 9.9v19.84m0 9.92v19.83m0 9.9v19.84m0 9.9v19.84m0 9.9v19.84m0 9.92v19.83m0 9.9v19.84m0 9.92v19.8m0 9.93v19.83m0 9.9V954m0 9.92v19.83m0 9.9v19.84m0 9.9v19.84m0 9.9V1073m0 9.92v19.83m0 9.9v19.84m0 9.92v19.8m0 9.93v19.83m0 9.9v19.84m0 9.92v19.83m0 9.9v19.84m0 9.9v19.84m0 9.9v19.84m0 9.92v19.83m0 9.9v19.84m0 9.92v9.9" stroke="#000" stroke-width="2" fill="none"/><path d="M986.33 81.5h-2V80h2z"/><path d="M666.67 1420V81.5" fill="none"/><path d="M666.67 1420v-9.9m0-9.93v-19.83m0-9.9v-19.84m0-9.92v-19.83m0-9.9v-19.84m0-9.9v-19.84m0-9.9v-19.84m0-9.92v-19.83m0-9.9v-19.84m0-9.92v-19.8m0-9.93v-19.83m0-9.9v-19.84m0-9.92v-19.83m0-9.9v-19.84m0-9.9v-19.84m0-9.9V963.9m0-9.92v-19.83m0-9.9v-19.84m0-9.92v-19.8m0-9.93v-19.83m0-9.9V815.2m0-9.92v-19.83m0-9.9V755.7m0-9.9v-19.84m0-9.9V696.2m0-9.92v-19.83m0-9.9v-19.84m0-9.92V607m0-9.93v-19.83m0-9.9V547.5m0-9.92v-19.83m0-9.9V488m0-9.9v-19.84m0-9.9V428.5m0-9.92v-19.83m0-9.9v-19.84m0-9.92v-19.8m0-9.93v-19.83m0-9.9V279.8m0-9.92v-19.83m0-9.9V220.3m0-9.9v-19.84m0-9.9V160.8m0-9.92v-19.83m0-9.9v-19.84m0-9.92v-9.9" stroke="#000" stroke-width="2" fill="none"/><path d="M667.67 81.5h-2V80h2z"/><path d="M81 127c0 3.87-3.13 7-7 7s-7-3.13-7-7 3.13-7 7-7 7 3.13 7 7z" stroke="#000" stroke-width="2" fill="#fff"/><path d="M60 125c0-2.76 2.24-5 5-5h18c2.76 0 5 2.24 5 5v48c0 2.76-2.24 5-5 5H65c-2.76 0-5-2.24-5-5z" fill="none"/><path d="M74 134v15.8c0 2.76 1.16 6.92 2.58 9.28L88 178m-14-23.2L60 178m0-37h28" stroke="#000" stroke-width="2" fill="none"/><use xlink:href="#a" transform="matrix(1,0,0,1,-20,178) translate(41.12499999999999 14.6)"/><path d="M188 25c0-2.76 2.24-5 5-5h150c2.76 0 5 2.24 5 5v50c0 2.76-2.24 5-5 5H193c-2.76 0-5-2.24-5-5z" stroke="#000" stroke-width="2" fill="#fff"/><use xlink:href="#b" transform="matrix(1,0,0,1,188,20) translate(15.130000000000004 33.15)"/><path d="M248 145c0-2.76 2.24-5 5-5h30c2.76 0 5 2.24 5 5v1110c0 2.76-2.24 5-5 5h-30c-2.76 0-5-2.24-5-5z" stroke="#000" stroke-width="2" fill="#fff"/><path d="M268 80v60" fill="none"/><path d="M268 80v10m0 10v20m0 10v10M100 144.3h73.9c.1 0 .16.07.16.16 0 .08.07.15.16.15h73.9" stroke="#000" stroke-width="2" fill="none"/><path d="M248.13 144.6l-14.27 4.65v-9.27z"/><path d="M248.44 143.66L248 145v.7l-15.14 4.92V138.6zm-13.58 4.2l10.03-3.25-10.04-3.25z"/><path d="M648 1043.5c0-2.76 2.24-5 5-5h30c2.76 0 5 2.24 5 5v130c0 2.76-2.24 5-5 5h-30c-2.76 0-5-2.24-5-5z" stroke="#000" stroke-width="2" fill="#fff"/><path d="M647 1171.83H288" fill="none"/><path d="M647 1171.83h-9.97m-9.97 0H607.1m-9.96 0H577.2m-9.98 0h-19.94m-9.97 0h-19.94m-9.97 0h-19.96m-9.97 0h-19.94m-9.97 0H427.6m-9.96 0H397.7m-9.98 0h-19.94m-9.97 0h-19.94m-9.97 0h-19.96m-9.97 0H288" stroke="#000" stroke-width="2" fill="none"/><path d="M648 1172.83h-1v-2h1zM305.72 1162.5l-15.76 9.33 15.76 9.32-1 1.72L288 1173v-2.33l16.7-9.88z"/><use xlink:href="#c" transform="matrix(1,0,0,1,467.5,1146.2333333333336) translate(0 14.4)"/><use xlink:href="#d" transform="matrix(1,0,0,1,332,1146.2333333333336) translate(0 14.4)"/><use xlink:href="#e" transform="matrix(1,0,0,1,332,1146.2333333333336) translate(74.85000000000001 14.4)"/><use xlink:href="#f" transform="matrix(1,0,0,1,332,1146.2333333333336) translate(203.15000000000003 14.4)"/><path d="M648 863.5c0-2.76 2.24-5 5-5h30c2.76 0 5 2.24 5 5v110c0 2.76-2.24 5-5 5h-30c-2.76 0-5-2.24-5-5z" stroke="#000" stroke-width="2" fill="#fff"/><path d="M647.3 975.48H288" fill="none"/><path d="M647.3 975.48h-9.97m-10 0H607.4m-9.98 0h-19.96m-9.98 0H547.5m-9.98 0h-19.96m-9.98 0H487.6m-9.97 0h-19.96m-9.98 0h-19.97m-9.98 0H397.8m-10 0h-19.95m-9.98 0H337.9m-9.98 0h-19.96m-9.98 0H288" stroke="#000" stroke-width="2" fill="none"/><path d="M648.25 975.08l1.02 1.4h-1.96v-2h.86z"/><path d="M305.2 965.3L288 975.48l17.2 10.18" stroke="#000" stroke-width="2" fill="none"/><use xlink:href="#g" transform="matrix(1,0,0,1,421.15,949.876347) translate(0 14.4)"/><use xlink:href="#h" transform="matrix(1,0,0,1,421.15,949.876347) translate(64.85 14.4)"/><use xlink:href="#i" transform="matrix(1,0,0,1,421.15,949.876347) translate(84.85 14.4)"/><use xlink:href="#j" transform="matrix(1,0,0,1,421.15,949.876347) translate(127.75 14.4)"/><path d="M588.6 25c0-2.76 2.24-5 5-5h150c2.76 0 5 2.24 5 5v50c0 2.76-2.24 5-5 5h-150c-2.76 0-5-2.24-5-5z" stroke="#000" stroke-width="2" fill="#fff"/><use xlink:href="#k" transform="matrix(1,0,0,1,588.5999999999999,20) translate(5.480000000000013 33.15)"/><path d="M648.6 185c0-2.76 2.24-5 5-5h30c2.76 0 5 2.24 5 5v630c0 2.76-2.24 5-5 5h-30c-2.76 0-5-2.24-5-5z" stroke="#000" stroke-width="2" fill="#fff"/><path d="M649.1 183.44H288" stroke="#000" stroke-width="2" fill="none"/><path d="M649.1 183.44l-14.26 4.63v-9.27z"/><path d="M649.42 182.5l-.7 2.1-14.88 4.85v-12.02zm-13.58 4.2l10.03-3.26-10.03-3.26z"/><use xlink:href="#l" transform="matrix(1,0,0,1,321.10508440308865,157.83839556328647) translate(0 14.4)"/><use xlink:href="#m" transform="matrix(1,0,0,1,321.10508440308865,157.83839556328647) translate(254 14.4)"/><path d="M967 205c0-2.76 2.24-5 5-5h30c2.76 0 5 2.24 5 5v50c0 2.76-2.24 5-5 5h-30c-2.76 0-5-2.24-5-5z" stroke="#000" stroke-width="2" fill="#fff"/><path d="M688.6 204.84H966" stroke="#000" stroke-width="2" fill="none"/><path d="M966 204.84l-14.27 4.64v-9.27z"/><path d="M967.26 204.2l-.26.8v.57l-16.27 5.28v-12.02zm-14.53 3.9l10.03-3.26-10.03-3.26z"/><use xlink:href="#n" transform="matrix(1,0,0,1,789.8999999999884,179.240793) translate(0 14.4)"/><path d="M907 25c0-2.76 2.24-5 5-5h150c2.76 0 5 2.24 5 5v50c0 2.76-2.24 5-5 5H912c-2.76 0-5-2.24-5-5z" stroke="#000" stroke-width="2" fill="#fff"/><use xlink:href="#o" transform="matrix(1,0,0,1,907,20) translate(29.12999999999999 33.15)"/><path d="M966.77 257.62H827.83c-.08 0-.14-.07-.14-.15 0-.07-.08-.14-.15-.14H688.6" fill="none"/><path d="M966.77 257.62h-10.3m-10.32 0h-20.63m-10.3 0h-20.64m-10.3 0h-20.64m-10.3 0H832.7m-10.03-.3h-20.63m-10.3 0H771.1m-10.3 0h-20.63m-10.32 0h-20.62m-10.32 0h-10.3" stroke="#000" stroke-width="2" fill="none"/><path d="M968.74 258.62h-1.97v-2h.5zM706.32 248l-15.76 9.33 15.76 9.32-1 1.72-16.72-9.87v-2.33l16.7-9.88z"/><use xlink:href="#p" transform="matrix(1,0,0,1,780.7941724146713,231.7342059060854) translate(0 14.4)"/><path d="M1168 25c0-2.76 2.24-5 5-5h150c2.76 0 5 2.24 5 5v50c0 2.76-2.24 5-5 5h-150c-2.76 0-5-2.24-5-5z" stroke="#000" stroke-width="2" fill="#fff"/><use xlink:href="#q" transform="matrix(1,0,0,1,1168,20) translate(39.07999999999999 33.15)"/><path d="M1228 325c0-2.76 2.24-5 5-5h30c2.76 0 5 2.24 5 5v30c0 2.76-2.24 5-5 5h-30c-2.76 0-5-2.24-5-5z" stroke="#000" stroke-width="2" fill="#fff"/><path d="M688.6 319.33h291.73m0 0c0-2.76 2.24-5 5-5s5 2.24 5 5H1231" stroke="#000" stroke-width="2" fill="none"/><path d="M1231 319.33l-14.28 4.64v-9.27z"/><path d="M1234.22 319.33l-18.5 6.02v-12.03zm-16.5 3.26l10.03-3.27-10.03-3.26z"/><use xlink:href="#r" transform="matrix(1,0,0,1,826.9420398459641,293.73333333333335) translate(0 14.4)"/><path d="M1228.25 356.58H990.33m0 0c0-2.76-2.24-5-5-5s-5 2.24-5 5H958c-.03 0-.05.02-.05.04 0 .03-.02.05-.04.05H688.6" fill="none"/><path d="M1228.25 356.58h-9.9m-9.92 0h-19.83m-9.9 0h-19.84m-9.9 0h-19.84m-9.9 0h-19.84m-9.9 0h-19.84m-9.9 0h-19.84m-9.9 0h-19.84m-9.9 0h-9.93m0 0l-.5-1.5c-.25-.8-1-1.85-1.7-2.35l-.57-.42c-.36-.25-1-.52-1.44-.6-.43-.06-1.13 0-1.55.13l-.75.24c-.8.26-1.84 1.02-2.34 1.7l-.42.58c-.26.36-.53 1-.6 1.44-.07.43-.5.78-.93.78h-8.92m-9.72 0H958c-.03 0-.05.02-.05.04 0 .03-.02.05-.04.05h-16.4m-9.72 0h-19.45m-9.73 0h-19.45m-9.73 0h-19.46m-9.72 0h-19.46m-9.72 0H795.6m-9.73 0h-19.45m-9.73 0h-19.46m-9.73 0h-19.45m-9.72 0h-9.73" stroke="#000" stroke-width="2" fill="none"/><path d="M1228.98 357.58h-.73v-1zM706.32 347.35l-15.76 9.32 15.76 9.32-1 1.7-16.72-9.87v-2.33l16.7-9.87z"/><use xlink:href="#s" transform="matrix(1,0,0,1,762.220304928622,331.0666666666666) translate(0 14.4)"/><path d="M1560 25c0-2.76 2.24-5 5-5h182c2.76 0 5 2.24 5 5v50c0 2.76-2.24 5-5 5h-182c-2.76 0-5-2.24-5-5z" stroke="#000" stroke-width="2" fill="#fff"/><use xlink:href="#t" transform="matrix(1,0,0,1,1560,20) translate(11.755000000000019 33.15)"/><path d="M1939.4 603c0-2.76 2.24-5 5-5h30c2.76 0 5 2.24 5 5v31c0 2.76-2.24 5-5 5h-30c-2.76 0-5-2.24-5-5z" stroke="#000" stroke-width="2" fill="#fff"/><path d="M1480.8 600.62H1665m0 0c0-2.76 2.24-5 5-5s5 2.24 5 5h265.18" stroke="#000" stroke-width="2" fill="none"/><path d="M1480.8 601.62h-1v-2h1zM1940.18 600.62l-14.27 4.64V596z"/><path d="M1940.76 599.76l-.4.3-.57 1.74-14.9 4.83V594.6zm-13.85 4.12l10.04-3.26-10.03-3.26z"/><use xlink:href="#u" transform="matrix(1,0,0,1,1766.2362625421697,575.0229195154732) translate(0 14.4)"/><path d="M1939.4 633.6H1675m0 0c0-2.78-2.24-5-5-5s-5 2.22-5 5h-184.2" fill="none"/><path d="M1939.4 633.6h-9.8m-9.8 0h-19.57m-9.8 0h-19.58m-9.8 0h-19.58m-9.8 0h-19.57m-9.8 0h-19.58m-9.8 0h-19.58m-9.8 0h-19.58m-9.8 0h-19.57m-9.8 0h-9.8m0 0l-.5-1.52c-.25-.8-1-1.85-1.7-2.34l-.57-.43c-.36-.25-1-.52-1.44-.6-.45-.06-1.14 0-1.56.13l-.75.25c-.8.26-1.85 1.02-2.35 1.7l-.42.58c-.26.36-.53 1-.6 1.43-.07.43-.5.8-.93.8h-9.43m-10.24 0h-20.46m-10.24 0h-20.46m-10.24 0h-20.46m-10.24 0h-20.46m-10.24 0h-20.46m-10.24 0h-10.23" stroke="#000" stroke-width="2" fill="none"/><path d="M1939.4 634.6v-.6l.1.6zM1498.52 624.26l-15.76 9.33 15.76 9.3-1 1.73-17.72-10.47V633l17.7-10.46z"/><use xlink:href="#v" transform="matrix(1,0,0,1,1765.7489125904306,607.9851055122183) translate(0 14.4)"/><path d="M1380 25c0-2.76 2.24-5 5-5h150c2.76 0 5 2.24 5 5v50c0 2.76-2.24 5-5 5h-150c-2.76 0-5-2.24-5-5z" stroke="#000" stroke-width="2" fill="#fff"/><use xlink:href="#w" transform="matrix(1,0,0,1,1380,20) translate(11.430000000000001 33.15)"/><path d="M1439.8 541c0-2.76 2.24-5 5-5h30c2.76 0 5 2.24 5 5v252c0 2.76-2.24 5-5 5h-30c-2.76 0-5-2.24-5-5z" stroke="#000" stroke-width="2" fill="#fff"/><path d="M688.6 538.18h291.73m0 0c0-2.76 2.24-5 5-5s5 2.24 5 5h251m0 0c0-2.76 2.24-5 5-5s5 2.24 5 5h189.4" stroke="#000" stroke-width="2" fill="none"/><path d="M1440.72 538.18l-14.26 4.63v-9.26z"/><path d="M1441.62 537.42l-.86.63-.42 1.3-14.88 4.84v-12.03zm-14.16 4.02l10.03-3.26-10.04-3.26z"/><use xlink:href="#x" transform="matrix(1,0,0,1,849.6858169230636,512.5789190446751) translate(0 14.4)"/><path d="M1438.98 794.22h-187.65m0 0c0-2.76-2.24-5-5-5s-5 2.24-5 5h-251m0 0c0-2.76-2.24-5-5-5s-5 2.24-5 5H688.6" fill="none"/><path d="M1438.98 794.22h-10.42m-10.43 0h-20.85m-10.42 0H1366m-10.42 0h-20.85m-10.42 0h-20.84m-10.43 0h-20.85m-10.42 0h-10.43m0 0l-.5-1.5c-.25-.8-1-1.86-1.7-2.35l-.57-.43c-.36-.26-1-.52-1.44-.6-.43-.07-1.13 0-1.55.13l-.75.24c-.8.27-1.84 1.03-2.34 1.7l-.42.6c-.26.35-.53 1-.6 1.43-.07.43-.5.8-.93.8h-9.65m-10.46 0h-20.92m-10.46 0h-20.9m-10.47 0h-20.92m-10.46 0h-20.92m-10.46 0H1074m-10.46 0h-20.9m-10.47 0h-20.92m-10.46 0h-10.47m0 0l-.5-1.52c-.25-.8-1-1.84-1.7-2.33l-.57-.43c-.36-.26-1-.52-1.44-.6-.43-.07-1.13 0-1.55.13l-.75.24c-.8.27-1.84 1.03-2.34 1.7l-.42.6c-.26.35-.53 1-.6 1.43-.07.43-.5.8-.93.8h-8.92m-9.72 0h-19.44m-9.73 0h-19.44m-9.72 0H883.1m-9.74 0h-19.44m-9.73 0h-19.46m-9.72 0h-19.45m-9.73 0H766.4m-9.73 0h-19.45m-9.72 0h-19.45m-9.73 0h-9.72" stroke="#000" stroke-width="2" fill="none"/><path d="M1440.05 794.58l.47.64h-1.54v-2h.86zM706.32 784.9l-15.76 9.32 15.76 9.32-1 1.72-16.72-9.88v-2.32l16.7-9.88z"/><use xlink:href="#y" transform="matrix(1,0,0,1,886.818119978019,768.6177097944109) translate(0 14.4)"/><path d="M647.9 816.98H468.1c-.08 0-.15-.07-.15-.16 0-.08-.07-.15-.15-.15H288" fill="none"/><path d="M647.9 816.98h-10m-10 0h-20.02m-10 0h-20.02m-10 0h-20m-10.02 0h-20m-10.02 0h-20m-10.02 0h-9.7c-.08 0-.15-.07-.15-.16 0-.08-.07-.15-.15-.15h-9.7m-10 0h-20.02m-10 0h-20m-10.02 0h-20m-10.02 0h-20m-10.02 0h-20m-10 0H288" stroke="#000" stroke-width="2" fill="none"/><path d="M648.85 816.58l1.02 1.4h-1.96v-2h.86zM305.72 807.35l-15.76 9.32 15.76 9.32-1 1.7-16.72-9.87v-2.33l16.7-9.87z"/><use xlink:href="#y" transform="matrix(1,0,0,1,441.041205319425,791.0689982783967) translate(0 14.4)"/><path d="M1651.4 724c0-2.76 2.24-5 5-5h30c2.76 0 5 2.24 5 5v29c0 2.76-2.24 5-5 5h-30c-2.76 0-5-2.24-5-5z" stroke="#000" stroke-width="2" fill="#fff"/><path d="M1480.8 721.37h85.2v-.02l.03-.02h85.2" stroke="#000" stroke-width="2" fill="none"/><path d="M1480.8 722.37h-1v-2h1zM1651.22 721.33l-14.27 4.64v-9.27z"/><path d="M1652.74 720.78l-.38.27-.35 1.08-16.05 5.22v-12.03zm-14.8 3.8l10.04-3.25-10.03-3.26z"/><use xlink:href="#z" transform="matrix(1,0,0,1,1509.1836768097987,695.7334194771648) translate(0 14.4)"/><path d="M1651.4 752.98h-170.6" fill="none"/><path d="M1651.4 752.98h-9.48m-9.48 0h-18.95m-9.5 0h-18.94m-9.48 0h-18.96m-9.48 0h-18.95m-9.5 0h-18.94m-9.48 0h-9.48" stroke="#000" stroke-width="2" fill="none"/><path d="M1651.4 753.98V753l.16.98zM1498.52 743.66l-15.76 9.32 15.76 9.32-1 1.72-17.72-10.47v-1.14l17.7-10.47z"/><use xlink:href="#A" transform="matrix(1,0,0,1,1530.6999999999998,727.3763470000001) translate(0 14.4)"/><path d="M320 285c0-2.76 2.24-5 5-5h90c2.76 0 5 2.24 5 5v10c0 2.76-1.58 6.58-3.54 8.54l-2.92 2.92c-1.96 1.96-5.78 3.54-8.54 3.54h-80c-2.76 0-5-2.24-5-5z" fill="#fff"/><path d="M320 285c0-2.76 2.24-5 5-5h1750c2.76 0 5 2.24 5 5v1170c0 2.76-2.24 5-5 5H325c-2.76 0-5-2.24-5-5z" stroke="#000" stroke-width="2" fill="none"/><path d="M420 280v20l-10 10h-90" stroke="#000" stroke-width="2" fill="#fff"/><path d="M320 838.1h20m15 0h20m15 0h20m15 0h20m15 0h20m15 0h20m15 0h20m15 0h20m15 0h20m15 0h20m15 0h20m15 0h20m15 0h20m15 0h20m15 0h20m15 0h20m15 0h20m15 0h20m15 0h20m15 0h20m15 0h20m15 0h20m15 0h20m15 0h20m15 0h20m15 0h20m15 0h20m15 0h20m15 0h20m15 0h20m15 0h20m15 0h20m15 0h20m15 0h20m15 0h20m15 0h20m15 0h20m15 0h20m15 0h20m15 0h20m15 0h20m15 0h20m15 0h20m15 0h20m15 0h20m15 0h20m15 0h20m15 0h20m15 0h20m15 0h20m15 0h10" stroke="#000" stroke-width="2" fill="none"/><use xlink:href="#B" transform="matrix(1,0,0,1,328,280) translate(0 18.6)"/><use xlink:href="#C" transform="matrix(1,0,0,1,332,318) translate(0 18.6)"/><use xlink:href="#D" transform="matrix(1,0,0,1,332,318) translate(103.8 18.6)"/><use xlink:href="#E" transform="matrix(1,0,0,1,332,318) translate(190.75 18.6)"/><use xlink:href="#F" transform="matrix(1,0,0,1,332,846.1081081081081) translate(0 18.6)"/><path d="M1099.4 564c0-2.76 2.24-5 5-5h90c2.76 0 5 2.24 5 5v10c0 2.76-1.58 6.58-3.54 8.54l-2.92 2.92c-1.96 1.96-5.78 3.54-8.54 3.54h-80c-2.76 0-5-2.24-5-5z" fill="#fff"/><path d="M1099.4 564c0-2.76 2.24-5 5-5h930c2.76 0 5 2.24 5 5v209c0 2.76-2.24 5-5 5h-930c-2.76 0-5-2.24-5-5z" stroke="#000" stroke-width="2" fill="none"/><path d="M1199.4 559v20l-10 10h-90" stroke="#000" stroke-width="2" fill="#fff"/><use xlink:href="#G" transform="matrix(1,0,0,1,1107.4,559) translate(0 18.6)"/><use xlink:href="#H" transform="matrix(1,0,0,1,1111.4,597) translate(0 18.6)"/><use xlink:href="#I" transform="matrix(1,0,0,1,1111.4,597) translate(90.9 18.6)"/><use xlink:href="#J" transform="matrix(1,0,0,1,1111.4,597) translate(109.85000000000001 18.6)"/><path d="M399 843.5c0-2.76 2.24-5 5-5h90c2.76 0 5 2.24 5 5v10c0 2.76-1.58 6.58-3.54 8.54l-2.92 2.92c-1.96 1.96-5.78 3.54-8.54 3.54h-80c-2.76 0-5-2.24-5-5z" fill="#fff"/><path d="M399 843.5c0-2.76 2.24-5 5-5h370c2.76 0 5 2.24 5 5v350c0 2.76-2.24 5-5 5H404c-2.76 0-5-2.24-5-5z" stroke="#000" stroke-width="2" fill="none"/><path d="M499 838.5v20l-10 10h-90" stroke="#000" stroke-width="2" fill="#fff"/><path d="M399 1004.3h20m15 0h20m15 0h20m15 0h20m15 0h20m15 0h20m15 0h20m15 0h20m15 0h20m15 0h20m15 0h20" stroke="#000" stroke-width="2" fill="none"/><use xlink:href="#B" transform="matrix(1,0,0,1,407,838.5) translate(0 18.6)"/><use xlink:href="#K" transform="matrix(1,0,0,1,411,876.5) translate(0 18.6)"/><use xlink:href="#L" transform="matrix(1,0,0,1,411,876.5) translate(110.85000000000001 18.6)"/><use xlink:href="#M" transform="matrix(1,0,0,1,411,876.5) translate(128.8 18.6)"/><use xlink:href="#F" transform="matrix(1,0,0,1,411,1012.2894736842105) translate(0 18.6)"/><path d="M1807.2 37c0-2.76 2.24-5 5-5h150c2.76 0 5 2.24 5 5v50c0 2.76-2.24 5-5 5h-150c-2.76 0-5-2.24-5-5z" stroke="#000" stroke-width="2" fill="#fff"/><use xlink:href="#N" transform="matrix(1,0,0,1,1807.1999999999998,32) translate(41.07999999999999 33.15)"/><path d="M1800 25c0-2.76 2.24-5 5-5h310c2.76 0 5 2.24 5 5v62c0 2.76-2.24 5-5 5h-310c-2.76 0-5-2.24-5-5z" stroke="#000" stroke-width="2" fill="#fff"/><use xlink:href="#O" transform="matrix(1,0,0,1,1800,20) translate(23.080000000000048 39.15)"/><path d="M1939.4 664c0-2.76 2.24-5 5-5h30c2.76 0 5 2.24 5 5v31c0 2.76-2.24 5-5 5h-30c-2.76 0-5-2.24-5-5z" stroke="#000" stroke-width="2" fill="#fff"/><path d="M1479.4 661.62H1665m0 0c0-2.76 2.24-5 5-5s5 2.24 5 5h265.18" stroke="#000" stroke-width="2" fill="none"/><path d="M1940.18 661.62l-14.27 4.64V657z"/><path d="M1940.76 660.76l-.4.3-.57 1.74-14.9 4.83V655.6zm-13.85 4.12l10.04-3.26-10.03-3.26z"/><use xlink:href="#P" transform="matrix(1,0,0,1,1755.8780350647253,636.0229195154732) translate(0 14.4)"/><path d="M1938.4 694.6H1675m0 0c0-2.78-2.24-5-5-5s-5 2.22-5 5h-185.6" fill="none"/><path d="M1938.4 694.6h-9.76m-9.75 0h-19.52m-9.76 0h-19.5m-9.76 0h-19.52m-9.75 0h-19.52m-9.76 0h-19.5m-9.76 0h-19.52m-9.75 0h-19.52m-9.76 0h-19.5m-9.76 0H1675m0 0l-.5-1.52c-.25-.8-1-1.85-1.7-2.34l-.57-.43c-.36-.25-1-.52-1.44-.6-.45-.06-1.14 0-1.56.13l-.75.25c-.8.26-1.85 1.02-2.35 1.7l-.42.58c-.26.36-.53 1-.6 1.43-.07.43-.5.8-.93.8h-9.5m-10.32 0h-20.62m-10.32 0h-20.62m-10.3 0h-20.63m-10.32 0h-20.62m-10.32 0h-20.62m-10.3 0h-10.32" stroke="#000" stroke-width="2" fill="none"/><path d="M1939.4 695l.1.6h-1.1v-2h1z"/><path d="M1496.6 684.4l-17.2 10.2 17.2 10.17" stroke="#000" stroke-width="2" fill="none"/><use xlink:href="#Q" transform="matrix(1,0,0,1,1778.4036499970994,668.9851055122183) translate(0 14.4)"/><path d="M1228 425c0-2.76 2.24-5 5-5h30c2.76 0 5 2.24 5 5v30c0 2.76-2.24 5-5 5h-30c-2.76 0-5-2.24-5-5z" stroke="#000" stroke-width="2" fill="#fff"/><path d="M688.6 456.15h291.73m0 0c0-2.76 2.24-5 5-5s5 2.24 5 5h236.84" fill="none"/><path d="M688.6 456.15h9.72m9.73 0h19.45m9.72 0h19.45m9.73 0h19.44m9.73 0h19.45m9.72 0h19.45m9.72 0h19.44m9.73 0h19.44m9.72 0h19.45m9.74 0h19.43m9.73 0h9.73m0 0l.5-1.5c.26-.8 1.02-1.85 1.7-2.34l.58-.42c.36-.26 1-.53 1.44-.6.44-.07 1.13 0 1.55.12l.74.25c.8.26 1.85 1.02 2.34 1.7l.43.58c.27.35.54 1 .6 1.43.08.44.5.8.93.8h9.07m9.87 0h19.74m9.87 0h19.74m9.88 0h19.74m9.86 0h19.74m9.87 0h19.73m9.86 0h19.73m9.87 0h19.74m9.86 0h9.87" stroke="#000" stroke-width="2" fill="none"/><path d="M706.32 446.83l-15.76 9.32 15.76 9.32-1 1.73-16.72-9.88V455l16.7-9.9zM1228.25 456.58l.42.57h-1.5v-2h.85z"/><use xlink:href="#R" transform="matrix(1,0,0,1,765.320352798288,430.5545778798985) translate(0 14.4)"/><path d="M380 385c0-2.76 2.24-5 5-5h90c2.76 0 5 2.24 5 5v10c0 2.76-1.58 6.58-3.54 8.54l-2.92 2.92c-1.96 1.96-5.78 3.54-8.54 3.54h-80c-2.76 0-5-2.24-5-5z" fill="#fff"/><path d="M380 385c0-2.76 2.24-5 5-5h1610c2.76 0 5 2.24 5 5v90c0 2.76-2.24 5-5 5H385c-2.76 0-5-2.24-5-5z" stroke="#000" stroke-width="2" fill="none"/><path d="M480 380v20l-10 10h-90" stroke="#000" stroke-width="2" fill="#fff"/><g><use xlink:href="#G" transform="matrix(1,0,0,1,388,380) translate(0 18.6)"/></g><g><use xlink:href="#S" transform="matrix(1,0,0,1,392,418) translate(0 18.6)"/><use xlink:href="#I" transform="matrix(1,0,0,1,392,418) translate(90.75 18.6)"/><use xlink:href="#T" transform="matrix(1,0,0,1,392,418) translate(109.7 18.6)"/></g><path d="M688.6 424.1h269.64c.1 0 .16.07.16.15 0 .1.07.16.15.16h21.78m0 0c0-2.75 2.24-5 5-5s5 2.25 5 5h237.86" stroke="#000" stroke-width="2" fill="none"/><path d="M1228.2 424.4l-14.27 4.64v-9.27z"/><path d="M1228.5 423.46l-.5 1.54v.52l-15.07 4.9V418.4zm-13.57 4.2l10.03-3.25-10.03-3.25z"/><g><use xlink:href="#U" transform="matrix(1,0,0,1,804.5243964496348,398.4990516129409) translate(0 14.4)"/><use xlink:href="#V" transform="matrix(1,0,0,1,804.5243964496348,398.4990516129409) translate(177.10000000000002 14.4)"/><use xlink:href="#W" transform="matrix(1,0,0,1,804.5243964496348,398.4990516129409) translate(221.05 14.4)"/></g><path d="M268 1260v120" fill="none"/><path d="M268 1260v10m0 10v20m0 10v20m0 10v20m0 10v10" stroke="#000" stroke-width="2" fill="none"/><defs><path d="M205 0l-28-72H64L36 0H1l101-248h38L239 0h-34zm-38-99l-47-123c-12 45-31 82-46 123h93" id="X"/><path d="M85-194c31 0 48 13 60 33l-1-100h32l1 261h-30c-2-10 0-23-3-31C134-8 116 4 85 4 32 4 16-35 15-94c0-66 23-100 70-100zm9 24c-40 0-46 34-46 75 0 40 6 74 45 74 42 0 51-32 51-76 0-42-9-74-50-73" id="Y"/><path d="M210-169c-67 3-38 105-44 169h-31v-121c0-29-5-50-35-48C34-165 62-65 56 0H25l-1-190h30c1 10-1 24 2 32 10-44 99-50 107 0 11-21 27-35 58-36 85-2 47 119 55 194h-31v-121c0-29-5-49-35-48" id="Z"/><path d="M24-231v-30h32v30H24zM24 0v-190h32V0H24" id="aa"/><path d="M117-194c89-4 53 116 60 194h-32v-121c0-31-8-49-39-48C34-167 62-67 57 0H25l-1-190h30c1 10-1 24 2 32 11-22 29-35 61-36" id="ab"/><path d="M135-143c-3-34-86-38-87 0 15 53 115 12 119 90S17 21 10-45l28-5c4 36 97 45 98 0-10-56-113-15-118-90-4-57 82-63 122-42 12 7 21 19 24 35" id="ac"/><path d="M59-47c-2 24 18 29 38 22v24C64 9 27 4 27-40v-127H5v-23h24l9-43h21v43h35v23H59v120" id="ad"/><path d="M114-163C36-179 61-72 57 0H25l-1-190h30c1 12-1 29 2 39 6-27 23-49 58-41v29" id="ae"/><path d="M141-36C126-15 110 5 73 4 37 3 15-17 15-53c-1-64 63-63 125-63 3-35-9-54-41-54-24 1-41 7-42 31l-33-3c5-37 33-52 76-52 45 0 72 20 72 64v82c-1 20 7 32 28 27v20c-31 9-61-2-59-35zM48-53c0 20 12 33 32 33 41-3 63-29 60-74-43 2-92-5-92 41" id="af"/><path d="M100-194c62-1 85 37 85 99 1 63-27 99-86 99S16-35 15-95c0-66 28-99 85-99zM99-20c44 1 53-31 53-75 0-43-8-75-51-75s-53 32-53 75 10 74 51 75" id="ag"/><g id="a"><use transform="matrix(0.05,0,0,0.05,0,0)" xlink:href="#X"/><use transform="matrix(0.05,0,0,0.05,12,0)" xlink:href="#Y"/><use transform="matrix(0.05,0,0,0.05,22,0)" xlink:href="#Z"/><use transform="matrix(0.05,0,0,0.05,36.95,0)" xlink:href="#aa"/><use transform="matrix(0.05,0,0,0.05,40.900000000000006,0)" xlink:href="#ab"/><use transform="matrix(0.05,0,0,0.05,50.900000000000006,0)" xlink:href="#aa"/><use transform="matrix(0.05,0,0,0.05,54.85,0)" xlink:href="#ac"/><use transform="matrix(0.05,0,0,0.05,63.85,0)" xlink:href="#ad"/><use transform="matrix(0.05,0,0,0.05,68.85000000000001,0)" xlink:href="#ae"/><use transform="matrix(0.05,0,0,0.05,74.80000000000001,0)" xlink:href="#af"/><use transform="matrix(0.05,0,0,0.05,84.80000000000001,0)" xlink:href="#ad"/><use transform="matrix(0.05,0,0,0.05,89.80000000000001,0)" xlink:href="#ag"/><use transform="matrix(0.05,0,0,0.05,99.80000000000001,0)" xlink:href="#ae"/></g><path d="M33-154v-36h34v36H33zM33 0v-36h34V0H33" id="ah"/><path d="M127-220V0H93v-220H8v-28h204v28h-85" id="ai"/><path d="M100-194c63 0 86 42 84 106H49c0 40 14 67 53 68 26 1 43-12 49-29l28 8c-11 28-37 45-77 45C44 4 14-33 15-96c1-61 26-98 85-98zm52 81c6-60-76-77-97-28-3 7-6 17-6 28h103" id="aj"/><path d="M185-189c-5-48-123-54-124 2 14 75 158 14 163 119 3 78-121 87-175 55-17-10-28-26-33-46l33-7c5 56 141 63 141-1 0-78-155-14-162-118-5-82 145-84 179-34 5 7 8 16 11 25" id="ak"/><path d="M106-169C34-169 62-67 57 0H25v-261h32l-1 103c12-21 28-36 61-36 89 0 53 116 60 194h-32v-121c2-32-8-49-39-48" id="al"/><path d="M137 0h-34L2-248h35l83 218 83-218h36" id="am"/><path d="M206 0h-36l-40-164L89 0H53L-1-190h32L70-26l43-164h34l41 164 42-164h31" id="an"/><g id="b"><use transform="matrix(0.05,0,0,0.05,0,0)" xlink:href="#ah"/><use transform="matrix(0.05,0,0,0.05,5,0)" xlink:href="#ai"/><use transform="matrix(0.05,0,0,0.05,15.3,0)" xlink:href="#aa"/><use transform="matrix(0.05,0,0,0.05,19.25,0)" xlink:href="#Z"/><use transform="matrix(0.05,0,0,0.05,34.2,0)" xlink:href="#aj"/><use transform="matrix(0.05,0,0,0.05,44.2,0)" xlink:href="#ak"/><use transform="matrix(0.05,0,0,0.05,56.2,0)" xlink:href="#al"/><use transform="matrix(0.05,0,0,0.05,66.2,0)" xlink:href="#aj"/><use transform="matrix(0.05,0,0,0.05,76.2,0)" xlink:href="#aj"/><use transform="matrix(0.05,0,0,0.05,86.2,0)" xlink:href="#ad"/><use transform="matrix(0.05,0,0,0.05,91.2,0)" xlink:href="#am"/><use transform="matrix(0.05,0,0,0.05,102.85000000000001,0)" xlink:href="#aa"/><use transform="matrix(0.05,0,0,0.05,106.80000000000001,0)" xlink:href="#aj"/><use transform="matrix(0.05,0,0,0.05,116.80000000000001,0)" xlink:href="#an"/><path d="M-.9 1.25h131.55v1.32H-.9z"/></g><path d="M30 0v-248h187v28H63v79h144v27H63v87h162V0H30" id="ao"/><path d="M233-177c-1 41-23 64-60 70L243 0h-38l-65-103H63V0H30v-248c88 3 205-21 203 71zM63-129c60-2 137 13 137-47 0-61-80-42-137-45v92" id="ap"/><path d="M140-251c81 0 123 46 123 126C263-46 219 4 140 4 59 4 17-45 17-125s42-126 123-126zm0 227c63 0 89-41 89-101s-29-99-89-99c-61 0-89 39-89 99S79-25 140-24" id="aq"/><g id="d"><use transform="matrix(0.05,0,0,0.05,0,0)" xlink:href="#ao"/><use transform="matrix(0.05,0,0,0.05,12,0)" xlink:href="#ap"/><use transform="matrix(0.05,0,0,0.05,24.950000000000003,0)" xlink:href="#ap"/><use transform="matrix(0.05,0,0,0.05,37.900000000000006,0)" xlink:href="#aq"/><use transform="matrix(0.05,0,0,0.05,51.900000000000006,0)" xlink:href="#ap"/><use transform="matrix(0.05,0,0,0.05,64.85000000000001,0)" xlink:href="#ah"/></g><path d="M33 0v-248h34V0H33" id="ar"/><path d="M190 0L58-211 59 0H30v-248h39L202-35l-2-213h31V0h-41" id="as"/><path d="M232-93c-1 65-40 97-104 97C67 4 28-28 28-90v-158h33c8 89-33 224 67 224 102 0 64-133 71-224h33v155" id="at"/><path d="M63-220v92h138v28H63V0H30v-248h175v28H63" id="au"/><path d="M212-179c-10-28-35-45-73-45-59 0-87 40-87 99 0 60 29 101 89 101 43 0 62-24 78-52l27 14C228-24 195 4 139 4 59 4 22-46 18-125c-6-104 99-153 187-111 19 9 31 26 39 46" id="av"/><g id="e"><use transform="matrix(0.05,0,0,0.05,0,0)" xlink:href="#ar"/><use transform="matrix(0.05,0,0,0.05,5,0)" xlink:href="#as"/><use transform="matrix(0.05,0,0,0.05,17.950000000000003,0)" xlink:href="#ak"/><use transform="matrix(0.05,0,0,0.05,29.950000000000003,0)" xlink:href="#at"/><use transform="matrix(0.05,0,0,0.05,42.900000000000006,0)" xlink:href="#au"/><use transform="matrix(0.05,0,0,0.05,53.85,0)" xlink:href="#au"/><use transform="matrix(0.05,0,0,0.05,64.80000000000001,0)" xlink:href="#ar"/><use transform="matrix(0.05,0,0,0.05,69.80000000000001,0)" xlink:href="#av"/><use transform="matrix(0.05,0,0,0.05,82.75000000000001,0)" xlink:href="#ar"/><use transform="matrix(0.05,0,0,0.05,87.75000000000001,0)" xlink:href="#ao"/><use transform="matrix(0.05,0,0,0.05,99.75000000000001,0)" xlink:href="#as"/><use transform="matrix(0.05,0,0,0.05,112.7,0)" xlink:href="#ai"/></g><path d="M143 4C61 4 22-44 18-125c-5-107 100-154 193-111 17 8 29 25 37 43l-32 9c-13-25-37-40-76-40-61 0-88 39-88 99 0 61 29 100 91 101 35 0 62-11 79-27v-45h-74v-28h105v86C228-13 192 4 143 4" id="aw"/><path d="M197 0v-115H63V0H30v-248h33v105h134v-105h34V0h-34" id="ax"/><g id="f"><use transform="matrix(0.05,0,0,0.05,0,0)" xlink:href="#ap"/><use transform="matrix(0.05,0,0,0.05,12.950000000000001,0)" xlink:href="#ar"/><use transform="matrix(0.05,0,0,0.05,17.950000000000003,0)" xlink:href="#aw"/><use transform="matrix(0.05,0,0,0.05,31.950000000000003,0)" xlink:href="#ax"/><use transform="matrix(0.05,0,0,0.05,44.900000000000006,0)" xlink:href="#ai"/><use transform="matrix(0.05,0,0,0.05,55.85,0)" xlink:href="#ak"/></g><path d="M96-169c-40 0-48 33-48 73s9 75 48 75c24 0 41-14 43-38l32 2c-6 37-31 61-74 61-59 0-76-41-82-99-10-93 101-131 147-64 4 7 5 14 7 22l-32 3c-4-21-16-35-41-35" id="ay"/><g id="g"><use transform="matrix(0.05,0,0,0.05,0,0)" xlink:href="#ae"/><use transform="matrix(0.05,0,0,0.05,5.95,0)" xlink:href="#aj"/><use transform="matrix(0.05,0,0,0.05,15.949999999999998,0)" xlink:href="#Y"/><use transform="matrix(0.05,0,0,0.05,25.950000000000003,0)" xlink:href="#aa"/><use transform="matrix(0.05,0,0,0.05,29.899999999999995,0)" xlink:href="#ae"/><use transform="matrix(0.05,0,0,0.05,35.85,0)" xlink:href="#aj"/><use transform="matrix(0.05,0,0,0.05,45.85,0)" xlink:href="#ay"/><use transform="matrix(0.05,0,0,0.05,54.85,0)" xlink:href="#ad"/></g><g id="h"><use transform="matrix(0.05,0,0,0.05,0,0)" xlink:href="#ad"/><use transform="matrix(0.05,0,0,0.05,5,0)" xlink:href="#ag"/></g><path d="M24 0v-261h32V0H24" id="az"/><path d="M177-190C167-65 218 103 67 71c-23-6-38-20-44-43l32-5c15 47 100 32 89-28v-30C133-14 115 1 83 1 29 1 15-40 15-95c0-56 16-97 71-98 29-1 48 16 59 35 1-10 0-23 2-32h30zM94-22c36 0 50-32 50-73 0-42-14-75-50-75-39 0-46 34-46 75s6 73 46 73" id="aA"/><g id="i"><use transform="matrix(0.05,0,0,0.05,0,0)" xlink:href="#az"/><use transform="matrix(0.05,0,0,0.05,3.95,0)" xlink:href="#ag"/><use transform="matrix(0.05,0,0,0.05,13.949999999999998,0)" xlink:href="#aA"/><use transform="matrix(0.05,0,0,0.05,23.95,0)" xlink:href="#aa"/><use transform="matrix(0.05,0,0,0.05,27.899999999999995,0)" xlink:href="#ab"/></g><g id="j"><use transform="matrix(0.05,0,0,0.05,0,0)" xlink:href="#ac"/><use transform="matrix(0.05,0,0,0.05,9,0)" xlink:href="#ay"/><use transform="matrix(0.05,0,0,0.05,18,0)" xlink:href="#ae"/><use transform="matrix(0.05,0,0,0.05,23.95,0)" xlink:href="#aj"/><use transform="matrix(0.05,0,0,0.05,33.95,0)" xlink:href="#aj"/><use transform="matrix(0.05,0,0,0.05,43.95,0)" xlink:href="#ab"/></g><g id="k"><use transform="matrix(0.05,0,0,0.05,0,0)" xlink:href="#ah"/><use transform="matrix(0.05,0,0,0.05,5,0)" xlink:href="#ai"/><use transform="matrix(0.05,0,0,0.05,15.3,0)" xlink:href="#aa"/><use transform="matrix(0.05,0,0,0.05,19.25,0)" xlink:href="#Z"/><use transform="matrix(0.05,0,0,0.05,34.2,0)" xlink:href="#aj"/><use transform="matrix(0.05,0,0,0.05,44.2,0)" xlink:href="#ak"/><use transform="matrix(0.05,0,0,0.05,56.2,0)" xlink:href="#al"/><use transform="matrix(0.05,0,0,0.05,66.2,0)" xlink:href="#aj"/><use transform="matrix(0.05,0,0,0.05,76.2,0)" xlink:href="#aj"/><use transform="matrix(0.05,0,0,0.05,86.2,0)" xlink:href="#ad"/><use transform="matrix(0.05,0,0,0.05,91.2,0)" xlink:href="#av"/><use transform="matrix(0.05,0,0,0.05,104.15,0)" xlink:href="#ag"/><use transform="matrix(0.05,0,0,0.05,114.15,0)" xlink:href="#ab"/><use transform="matrix(0.05,0,0,0.05,124.15,0)" xlink:href="#ad"/><use transform="matrix(0.05,0,0,0.05,129.15,0)" xlink:href="#ae"/><use transform="matrix(0.05,0,0,0.05,135.1,0)" xlink:href="#ag"/><use transform="matrix(0.05,0,0,0.05,145.1,0)" xlink:href="#az"/><path d="M-.9 1.25h150.85v1.32H-.9z"/></g><path d="M115-194c55 1 70 41 70 98S169 2 115 4C84 4 66-9 55-30l1 105H24l-1-265h31l2 30c10-21 28-34 59-34zm-8 174c40 0 45-34 45-75s-6-73-45-74c-42 0-51 32-51 76 0 43 10 73 51 73" id="aB"/><path d="M30 0v-248h33v221h125V0H30" id="aC"/><path d="M143 0L79-87 56-68V0H24v-261h32v163l83-92h37l-77 82L181 0h-38" id="aD"/><path d="M87 75C49 33 22-17 22-94c0-76 28-126 65-167h31c-38 41-64 92-64 168S80 34 118 75H87" id="aE"/><path d="M68-38c1 34 0 65-14 84H32c9-13 17-26 17-46H33v-38h35" id="aF"/><g id="l"><use transform="matrix(0.05,0,0,0.05,0,0)" xlink:href="#aB"/><use transform="matrix(0.05,0,0,0.05,10,0)" xlink:href="#ae"/><use transform="matrix(0.05,0,0,0.05,15.949999999999998,0)" xlink:href="#aa"/><use transform="matrix(0.05,0,0,0.05,19.9,0)" xlink:href="#ab"/><use transform="matrix(0.05,0,0,0.05,29.899999999999995,0)" xlink:href="#ad"/><use transform="matrix(0.05,0,0,0.05,34.9,0)" xlink:href="#aC"/><use transform="matrix(0.05,0,0,0.05,44.9,0)" xlink:href="#ag"/><use transform="matrix(0.05,0,0,0.05,54.900000000000006,0)" xlink:href="#ay"/><use transform="matrix(0.05,0,0,0.05,63.900000000000006,0)" xlink:href="#aD"/><use transform="matrix(0.05,0,0,0.05,72.9,0)" xlink:href="#aj"/><use transform="matrix(0.05,0,0,0.05,82.9,0)" xlink:href="#Y"/><use transform="matrix(0.05,0,0,0.05,92.9,0)" xlink:href="#ai"/><use transform="matrix(0.05,0,0,0.05,103.2,0)" xlink:href="#aa"/><use transform="matrix(0.05,0,0,0.05,107.15,0)" xlink:href="#Z"/><use transform="matrix(0.05,0,0,0.05,122.10000000000001,0)" xlink:href="#aj"/><use transform="matrix(0.05,0,0,0.05,132.10000000000002,0)" xlink:href="#ak"/><use transform="matrix(0.05,0,0,0.05,144.10000000000002,0)" xlink:href="#al"/><use transform="matrix(0.05,0,0,0.05,154.10000000000002,0)" xlink:href="#aj"/><use transform="matrix(0.05,0,0,0.05,164.10000000000002,0)" xlink:href="#aj"/><use transform="matrix(0.05,0,0,0.05,174.10000000000002,0)" xlink:href="#ad"/><use transform="matrix(0.05,0,0,0.05,179.10000000000002,0)" xlink:href="#ac"/><use transform="matrix(0.05,0,0,0.05,188.10000000000002,0)" xlink:href="#aE"/><use transform="matrix(0.05,0,0,0.05,194.05,0)" xlink:href="#Z"/><use transform="matrix(0.05,0,0,0.05,209,0)" xlink:href="#ag"/><use transform="matrix(0.05,0,0,0.05,219,0)" xlink:href="#ab"/><use transform="matrix(0.05,0,0,0.05,229,0)" xlink:href="#ad"/><use transform="matrix(0.05,0,0,0.05,234,0)" xlink:href="#al"/><use transform="matrix(0.05,0,0,0.05,244,0)" xlink:href="#aF"/></g><path d="M179-190L93 31C79 59 56 82 12 73V49c39 6 53-20 64-50L1-190h34L92-34l54-156h33" id="aG"/><path d="M33-261c38 41 65 92 65 168S71 34 33 75H2C39 34 66-17 66-93S39-220 2-261h31" id="aH"/><g id="m"><use transform="matrix(0.05,0,0,0.05,0,0)" xlink:href="#aG"/><use transform="matrix(0.05,0,0,0.05,9,0)" xlink:href="#aj"/><use transform="matrix(0.05,0,0,0.05,19,0)" xlink:href="#af"/><use transform="matrix(0.05,0,0,0.05,29,0)" xlink:href="#ae"/><use transform="matrix(0.05,0,0,0.05,34.95,0)" xlink:href="#aH"/></g><g id="n"><use transform="matrix(0.05,0,0,0.05,0,0)" xlink:href="#aA"/><use transform="matrix(0.05,0,0,0.05,10,0)" xlink:href="#aj"/><use transform="matrix(0.05,0,0,0.05,20,0)" xlink:href="#ad"/><use transform="matrix(0.05,0,0,0.05,25,0)" xlink:href="#at"/><use transform="matrix(0.05,0,0,0.05,37.95,0)" xlink:href="#ac"/><use transform="matrix(0.05,0,0,0.05,46.95,0)" xlink:href="#aj"/><use transform="matrix(0.05,0,0,0.05,56.95,0)" xlink:href="#ae"/><use transform="matrix(0.05,0,0,0.05,62.900000000000006,0)" xlink:href="#aE"/><use transform="matrix(0.05,0,0,0.05,68.85000000000001,0)" xlink:href="#aH"/></g><path d="M240 0l2-218c-23 76-54 145-80 218h-23L58-218 59 0H30v-248h44l77 211c21-75 51-140 76-211h43V0h-30" id="aI"/><g id="o"><use transform="matrix(0.05,0,0,0.05,0,0)" xlink:href="#ah"/><use transform="matrix(0.05,0,0,0.05,5,0)" xlink:href="#aI"/><use transform="matrix(0.05,0,0,0.05,19.950000000000003,0)" xlink:href="#af"/><use transform="matrix(0.05,0,0,0.05,29.950000000000003,0)" xlink:href="#aa"/><use transform="matrix(0.05,0,0,0.05,33.900000000000006,0)" xlink:href="#ab"/><use transform="matrix(0.05,0,0,0.05,43.900000000000006,0)" xlink:href="#av"/><use transform="matrix(0.05,0,0,0.05,56.85,0)" xlink:href="#ag"/><use transform="matrix(0.05,0,0,0.05,66.85000000000001,0)" xlink:href="#ab"/><use transform="matrix(0.05,0,0,0.05,76.85000000000001,0)" xlink:href="#ad"/><use transform="matrix(0.05,0,0,0.05,81.85000000000001,0)" xlink:href="#ae"/><use transform="matrix(0.05,0,0,0.05,87.80000000000001,0)" xlink:href="#ag"/><use transform="matrix(0.05,0,0,0.05,97.80000000000001,0)" xlink:href="#az"/><path d="M-.9 1.25h103.55v1.32H-.9z"/></g><path d="M84 4C-5 8 30-112 23-190h32v120c0 31 7 50 39 49 72-2 45-101 50-169h31l1 190h-30c-1-10 1-25-2-33-11 22-28 36-60 37" id="aJ"/><g id="p"><use transform="matrix(0.05,0,0,0.05,0,0)" xlink:href="#ay"/><use transform="matrix(0.05,0,0,0.05,9,0)" xlink:href="#aJ"/><use transform="matrix(0.05,0,0,0.05,19,0)" xlink:href="#ae"/><use transform="matrix(0.05,0,0,0.05,24.95,0)" xlink:href="#ae"/><use transform="matrix(0.05,0,0,0.05,30.899999999999995,0)" xlink:href="#aj"/><use transform="matrix(0.05,0,0,0.05,40.9,0)" xlink:href="#ab"/><use transform="matrix(0.05,0,0,0.05,50.9,0)" xlink:href="#ad"/><use transform="matrix(0.05,0,0,0.05,55.900000000000006,0)" xlink:href="#at"/><use transform="matrix(0.05,0,0,0.05,68.85,0)" xlink:href="#ac"/><use transform="matrix(0.05,0,0,0.05,77.85,0)" xlink:href="#aj"/><use transform="matrix(0.05,0,0,0.05,87.85,0)" xlink:href="#ae"/></g><path d="M30-248c118-7 216 8 213 122C240-48 200 0 122 0H30v-248zM63-27c89 8 146-16 146-99s-60-101-146-95v194" id="aK"/><g id="q"><use transform="matrix(0.05,0,0,0.05,0,0)" xlink:href="#ah"/><use transform="matrix(0.05,0,0,0.05,5,0)" xlink:href="#at"/><use transform="matrix(0.05,0,0,0.05,17.950000000000003,0)" xlink:href="#ac"/><use transform="matrix(0.05,0,0,0.05,26.950000000000003,0)" xlink:href="#aj"/><use transform="matrix(0.05,0,0,0.05,36.95,0)" xlink:href="#ae"/><use transform="matrix(0.05,0,0,0.05,42.900000000000006,0)" xlink:href="#aK"/><use transform="matrix(0.05,0,0,0.05,55.85,0)" xlink:href="#X"/><use transform="matrix(0.05,0,0,0.05,67.85000000000001,0)" xlink:href="#aq"/><path d="M-.9 1.25h83.65v1.32H-.9z"/></g><path d="M30-248c87 1 191-15 191 75 0 78-77 80-158 76V0H30v-248zm33 125c57 0 124 11 124-50 0-59-68-47-124-48v98" id="aL"/><g id="r"><use transform="matrix(0.05,0,0,0.05,0,0)" xlink:href="#aA"/><use transform="matrix(0.05,0,0,0.05,10,0)" xlink:href="#aj"/><use transform="matrix(0.05,0,0,0.05,20,0)" xlink:href="#ad"/><use transform="matrix(0.05,0,0,0.05,25,0)" xlink:href="#X"/><use transform="matrix(0.05,0,0,0.05,37,0)" xlink:href="#az"/><use transform="matrix(0.05,0,0,0.05,40.95,0)" xlink:href="#az"/><use transform="matrix(0.05,0,0,0.05,44.900000000000006,0)" xlink:href="#aL"/><use transform="matrix(0.05,0,0,0.05,56.900000000000006,0)" xlink:href="#ae"/><use transform="matrix(0.05,0,0,0.05,62.85,0)" xlink:href="#ag"/><use transform="matrix(0.05,0,0,0.05,72.85000000000001,0)" xlink:href="#az"/><use transform="matrix(0.05,0,0,0.05,76.80000000000001,0)" xlink:href="#aj"/><use transform="matrix(0.05,0,0,0.05,86.80000000000001,0)" xlink:href="#ad"/><use transform="matrix(0.05,0,0,0.05,91.80000000000001,0)" xlink:href="#af"/><use transform="matrix(0.05,0,0,0.05,101.80000000000001,0)" xlink:href="#ae"/><use transform="matrix(0.05,0,0,0.05,107.75,0)" xlink:href="#aa"/><use transform="matrix(0.05,0,0,0.05,111.7,0)" xlink:href="#aj"/><use transform="matrix(0.05,0,0,0.05,121.7,0)" xlink:href="#ae"/><use transform="matrix(0.05,0,0,0.05,127.65000000000003,0)" xlink:href="#aE"/><use transform="matrix(0.05,0,0,0.05,133.60000000000002,0)" xlink:href="#aH"/></g><path d="M101-234c-31-9-42 10-38 44h38v23H63V0H32v-167H5v-23h27c-7-52 17-82 69-68v24" id="aM"/><path d="M26 75v-336h71v23H56V52h41v23H26" id="aN"/><path d="M3 75V52h41v-290H3v-23h71V75H3" id="aO"/><path d="M18-100v-36l175-74v27L42-118l151 64v27" id="aP"/><path d="M18-27v-27l151-64-151-65v-27l175 74v36" id="aQ"/><g id="s"><use transform="matrix(0.05,0,0,0.05,0,0)" xlink:href="#az"/><use transform="matrix(0.05,0,0,0.05,3.95,0)" xlink:href="#aa"/><use transform="matrix(0.05,0,0,0.05,7.9,0)" xlink:href="#ac"/><use transform="matrix(0.05,0,0,0.05,16.9,0)" xlink:href="#ad"/><use transform="matrix(0.05,0,0,0.05,21.9,0)" xlink:href="#aq"/><use transform="matrix(0.05,0,0,0.05,35.9,0)" xlink:href="#aM"/><use transform="matrix(0.05,0,0,0.05,40.9,0)" xlink:href="#aL"/><use transform="matrix(0.05,0,0,0.05,52.900000000000006,0)" xlink:href="#ae"/><use transform="matrix(0.05,0,0,0.05,58.85,0)" xlink:href="#ag"/><use transform="matrix(0.05,0,0,0.05,68.85,0)" xlink:href="#az"/><use transform="matrix(0.05,0,0,0.05,72.8,0)" xlink:href="#aj"/><use transform="matrix(0.05,0,0,0.05,82.8,0)" xlink:href="#ad"/><use transform="matrix(0.05,0,0,0.05,87.8,0)" xlink:href="#af"/><use transform="matrix(0.05,0,0,0.05,97.8,0)" xlink:href="#ae"/><use transform="matrix(0.05,0,0,0.05,103.75,0)" xlink:href="#aa"/><use transform="matrix(0.05,0,0,0.05,107.7,0)" xlink:href="#aj"/><use transform="matrix(0.05,0,0,0.05,117.7,0)" xlink:href="#ae"/><use transform="matrix(0.05,0,0,0.05,123.65,0)" xlink:href="#ah"/><use transform="matrix(0.05,0,0,0.05,128.65,0)" xlink:href="#aL"/><use transform="matrix(0.05,0,0,0.05,140.65,0)" xlink:href="#ae"/><use transform="matrix(0.05,0,0,0.05,146.6,0)" xlink:href="#ag"/><use transform="matrix(0.05,0,0,0.05,156.6,0)" xlink:href="#az"/><use transform="matrix(0.05,0,0,0.05,160.54999999999998,0)" xlink:href="#aj"/><use transform="matrix(0.05,0,0,0.05,170.54999999999998,0)" xlink:href="#ad"/><use transform="matrix(0.05,0,0,0.05,175.54999999999998,0)" xlink:href="#af"/><use transform="matrix(0.05,0,0,0.05,185.54999999999998,0)" xlink:href="#ae"/><use transform="matrix(0.05,0,0,0.05,191.49999999999997,0)" xlink:href="#aa"/><use transform="matrix(0.05,0,0,0.05,195.44999999999996,0)" xlink:href="#aj"/><use transform="matrix(0.05,0,0,0.05,205.44999999999996,0)" xlink:href="#ae"/><use transform="matrix(0.05,0,0,0.05,211.39999999999998,0)" xlink:href="#aN"/><use transform="matrix(0.05,0,0,0.05,216.39999999999998,0)" xlink:href="#aO"/><use transform="matrix(0.05,0,0,0.05,221.39999999999998,0)" xlink:href="#aP"/><use transform="matrix(0.05,0,0,0.05,231.89999999999998,0)" xlink:href="#aP"/><use transform="matrix(0.05,0,0,0.05,242.39999999999998,0)" xlink:href="#ay"/><use transform="matrix(0.05,0,0,0.05,251.39999999999998,0)" xlink:href="#ag"/><use transform="matrix(0.05,0,0,0.05,261.4,0)" xlink:href="#ab"/><use transform="matrix(0.05,0,0,0.05,271.4,0)" xlink:href="#ac"/><use transform="matrix(0.05,0,0,0.05,280.4,0)" xlink:href="#ad"/><use transform="matrix(0.05,0,0,0.05,285.4,0)" xlink:href="#aQ"/><use transform="matrix(0.05,0,0,0.05,295.9,0)" xlink:href="#aQ"/></g><g id="t"><use transform="matrix(0.05,0,0,0.05,0,0)" xlink:href="#aB"/><use transform="matrix(0.05,0,0,0.05,10,0)" xlink:href="#ae"/><use transform="matrix(0.05,0,0,0.05,15.949999999999998,0)" xlink:href="#ag"/><use transform="matrix(0.05,0,0,0.05,25.950000000000003,0)" xlink:href="#az"/><use transform="matrix(0.05,0,0,0.05,29.899999999999995,0)" xlink:href="#aj"/><use transform="matrix(0.05,0,0,0.05,39.9,0)" xlink:href="#ad"/><use transform="matrix(0.05,0,0,0.05,44.9,0)" xlink:href="#af"/><use transform="matrix(0.05,0,0,0.05,54.900000000000006,0)" xlink:href="#ae"/><use transform="matrix(0.05,0,0,0.05,60.85,0)" xlink:href="#aa"/><use transform="matrix(0.05,0,0,0.05,64.8,0)" xlink:href="#aj"/><use transform="matrix(0.05,0,0,0.05,74.8,0)" xlink:href="#ae"/><use transform="matrix(0.05,0,0,0.05,80.75,0)" xlink:href="#ah"/><use transform="matrix(0.05,0,0,0.05,85.75,0)" xlink:href="#aL"/><use transform="matrix(0.05,0,0,0.05,97.75,0)" xlink:href="#ae"/><use transform="matrix(0.05,0,0,0.05,103.7,0)" xlink:href="#ag"/><use transform="matrix(0.05,0,0,0.05,113.7,0)" xlink:href="#az"/><use transform="matrix(0.05,0,0,0.05,117.65,0)" xlink:href="#aj"/><use transform="matrix(0.05,0,0,0.05,127.65,0)" xlink:href="#ad"/><use transform="matrix(0.05,0,0,0.05,132.65,0)" xlink:href="#af"/><use transform="matrix(0.05,0,0,0.05,142.65,0)" xlink:href="#ae"/><use transform="matrix(0.05,0,0,0.05,148.6,0)" xlink:href="#aa"/><use transform="matrix(0.05,0,0,0.05,152.54999999999998,0)" xlink:href="#aj"/><use transform="matrix(0.05,0,0,0.05,162.54999999999998,0)" xlink:href="#ae"/><path d="M-.9 1.25h170.3v1.32H-.9z"/></g><g id="u"><use transform="matrix(0.05,0,0,0.05,0,0)" xlink:href="#aA"/><use transform="matrix(0.05,0,0,0.05,10,0)" xlink:href="#aj"/><use transform="matrix(0.05,0,0,0.05,20,0)" xlink:href="#ad"/><use transform="matrix(0.05,0,0,0.05,25,0)" xlink:href="#ai"/><use transform="matrix(0.05,0,0,0.05,35.300000000000004,0)" xlink:href="#aa"/><use transform="matrix(0.05,0,0,0.05,39.25000000000001,0)" xlink:href="#Z"/><use transform="matrix(0.05,0,0,0.05,54.20000000000002,0)" xlink:href="#aj"/><use transform="matrix(0.05,0,0,0.05,64.20000000000002,0)" xlink:href="#ac"/><use transform="matrix(0.05,0,0,0.05,73.20000000000002,0)" xlink:href="#aE"/><use transform="matrix(0.05,0,0,0.05,79.15000000000002,0)" xlink:href="#aH"/></g><g id="v"><use transform="matrix(0.05,0,0,0.05,0,0)" xlink:href="#az"/><use transform="matrix(0.05,0,0,0.05,3.95,0)" xlink:href="#aa"/><use transform="matrix(0.05,0,0,0.05,7.9,0)" xlink:href="#ac"/><use transform="matrix(0.05,0,0,0.05,16.9,0)" xlink:href="#ad"/><use transform="matrix(0.05,0,0,0.05,21.9,0)" xlink:href="#aq"/><use transform="matrix(0.05,0,0,0.05,35.9,0)" xlink:href="#aM"/><use transform="matrix(0.05,0,0,0.05,40.9,0)" xlink:href="#ai"/><use transform="matrix(0.05,0,0,0.05,51.2,0)" xlink:href="#aa"/><use transform="matrix(0.05,0,0,0.05,55.150000000000006,0)" xlink:href="#Z"/><use transform="matrix(0.05,0,0,0.05,70.10000000000001,0)" xlink:href="#aj"/><use transform="matrix(0.05,0,0,0.05,80.10000000000001,0)" xlink:href="#ac"/></g><g id="w"><use transform="matrix(0.05,0,0,0.05,0,0)" xlink:href="#ah"/><use transform="matrix(0.05,0,0,0.05,5,0)" xlink:href="#ai"/><use transform="matrix(0.05,0,0,0.05,15.3,0)" xlink:href="#aa"/><use transform="matrix(0.05,0,0,0.05,19.25,0)" xlink:href="#Z"/><use transform="matrix(0.05,0,0,0.05,34.2,0)" xlink:href="#aj"/><use transform="matrix(0.05,0,0,0.05,44.2,0)" xlink:href="#ak"/><use transform="matrix(0.05,0,0,0.05,56.2,0)" xlink:href="#al"/><use transform="matrix(0.05,0,0,0.05,66.2,0)" xlink:href="#aj"/><use transform="matrix(0.05,0,0,0.05,76.2,0)" xlink:href="#aj"/><use transform="matrix(0.05,0,0,0.05,86.2,0)" xlink:href="#ad"/><use transform="matrix(0.05,0,0,0.05,91.2,0)" xlink:href="#ai"/><use transform="matrix(0.05,0,0,0.05,100.15,0)" xlink:href="#ag"/><use transform="matrix(0.05,0,0,0.05,110.15,0)" xlink:href="#aL"/><use transform="matrix(0.05,0,0,0.05,122.15,0)" xlink:href="#Y"/><use transform="matrix(0.05,0,0,0.05,132.15,0)" xlink:href="#aM"/><path d="M-.9 1.25h138.95v1.32H-.9z"/></g><g id="x"><use transform="matrix(0.05,0,0,0.05,0,0)" xlink:href="#ay"/><use transform="matrix(0.05,0,0,0.05,9,0)" xlink:href="#ae"/><use transform="matrix(0.05,0,0,0.05,14.949999999999998,0)" xlink:href="#aj"/><use transform="matrix(0.05,0,0,0.05,24.95,0)" xlink:href="#af"/><use transform="matrix(0.05,0,0,0.05,34.95,0)" xlink:href="#ad"/><use transform="matrix(0.05,0,0,0.05,39.95,0)" xlink:href="#aj"/><use transform="matrix(0.05,0,0,0.05,49.95,0)" xlink:href="#aL"/><use transform="matrix(0.05,0,0,0.05,61.95,0)" xlink:href="#Y"/><use transform="matrix(0.05,0,0,0.05,71.95,0)" xlink:href="#aM"/><use transform="matrix(0.05,0,0,0.05,76.95,0)" xlink:href="#au"/><use transform="matrix(0.05,0,0,0.05,87.9,0)" xlink:href="#ae"/><use transform="matrix(0.05,0,0,0.05,93.85000000000001,0)" xlink:href="#ag"/><use transform="matrix(0.05,0,0,0.05,103.85000000000001,0)" xlink:href="#Z"/><use transform="matrix(0.05,0,0,0.05,118.80000000000001,0)" xlink:href="#ai"/><use transform="matrix(0.05,0,0,0.05,129.1,0)" xlink:href="#aa"/><use transform="matrix(0.05,0,0,0.05,133.04999999999998,0)" xlink:href="#Z"/><use transform="matrix(0.05,0,0,0.05,147.99999999999997,0)" xlink:href="#aj"/><use transform="matrix(0.05,0,0,0.05,157.99999999999997,0)" xlink:href="#ak"/><use transform="matrix(0.05,0,0,0.05,169.99999999999997,0)" xlink:href="#al"/><use transform="matrix(0.05,0,0,0.05,179.99999999999997,0)" xlink:href="#aj"/><use transform="matrix(0.05,0,0,0.05,189.99999999999997,0)" xlink:href="#aj"/><use transform="matrix(0.05,0,0,0.05,199.99999999999997,0)" xlink:href="#ad"/><use transform="matrix(0.05,0,0,0.05,204.99999999999997,0)" xlink:href="#ac"/><use transform="matrix(0.05,0,0,0.05,213.99999999999997,0)" xlink:href="#aE"/><use transform="matrix(0.05,0,0,0.05,219.94999999999996,0)" xlink:href="#az"/><use transform="matrix(0.05,0,0,0.05,223.89999999999998,0)" xlink:href="#aa"/><use transform="matrix(0.05,0,0,0.05,227.8499999999999,0)" xlink:href="#ac"/><use transform="matrix(0.05,0,0,0.05,236.8499999999999,0)" xlink:href="#ad"/><use transform="matrix(0.05,0,0,0.05,241.8499999999999,0)" xlink:href="#aq"/><use transform="matrix(0.05,0,0,0.05,255.8499999999999,0)" xlink:href="#aM"/><use transform="matrix(0.05,0,0,0.05,260.8499999999999,0)" xlink:href="#av"/><use transform="matrix(0.05,0,0,0.05,273.7999999999999,0)" xlink:href="#al"/><use transform="matrix(0.05,0,0,0.05,283.7999999999999,0)" xlink:href="#aj"/><use transform="matrix(0.05,0,0,0.05,293.7999999999999,0)" xlink:href="#ay"/><use transform="matrix(0.05,0,0,0.05,302.7999999999999,0)" xlink:href="#aD"/><use transform="matrix(0.05,0,0,0.05,311.7999999999999,0)" xlink:href="#aj"/><use transform="matrix(0.05,0,0,0.05,321.7999999999999,0)" xlink:href="#Y"/><use transform="matrix(0.05,0,0,0.05,331.7999999999999,0)" xlink:href="#ai"/><use transform="matrix(0.05,0,0,0.05,342.0999999999999,0)" xlink:href="#aa"/><use transform="matrix(0.05,0,0,0.05,346.0499999999999,0)" xlink:href="#Z"/><use transform="matrix(0.05,0,0,0.05,360.9999999999999,0)" xlink:href="#aj"/><use transform="matrix(0.05,0,0,0.05,370.9999999999999,0)" xlink:href="#ac"/><use transform="matrix(0.05,0,0,0.05,379.9999999999999,0)" xlink:href="#al"/><use transform="matrix(0.05,0,0,0.05,389.9999999999999,0)" xlink:href="#aj"/><use transform="matrix(0.05,0,0,0.05,399.9999999999999,0)" xlink:href="#aj"/><use transform="matrix(0.05,0,0,0.05,409.99999999999983,0)" xlink:href="#ad"/><use transform="matrix(0.05,0,0,0.05,414.99999999999983,0)" xlink:href="#ac"/><use transform="matrix(0.05,0,0,0.05,423.99999999999983,0)" xlink:href="#aH"/></g><g id="y"><use transform="matrix(0.05,0,0,0.05,0,0)" xlink:href="#aB"/><use transform="matrix(0.05,0,0,0.05,10,0)" xlink:href="#Y"/><use transform="matrix(0.05,0,0,0.05,20,0)" xlink:href="#aM"/><use transform="matrix(0.05,0,0,0.05,25,0)" xlink:href="#au"/><use transform="matrix(0.05,0,0,0.05,35.95,0)" xlink:href="#aa"/><use transform="matrix(0.05,0,0,0.05,39.900000000000006,0)" xlink:href="#az"/><use transform="matrix(0.05,0,0,0.05,43.85000000000001,0)" xlink:href="#aj"/></g><g id="z"><use transform="matrix(0.05,0,0,0.05,0,0)" xlink:href="#aA"/><use transform="matrix(0.05,0,0,0.05,10,0)" xlink:href="#aj"/><use transform="matrix(0.05,0,0,0.05,20,0)" xlink:href="#ad"/><use transform="matrix(0.05,0,0,0.05,25,0)" xlink:href="#au"/><use transform="matrix(0.05,0,0,0.05,35.95,0)" xlink:href="#aJ"/><use transform="matrix(0.05,0,0,0.05,45.95,0)" xlink:href="#az"/><use transform="matrix(0.05,0,0,0.05,49.900000000000006,0)" xlink:href="#az"/><use transform="matrix(0.05,0,0,0.05,53.85,0)" xlink:href="#as"/><use transform="matrix(0.05,0,0,0.05,66.80000000000001,0)" xlink:href="#af"/><use transform="matrix(0.05,0,0,0.05,76.80000000000001,0)" xlink:href="#Z"/><use transform="matrix(0.05,0,0,0.05,91.75000000000001,0)" xlink:href="#aj"/><use transform="matrix(0.05,0,0,0.05,101.75000000000001,0)" xlink:href="#aE"/><use transform="matrix(0.05,0,0,0.05,107.7,0)" xlink:href="#aH"/></g><g id="A"><use transform="matrix(0.05,0,0,0.05,0,0)" xlink:href="#aM"/><use transform="matrix(0.05,0,0,0.05,5,0)" xlink:href="#aJ"/><use transform="matrix(0.05,0,0,0.05,15,0)" xlink:href="#az"/><use transform="matrix(0.05,0,0,0.05,18.95,0)" xlink:href="#az"/><use transform="matrix(0.05,0,0,0.05,22.9,0)" xlink:href="#as"/><use transform="matrix(0.05,0,0,0.05,35.85,0)" xlink:href="#af"/><use transform="matrix(0.05,0,0,0.05,45.85,0)" xlink:href="#Z"/><use transform="matrix(0.05,0,0,0.05,60.800000000000004,0)" xlink:href="#aj"/></g><path d="M108 0H70L1-190h34L89-25l56-165h34" id="aR"/><g id="B"><use transform="matrix(0.05,0,0,0.05,0,0)" xlink:href="#X"/><use transform="matrix(0.05,0,0,0.05,12,0)" xlink:href="#az"/><use transform="matrix(0.05,0,0,0.05,15.949999999999998,0)" xlink:href="#ad"/><use transform="matrix(0.05,0,0,0.05,20.95,0)" xlink:href="#aj"/><use transform="matrix(0.05,0,0,0.05,30.950000000000003,0)" xlink:href="#ae"/><use transform="matrix(0.05,0,0,0.05,36.9,0)" xlink:href="#ab"/><use transform="matrix(0.05,0,0,0.05,46.9,0)" xlink:href="#af"/><use transform="matrix(0.05,0,0,0.05,56.900000000000006,0)" xlink:href="#ad"/><use transform="matrix(0.05,0,0,0.05,61.900000000000006,0)" xlink:href="#aa"/><use transform="matrix(0.05,0,0,0.05,65.85,0)" xlink:href="#aR"/><use transform="matrix(0.05,0,0,0.05,74.85,0)" xlink:href="#aj"/></g><g id="C"><use transform="matrix(0.05,0,0,0.05,0,0)" xlink:href="#aN"/><use transform="matrix(0.05,0,0,0.05,5,0)" xlink:href="#ay"/><use transform="matrix(0.05,0,0,0.05,14,0)" xlink:href="#aJ"/><use transform="matrix(0.05,0,0,0.05,24,0)" xlink:href="#ae"/><use transform="matrix(0.05,0,0,0.05,29.950000000000003,0)" xlink:href="#ae"/><use transform="matrix(0.05,0,0,0.05,35.9,0)" xlink:href="#aj"/><use transform="matrix(0.05,0,0,0.05,45.9,0)" xlink:href="#ab"/><use transform="matrix(0.05,0,0,0.05,55.900000000000006,0)" xlink:href="#ad"/><use transform="matrix(0.05,0,0,0.05,60.900000000000006,0)" xlink:href="#at"/><use transform="matrix(0.05,0,0,0.05,73.85,0)" xlink:href="#ac"/><use transform="matrix(0.05,0,0,0.05,82.85,0)" xlink:href="#aj"/><use transform="matrix(0.05,0,0,0.05,92.85,0)" xlink:href="#ae"/></g><g id="D"><use transform="matrix(0.05,0,0,0.05,0,0)" xlink:href="#aa"/><use transform="matrix(0.05,0,0,0.05,3.95,0)" xlink:href="#ab"/><use transform="matrix(0.05,0,0,0.05,13.949999999999998,0)" xlink:href="#ac"/><use transform="matrix(0.05,0,0,0.05,22.95,0)" xlink:href="#ad"/><use transform="matrix(0.05,0,0,0.05,27.950000000000003,0)" xlink:href="#af"/><use transform="matrix(0.05,0,0,0.05,37.95,0)" xlink:href="#ab"/><use transform="matrix(0.05,0,0,0.05,47.95,0)" xlink:href="#ay"/><use transform="matrix(0.05,0,0,0.05,56.95,0)" xlink:href="#aj"/><use transform="matrix(0.05,0,0,0.05,66.95,0)" xlink:href="#ag"/><use transform="matrix(0.05,0,0,0.05,76.95,0)" xlink:href="#aM"/></g><g id="E"><use transform="matrix(0.05,0,0,0.05,0,0)" xlink:href="#X"/><use transform="matrix(0.05,0,0,0.05,12,0)" xlink:href="#Y"/><use transform="matrix(0.05,0,0,0.05,22,0)" xlink:href="#Z"/><use transform="matrix(0.05,0,0,0.05,36.95,0)" xlink:href="#aa"/><use transform="matrix(0.05,0,0,0.05,40.900000000000006,0)" xlink:href="#ab"/><use transform="matrix(0.05,0,0,0.05,50.900000000000006,0)" xlink:href="#aa"/><use transform="matrix(0.05,0,0,0.05,54.85,0)" xlink:href="#ac"/><use transform="matrix(0.05,0,0,0.05,63.85,0)" xlink:href="#ad"/><use transform="matrix(0.05,0,0,0.05,68.85000000000001,0)" xlink:href="#ae"/><use transform="matrix(0.05,0,0,0.05,74.80000000000001,0)" xlink:href="#af"/><use transform="matrix(0.05,0,0,0.05,84.80000000000001,0)" xlink:href="#ad"/><use transform="matrix(0.05,0,0,0.05,89.80000000000001,0)" xlink:href="#ag"/><use transform="matrix(0.05,0,0,0.05,99.80000000000001,0)" xlink:href="#ae"/><use transform="matrix(0.05,0,0,0.05,105.75,0)" xlink:href="#aO"/></g><g id="F"><use transform="matrix(0.05,0,0,0.05,0,0)" xlink:href="#aN"/><use transform="matrix(0.05,0,0,0.05,5,0)" xlink:href="#ao"/><use transform="matrix(0.05,0,0,0.05,17,0)" xlink:href="#az"/><use transform="matrix(0.05,0,0,0.05,20.95,0)" xlink:href="#ac"/><use transform="matrix(0.05,0,0,0.05,29.950000000000003,0)" xlink:href="#aj"/><use transform="matrix(0.05,0,0,0.05,39.95,0)" xlink:href="#aO"/></g><g id="G"><use transform="matrix(0.05,0,0,0.05,0,0)" xlink:href="#aM"/><use transform="matrix(0.05,0,0,0.05,5,0)" xlink:href="#ag"/><use transform="matrix(0.05,0,0,0.05,15,0)" xlink:href="#ae"/></g><g id="H"><use transform="matrix(0.05,0,0,0.05,0,0)" xlink:href="#aN"/><use transform="matrix(0.05,0,0,0.05,5,0)" xlink:href="#ad"/><use transform="matrix(0.05,0,0,0.05,10,0)" xlink:href="#aa"/><use transform="matrix(0.05,0,0,0.05,13.949999999999998,0)" xlink:href="#Z"/><use transform="matrix(0.05,0,0,0.05,28.899999999999995,0)" xlink:href="#aj"/><use transform="matrix(0.05,0,0,0.05,38.9,0)" xlink:href="#ak"/><use transform="matrix(0.05,0,0,0.05,50.9,0)" xlink:href="#al"/><use transform="matrix(0.05,0,0,0.05,60.900000000000006,0)" xlink:href="#aj"/><use transform="matrix(0.05,0,0,0.05,70.9,0)" xlink:href="#aj"/><use transform="matrix(0.05,0,0,0.05,80.9,0)" xlink:href="#ad"/></g><g id="I"><use transform="matrix(0.05,0,0,0.05,0,0)" xlink:href="#aa"/><use transform="matrix(0.05,0,0,0.05,3.95,0)" xlink:href="#ab"/></g><g id="J"><use transform="matrix(0.05,0,0,0.05,0,0)" xlink:href="#az"/><use transform="matrix(0.05,0,0,0.05,3.95,0)" xlink:href="#aa"/><use transform="matrix(0.05,0,0,0.05,7.9,0)" xlink:href="#ac"/><use transform="matrix(0.05,0,0,0.05,16.9,0)" xlink:href="#ad"/><use transform="matrix(0.05,0,0,0.05,21.9,0)" xlink:href="#aq"/><use transform="matrix(0.05,0,0,0.05,35.9,0)" xlink:href="#aM"/><use transform="matrix(0.05,0,0,0.05,40.9,0)" xlink:href="#av"/><use transform="matrix(0.05,0,0,0.05,53.85,0)" xlink:href="#al"/><use transform="matrix(0.05,0,0,0.05,63.85,0)" xlink:href="#aj"/><use transform="matrix(0.05,0,0,0.05,73.85,0)" xlink:href="#ay"/><use transform="matrix(0.05,0,0,0.05,82.85,0)" xlink:href="#aD"/><use transform="matrix(0.05,0,0,0.05,91.85,0)" xlink:href="#aj"/><use transform="matrix(0.05,0,0,0.05,101.85,0)" xlink:href="#Y"/><use transform="matrix(0.05,0,0,0.05,111.84999999999998,0)" xlink:href="#ai"/><use transform="matrix(0.05,0,0,0.05,122.14999999999998,0)" xlink:href="#aa"/><use transform="matrix(0.05,0,0,0.05,126.09999999999998,0)" xlink:href="#Z"/><use transform="matrix(0.05,0,0,0.05,141.04999999999998,0)" xlink:href="#aj"/><use transform="matrix(0.05,0,0,0.05,151.04999999999998,0)" xlink:href="#ac"/><use transform="matrix(0.05,0,0,0.05,160.04999999999998,0)" xlink:href="#al"/><use transform="matrix(0.05,0,0,0.05,170.04999999999998,0)" xlink:href="#aj"/><use transform="matrix(0.05,0,0,0.05,180.04999999999998,0)" xlink:href="#aj"/><use transform="matrix(0.05,0,0,0.05,190.04999999999998,0)" xlink:href="#ad"/><use transform="matrix(0.05,0,0,0.05,195.04999999999998,0)" xlink:href="#ac"/><use transform="matrix(0.05,0,0,0.05,204.04999999999998,0)" xlink:href="#aO"/></g><g id="K"><use transform="matrix(0.05,0,0,0.05,0,0)" xlink:href="#aN"/><use transform="matrix(0.05,0,0,0.05,5,0)" xlink:href="#ay"/><use transform="matrix(0.05,0,0,0.05,14,0)" xlink:href="#aJ"/><use transform="matrix(0.05,0,0,0.05,24,0)" xlink:href="#ae"/><use transform="matrix(0.05,0,0,0.05,29.950000000000003,0)" xlink:href="#ae"/><use transform="matrix(0.05,0,0,0.05,35.9,0)" xlink:href="#aj"/><use transform="matrix(0.05,0,0,0.05,45.9,0)" xlink:href="#ab"/><use transform="matrix(0.05,0,0,0.05,55.900000000000006,0)" xlink:href="#ad"/><use transform="matrix(0.05,0,0,0.05,60.900000000000006,0)" xlink:href="#ao"/><use transform="matrix(0.05,0,0,0.05,72.9,0)" xlink:href="#ab"/><use transform="matrix(0.05,0,0,0.05,82.9,0)" xlink:href="#ad"/><use transform="matrix(0.05,0,0,0.05,87.9,0)" xlink:href="#aa"/><use transform="matrix(0.05,0,0,0.05,91.85000000000001,0)" xlink:href="#ad"/><use transform="matrix(0.05,0,0,0.05,96.85000000000001,0)" xlink:href="#aG"/></g><g id="L"><use transform="matrix(0.05,0,0,0.05,0,0)" xlink:href="#aa"/><use transform="matrix(0.05,0,0,0.05,3.95,0)" xlink:href="#ac"/></g><g id="M"><use transform="matrix(0.05,0,0,0.05,0,0)" xlink:href="#ab"/><use transform="matrix(0.05,0,0,0.05,10,0)" xlink:href="#aJ"/><use transform="matrix(0.05,0,0,0.05,20,0)" xlink:href="#az"/><use transform="matrix(0.05,0,0,0.05,23.95,0)" xlink:href="#az"/><use transform="matrix(0.05,0,0,0.05,27.899999999999995,0)" xlink:href="#aO"/></g><g id="N"><use transform="matrix(0.05,0,0,0.05,0,0)" xlink:href="#aJ"/><use transform="matrix(0.05,0,0,0.05,10,0)" xlink:href="#ac"/><use transform="matrix(0.05,0,0,0.05,19,0)" xlink:href="#aj"/><use transform="matrix(0.05,0,0,0.05,29,0)" xlink:href="#ae"/><use transform="matrix(0.05,0,0,0.05,34.95,0)" xlink:href="#ah"/><use transform="matrix(0.05,0,0,0.05,39.95,0)" xlink:href="#at"/><use transform="matrix(0.05,0,0,0.05,52.900000000000006,0)" xlink:href="#ac"/><use transform="matrix(0.05,0,0,0.05,61.900000000000006,0)" xlink:href="#aj"/><use transform="matrix(0.05,0,0,0.05,71.9,0)" xlink:href="#ae"/><path d="M-.9 1.25h79.65v1.32H-.9z"/></g><g id="O"><use transform="matrix(0.05,0,0,0.05,0,0)" xlink:href="#ad"/><use transform="matrix(0.05,0,0,0.05,5,0)" xlink:href="#aa"/><use transform="matrix(0.05,0,0,0.05,8.95,0)" xlink:href="#Z"/><use transform="matrix(0.05,0,0,0.05,23.9,0)" xlink:href="#aj"/><use transform="matrix(0.05,0,0,0.05,33.9,0)" xlink:href="#ak"/><use transform="matrix(0.05,0,0,0.05,45.9,0)" xlink:href="#al"/><use transform="matrix(0.05,0,0,0.05,55.900000000000006,0)" xlink:href="#aj"/><use transform="matrix(0.05,0,0,0.05,65.9,0)" xlink:href="#aj"/><use transform="matrix(0.05,0,0,0.05,75.9,0)" xlink:href="#ad"/><use transform="matrix(0.05,0,0,0.05,80.9,0)" xlink:href="#aq"/><use transform="matrix(0.05,0,0,0.05,94.9,0)" xlink:href="#aM"/><use transform="matrix(0.05,0,0,0.05,99.9,0)" xlink:href="#aL"/><use transform="matrix(0.05,0,0,0.05,111.9,0)" xlink:href="#ae"/><use transform="matrix(0.05,0,0,0.05,117.85000000000001,0)" xlink:href="#ag"/><use transform="matrix(0.05,0,0,0.05,127.85000000000001,0)" xlink:href="#az"/><use transform="matrix(0.05,0,0,0.05,131.8,0)" xlink:href="#aj"/><use transform="matrix(0.05,0,0,0.05,141.8,0)" xlink:href="#ad"/><use transform="matrix(0.05,0,0,0.05,146.8,0)" xlink:href="#af"/><use transform="matrix(0.05,0,0,0.05,156.8,0)" xlink:href="#ae"/><use transform="matrix(0.05,0,0,0.05,162.75,0)" xlink:href="#aa"/><use transform="matrix(0.05,0,0,0.05,166.7,0)" xlink:href="#aj"/><use transform="matrix(0.05,0,0,0.05,176.7,0)" xlink:href="#ae"/><path d="M-.9 1.25h184.45v1.32H-.9z"/><use transform="matrix(0.05,0,0,0.05,182.64999999999998,0)" xlink:href="#ah"/><use transform="matrix(0.05,0,0,0.05,187.64999999999998,0)" xlink:href="#ai"/><use transform="matrix(0.05,0,0,0.05,197.94999999999996,0)" xlink:href="#aa"/><use transform="matrix(0.05,0,0,0.05,201.89999999999995,0)" xlink:href="#Z"/><use transform="matrix(0.05,0,0,0.05,216.8499999999999,0)" xlink:href="#aj"/><use transform="matrix(0.05,0,0,0.05,226.8499999999999,0)" xlink:href="#ak"/><use transform="matrix(0.05,0,0,0.05,238.8499999999999,0)" xlink:href="#al"/><use transform="matrix(0.05,0,0,0.05,248.8499999999999,0)" xlink:href="#aj"/><use transform="matrix(0.05,0,0,0.05,258.8499999999999,0)" xlink:href="#aj"/><use transform="matrix(0.05,0,0,0.05,268.8499999999999,0)" xlink:href="#ad"/><path d="M181.75 1.25h93v1.32h-93z"/></g><g id="P"><use transform="matrix(0.05,0,0,0.05,0,0)" xlink:href="#aA"/><use transform="matrix(0.05,0,0,0.05,10,0)" xlink:href="#aj"/><use transform="matrix(0.05,0,0,0.05,20,0)" xlink:href="#ad"/><use transform="matrix(0.05,0,0,0.05,25,0)" xlink:href="#aL"/><use transform="matrix(0.05,0,0,0.05,37,0)" xlink:href="#ae"/><use transform="matrix(0.05,0,0,0.05,42.95,0)" xlink:href="#ag"/><use transform="matrix(0.05,0,0,0.05,52.95,0)" xlink:href="#az"/><use transform="matrix(0.05,0,0,0.05,56.900000000000006,0)" xlink:href="#aj"/><use transform="matrix(0.05,0,0,0.05,66.9,0)" xlink:href="#ad"/><use transform="matrix(0.05,0,0,0.05,71.9,0)" xlink:href="#af"/><use transform="matrix(0.05,0,0,0.05,81.9,0)" xlink:href="#ae"/><use transform="matrix(0.05,0,0,0.05,87.85000000000001,0)" xlink:href="#aa"/><use transform="matrix(0.05,0,0,0.05,91.80000000000001,0)" xlink:href="#aj"/><use transform="matrix(0.05,0,0,0.05,101.80000000000001,0)" xlink:href="#ae"/><use transform="matrix(0.05,0,0,0.05,107.75,0)" xlink:href="#aE"/><use transform="matrix(0.05,0,0,0.05,113.7,0)" xlink:href="#aH"/></g><g id="Q"><use transform="matrix(0.05,0,0,0.05,0,0)" xlink:href="#aB"/><use transform="matrix(0.05,0,0,0.05,10,0)" xlink:href="#ae"/><use transform="matrix(0.05,0,0,0.05,15.949999999999998,0)" xlink:href="#ag"/><use transform="matrix(0.05,0,0,0.05,25.950000000000003,0)" xlink:href="#az"/><use transform="matrix(0.05,0,0,0.05,29.899999999999995,0)" xlink:href="#aj"/><use transform="matrix(0.05,0,0,0.05,39.9,0)" xlink:href="#ad"/><use transform="matrix(0.05,0,0,0.05,44.9,0)" xlink:href="#af"/><use transform="matrix(0.05,0,0,0.05,54.900000000000006,0)" xlink:href="#ae"/><use transform="matrix(0.05,0,0,0.05,60.85,0)" xlink:href="#aa"/><use transform="matrix(0.05,0,0,0.05,64.8,0)" xlink:href="#aj"/><use transform="matrix(0.05,0,0,0.05,74.8,0)" xlink:href="#ae"/></g><g id="R"><use transform="matrix(0.05,0,0,0.05,0,0)" xlink:href="#ad"/><use transform="matrix(0.05,0,0,0.05,5,0)" xlink:href="#aa"/><use transform="matrix(0.05,0,0,0.05,8.95,0)" xlink:href="#Z"/><use transform="matrix(0.05,0,0,0.05,23.9,0)" xlink:href="#aj"/><use transform="matrix(0.05,0,0,0.05,33.9,0)" xlink:href="#ak"/><use transform="matrix(0.05,0,0,0.05,45.9,0)" xlink:href="#al"/><use transform="matrix(0.05,0,0,0.05,55.900000000000006,0)" xlink:href="#aj"/><use transform="matrix(0.05,0,0,0.05,65.9,0)" xlink:href="#aj"/><use transform="matrix(0.05,0,0,0.05,75.9,0)" xlink:href="#ad"/><use transform="matrix(0.05,0,0,0.05,80.9,0)" xlink:href="#aq"/><use transform="matrix(0.05,0,0,0.05,94.9,0)" xlink:href="#aM"/><use transform="matrix(0.05,0,0,0.05,99.9,0)" xlink:href="#aL"/><use transform="matrix(0.05,0,0,0.05,111.9,0)" xlink:href="#ae"/><use transform="matrix(0.05,0,0,0.05,117.85000000000001,0)" xlink:href="#ag"/><use transform="matrix(0.05,0,0,0.05,127.85000000000001,0)" xlink:href="#az"/><use transform="matrix(0.05,0,0,0.05,131.8,0)" xlink:href="#aj"/><use transform="matrix(0.05,0,0,0.05,141.8,0)" xlink:href="#ad"/><use transform="matrix(0.05,0,0,0.05,146.8,0)" xlink:href="#af"/><use transform="matrix(0.05,0,0,0.05,156.8,0)" xlink:href="#ae"/><use transform="matrix(0.05,0,0,0.05,162.75,0)" xlink:href="#aa"/><use transform="matrix(0.05,0,0,0.05,166.7,0)" xlink:href="#aj"/><use transform="matrix(0.05,0,0,0.05,176.7,0)" xlink:href="#ae"/></g><g id="S"><use transform="matrix(0.05,0,0,0.05,0,0)" xlink:href="#aN"/><use transform="matrix(0.05,0,0,0.05,5,0)" xlink:href="#aB"/><use transform="matrix(0.05,0,0,0.05,15,0)" xlink:href="#ae"/><use transform="matrix(0.05,0,0,0.05,20.95,0)" xlink:href="#ag"/><use transform="matrix(0.05,0,0,0.05,30.950000000000003,0)" xlink:href="#az"/><use transform="matrix(0.05,0,0,0.05,34.9,0)" xlink:href="#aj"/><use transform="matrix(0.05,0,0,0.05,44.9,0)" xlink:href="#ad"/><use transform="matrix(0.05,0,0,0.05,49.9,0)" xlink:href="#af"/><use transform="matrix(0.05,0,0,0.05,59.900000000000006,0)" xlink:href="#ae"/><use transform="matrix(0.05,0,0,0.05,65.85,0)" xlink:href="#aa"/><use transform="matrix(0.05,0,0,0.05,69.8,0)" xlink:href="#aj"/><use transform="matrix(0.05,0,0,0.05,79.8,0)" xlink:href="#ae"/></g><g id="T"><use transform="matrix(0.05,0,0,0.05,0,0)" xlink:href="#az"/><use transform="matrix(0.05,0,0,0.05,3.95,0)" xlink:href="#aa"/><use transform="matrix(0.05,0,0,0.05,7.9,0)" xlink:href="#ac"/><use transform="matrix(0.05,0,0,0.05,16.9,0)" xlink:href="#ad"/><use transform="matrix(0.05,0,0,0.05,21.9,0)" xlink:href="#aq"/><use transform="matrix(0.05,0,0,0.05,35.9,0)" xlink:href="#aM"/><use transform="matrix(0.05,0,0,0.05,40.9,0)" xlink:href="#aL"/><use transform="matrix(0.05,0,0,0.05,52.900000000000006,0)" xlink:href="#ae"/><use transform="matrix(0.05,0,0,0.05,58.85,0)" xlink:href="#ag"/><use transform="matrix(0.05,0,0,0.05,68.85,0)" xlink:href="#az"/><use transform="matrix(0.05,0,0,0.05,72.8,0)" xlink:href="#aj"/><use transform="matrix(0.05,0,0,0.05,82.8,0)" xlink:href="#ad"/><use transform="matrix(0.05,0,0,0.05,87.8,0)" xlink:href="#af"/><use transform="matrix(0.05,0,0,0.05,97.8,0)" xlink:href="#ae"/><use transform="matrix(0.05,0,0,0.05,103.75,0)" xlink:href="#aa"/><use transform="matrix(0.05,0,0,0.05,107.7,0)" xlink:href="#aj"/><use transform="matrix(0.05,0,0,0.05,117.7,0)" xlink:href="#ae"/><use transform="matrix(0.05,0,0,0.05,123.65,0)" xlink:href="#aO"/></g><g id="U"><use transform="matrix(0.05,0,0,0.05,0,0)" xlink:href="#aA"/><use transform="matrix(0.05,0,0,0.05,10,0)" xlink:href="#aj"/><use transform="matrix(0.05,0,0,0.05,20,0)" xlink:href="#ad"/><use transform="matrix(0.05,0,0,0.05,25,0)" xlink:href="#ai"/><use transform="matrix(0.05,0,0,0.05,35.300000000000004,0)" xlink:href="#aa"/><use transform="matrix(0.05,0,0,0.05,39.25000000000001,0)" xlink:href="#Z"/><use transform="matrix(0.05,0,0,0.05,54.20000000000002,0)" xlink:href="#aj"/><use transform="matrix(0.05,0,0,0.05,64.20000000000002,0)" xlink:href="#ak"/><use transform="matrix(0.05,0,0,0.05,76.20000000000002,0)" xlink:href="#al"/><use transform="matrix(0.05,0,0,0.05,86.20000000000002,0)" xlink:href="#aj"/><use transform="matrix(0.05,0,0,0.05,96.20000000000002,0)" xlink:href="#aj"/><use transform="matrix(0.05,0,0,0.05,106.2,0)" xlink:href="#ad"/><use transform="matrix(0.05,0,0,0.05,111.2,0)" xlink:href="#aE"/><use transform="matrix(0.05,0,0,0.05,117.15000000000003,0)" xlink:href="#Z"/><use transform="matrix(0.05,0,0,0.05,132.10000000000002,0)" xlink:href="#ag"/><use transform="matrix(0.05,0,0,0.05,142.10000000000002,0)" xlink:href="#ab"/><use transform="matrix(0.05,0,0,0.05,152.10000000000002,0)" xlink:href="#ad"/><use transform="matrix(0.05,0,0,0.05,157.10000000000002,0)" xlink:href="#al"/><use transform="matrix(0.05,0,0,0.05,167.10000000000002,0)" xlink:href="#aF"/></g><g id="V"><use transform="matrix(0.05,0,0,0.05,0,0)" xlink:href="#aG"/><use transform="matrix(0.05,0,0,0.05,9,0)" xlink:href="#aj"/><use transform="matrix(0.05,0,0,0.05,19,0)" xlink:href="#af"/><use transform="matrix(0.05,0,0,0.05,29,0)" xlink:href="#ae"/><use transform="matrix(0.05,0,0,0.05,33.95,0)" xlink:href="#aF"/></g><g id="W"><use transform="matrix(0.05,0,0,0.05,0,0)" xlink:href="#aB"/><use transform="matrix(0.05,0,0,0.05,10,0)" xlink:href="#ae"/><use transform="matrix(0.05,0,0,0.05,15.949999999999998,0)" xlink:href="#ag"/><use transform="matrix(0.05,0,0,0.05,25.950000000000003,0)" xlink:href="#az"/><use transform="matrix(0.05,0,0,0.05,29.899999999999995,0)" xlink:href="#aj"/><use transform="matrix(0.05,0,0,0.05,39.9,0)" xlink:href="#ad"/><use transform="matrix(0.05,0,0,0.05,44.9,0)" xlink:href="#af"/><use transform="matrix(0.05,0,0,0.05,54.900000000000006,0)" xlink:href="#ae"/><use transform="matrix(0.05,0,0,0.05,60.85,0)" xlink:href="#aa"/><use transform="matrix(0.05,0,0,0.05,64.8,0)" xlink:href="#aj"/><use transform="matrix(0.05,0,0,0.05,74.8,0)" xlink:href="#ae"/><use transform="matrix(0.05,0,0,0.05,80.75,0)" xlink:href="#aH"/></g></defs></g></svg>