<svg xmlns="http://www.w3.org/2000/svg" xmlns:xlink="http://www.w3.org/1999/xlink" width="2310.88" height="701"><g transform="translate(-9.124999999999993 0)"><path d="M1980 80v610" fill="none"/><path d="M1980 80v10.17m0 10.16v20.34m0 10.16v20.34m0 10.16v20.34m0 10.16v20.34m0 10.16v20.34m0 10.16v20.34m0 10.16v20.34m0 10.16v20.34m0 10.16v20.34m0 10.16v20.34m0 10.16v20.34m0 10.16v20.34m0 10.16v20.34m0 10.16v20.34m0 10.16v20.34m0 10.16v20.34m0 10.16v20.34m0 10.16v20.34m0 10.16v20.34m0 10.16V690" stroke="#000" stroke-width="2" fill="none"/><path d="M260 25c0-2.76 2.24-5 5-5h190c2.76 0 5 2.24 5 5v50c0 2.76-2.24 5-5 5H265c-2.76 0-5-2.24-5-5z" stroke="#000" stroke-width="2" fill="#fff"/><use xlink:href="#a" transform="matrix(1,0,0,1,260,20) translate(32.32999999999999 33.15)"/><path d="M93.75 109.75c0 5.38-4.37 9.75-9.75 9.75s-9.75-4.37-9.75-9.75S78.62 100 84 100s9.75 4.37 9.75 9.75z" stroke="#000" stroke-width="2" fill="#fff"/><path d="M60 105c0-2.76 2.24-5 5-5h38c2.76 0 5 2.24 5 5v68c0 2.76-2.24 5-5 5H65c-2.76 0-5-2.24-5-5z" fill="none"/><path d="M84 119.5v22.3c0 2.76 1.36 6.77 3.05 8.96L108 178m-24-31.2L60 178m0-48.75h48" stroke="#000" stroke-width="2" fill="none"/><use xlink:href="#b" transform="matrix(1,0,0,1,-20,178) translate(51.12499999999999 14.6)"/><path d="M360 80v590" fill="none"/><path d="M360 80v9.83m0 9.84v19.66m0 9.84v19.66m0 9.84v19.66m0 9.84v19.66m0 9.84v19.66m0 9.84v19.66m0 9.84v19.66m0 9.84v19.66m0 9.84v19.66m0 9.84v19.66m0 9.84v19.66m0 9.84v19.66m0 9.84v19.66m0 9.84v19.66m0 9.84v19.66m0 9.84v19.66m0 9.84v19.66m0 9.84v19.66m0 9.84v19.66m0 9.84V670" stroke="#000" stroke-width="2" fill="none"/><path d="M340 145c0-2.76 2.24-5 5-5h30c2.76 0 5 2.24 5 5v450c0 2.76-2.24 5-5 5h-30c-2.76 0-5-2.24-5-5zM1850 25c0-2.76 2.24-5 5-5h250c2.76 0 5 2.24 5 5v50c0 2.76-2.24 5-5 5h-250c-2.76 0-5-2.24-5-5z" stroke="#000" stroke-width="2" fill="#fff"/><use xlink:href="#c" transform="matrix(1,0,0,1,1850,20) translate(89.08 33.15)"/><path d="M108 150h232" stroke="#333" stroke-width="2" fill="none"/><path d="M340 150l-14.27 4.64v-9.28z" fill="#333"/><path d="M340 148.95v2.1L324.73 156v-12zm-13.27 4.3l10.03-3.25-10.03-3.26z" fill="#333"/><use xlink:href="#d" transform="matrix(1,0,0,1,141.15,124.40000000000002) translate(0 14.4)"/><path d="M1020 25c0-2.76 2.24-5 5-5h210c2.76 0 5 2.24 5 5v50c0 2.76-2.24 5-5 5h-210c-2.76 0-5-2.24-5-5z" stroke="#000" stroke-width="2" fill="#fff"/><use xlink:href="#e" transform="matrix(1,0,0,1,1020,20) translate(22.730000000000025 33.15)"/><path d="M1130 80v600" fill="none"/><path d="M1130 80v10m0 10v20m0 10v20m0 10v20m0 10v20m0 10v20m0 10v20m0 10v20m0 10v20m0 10v20m0 10v20m0 10v20m0 10v20m0 10v20m0 10v20m0 10v20m0 10v20m0 10v20m0 10v20m0 10v20m0 10v10M380 161.15h730.7c.2 0 .4.18.4.4v.4" stroke="#000" stroke-width="2" fill="none"/><path d="M1111.1 161.95l-14.5 3.82.5-9.25z"/><path d="M1112.05 161.25l-1.1.8-.33 1.06-15.1 4 .67-12.02zm-14.4 3.2l10.2-2.68-9.82-3.82z"/><use xlink:href="#f" transform="matrix(1,0,0,1,396.0259030127871,135.54586783292666) translate(0 14.4)"/><use xlink:href="#g" transform="matrix(1,0,0,1,396.0259030127871,135.54586783292666) translate(177.7 14.4)"/><use xlink:href="#h" transform="matrix(1,0,0,1,396.0259030127871,135.54586783292666) translate(267.6 14.4)"/><use xlink:href="#i" transform="matrix(1,0,0,1,396.0259030127871,135.54586783292666) translate(320.45000000000005 14.4)"/><use xlink:href="#j" transform="matrix(1,0,0,1,396.0259030127871,135.54586783292666) translate(407.35 14.4)"/><use xlink:href="#k" transform="matrix(1,0,0,1,396.0259030127871,135.54586783292666) translate(488.15000000000003 14.4)"/><use xlink:href="#l" transform="matrix(1,0,0,1,396.0259030127871,135.54586783292666) translate(580 14.4)"/><path d="M1110 165c0-2.76 2.24-5 5-5h30c2.76 0 5 2.24 5 5v330c0 2.76-2.24 5-5 5h-30c-2.76 0-5-2.24-5-5z" stroke="#000" stroke-width="2" fill="#fff"/><path d="M1150 185.33h810" stroke="#000" stroke-width="2" fill="none"/><path d="M1960 185.33l-14.27 4.64v-9.27z"/><path d="M1960.2 184.35l-.2.65v1.38l-15.27 4.97v-12.03zm-13.47 4.24l10.03-3.27-10.03-3.26z"/><use xlink:href="#m" transform="matrix(1,0,0,1,1475.675,159.73333333333338) translate(0 14.4)"/><path d="M1960 185c0-2.76 2.24-5 5-5h30c2.76 0 5 2.24 5 5v50c0 2.76-2.24 5-5 5h-30c-2.76 0-5-2.24-5-5z" stroke="#000" stroke-width="2" fill="#fff"/><path d="M1959.06 235.45H1554.8c-.15 0-.27.13-.27.28 0 .15-.12.27-.27.27H1150" fill="none"/><path d="M1959.06 235.45h-10m-10 0h-19.98m-10 0h-20m-9.98 0h-20m-10 0h-19.98m-10 0h-19.98m-10 0h-20m-9.98 0h-20m-10 0h-19.98m-10 0h-19.98m-10 0h-20m-9.98 0h-20m-10 0h-19.98m-10 0h-20m-9.43.55h-19.98m-10 0h-20m-9.98 0h-20m-10 0h-19.98m-10 0h-20m-9.98 0h-20m-10 0h-19.98m-10 0h-19.98m-10 0h-20m-9.98 0h-20m-10 0h-19.98m-10 0H1200m-10 0h-20m-9.98 0h-10" stroke="#000" stroke-width="2" fill="none"/><path d="M1960 235l.23 1.45h-1.17v-2h.94zM1167.72 226.68l-15.76 9.32 15.76 9.32-1 1.72-16.72-9.88v-2.32l16.7-9.88z"/><use xlink:href="#n" transform="matrix(1,0,0,1,1513.063273740292,209.854749033295) translate(0 14.4)"/><path d="M1150 281.33h405.13c.2 0 .35.16.35.36 0 .2.16.35.36.35h405.12" stroke="#000" stroke-width="2" fill="none"/><path d="M1960.96 282.05l-14.26 4.63v-9.27z"/><path d="M1961.96 281.32l-1 .73-.38 1.17-14.88 4.84v-12.02zm-14.26 4l10.03-3.27-10.03-3.26z"/><use xlink:href="#o" transform="matrix(1,0,0,1,1519.0316048690947,255.7366758980723) translate(0 14.4)"/><path d="M1960 285c0-2.76 2.24-5 5-5h30c2.76 0 5 2.24 5 5v50c0 2.76-2.24 5-5 5h-30c-2.76 0-5-2.24-5-5z" stroke="#000" stroke-width="2" fill="#fff"/><path d="M1959.3 336.98h-404.47c-.1 0-.18.08-.18.17 0 .1-.08.18-.18.18H1150" fill="none"/><path d="M1959.3 336.98h-10m-10 0h-19.98m-10 0h-20m-9.98 0h-20m-10 0h-19.98m-10 0h-20m-9.98 0h-20m-10 0h-19.98m-10 0h-20m-10 0h-19.98m-10 0h-20m-9.98 0h-20m-10 0h-19.98m-10 0h-20m-9.63.35h-20m-9.98 0h-20m-10 0h-19.98m-10 0h-20m-10 0h-19.98m-10 0h-20m-10 0h-19.98m-10 0h-20m-10 0h-19.98m-10 0h-20m-9.98 0h-20m-10 0H1200m-10 0h-20m-9.98 0h-10" stroke="#000" stroke-width="2" fill="none"/><path d="M1960.25 336.58l1.02 1.4h-1.96v-2h.86zM1167.72 328l-15.76 9.33 15.76 9.32-1 1.72-16.72-9.87v-2.33l16.7-9.88z"/><use xlink:href="#p" transform="matrix(1,0,0,1,1496.7696702262947,311.3771149142226) translate(0 14.4)"/><path d="M800 205c0-2.76 2.24-5 5-5h118c2.76 0 6.58 1.58 8.54 3.54l24.92 24.92c1.96 1.96 3.54 5.78 3.54 8.54v118c0 2.76-2.24 5-5 5H805c-2.76 0-5-2.24-5-5z" stroke="#000" stroke-width="2" fill="#fff"/><path d="M929.2 204.85c-.66-2.68.38-3.27 2.34-1.3l24.92 24.9c1.96 1.97 1.37 3-1.3 2.34l-15.9-4c-2.7-.66-5.4-3.37-6.07-6.05z" stroke="#000" stroke-width="2" fill="#b3b3b3"/><use xlink:href="#q" transform="matrix(1,0,0,1,800,200) translate(5.01 39.4)"/><use xlink:href="#r" transform="matrix(1,0,0,1,800,200) translate(20.009999999999998 39.4)"/><use xlink:href="#s" transform="matrix(1,0,0,1,800,200) translate(62.910000000000004 39.4)"/><use xlink:href="#t" transform="matrix(1,0,0,1,800,200) translate(5.01 61)"/><use xlink:href="#u" transform="matrix(1,0,0,1,800,200) translate(54.86000000000001 61)"/><use xlink:href="#v" transform="matrix(1,0,0,1,800,200) translate(85.81 61)"/><use xlink:href="#w" transform="matrix(1,0,0,1,800,200) translate(5.01 82.60000000000001)"/><use xlink:href="#x" transform="matrix(1,0,0,1,800,200) translate(23.96 82.60000000000001)"/><use xlink:href="#y" transform="matrix(1,0,0,1,800,200) translate(57.96 82.60000000000001)"/><use xlink:href="#z" transform="matrix(1,0,0,1,800,200) translate(5.01 104.20000000000002)"/><use xlink:href="#A" transform="matrix(1,0,0,1,800,200) translate(47.86 104.20000000000002)"/><use xlink:href="#B" transform="matrix(1,0,0,1,800,200) translate(120.76 104.20000000000002)"/><use xlink:href="#C" transform="matrix(1,0,0,1,800,200) translate(5.01 125.80000000000001)"/><use xlink:href="#w" transform="matrix(1,0,0,1,800,200) translate(34.01 125.80000000000001)"/><use xlink:href="#D" transform="matrix(1,0,0,1,800,200) translate(52.959999999999994 125.80000000000001)"/><path d="M961 322.67h69c2.76 0 5-2.24 5-5V297c0-2.76 2.24-5 5-5h69" stroke="#000" stroke-width="2" fill="none"/><path d="M961 323.67h-1v-2h1zM1109 292l-14.27 4.64v-9.28z"/><path d="M1110 291.27v1.46l-16.27 5.28v-12zm-14.27 4l10.03-3.27-10.03-3.26z"/><path d="M1151 402.67h404.68c.08 0 .15.07.15.15 0 .1.07.16.16.16h404.66" stroke="#000" stroke-width="2" fill="none"/><path d="M1151 403.67h-1v-2h1zM1960.66 402.98l-14.27 4.63v-9.26z"/><path d="M1961 402.03l-.04.02-.68 2.1-14.9 4.84v-12.03zm-13.6 4.2l10.02-3.25-10.03-3.26z"/><g><use xlink:href="#E" transform="matrix(1,0,0,1,1207.406753014865,377.06668962822494) translate(0 14.4)"/><use xlink:href="#g" transform="matrix(1,0,0,1,1207.406753014865,377.06668962822494) translate(165.75 14.4)"/><use xlink:href="#h" transform="matrix(1,0,0,1,1207.406753014865,377.06668962822494) translate(255.65 14.4)"/><use xlink:href="#i" transform="matrix(1,0,0,1,1207.406753014865,377.06668962822494) translate(308.5 14.4)"/><use xlink:href="#j" transform="matrix(1,0,0,1,1207.406753014865,377.06668962822494) translate(395.4 14.4)"/><use xlink:href="#k" transform="matrix(1,0,0,1,1207.406753014865,377.06668962822494) translate(476.2 14.4)"/><use xlink:href="#l" transform="matrix(1,0,0,1,1207.406753014865,377.06668962822494) translate(568.05 14.4)"/></g><path d="M1960 405c0-2.76 2.24-5 5-5h30c2.76 0 5 2.24 5 5v50c0 2.76-2.24 5-5 5h-30c-2.76 0-5-2.24-5-5z" stroke="#000" stroke-width="2" fill="#fff"/><path d="M1961.8 458.7h-404.75c-.36 0-.65.28-.65.64 0 .37-.3.66-.66.66H1151" fill="none"/><path d="M1961.8 458.7h-10.03m-10.03 0h-20.05m-10.04 0h-20.05m-10 0h-20.07m-10.02 0h-20.04m-10.03 0h-20.05m-10.03 0h-20.05m-10.02 0h-20.06m-10.02 0h-20.05m-10.03 0h-20.05m-10.03 0H1651m-10.04 0h-20.05m-10 0h-20.07m-10.02 0h-20.04m-8.72 1.3H1532m-10.04 0h-20.05m-10.02 0h-20.05m-10.02 0h-20.05m-10.02 0h-20.05m-10.03 0h-20.05m-10.03 0h-20.05m-10.03 0h-20.06m-10.02 0h-20.06m-10.02 0h-20.05m-10.04 0h-20.05m-10.02 0h-20.05m-10.03 0h-20.05m-10.02 0H1151" stroke="#000" stroke-width="2" fill="none"/><path d="M1962.05 459.04l2 .65h-2.26v-1zM1168.72 450.68l-15.76 9.32 15.76 9.32-1 1.72-17.72-10.47v-1.14l17.7-10.47z"/><path d="M1110.58 498.72H745.32c-.02 0-.03 0-.03-.03 0-.02-.02-.03-.04-.03H380" fill="none"/><path d="M1110.58 498.72h-10.15m-10.15 0h-20.3m-10.14 0h-20.3m-10.14 0h-20.3m-10.15 0h-20.3m-10.14 0h-20.28m-10.15 0h-20.3m-10.14 0h-20.3m-10.15 0h-20.3m-10.14 0h-20.3m-10.14 0H796m-10.15 0h-20.3m-10.14 0h-10.08c-.02 0-.03 0-.03-.03 0-.02-.02-.03-.04-.03h-10.1m-10.14 0h-20.3m-10.14 0h-20.3m-10.14 0h-20.3m-10.15 0h-20.3m-10.15 0h-20.3m-10.14 0h-20.3m-10.14 0h-20.3m-10.14 0h-20.3m-10.14 0h-20.3m-10.15 0h-20.3m-10.14 0h-20.3m-10.15 0H380" stroke="#000" stroke-width="2" fill="none"/><path d="M1112.05 499.04l1.53.5v.18h-3v-2h.5zM397.72 489.35l-15.76 9.32 15.76 9.32-1 1.7-16.72-9.87v-2.33l16.7-9.87z"/><path d="M2140 405c0-2.76 2.24-5 5-5h126c2.76 0 6.58 1.58 8.54 3.54l16.92 16.92c1.96 1.96 3.54 5.78 3.54 8.54v86c0 2.76-2.24 5-5 5h-150c-2.76 0-5-2.24-5-5z" stroke="#000" stroke-width="2" fill="#fff"/><path d="M2277.2 404.85c-.66-2.68.38-3.27 2.34-1.3l16.92 16.9c1.96 1.97 1.37 3-1.3 2.34l-9.5-2.4c-2.7-.66-5.4-3.37-6.07-6.05z" stroke="#000" stroke-width="2" fill="#b3b3b3"/><g><use xlink:href="#q" transform="matrix(1,0,0,1,2140,400) translate(5.01 29.4)"/><use xlink:href="#F" transform="matrix(1,0,0,1,2140,400) translate(20.009999999999998 29.4)"/><use xlink:href="#G" transform="matrix(1,0,0,1,2140,400) translate(72.96000000000001 29.4)"/><use xlink:href="#H" transform="matrix(1,0,0,1,2140,400) translate(5.01 51)"/><use xlink:href="#y" transform="matrix(1,0,0,1,2140,400) translate(65.86000000000001 51)"/><use xlink:href="#z" transform="matrix(1,0,0,1,2140,400) translate(5.01 72.60000000000001)"/><use xlink:href="#A" transform="matrix(1,0,0,1,2140,400) translate(47.86 72.60000000000001)"/><use xlink:href="#I" transform="matrix(1,0,0,1,2140,400) translate(120.76 72.60000000000001)"/><use xlink:href="#J" transform="matrix(1,0,0,1,2140,400) translate(5.01 94.20000000000002)"/><use xlink:href="#K" transform="matrix(1,0,0,1,2140,400) translate(30.009999999999998 94.20000000000002)"/><use xlink:href="#L" transform="matrix(1,0,0,1,2140,400) translate(96.96000000000001 94.20000000000002)"/></g><path d="M2139 429.33h-67.67c-.73 0-1.33.6-1.33 1.34 0 .73-.6 1.33-1.33 1.33H2001" stroke="#000" stroke-width="2" fill="none"/><path d="M2140 430.33h-1v-2h1zM2015.27 436.64L2001 432l14.27-4.64z"/><path d="M2016.27 438l-16.27-5.27v-1.46l16.27-5.28zm-12.03-6l10.03 3.26v-6.52z"/><defs><path d="M33-154v-36h34v36H33zM33 0v-36h34V0H33" id="M"/><path d="M212-179c-10-28-35-45-73-45-59 0-87 40-87 99 0 60 29 101 89 101 43 0 62-24 78-52l27 14C228-24 195 4 139 4 59 4 22-46 18-125c-6-104 99-153 187-111 19 9 31 26 39 46" id="N"/><path d="M114-163C36-179 61-72 57 0H25l-1-190h30c1 12-1 29 2 39 6-27 23-49 58-41v29" id="O"/><path d="M100-194c63 0 86 42 84 106H49c0 40 14 67 53 68 26 1 43-12 49-29l28 8c-11 28-37 45-77 45C44 4 14-33 15-96c1-61 26-98 85-98zm52 81c6-60-76-77-97-28-3 7-6 17-6 28h103" id="P"/><path d="M141-36C126-15 110 5 73 4 37 3 15-17 15-53c-1-64 63-63 125-63 3-35-9-54-41-54-24 1-41 7-42 31l-33-3c5-37 33-52 76-52 45 0 72 20 72 64v82c-1 20 7 32 28 27v20c-31 9-61-2-59-35zM48-53c0 20 12 33 32 33 41-3 63-29 60-74-43 2-92-5-92 41" id="Q"/><path d="M59-47c-2 24 18 29 38 22v24C64 9 27 4 27-40v-127H5v-23h24l9-43h21v43h35v23H59v120" id="R"/><path d="M232-93c-1 65-40 97-104 97C67 4 28-28 28-90v-158h33c8 89-33 224 67 224 102 0 64-133 71-224h33v155" id="S"/><path d="M135-143c-3-34-86-38-87 0 15 53 115 12 119 90S17 21 10-45l28-5c4 36 97 45 98 0-10-56-113-15-118-90-4-57 82-63 122-42 12 7 21 19 24 35" id="T"/><path d="M137 0h-34L2-248h35l83 218 83-218h36" id="U"/><path d="M24-231v-30h32v30H24zM24 0v-190h32V0H24" id="V"/><path d="M206 0h-36l-40-164L89 0H53L-1-190h32L70-26l43-164h34l41 164 42-164h31" id="W"/><g id="a"><use transform="matrix(0.05,0,0,0.05,0,0)" xlink:href="#M"/><use transform="matrix(0.05,0,0,0.05,5,0)" xlink:href="#N"/><use transform="matrix(0.05,0,0,0.05,17.950000000000003,0)" xlink:href="#O"/><use transform="matrix(0.05,0,0,0.05,23.900000000000002,0)" xlink:href="#P"/><use transform="matrix(0.05,0,0,0.05,33.900000000000006,0)" xlink:href="#Q"/><use transform="matrix(0.05,0,0,0.05,43.900000000000006,0)" xlink:href="#R"/><use transform="matrix(0.05,0,0,0.05,48.900000000000006,0)" xlink:href="#P"/><use transform="matrix(0.05,0,0,0.05,58.900000000000006,0)" xlink:href="#S"/><use transform="matrix(0.05,0,0,0.05,71.85000000000001,0)" xlink:href="#T"/><use transform="matrix(0.05,0,0,0.05,80.85000000000001,0)" xlink:href="#P"/><use transform="matrix(0.05,0,0,0.05,90.85000000000001,0)" xlink:href="#O"/><use transform="matrix(0.05,0,0,0.05,96.80000000000001,0)" xlink:href="#U"/><use transform="matrix(0.05,0,0,0.05,108.45,0)" xlink:href="#V"/><use transform="matrix(0.05,0,0,0.05,112.40000000000003,0)" xlink:href="#P"/><use transform="matrix(0.05,0,0,0.05,122.40000000000003,0)" xlink:href="#W"/><path d="M-.9 1.25h137.15v1.32H-.9z"/></g><path d="M205 0l-28-72H64L36 0H1l101-248h38L239 0h-34zm-38-99l-47-123c-12 45-31 82-46 123h93" id="X"/><path d="M85-194c31 0 48 13 60 33l-1-100h32l1 261h-30c-2-10 0-23-3-31C134-8 116 4 85 4 32 4 16-35 15-94c0-66 23-100 70-100zm9 24c-40 0-46 34-46 75 0 40 6 74 45 74 42 0 51-32 51-76 0-42-9-74-50-73" id="Y"/><path d="M210-169c-67 3-38 105-44 169h-31v-121c0-29-5-50-35-48C34-165 62-65 56 0H25l-1-190h30c1 10-1 24 2 32 10-44 99-50 107 0 11-21 27-35 58-36 85-2 47 119 55 194h-31v-121c0-29-5-49-35-48" id="Z"/><path d="M117-194c89-4 53 116 60 194h-32v-121c0-31-8-49-39-48C34-167 62-67 57 0H25l-1-190h30c1 10-1 24 2 32 11-22 29-35 61-36" id="aa"/><path d="M100-194c62-1 85 37 85 99 1 63-27 99-86 99S16-35 15-95c0-66 28-99 85-99zM99-20c44 1 53-31 53-75 0-43-8-75-51-75s-53 32-53 75 10 74 51 75" id="ab"/><g id="b"><use transform="matrix(0.05,0,0,0.05,0,0)" xlink:href="#X"/><use transform="matrix(0.05,0,0,0.05,12,0)" xlink:href="#Y"/><use transform="matrix(0.05,0,0,0.05,22,0)" xlink:href="#Z"/><use transform="matrix(0.05,0,0,0.05,36.95,0)" xlink:href="#V"/><use transform="matrix(0.05,0,0,0.05,40.900000000000006,0)" xlink:href="#aa"/><use transform="matrix(0.05,0,0,0.05,50.900000000000006,0)" xlink:href="#V"/><use transform="matrix(0.05,0,0,0.05,54.85,0)" xlink:href="#T"/><use transform="matrix(0.05,0,0,0.05,63.85,0)" xlink:href="#R"/><use transform="matrix(0.05,0,0,0.05,68.85000000000001,0)" xlink:href="#O"/><use transform="matrix(0.05,0,0,0.05,74.80000000000001,0)" xlink:href="#Q"/><use transform="matrix(0.05,0,0,0.05,84.80000000000001,0)" xlink:href="#R"/><use transform="matrix(0.05,0,0,0.05,89.80000000000001,0)" xlink:href="#ab"/><use transform="matrix(0.05,0,0,0.05,99.80000000000001,0)" xlink:href="#O"/></g><path d="M30-248c118-7 216 8 213 122C240-48 200 0 122 0H30v-248zM63-27c89 8 146-16 146-99s-60-101-146-95v194" id="ac"/><path d="M140-251c81 0 123 46 123 126C263-46 219 4 140 4 59 4 17-45 17-125s42-126 123-126zm0 227c63 0 89-41 89-101s-29-99-89-99c-61 0-89 39-89 99S79-25 140-24" id="ad"/><g id="c"><use transform="matrix(0.05,0,0,0.05,0,0)" xlink:href="#M"/><use transform="matrix(0.05,0,0,0.05,5,0)" xlink:href="#S"/><use transform="matrix(0.05,0,0,0.05,17.950000000000003,0)" xlink:href="#T"/><use transform="matrix(0.05,0,0,0.05,26.950000000000003,0)" xlink:href="#P"/><use transform="matrix(0.05,0,0,0.05,36.95,0)" xlink:href="#O"/><use transform="matrix(0.05,0,0,0.05,42.900000000000006,0)" xlink:href="#ac"/><use transform="matrix(0.05,0,0,0.05,55.85,0)" xlink:href="#X"/><use transform="matrix(0.05,0,0,0.05,67.85000000000001,0)" xlink:href="#ad"/><path d="M-.9 1.25h83.65v1.32H-.9z"/></g><path d="M96-169c-40 0-48 33-48 73s9 75 48 75c24 0 41-14 43-38l32 2c-6 37-31 61-74 61-59 0-76-41-82-99-10-93 101-131 147-64 4 7 5 14 7 22l-32 3c-4-21-16-35-41-35" id="ae"/><path d="M30-248c87 1 191-15 191 75 0 78-77 80-158 76V0H30v-248zm33 125c57 0 124 11 124-50 0-59-68-47-124-48v98" id="af"/><path d="M87 75C49 33 22-17 22-94c0-76 28-126 65-167h31c-38 41-64 92-64 168S80 34 118 75H87" id="ag"/><path d="M33-261c38 41 65 92 65 168S71 34 33 75H2C39 34 66-17 66-93S39-220 2-261h31" id="ah"/><g id="d"><use transform="matrix(0.05,0,0,0.05,0,0)" xlink:href="#ae"/><use transform="matrix(0.05,0,0,0.05,9,0)" xlink:href="#O"/><use transform="matrix(0.05,0,0,0.05,14.949999999999998,0)" xlink:href="#P"/><use transform="matrix(0.05,0,0,0.05,24.95,0)" xlink:href="#Q"/><use transform="matrix(0.05,0,0,0.05,34.95,0)" xlink:href="#R"/><use transform="matrix(0.05,0,0,0.05,39.95,0)" xlink:href="#P"/><use transform="matrix(0.05,0,0,0.05,49.95,0)" xlink:href="#S"/><use transform="matrix(0.05,0,0,0.05,62.900000000000006,0)" xlink:href="#T"/><use transform="matrix(0.05,0,0,0.05,71.9,0)" xlink:href="#P"/><use transform="matrix(0.05,0,0,0.05,81.9,0)" xlink:href="#O"/><use transform="matrix(0.05,0,0,0.05,87.85000000000001,0)" xlink:href="#af"/><use transform="matrix(0.05,0,0,0.05,99.85000000000001,0)" xlink:href="#O"/><use transform="matrix(0.05,0,0,0.05,105.80000000000001,0)" xlink:href="#P"/><use transform="matrix(0.05,0,0,0.05,115.80000000000001,0)" xlink:href="#T"/><use transform="matrix(0.05,0,0,0.05,124.80000000000001,0)" xlink:href="#T"/><use transform="matrix(0.05,0,0,0.05,133.8,0)" xlink:href="#P"/><use transform="matrix(0.05,0,0,0.05,143.8,0)" xlink:href="#Y"/><use transform="matrix(0.05,0,0,0.05,153.8,0)" xlink:href="#ag"/><use transform="matrix(0.05,0,0,0.05,159.75,0)" xlink:href="#ah"/></g><path d="M24 0v-261h32V0H24" id="ai"/><g id="e"><use transform="matrix(0.05,0,0,0.05,0,0)" xlink:href="#M"/><use transform="matrix(0.05,0,0,0.05,5,0)" xlink:href="#N"/><use transform="matrix(0.05,0,0,0.05,17.950000000000003,0)" xlink:href="#O"/><use transform="matrix(0.05,0,0,0.05,23.900000000000002,0)" xlink:href="#P"/><use transform="matrix(0.05,0,0,0.05,33.900000000000006,0)" xlink:href="#Q"/><use transform="matrix(0.05,0,0,0.05,43.900000000000006,0)" xlink:href="#R"/><use transform="matrix(0.05,0,0,0.05,48.900000000000006,0)" xlink:href="#P"/><use transform="matrix(0.05,0,0,0.05,58.900000000000006,0)" xlink:href="#S"/><use transform="matrix(0.05,0,0,0.05,71.85000000000001,0)" xlink:href="#T"/><use transform="matrix(0.05,0,0,0.05,80.85000000000001,0)" xlink:href="#P"/><use transform="matrix(0.05,0,0,0.05,90.85000000000001,0)" xlink:href="#O"/><use transform="matrix(0.05,0,0,0.05,96.80000000000001,0)" xlink:href="#N"/><use transform="matrix(0.05,0,0,0.05,109.75,0)" xlink:href="#ab"/><use transform="matrix(0.05,0,0,0.05,119.75,0)" xlink:href="#aa"/><use transform="matrix(0.05,0,0,0.05,129.75,0)" xlink:href="#R"/><use transform="matrix(0.05,0,0,0.05,134.75,0)" xlink:href="#O"/><use transform="matrix(0.05,0,0,0.05,140.7,0)" xlink:href="#ab"/><use transform="matrix(0.05,0,0,0.05,150.7,0)" xlink:href="#ai"/><use transform="matrix(0.05,0,0,0.05,154.64999999999998,0)" xlink:href="#ai"/><use transform="matrix(0.05,0,0,0.05,158.59999999999997,0)" xlink:href="#P"/><use transform="matrix(0.05,0,0,0.05,168.59999999999997,0)" xlink:href="#O"/><path d="M-.9 1.25h176.35v1.32H-.9z"/></g><path d="M84 4C-5 8 30-112 23-190h32v120c0 31 7 50 39 49 72-2 45-101 50-169h31l1 190h-30c-1-10 1-25-2-33-11 22-28 36-60 37" id="aj"/><path d="M127-220V0H93v-220H8v-28h204v28h-85" id="ak"/><path d="M179-190L93 31C79 59 56 82 12 73V49c39 6 53-20 64-50L1-190h34L92-34l54-156h33" id="al"/><path d="M115-194c55 1 70 41 70 98S169 2 115 4C84 4 66-9 55-30l1 105H24l-1-265h31l2 30c10-21 28-34 59-34zm-8 174c40 0 45-34 45-75s-6-73-45-74c-42 0-51 32-51 76 0 43 10 73 51 73" id="am"/><path d="M68-38c1 34 0 65-14 84H32c9-13 17-26 17-46H33v-38h35" id="an"/><g id="f"><use transform="matrix(0.05,0,0,0.05,0,0)" xlink:href="#ae"/><use transform="matrix(0.05,0,0,0.05,9,0)" xlink:href="#O"/><use transform="matrix(0.05,0,0,0.05,14.949999999999998,0)" xlink:href="#P"/><use transform="matrix(0.05,0,0,0.05,24.95,0)" xlink:href="#Q"/><use transform="matrix(0.05,0,0,0.05,34.95,0)" xlink:href="#R"/><use transform="matrix(0.05,0,0,0.05,39.95,0)" xlink:href="#P"/><use transform="matrix(0.05,0,0,0.05,49.95,0)" xlink:href="#S"/><use transform="matrix(0.05,0,0,0.05,62.900000000000006,0)" xlink:href="#T"/><use transform="matrix(0.05,0,0,0.05,71.9,0)" xlink:href="#P"/><use transform="matrix(0.05,0,0,0.05,81.9,0)" xlink:href="#O"/><use transform="matrix(0.05,0,0,0.05,87.85000000000001,0)" xlink:href="#ag"/><use transform="matrix(0.05,0,0,0.05,93.80000000000001,0)" xlink:href="#aj"/><use transform="matrix(0.05,0,0,0.05,103.80000000000001,0)" xlink:href="#T"/><use transform="matrix(0.05,0,0,0.05,112.80000000000001,0)" xlink:href="#P"/><use transform="matrix(0.05,0,0,0.05,122.80000000000001,0)" xlink:href="#O"/><use transform="matrix(0.05,0,0,0.05,128.75,0)" xlink:href="#ak"/><use transform="matrix(0.05,0,0,0.05,138.7,0)" xlink:href="#al"/><use transform="matrix(0.05,0,0,0.05,147.7,0)" xlink:href="#am"/><use transform="matrix(0.05,0,0,0.05,157.7,0)" xlink:href="#P"/><use transform="matrix(0.05,0,0,0.05,167.7,0)" xlink:href="#an"/></g><g id="g"><use transform="matrix(0.05,0,0,0.05,0,0)" xlink:href="#aj"/><use transform="matrix(0.05,0,0,0.05,10,0)" xlink:href="#T"/><use transform="matrix(0.05,0,0,0.05,19,0)" xlink:href="#P"/><use transform="matrix(0.05,0,0,0.05,29,0)" xlink:href="#O"/><use transform="matrix(0.05,0,0,0.05,34.95,0)" xlink:href="#aa"/><use transform="matrix(0.05,0,0,0.05,44.95,0)" xlink:href="#Q"/><use transform="matrix(0.05,0,0,0.05,54.95,0)" xlink:href="#Z"/><use transform="matrix(0.05,0,0,0.05,69.9,0)" xlink:href="#P"/><use transform="matrix(0.05,0,0,0.05,79.9,0)" xlink:href="#an"/></g><g id="h"><use transform="matrix(0.05,0,0,0.05,0,0)" xlink:href="#P"/><use transform="matrix(0.05,0,0,0.05,10,0)" xlink:href="#Z"/><use transform="matrix(0.05,0,0,0.05,24.950000000000003,0)" xlink:href="#Q"/><use transform="matrix(0.05,0,0,0.05,34.95,0)" xlink:href="#V"/><use transform="matrix(0.05,0,0,0.05,38.900000000000006,0)" xlink:href="#ai"/><use transform="matrix(0.05,0,0,0.05,42.85000000000001,0)" xlink:href="#an"/></g><g id="i"><use transform="matrix(0.05,0,0,0.05,0,0)" xlink:href="#am"/><use transform="matrix(0.05,0,0,0.05,10,0)" xlink:href="#Q"/><use transform="matrix(0.05,0,0,0.05,20,0)" xlink:href="#T"/><use transform="matrix(0.05,0,0,0.05,29,0)" xlink:href="#T"/><use transform="matrix(0.05,0,0,0.05,38,0)" xlink:href="#W"/><use transform="matrix(0.05,0,0,0.05,50.95,0)" xlink:href="#ab"/><use transform="matrix(0.05,0,0,0.05,60.95,0)" xlink:href="#O"/><use transform="matrix(0.05,0,0,0.05,66.9,0)" xlink:href="#Y"/><use transform="matrix(0.05,0,0,0.05,76.9,0)" xlink:href="#an"/></g><path d="M101-234c-31-9-42 10-38 44h38v23H63V0H32v-167H5v-23h27c-7-52 17-82 69-68v24" id="ao"/><path d="M190 0L58-211 59 0H30v-248h39L202-35l-2-213h31V0h-41" id="ap"/><g id="j"><use transform="matrix(0.05,0,0,0.05,0,0)" xlink:href="#ao"/><use transform="matrix(0.05,0,0,0.05,5,0)" xlink:href="#aj"/><use transform="matrix(0.05,0,0,0.05,15,0)" xlink:href="#ai"/><use transform="matrix(0.05,0,0,0.05,18.95,0)" xlink:href="#ai"/><use transform="matrix(0.05,0,0,0.05,22.9,0)" xlink:href="#ap"/><use transform="matrix(0.05,0,0,0.05,35.85,0)" xlink:href="#Q"/><use transform="matrix(0.05,0,0,0.05,45.85,0)" xlink:href="#Z"/><use transform="matrix(0.05,0,0,0.05,60.800000000000004,0)" xlink:href="#P"/><use transform="matrix(0.05,0,0,0.05,70.80000000000001,0)" xlink:href="#an"/></g><path d="M108 0H70L1-190h34L89-25l56-165h34" id="aq"/><g id="k"><use transform="matrix(0.05,0,0,0.05,0,0)" xlink:href="#T"/><use transform="matrix(0.05,0,0,0.05,9,0)" xlink:href="#aj"/><use transform="matrix(0.05,0,0,0.05,19,0)" xlink:href="#am"/><use transform="matrix(0.05,0,0,0.05,29,0)" xlink:href="#P"/><use transform="matrix(0.05,0,0,0.05,39,0)" xlink:href="#O"/><use transform="matrix(0.05,0,0,0.05,44.95,0)" xlink:href="#aq"/><use transform="matrix(0.05,0,0,0.05,53.95,0)" xlink:href="#V"/><use transform="matrix(0.05,0,0,0.05,57.900000000000006,0)" xlink:href="#T"/><use transform="matrix(0.05,0,0,0.05,66.9,0)" xlink:href="#ab"/><use transform="matrix(0.05,0,0,0.05,76.9,0)" xlink:href="#O"/><use transform="matrix(0.05,0,0,0.05,81.85000000000001,0)" xlink:href="#an"/></g><path d="M106-169C34-169 62-67 57 0H25v-261h32l-1 103c12-21 28-36 61-36 89 0 53 116 60 194h-32v-121c2-32-8-49-39-48" id="ar"/><path d="M240 0l2-218c-23 76-54 145-80 218h-23L58-218 59 0H30v-248h44l77 211c21-75 51-140 76-211h43V0h-30" id="as"/><g id="l"><use transform="matrix(0.05,0,0,0.05,0,0)" xlink:href="#ar"/><use transform="matrix(0.05,0,0,0.05,10,0)" xlink:href="#ab"/><use transform="matrix(0.05,0,0,0.05,20,0)" xlink:href="#aj"/><use transform="matrix(0.05,0,0,0.05,30,0)" xlink:href="#O"/><use transform="matrix(0.05,0,0,0.05,35.95,0)" xlink:href="#T"/><use transform="matrix(0.05,0,0,0.05,44.95,0)" xlink:href="#af"/><use transform="matrix(0.05,0,0,0.05,56.95,0)" xlink:href="#P"/><use transform="matrix(0.05,0,0,0.05,66.95,0)" xlink:href="#O"/><use transform="matrix(0.05,0,0,0.05,72.9,0)" xlink:href="#as"/><use transform="matrix(0.05,0,0,0.05,87.85000000000001,0)" xlink:href="#ab"/><use transform="matrix(0.05,0,0,0.05,97.85000000000001,0)" xlink:href="#aa"/><use transform="matrix(0.05,0,0,0.05,107.85000000000001,0)" xlink:href="#R"/><use transform="matrix(0.05,0,0,0.05,112.85000000000001,0)" xlink:href="#ar"/><use transform="matrix(0.05,0,0,0.05,122.85000000000001,0)" xlink:href="#ah"/></g><g id="m"><use transform="matrix(0.05,0,0,0.05,0,0)" xlink:href="#ao"/><use transform="matrix(0.05,0,0,0.05,5,0)" xlink:href="#V"/><use transform="matrix(0.05,0,0,0.05,8.95,0)" xlink:href="#aa"/><use transform="matrix(0.05,0,0,0.05,18.95,0)" xlink:href="#Y"/><use transform="matrix(0.05,0,0,0.05,28.950000000000003,0)" xlink:href="#S"/><use transform="matrix(0.05,0,0,0.05,41.9,0)" xlink:href="#T"/><use transform="matrix(0.05,0,0,0.05,50.9,0)" xlink:href="#P"/><use transform="matrix(0.05,0,0,0.05,60.900000000000006,0)" xlink:href="#O"/><use transform="matrix(0.05,0,0,0.05,66.85,0)" xlink:href="#ag"/><use transform="matrix(0.05,0,0,0.05,72.8,0)" xlink:href="#aj"/><use transform="matrix(0.05,0,0,0.05,82.8,0)" xlink:href="#T"/><use transform="matrix(0.05,0,0,0.05,91.8,0)" xlink:href="#P"/><use transform="matrix(0.05,0,0,0.05,101.8,0)" xlink:href="#O"/><use transform="matrix(0.05,0,0,0.05,107.75,0)" xlink:href="#aa"/><use transform="matrix(0.05,0,0,0.05,117.75,0)" xlink:href="#Q"/><use transform="matrix(0.05,0,0,0.05,127.75,0)" xlink:href="#Z"/><use transform="matrix(0.05,0,0,0.05,142.7,0)" xlink:href="#P"/><use transform="matrix(0.05,0,0,0.05,152.7,0)" xlink:href="#ah"/></g><path d="M30 0v-248h187v28H63v79h144v27H63v87h162V0H30" id="at"/><path d="M141 0L90-78 38 0H4l68-98-65-92h35l48 74 47-74h35l-64 92 68 98h-35" id="au"/><g id="n"><use transform="matrix(0.05,0,0,0.05,0,0)" xlink:href="#aj"/><use transform="matrix(0.05,0,0,0.05,10,0)" xlink:href="#T"/><use transform="matrix(0.05,0,0,0.05,19,0)" xlink:href="#P"/><use transform="matrix(0.05,0,0,0.05,29,0)" xlink:href="#O"/><use transform="matrix(0.05,0,0,0.05,34.95,0)" xlink:href="#at"/><use transform="matrix(0.05,0,0,0.05,46.95,0)" xlink:href="#au"/><use transform="matrix(0.05,0,0,0.05,55.95,0)" xlink:href="#V"/><use transform="matrix(0.05,0,0,0.05,59.900000000000006,0)" xlink:href="#T"/><use transform="matrix(0.05,0,0,0.05,68.9,0)" xlink:href="#R"/><use transform="matrix(0.05,0,0,0.05,73.9,0)" xlink:href="#T"/></g><path d="M177-190C167-65 218 103 67 71c-23-6-38-20-44-43l32-5c15 47 100 32 89-28v-30C133-14 115 1 83 1 29 1 15-40 15-95c0-56 16-97 71-98 29-1 48 16 59 35 1-10 0-23 2-32h30zM94-22c36 0 50-32 50-73 0-42-14-75-50-75-39 0-46 34-46 75s6 73 46 73" id="av"/><g id="o"><use transform="matrix(0.05,0,0,0.05,0,0)" xlink:href="#as"/><use transform="matrix(0.05,0,0,0.05,14.950000000000001,0)" xlink:href="#P"/><use transform="matrix(0.05,0,0,0.05,24.950000000000003,0)" xlink:href="#T"/><use transform="matrix(0.05,0,0,0.05,33.95,0)" xlink:href="#T"/><use transform="matrix(0.05,0,0,0.05,42.95,0)" xlink:href="#Q"/><use transform="matrix(0.05,0,0,0.05,52.95,0)" xlink:href="#av"/><use transform="matrix(0.05,0,0,0.05,62.95,0)" xlink:href="#P"/></g><g id="p"><use transform="matrix(0.05,0,0,0.05,0,0)" xlink:href="#aj"/><use transform="matrix(0.05,0,0,0.05,10,0)" xlink:href="#T"/><use transform="matrix(0.05,0,0,0.05,19,0)" xlink:href="#P"/><use transform="matrix(0.05,0,0,0.05,29,0)" xlink:href="#O"/><use transform="matrix(0.05,0,0,0.05,34.95,0)" xlink:href="#as"/><use transform="matrix(0.05,0,0,0.05,49.900000000000006,0)" xlink:href="#Q"/><use transform="matrix(0.05,0,0,0.05,59.900000000000006,0)" xlink:href="#V"/><use transform="matrix(0.05,0,0,0.05,63.85,0)" xlink:href="#ai"/><use transform="matrix(0.05,0,0,0.05,67.80000000000001,0)" xlink:href="#at"/><use transform="matrix(0.05,0,0,0.05,79.80000000000001,0)" xlink:href="#au"/><use transform="matrix(0.05,0,0,0.05,88.80000000000001,0)" xlink:href="#V"/><use transform="matrix(0.05,0,0,0.05,92.75000000000001,0)" xlink:href="#T"/><use transform="matrix(0.05,0,0,0.05,101.75000000000001,0)" xlink:href="#R"/><use transform="matrix(0.05,0,0,0.05,106.75,0)" xlink:href="#T"/></g><path d="M33 0v-248h34V0H33" id="aw"/><g id="q"><use transform="matrix(0.05,0,0,0.05,0,0)" xlink:href="#aw"/><use transform="matrix(0.05,0,0,0.05,5,0)" xlink:href="#ao"/></g><g id="r"><use transform="matrix(0.05,0,0,0.05,0,0)" xlink:href="#S"/><use transform="matrix(0.05,0,0,0.05,12.950000000000001,0)" xlink:href="#T"/><use transform="matrix(0.05,0,0,0.05,21.950000000000003,0)" xlink:href="#P"/><use transform="matrix(0.05,0,0,0.05,31.950000000000003,0)" xlink:href="#O"/></g><g id="s"><use transform="matrix(0.05,0,0,0.05,0,0)" xlink:href="#ab"/><use transform="matrix(0.05,0,0,0.05,10,0)" xlink:href="#O"/></g><g id="t"><use transform="matrix(0.05,0,0,0.05,0,0)" xlink:href="#at"/><use transform="matrix(0.05,0,0,0.05,12,0)" xlink:href="#Z"/><use transform="matrix(0.05,0,0,0.05,26.950000000000003,0)" xlink:href="#Q"/><use transform="matrix(0.05,0,0,0.05,36.95,0)" xlink:href="#V"/><use transform="matrix(0.05,0,0,0.05,40.900000000000006,0)" xlink:href="#ai"/></g><g id="u"><use transform="matrix(0.05,0,0,0.05,0,0)" xlink:href="#Q"/><use transform="matrix(0.05,0,0,0.05,10,0)" xlink:href="#O"/><use transform="matrix(0.05,0,0,0.05,15.949999999999998,0)" xlink:href="#P"/></g><g id="v"><use transform="matrix(0.05,0,0,0.05,0,0)" xlink:href="#Q"/><use transform="matrix(0.05,0,0,0.05,10,0)" xlink:href="#ai"/><use transform="matrix(0.05,0,0,0.05,13.949999999999998,0)" xlink:href="#O"/><use transform="matrix(0.05,0,0,0.05,19.9,0)" xlink:href="#P"/><use transform="matrix(0.05,0,0,0.05,29.899999999999995,0)" xlink:href="#Q"/><use transform="matrix(0.05,0,0,0.05,39.9,0)" xlink:href="#Y"/><use transform="matrix(0.05,0,0,0.05,49.9,0)" xlink:href="#al"/></g><g id="w"><use transform="matrix(0.05,0,0,0.05,0,0)" xlink:href="#V"/><use transform="matrix(0.05,0,0,0.05,3.95,0)" xlink:href="#aa"/></g><g id="x"><use transform="matrix(0.05,0,0,0.05,0,0)" xlink:href="#aj"/><use transform="matrix(0.05,0,0,0.05,10,0)" xlink:href="#T"/><use transform="matrix(0.05,0,0,0.05,19,0)" xlink:href="#P"/></g><g id="y"><use transform="matrix(0.05,0,0,0.05,0,0)" xlink:href="#V"/><use transform="matrix(0.05,0,0,0.05,3.95,0)" xlink:href="#aa"/><use transform="matrix(0.05,0,0,0.05,13.949999999999998,0)" xlink:href="#R"/><use transform="matrix(0.05,0,0,0.05,18.95,0)" xlink:href="#P"/><use transform="matrix(0.05,0,0,0.05,28.950000000000003,0)" xlink:href="#O"/><use transform="matrix(0.05,0,0,0.05,34.9,0)" xlink:href="#aa"/><use transform="matrix(0.05,0,0,0.05,44.9,0)" xlink:href="#Q"/><use transform="matrix(0.05,0,0,0.05,54.900000000000006,0)" xlink:href="#ai"/></g><g id="z"><use transform="matrix(0.05,0,0,0.05,0,0)" xlink:href="#P"/><use transform="matrix(0.05,0,0,0.05,10,0)" xlink:href="#O"/><use transform="matrix(0.05,0,0,0.05,15.949999999999998,0)" xlink:href="#O"/><use transform="matrix(0.05,0,0,0.05,21.9,0)" xlink:href="#ab"/><use transform="matrix(0.05,0,0,0.05,31.899999999999995,0)" xlink:href="#O"/></g><g id="A"><use transform="matrix(0.05,0,0,0.05,0,0)" xlink:href="#ar"/><use transform="matrix(0.05,0,0,0.05,10,0)" xlink:href="#Q"/><use transform="matrix(0.05,0,0,0.05,20,0)" xlink:href="#aa"/><use transform="matrix(0.05,0,0,0.05,30,0)" xlink:href="#Y"/><use transform="matrix(0.05,0,0,0.05,40,0)" xlink:href="#ai"/><use transform="matrix(0.05,0,0,0.05,43.95,0)" xlink:href="#V"/><use transform="matrix(0.05,0,0,0.05,47.900000000000006,0)" xlink:href="#aa"/><use transform="matrix(0.05,0,0,0.05,57.900000000000006,0)" xlink:href="#av"/></g><g id="B"><use transform="matrix(0.05,0,0,0.05,0,0)" xlink:href="#V"/><use transform="matrix(0.05,0,0,0.05,3.95,0)" xlink:href="#T"/></g><g id="C"><use transform="matrix(0.05,0,0,0.05,0,0)" xlink:href="#T"/><use transform="matrix(0.05,0,0,0.05,9,0)" xlink:href="#P"/><use transform="matrix(0.05,0,0,0.05,19,0)" xlink:href="#R"/></g><g id="D"><use transform="matrix(0.05,0,0,0.05,0,0)" xlink:href="#Z"/><use transform="matrix(0.05,0,0,0.05,14.950000000000001,0)" xlink:href="#ab"/><use transform="matrix(0.05,0,0,0.05,24.950000000000003,0)" xlink:href="#aa"/><use transform="matrix(0.05,0,0,0.05,34.95,0)" xlink:href="#R"/><use transform="matrix(0.05,0,0,0.05,39.95,0)" xlink:href="#V"/><use transform="matrix(0.05,0,0,0.05,43.900000000000006,0)" xlink:href="#ab"/><use transform="matrix(0.05,0,0,0.05,53.900000000000006,0)" xlink:href="#aa"/></g><g id="E"><use transform="matrix(0.05,0,0,0.05,0,0)" xlink:href="#T"/><use transform="matrix(0.05,0,0,0.05,9,0)" xlink:href="#Q"/><use transform="matrix(0.05,0,0,0.05,19,0)" xlink:href="#aq"/><use transform="matrix(0.05,0,0,0.05,28,0)" xlink:href="#P"/><use transform="matrix(0.05,0,0,0.05,38,0)" xlink:href="#S"/><use transform="matrix(0.05,0,0,0.05,50.95,0)" xlink:href="#T"/><use transform="matrix(0.05,0,0,0.05,59.95,0)" xlink:href="#P"/><use transform="matrix(0.05,0,0,0.05,69.95,0)" xlink:href="#O"/><use transform="matrix(0.05,0,0,0.05,75.9,0)" xlink:href="#ag"/><use transform="matrix(0.05,0,0,0.05,81.85000000000001,0)" xlink:href="#aj"/><use transform="matrix(0.05,0,0,0.05,91.85000000000001,0)" xlink:href="#T"/><use transform="matrix(0.05,0,0,0.05,100.85000000000001,0)" xlink:href="#P"/><use transform="matrix(0.05,0,0,0.05,110.85000000000001,0)" xlink:href="#O"/><use transform="matrix(0.05,0,0,0.05,116.80000000000001,0)" xlink:href="#ak"/><use transform="matrix(0.05,0,0,0.05,126.75,0)" xlink:href="#al"/><use transform="matrix(0.05,0,0,0.05,135.75,0)" xlink:href="#am"/><use transform="matrix(0.05,0,0,0.05,145.75,0)" xlink:href="#P"/><use transform="matrix(0.05,0,0,0.05,155.75,0)" xlink:href="#an"/></g><g id="F"><use transform="matrix(0.05,0,0,0.05,0,0)" xlink:href="#V"/><use transform="matrix(0.05,0,0,0.05,3.95,0)" xlink:href="#aa"/><use transform="matrix(0.05,0,0,0.05,13.949999999999998,0)" xlink:href="#am"/><use transform="matrix(0.05,0,0,0.05,23.95,0)" xlink:href="#aj"/><use transform="matrix(0.05,0,0,0.05,33.95,0)" xlink:href="#R"/><use transform="matrix(0.05,0,0,0.05,38.95,0)" xlink:href="#T"/></g><g id="G"><use transform="matrix(0.05,0,0,0.05,0,0)" xlink:href="#Q"/><use transform="matrix(0.05,0,0,0.05,10,0)" xlink:href="#O"/><use transform="matrix(0.05,0,0,0.05,15.949999999999998,0)" xlink:href="#P"/></g><g id="H"><use transform="matrix(0.05,0,0,0.05,0,0)" xlink:href="#V"/><use transform="matrix(0.05,0,0,0.05,3.95,0)" xlink:href="#aa"/><use transform="matrix(0.05,0,0,0.05,13.949999999999998,0)" xlink:href="#aq"/><use transform="matrix(0.05,0,0,0.05,22.95,0)" xlink:href="#Q"/><use transform="matrix(0.05,0,0,0.05,32.95,0)" xlink:href="#ai"/><use transform="matrix(0.05,0,0,0.05,36.900000000000006,0)" xlink:href="#V"/><use transform="matrix(0.05,0,0,0.05,40.85000000000001,0)" xlink:href="#Y"/><use transform="matrix(0.05,0,0,0.05,50.85000000000001,0)" xlink:href="#an"/></g><g id="I"><use transform="matrix(0.05,0,0,0.05,0,0)" xlink:href="#W"/><use transform="matrix(0.05,0,0,0.05,12.950000000000001,0)" xlink:href="#V"/><use transform="matrix(0.05,0,0,0.05,16.900000000000002,0)" xlink:href="#ai"/><use transform="matrix(0.05,0,0,0.05,20.85,0)" xlink:href="#ai"/></g><path d="M115-194c53 0 69 39 70 98 0 66-23 100-70 100C84 3 66-7 56-30L54 0H23l1-261h32v101c10-23 28-34 59-34zm-8 174c40 0 45-34 45-75 0-40-5-75-45-74-42 0-51 32-51 76 0 43 10 73 51 73" id="ax"/><g id="J"><use transform="matrix(0.05,0,0,0.05,0,0)" xlink:href="#ax"/><use transform="matrix(0.05,0,0,0.05,10,0)" xlink:href="#P"/></g><path d="M143 0L79-87 56-68V0H24v-261h32v163l83-92h37l-77 82L181 0h-38" id="ay"/><g id="K"><use transform="matrix(0.05,0,0,0.05,0,0)" xlink:href="#V"/><use transform="matrix(0.05,0,0,0.05,3.95,0)" xlink:href="#aa"/><use transform="matrix(0.05,0,0,0.05,13.949999999999998,0)" xlink:href="#aq"/><use transform="matrix(0.05,0,0,0.05,22.95,0)" xlink:href="#ab"/><use transform="matrix(0.05,0,0,0.05,32.95,0)" xlink:href="#ay"/><use transform="matrix(0.05,0,0,0.05,41.95,0)" xlink:href="#P"/><use transform="matrix(0.05,0,0,0.05,51.95,0)" xlink:href="#Y"/></g><g id="L"><use transform="matrix(0.05,0,0,0.05,0,0)" xlink:href="#ar"/><use transform="matrix(0.05,0,0,0.05,10,0)" xlink:href="#P"/><use transform="matrix(0.05,0,0,0.05,20,0)" xlink:href="#O"/><use transform="matrix(0.05,0,0,0.05,25.950000000000003,0)" xlink:href="#P"/></g></defs></g></svg>