<svg xmlns="http://www.w3.org/2000/svg" xmlns:xlink="http://www.w3.org/1999/xlink" width="1323.2" height="1870.4"><g transform="translate(0 0)"><path d="M500 620v340" fill="none"/><path d="M500 620v10.3m0 10.3v20.6m0 10.32v20.6m0 10.3v20.6m0 10.3v20.62m0 10.3v20.6m0 10.3v20.62m0 10.3v20.6m0 10.3v20.62m0 10.3v20.6m0 10.3v20.6m0 10.32V960" stroke="#000" stroke-width="2" fill="none"/><path d="M708.6 261v699" fill="none"/><path d="M708.6 261v10.13m0 10.13v20.26m0 10.13v20.26m0 10.14v20.26m0 10.13v20.27m0 10.13v20.26m0 10.12v20.26m0 10.13v20.27m0 10.13v20.26m0 10.13v20.25m0 10.13v20.26m0 10.13v20.26m0 10.14v20.26m0 10.13v20.26m0 10.13v20.26m0 10.14V727m0 10.13v20.26m0 10.12v20.26m0 10.13v20.27m0 10.13v20.27m0 10.13v20.26m0 10.13v20.25m0 10.13v20.26m0 10.13V960" stroke="#333" stroke-width="2" fill="none"/><path d="M709.6 261h-2v-1h2z" fill="#333"/><path d="M148 25c0-2.76 2.24-5 5-5h150c2.76 0 5 2.24 5 5v50c0 2.76-2.24 5-5 5H153c-2.76 0-5-2.24-5-5z" stroke="#000" stroke-width="2" fill="#fff"/><use xlink:href="#a" transform="matrix(1,0,0,1,148,20) translate(15.130000000000004 33.15)"/><path d="M208 145c0-2.76 2.24-5 5-5h30c2.76 0 5 2.24 5 5v750c0 2.76-2.24 5-5 5h-30c-2.76 0-5-2.24-5-5z" stroke="#000" stroke-width="2" fill="#fff"/><path d="M228 80v60" fill="none"/><path d="M228 80v10m0 10v20m0 10v10" stroke="#333" stroke-width="2" fill="none"/><path d="M479.46 183.44H248" stroke="#000" stroke-width="2" fill="none"/><path d="M479.46 183.44l-14.27 4.63v-9.27z"/><path d="M480.72 182.8l-.47 1.43-16.06 5.22v-12.02zm-14.53 3.9l10.02-3.26-10.03-3.26z"/><use xlink:href="#b" transform="matrix(1,0,0,1,254.7290783741467,157.83839556328653) translate(0 14.4)"/><use xlink:href="#c" transform="matrix(1,0,0,1,254.7290783741467,157.83839556328653) translate(177.10000000000002 14.4)"/><path d="M41 127c0 3.87-3.13 7-7 7s-7-3.13-7-7 3.13-7 7-7 7 3.13 7 7z" stroke="#000" stroke-width="2" fill="#fff"/><path d="M20 125c0-2.76 2.24-5 5-5h18c2.76 0 5 2.24 5 5v48c0 2.76-2.24 5-5 5H25c-2.76 0-5-2.24-5-5z" fill="none"/><path d="M34 134v15.8c0 2.76 1.16 6.92 2.58 9.28L48 178m-14-23.2L20 178m0-37h28" stroke="#000" stroke-width="2" fill="none"/><use xlink:href="#d" transform="matrix(1,0,0,1,-60,178) translate(51.074999999999996 14.6)"/><path d="M48 142.3h160.88" stroke="#000" stroke-width="2" fill="none"/><path d="M208.88 142.3l-14.27 4.65v-9.27z"/><path d="M209.7 141.52l-.74.53-.47 1.44-14.9 4.82V136.3zm-14.1 4.05l10.04-3.26-10.03-3.25z"/><use xlink:href="#e" transform="matrix(1,0,0,1,49.64166666666675,116.71054313022326) translate(0 14.4)"/><path d="M480 185c0-2.76 2.24-5 5-5h30c2.76 0 5 2.24 5 5v250c0 2.76-2.24 5-5 5h-30c-2.76 0-5-2.24-5-5zM420 25c0-2.76 2.24-5 5-5h150c2.76 0 5 2.24 5 5v50c0 2.76-2.24 5-5 5H425c-2.76 0-5-2.24-5-5z" stroke="#000" stroke-width="2" fill="#fff"/><use xlink:href="#f" transform="matrix(1,0,0,1,420,20) translate(5.480000000000013 33.15)"/><path d="M501 81v98" fill="none"/><path d="M501 81v10.9m0 10.88v21.78m0 10.88v21.78m0 10.9V179" stroke="#333" stroke-width="2" fill="none"/><path d="M502 81h-2v-1h2z" fill="#333"/><path d="M690 205c0-2.76 2.24-5 5-5h30c2.76 0 5 2.24 5 5v50c0 2.76-2.24 5-5 5h-30c-2.76 0-5-2.24-5-5z" stroke="#000" stroke-width="2" fill="#fff"/><path d="M521 204.84h168" stroke="#000" stroke-width="2" fill="none"/><path d="M521 205.84h-1v-2h1zM689 204.84l-14.27 4.64v-9.27z"/><path d="M690.26 204.2l-.26.8v.57l-16.27 5.28v-12.02zm-14.53 3.9l10.03-3.26-10.03-3.26z"/><use xlink:href="#g" transform="matrix(1,0,0,1,567.6,179.240793) translate(0 14.4)"/><path d="M630 25c0-2.76 2.24-5 5-5h150c2.76 0 5 2.24 5 5v50c0 2.76-2.24 5-5 5H635c-2.76 0-5-2.24-5-5z" stroke="#000" stroke-width="2" fill="#fff"/><use xlink:href="#h" transform="matrix(1,0,0,1,630,20) translate(29.12999999999999 33.15)"/><path d="M708.33 81.5V199" fill="none"/><path d="M708.33 81.5v9.8m0 9.78v19.6m0 9.78v19.58m0 9.8v19.58m0 9.8V199" stroke="#333" stroke-width="2" fill="none"/><path d="M709.33 81.5h-2V80h2zM709.33 200h-2v-1h2z" fill="#333"/><path d="M689.77 257.62H521" fill="none"/><path d="M689.77 257.62h-9.37m-9.38 0h-18.75m-9.38 0h-18.76m-9.38 0H596m-9.37 0h-18.75m-9.37 0h-18.75m-9.37 0H521" stroke="#000" stroke-width="2" fill="none"/><path d="M691.74 258.62h-1.97v-2h.5zM538.72 248.3l-15.76 9.32 15.76 9.32-1 1.72L520 258.2v-1.15l17.7-10.48z"/><use xlink:href="#i" transform="matrix(1,0,0,1,558.4863581528064,232.01586856609575) translate(0 14.4)"/><path d="M521 324.65h182.6m0 0c0-2.76 2.24-5 5-5s5 2.24 5 5h348.5" stroke="#000" stroke-width="2" fill="none"/><path d="M521 325.65h-1v-2h1zM1062.1 324.65l-14.25 4.64V320z"/><path d="M1062.42 323.7l-.42 1.3v.74l-15.15 4.92v-12.02zm-13.57 4.2l10.03-3.25-10.03-3.26z"/><use xlink:href="#b" transform="matrix(1,0,0,1,653.2114641946487,299.05133648969894) translate(0 14.4)"/><use xlink:href="#j" transform="matrix(1,0,0,1,653.2114641946487,299.05133648969894) translate(177.10000000000002 14.4)"/><use xlink:href="#k" transform="matrix(1,0,0,1,653.2114641946487,299.05133648969894) translate(221.05 14.4)"/><path d="M1061.1 376.1H790.8c-.15 0-.26-.1-.26-.24 0-.14-.1-.25-.25-.25h-76.7m0 0c0-2.75-2.24-5-5-5s-5 2.25-5 5H520" fill="none"/><path d="M1061.1 376.1h-9.68m-9.67 0h-19.33m-9.67 0h-19.33m-9.66 0h-19.34m-9.66 0h-19.34m-9.66 0h-19.33m-9.67 0h-19.33m-9.67 0h-19.33m-9.67 0h-19.33m-9.67 0H790.6c-.03 0-.06-.02-.06-.05V376m-9.28-.4h-19.33m-9.66 0h-19.34m-9.66 0h-9.67m0 0l-.5-1.5c-.25-.8-1-1.84-1.7-2.34l-.57-.42c-.36-.26-1-.53-1.44-.6-.45-.07-1.14-.02-1.56.12l-.75.24c-.8.26-1.85 1.02-2.35 1.7l-.42.58c-.26.36-.53 1-.6 1.44-.07.44-.5.8-.93.8h-9.4m-10.2 0h-20.4m-10.2 0h-20.4m-10.2 0h-20.4m-10.2 0H571m-10.2 0h-20.4m-10.2 0H520" stroke="#000" stroke-width="2" fill="none"/><path d="M1062 375.5l.25 1.58.03.03h-1.2v-2h.92zM537.72 366.3l-15.76 9.3 15.76 9.33-1 1.72-16.72-9.88v-2.32l16.7-9.88z"/><use xlink:href="#l" transform="matrix(1,0,0,1,750.1083503871439,350.0118494207138) translate(0 14.4)"/><path d="M897.95 81v238.65m0 0c-2.76 0-5 2.24-5 5s2.24 5 5 5v41.46m0 0c-2.76 0-5 2.25-5 5 0 2.77 2.24 5 5 5V960" fill="none"/><path d="M897.95 81v9.94m0 9.95v19.88m0 9.94v19.9m0 9.93v19.9m0 9.93v19.9m0 9.93v19.9m0 9.94v19.9m0 9.94v19.88m0 9.95v9.95m0 0l-1.5.5c-.8.25-1.85 1.02-2.35 1.7l-.42.57c-.26.36-.53 1-.6 1.44-.07.44-.02 1.13.12 1.55l.25.76c.26.8 1.02 1.85 1.7 2.34l.58.42c.35.27 1 .53 1.43.6.44.07.8.5.8.93v13.02m0 13.82v13.8m0 0l-1.52.5c-.8.26-1.84 1.02-2.34 1.7l-.42.58c-.26.36-.53 1-.6 1.44-.07.44-.02 1.13.12 1.55l.25.75c.26.8 1.02 1.84 1.7 2.34l.58.42c.35.26 1 .53 1.43.6.44.07.8.5.8.93v9.37m0 10.15v20.3m0 10.17v20.3m0 10.16v20.3m0 10.17v20.3m0 10.16v20.3m0 10.16v20.3m0 10.17v20.3m0 10.17V635m0 10.17v20.3m0 10.16v20.3m0 10.17v20.3m0 10.17v20.3m0 10.17v20.3m0 10.16v20.32m0 10.15v20.3m0 10.17v20.3m0 10.17v20.32m0 10.16v20.3m0 10.16V960" stroke="#333" stroke-width="2" fill="none"/><path d="M898.95 81h-2v-1h2z" fill="#333"/><path d="M877.95 525.75c0-2.76 2.24-5 5-5h30c2.76 0 5 2.24 5 5v50.5c0 2.76-2.24 5-5 5h-30c-2.76 0-5-2.24-5-5zM827.95 25c0-2.76 2.24-5 5-5h130c2.76 0 5 2.24 5 5v50c0 2.76-2.24 5-5 5h-130c-2.76 0-5-2.24-5-5z" stroke="#000" stroke-width="2" fill="#fff"/><use xlink:href="#m" transform="matrix(1,0,0,1,827.9529350595678,20) translate(24.07999999999999 33.15)"/><path d="M520 521.43h178.66c.2 0 .37.17.37.37 0 .2.17.38.38.38h4.2m0 0c0-2.76 2.24-5 5-5s5 2.24 5 5h164.47" stroke="#000" stroke-width="2" fill="none"/><path d="M878.07 522.18l-14.27 4.63v-9.26z"/><path d="M880.24 521.83l-1.32.97-.06.17-16.06 5.22v-12.03zm-15.44 3.6l10.03-3.25-10.03-3.26z"/><use xlink:href="#n" transform="matrix(1,0,0,1,641.8005573506564,496.57970699999987) translate(0 14.4)"/><path d="M877.26 578.23H713.6m0 0c0-2.77-2.24-5-5-5s-5 2.23-5 5h-4.52c-.25 0-.45-.2-.45-.45s-.2-.45-.45-.45H520" fill="none"/><path d="M877.26 578.23h-10.9m-10.92 0h-21.82m-10.9 0h-21.84m-10.9 0h-21.83m-10.9 0H735.4m-10.9 0H713.6m0 0l-.5-1.5c-.25-.8-1-1.86-1.7-2.35l-.57-.43c-.36-.26-1-.53-1.44-.6-.45-.07-1.14 0-1.56.12l-.75.25c-.8.26-1.85 1.02-2.35 1.7l-.42.58c-.26.36-.53 1-.6 1.44-.07.43-.5.8-.93.8h-3.72c-.25 0-.45-.2-.45-.46 0-.25-.2-.45-.45-.45h-3.94m-10.25 0h-20.5m-10.26 0h-20.5m-10.24 0H602m-10.25 0h-20.5m-10.25 0h-20.5m-10.25 0H520" stroke="#000" stroke-width="2" fill="none"/><path d="M878.2 577.83l1.03 1.4h-1.97v-2h.85zM537.72 568l-15.76 9.33 15.76 9.32-1 1.72L520 578.5v-2.33l16.7-9.88z"/><use xlink:href="#o" transform="matrix(1,0,0,1,653.2069568365519,552.6263469999999) translate(0 14.4)"/><path d="M498.33 441v39" fill="none"/><path d="M498.33 441v13m0 13v13" stroke="#333" stroke-width="2" fill="none"/><path d="M225.67 901v39" fill="none"/><path d="M225.67 901v13m0 13v13" stroke="#333" stroke-width="2" fill="none"/><path d="M226.67 901h-2v-1h2z" fill="#333"/><path d="M479.82 437.7H248" fill="none"/><path d="M479.82 437.7h-9.66m-9.66 0h-19.3m-9.67 0H412.2m-9.65 0h-19.32m-9.66 0h-19.32m-9.66 0h-19.33m-9.65 0H296.3m-9.66 0h-19.32m-9.66 0H248" stroke="#000" stroke-width="2" fill="none"/><path d="M481.8 438.7h-1.98v-2h.5zM265.72 428.37l-15.76 9.32 15.76 9.3-1 1.73-16.72-9.88v-2.33l16.7-9.88z"/><use xlink:href="#l" transform="matrix(1,0,0,1,323.4617141745439,412.0853339104162) translate(0 14.4)"/><path d="M480 486c0-2.76 2.24-5 5-5h30c2.76 0 5 2.24 5 5v129c0 2.76-2.24 5-5 5h-30c-2.76 0-5-2.24-5-5z" stroke="#000" stroke-width="2" fill="#fff"/><path d="M248 485.84h115.92c.04 0 .08.04.08.08s.04.08.08.08H480" stroke="#000" stroke-width="2" fill="none"/><path d="M480 486l-14.27 4.64v-9.28z"/><path d="M480.3 485.05l-.3.95v1.05L464.73 492v-12zm-13.57 4.2l10.03-3.25-10.03-3.26z"/><use xlink:href="#n" transform="matrix(1,0,0,1,292.17804322027723,460.24102671172005) translate(0 14.4)"/><path d="M479.3 616.98H248" fill="none"/><path d="M479.3 616.98h-9.63m-9.64 0h-19.28m-9.63 0h-19.28m-9.64 0h-19.27m-9.64 0H354m-9.64 0H325.1m-9.64 0H296.2m-9.65 0h-19.27m-9.64 0H248" stroke="#000" stroke-width="2" fill="none"/><path d="M480.25 616.58l1.02 1.4h-1.96v-2h.86zM265.72 607.66l-15.76 9.32 15.76 9.32-1 1.72-16.72-9.88v-2.33l16.7-9.87z"/><use xlink:href="#o" transform="matrix(1,0,0,1,299.777922,591.376347) translate(0 14.4)"/><path d="M1000 25c0-2.76 2.24-5 5-5h153.2c2.76 0 5 2.24 5 5v50c0 2.76-2.24 5-5 5H1005c-2.76 0-5-2.24-5-5z" stroke="#000" stroke-width="2" fill="#fff"/><use xlink:href="#p" transform="matrix(1,0,0,1,1000,20) translate(16.43 33.15)"/><path d="M1062 785c0-2.76 2.24-5 5-5h30c2.76 0 5 2.24 5 5v50c0 2.76-2.24 5-5 5h-30c-2.76 0-5-2.24-5-5z" stroke="#000" stroke-width="2" fill="#fff"/><path d="M521 781.47h182.6m0 0c0-2.76 2.24-5 5-5s5 2.24 5 5h179.35m0 0c0-2.76 2.24-5 5-5s5 2.24 5 5h160.8" stroke="#000" stroke-width="2" fill="none"/><path d="M521 782.47h-1v-2h1zM1063.75 781.47l-14.27 4.64v-9.26z"/><path d="M1064.75 780.75l-1.8 1.3-.25.82-14.22 4.62v-12.04zm-14.27 3.98l10.03-3.26-10.02-3.25z"/><use xlink:href="#q" transform="matrix(1,0,0,1,669.1512394068385,755.8743407896172) translate(0 14.4)"/><use xlink:href="#k" transform="matrix(1,0,0,1,669.1512394068385,755.8743407896172) translate(170.05 14.4)"/><path d="M1064.05 839.04h-161.1m0 0c0-2.77-2.24-5-5-5s-5 2.23-5 5H713.6m0 0c0-2.77-2.24-5-5-5s-5 2.23-5 5H521" fill="none"/><path d="M1064.05 839.04h-10.74m-10.73 0h-21.48m-10.75 0h-21.48m-10.74 0h-21.48m-10.74 0h-21.47m-10.74 0h-10.75m0 0l-.5-1.5c-.25-.8-1-1.86-1.7-2.35l-.57-.44c-.36-.26-1-.53-1.44-.6-.43-.07-1.13 0-1.55.12l-.76.25c-.8.26-1.84 1.02-2.34 1.7l-.42.58c-.26.37-.53 1-.6 1.45-.07.43-.5.8-.93.8H883m-9.98 0H853.1m-9.97 0H823.2m-9.96 0H793.3m-9.95 0h-19.93m-9.96 0h-19.93m-9.97 0h-9.96m0 0l-.5-1.52c-.25-.8-1-1.85-1.7-2.34l-.57-.44c-.36-.26-1-.53-1.44-.6-.45-.07-1.14 0-1.56.12l-.75.25c-.8.26-1.85 1.02-2.35 1.7l-.42.58c-.26.37-.53 1-.6 1.45-.07.43-.5.8-.93.8h-9.34m-10.15 0h-20.28m-10.14 0h-20.3m-10.14 0h-20.28m-10.15 0h-20.28m-10.14 0h-20.3m-10.14 0H521" stroke="#000" stroke-width="2" fill="none"/><path d="M1067 840h.05v.04h-3v-1zM538.72 829.72l-15.75 9.32 15.75 9.32-1 1.72L520 839.6v-1.13L537.7 828z"/><use xlink:href="#r" transform="matrix(1,0,0,1,777.4603275623978,813.4352900397121) translate(0 14.4)"/><path d="M1081.6 80v699" fill="none"/><path d="M1081.6 80v10.13m0 10.13v20.26m0 10.13v20.26m0 10.14v20.26m0 10.13v20.27m0 10.13v20.26m0 10.12v20.26m0 10.13v20.27m0 10.13v20.26m0 10.13v20.25m0 10.13v20.26m0 10.13v20.26m0 10.14v20.26m0 10.13v20.26m0 10.13v20.26m0 10.14V546m0 10.13v20.26m0 10.12v20.26m0 10.13v20.27m0 10.13v20.27m0 10.13v20.26m0 10.13v20.25m0 10.13v20.26m0 10.13V779" stroke="#000" stroke-width="2" fill="none"/><path d="M1082.6 780h-2v-1h2z"/><path d="M1082 840v120" fill="none"/><path d="M1082 840v10m0 10v20m0 10v20m0 10v20m0 10v10" stroke="#000" stroke-width="2" fill="none"/><path d="M480 666c0-2.76 2.24-5 5-5h30c2.76 0 5 2.24 5 5v189c0 2.76-2.24 5-5 5h-30c-2.76 0-5-2.24-5-5zM1062 325c0-2.76 2.24-5 5-5h30c2.76 0 5 2.24 5 5v50.5c0 2.76-2.24 5-5 5h-30c-2.76 0-5-2.24-5-5z" stroke="#000" stroke-width="2" fill="#fff"/><path d="M249 671.33h231" stroke="#000" stroke-width="2" fill="none"/><path d="M249 672.33h-1v-2h1zM480 671.33l-14.27 4.64v-9.27z"/><path d="M480 670.28v2.1l-15.27 4.97v-12.03zm-13.27 4.3l10.03-3.25-10.03-3.26z"/><use xlink:href="#s" transform="matrix(1,0,0,1,281.5,645.7333333333333) translate(0 14.4)"/><path d="M479 851.33H249" fill="none"/><path d="M479 851.33h-9.58m-9.6 0h-19.15m-9.6 0h-19.15m-9.6 0h-19.15m-9.6 0h-19.15m-9.6 0h-19.15m-9.6 0h-19.15m-9.6 0h-19.15m-9.6 0H249" stroke="#000" stroke-width="2" fill="none"/><path d="M480 852.33h-1v-2h1zM266.72 842l-15.76 9.33 15.76 9.32-1 1.72L248 851.9v-1.14l17.7-10.47z"/><use xlink:href="#r" transform="matrix(1,0,0,1,319.45,825.7333333333338) translate(0 14.4)"/><path d="M689 685c0-2.76 2.24-5 5-5h30c2.76 0 5 2.24 5 5v50c0 2.76-2.24 5-5 5h-30c-2.76 0-5-2.24-5-5z" stroke="#000" stroke-width="2" fill="#fff"/><path d="M520 684.84h168" stroke="#000" stroke-width="2" fill="none"/><path d="M688 684.84l-14.27 4.64v-9.27z"/><path d="M689.26 684.2l-.26.8v.57l-16.27 5.28v-12.02zm-14.53 3.9l10.03-3.26-10.03-3.26z"/><use xlink:href="#g" transform="matrix(1,0,0,1,566.6,659.240793) translate(0 14.4)"/><path d="M688.77 737.62H520" fill="none"/><path d="M688.77 737.62h-9.37m-9.38 0h-18.75m-9.38 0h-18.76m-9.38 0H595m-9.37 0h-18.75m-9.37 0h-18.75m-9.37 0H520" stroke="#000" stroke-width="2" fill="none"/><path d="M690.74 738.62h-1.97v-2h.5z"/><path d="M537.2 727.44L520 737.62l17.2 10.18" stroke="#000" stroke-width="2" fill="none"/><g><use xlink:href="#i" transform="matrix(1,0,0,1,557.4863581528064,712.0158685660957) translate(0 14.4)"/></g><defs><path d="M33-154v-36h34v36H33zM33 0v-36h34V0H33" id="t"/><path d="M127-220V0H93v-220H8v-28h204v28h-85" id="u"/><path d="M24-231v-30h32v30H24zM24 0v-190h32V0H24" id="v"/><path d="M210-169c-67 3-38 105-44 169h-31v-121c0-29-5-50-35-48C34-165 62-65 56 0H25l-1-190h30c1 10-1 24 2 32 10-44 99-50 107 0 11-21 27-35 58-36 85-2 47 119 55 194h-31v-121c0-29-5-49-35-48" id="w"/><path d="M100-194c63 0 86 42 84 106H49c0 40 14 67 53 68 26 1 43-12 49-29l28 8c-11 28-37 45-77 45C44 4 14-33 15-96c1-61 26-98 85-98zm52 81c6-60-76-77-97-28-3 7-6 17-6 28h103" id="x"/><path d="M185-189c-5-48-123-54-124 2 14 75 158 14 163 119 3 78-121 87-175 55-17-10-28-26-33-46l33-7c5 56 141 63 141-1 0-78-155-14-162-118-5-82 145-84 179-34 5 7 8 16 11 25" id="y"/><path d="M106-169C34-169 62-67 57 0H25v-261h32l-1 103c12-21 28-36 61-36 89 0 53 116 60 194h-32v-121c2-32-8-49-39-48" id="z"/><path d="M59-47c-2 24 18 29 38 22v24C64 9 27 4 27-40v-127H5v-23h24l9-43h21v43h35v23H59v120" id="A"/><path d="M137 0h-34L2-248h35l83 218 83-218h36" id="B"/><path d="M206 0h-36l-40-164L89 0H53L-1-190h32L70-26l43-164h34l41 164 42-164h31" id="C"/><g id="a"><use transform="matrix(0.05,0,0,0.05,0,0)" xlink:href="#t"/><use transform="matrix(0.05,0,0,0.05,5,0)" xlink:href="#u"/><use transform="matrix(0.05,0,0,0.05,15.3,0)" xlink:href="#v"/><use transform="matrix(0.05,0,0,0.05,19.25,0)" xlink:href="#w"/><use transform="matrix(0.05,0,0,0.05,34.2,0)" xlink:href="#x"/><use transform="matrix(0.05,0,0,0.05,44.2,0)" xlink:href="#y"/><use transform="matrix(0.05,0,0,0.05,56.2,0)" xlink:href="#z"/><use transform="matrix(0.05,0,0,0.05,66.2,0)" xlink:href="#x"/><use transform="matrix(0.05,0,0,0.05,76.2,0)" xlink:href="#x"/><use transform="matrix(0.05,0,0,0.05,86.2,0)" xlink:href="#A"/><use transform="matrix(0.05,0,0,0.05,91.2,0)" xlink:href="#B"/><use transform="matrix(0.05,0,0,0.05,102.85000000000001,0)" xlink:href="#v"/><use transform="matrix(0.05,0,0,0.05,106.80000000000001,0)" xlink:href="#x"/><use transform="matrix(0.05,0,0,0.05,116.80000000000001,0)" xlink:href="#C"/><path d="M-.9 1.25h131.55v1.32H-.9z"/></g><path d="M177-190C167-65 218 103 67 71c-23-6-38-20-44-43l32-5c15 47 100 32 89-28v-30C133-14 115 1 83 1 29 1 15-40 15-95c0-56 16-97 71-98 29-1 48 16 59 35 1-10 0-23 2-32h30zM94-22c36 0 50-32 50-73 0-42-14-75-50-75-39 0-46 34-46 75s6 73 46 73" id="D"/><path d="M87 75C49 33 22-17 22-94c0-76 28-126 65-167h31c-38 41-64 92-64 168S80 34 118 75H87" id="E"/><path d="M100-194c62-1 85 37 85 99 1 63-27 99-86 99S16-35 15-95c0-66 28-99 85-99zM99-20c44 1 53-31 53-75 0-43-8-75-51-75s-53 32-53 75 10 74 51 75" id="F"/><path d="M117-194c89-4 53 116 60 194h-32v-121c0-31-8-49-39-48C34-167 62-67 57 0H25l-1-190h30c1 10-1 24 2 32 11-22 29-35 61-36" id="G"/><path d="M68-38c1 34 0 65-14 84H32c9-13 17-26 17-46H33v-38h35" id="H"/><g id="b"><use transform="matrix(0.05,0,0,0.05,0,0)" xlink:href="#D"/><use transform="matrix(0.05,0,0,0.05,10,0)" xlink:href="#x"/><use transform="matrix(0.05,0,0,0.05,20,0)" xlink:href="#A"/><use transform="matrix(0.05,0,0,0.05,25,0)" xlink:href="#u"/><use transform="matrix(0.05,0,0,0.05,35.300000000000004,0)" xlink:href="#v"/><use transform="matrix(0.05,0,0,0.05,39.25000000000001,0)" xlink:href="#w"/><use transform="matrix(0.05,0,0,0.05,54.20000000000002,0)" xlink:href="#x"/><use transform="matrix(0.05,0,0,0.05,64.20000000000002,0)" xlink:href="#y"/><use transform="matrix(0.05,0,0,0.05,76.20000000000002,0)" xlink:href="#z"/><use transform="matrix(0.05,0,0,0.05,86.20000000000002,0)" xlink:href="#x"/><use transform="matrix(0.05,0,0,0.05,96.20000000000002,0)" xlink:href="#x"/><use transform="matrix(0.05,0,0,0.05,106.2,0)" xlink:href="#A"/><use transform="matrix(0.05,0,0,0.05,111.2,0)" xlink:href="#E"/><use transform="matrix(0.05,0,0,0.05,117.15000000000003,0)" xlink:href="#w"/><use transform="matrix(0.05,0,0,0.05,132.10000000000002,0)" xlink:href="#F"/><use transform="matrix(0.05,0,0,0.05,142.10000000000002,0)" xlink:href="#G"/><use transform="matrix(0.05,0,0,0.05,152.10000000000002,0)" xlink:href="#A"/><use transform="matrix(0.05,0,0,0.05,157.10000000000002,0)" xlink:href="#z"/><use transform="matrix(0.05,0,0,0.05,167.10000000000002,0)" xlink:href="#H"/></g><path d="M179-190L93 31C79 59 56 82 12 73V49c39 6 53-20 64-50L1-190h34L92-34l54-156h33" id="I"/><path d="M141-36C126-15 110 5 73 4 37 3 15-17 15-53c-1-64 63-63 125-63 3-35-9-54-41-54-24 1-41 7-42 31l-33-3c5-37 33-52 76-52 45 0 72 20 72 64v82c-1 20 7 32 28 27v20c-31 9-61-2-59-35zM48-53c0 20 12 33 32 33 41-3 63-29 60-74-43 2-92-5-92 41" id="J"/><path d="M114-163C36-179 61-72 57 0H25l-1-190h30c1 12-1 29 2 39 6-27 23-49 58-41v29" id="K"/><path d="M33-261c38 41 65 92 65 168S71 34 33 75H2C39 34 66-17 66-93S39-220 2-261h31" id="L"/><g id="c"><use transform="matrix(0.05,0,0,0.05,0,0)" xlink:href="#I"/><use transform="matrix(0.05,0,0,0.05,9,0)" xlink:href="#x"/><use transform="matrix(0.05,0,0,0.05,19,0)" xlink:href="#J"/><use transform="matrix(0.05,0,0,0.05,29,0)" xlink:href="#K"/><use transform="matrix(0.05,0,0,0.05,34.95,0)" xlink:href="#L"/></g><path d="M84 4C-5 8 30-112 23-190h32v120c0 31 7 50 39 49 72-2 45-101 50-169h31l1 190h-30c-1-10 1-25-2-33-11 22-28 36-60 37" id="M"/><path d="M115-194c55 1 70 41 70 98S169 2 115 4C84 4 66-9 55-30l1 105H24l-1-265h31l2 30c10-21 28-34 59-34zm-8 174c40 0 45-34 45-75s-6-73-45-74c-42 0-51 32-51 76 0 43 10 73 51 73" id="N"/><path d="M108 0H70L1-190h34L89-25l56-165h34" id="O"/><path d="M135-143c-3-34-86-38-87 0 15 53 115 12 119 90S17 21 10-45l28-5c4 36 97 45 98 0-10-56-113-15-118-90-4-57 82-63 122-42 12 7 21 19 24 35" id="P"/><g id="d"><use transform="matrix(0.05,0,0,0.05,0,0)" xlink:href="#y"/><use transform="matrix(0.05,0,0,0.05,12,0)" xlink:href="#M"/><use transform="matrix(0.05,0,0,0.05,22,0)" xlink:href="#N"/><use transform="matrix(0.05,0,0,0.05,32,0)" xlink:href="#x"/><use transform="matrix(0.05,0,0,0.05,42,0)" xlink:href="#K"/><use transform="matrix(0.05,0,0,0.05,47.95,0)" xlink:href="#O"/><use transform="matrix(0.05,0,0,0.05,56.95,0)" xlink:href="#v"/><use transform="matrix(0.05,0,0,0.05,60.900000000000006,0)" xlink:href="#P"/><use transform="matrix(0.05,0,0,0.05,69.9,0)" xlink:href="#F"/><use transform="matrix(0.05,0,0,0.05,79.9,0)" xlink:href="#K"/></g><g id="e"><use transform="matrix(0.05,0,0,0.05,0,0)" xlink:href="#P"/><use transform="matrix(0.05,0,0,0.05,9,0)" xlink:href="#z"/><use transform="matrix(0.05,0,0,0.05,19,0)" xlink:href="#F"/><use transform="matrix(0.05,0,0,0.05,29,0)" xlink:href="#C"/><use transform="matrix(0.05,0,0,0.05,41.95,0)" xlink:href="#u"/><use transform="matrix(0.05,0,0,0.05,52.25,0)" xlink:href="#v"/><use transform="matrix(0.05,0,0,0.05,56.20000000000002,0)" xlink:href="#w"/><use transform="matrix(0.05,0,0,0.05,71.15,0)" xlink:href="#x"/><use transform="matrix(0.05,0,0,0.05,81.15,0)" xlink:href="#y"/><use transform="matrix(0.05,0,0,0.05,93.15,0)" xlink:href="#z"/><use transform="matrix(0.05,0,0,0.05,103.15,0)" xlink:href="#x"/><use transform="matrix(0.05,0,0,0.05,113.15,0)" xlink:href="#x"/><use transform="matrix(0.05,0,0,0.05,123.15,0)" xlink:href="#A"/><use transform="matrix(0.05,0,0,0.05,128.15,0)" xlink:href="#E"/><use transform="matrix(0.05,0,0,0.05,134.1,0)" xlink:href="#L"/></g><path d="M212-179c-10-28-35-45-73-45-59 0-87 40-87 99 0 60 29 101 89 101 43 0 62-24 78-52l27 14C228-24 195 4 139 4 59 4 22-46 18-125c-6-104 99-153 187-111 19 9 31 26 39 46" id="Q"/><path d="M24 0v-261h32V0H24" id="R"/><g id="f"><use transform="matrix(0.05,0,0,0.05,0,0)" xlink:href="#t"/><use transform="matrix(0.05,0,0,0.05,5,0)" xlink:href="#u"/><use transform="matrix(0.05,0,0,0.05,15.3,0)" xlink:href="#v"/><use transform="matrix(0.05,0,0,0.05,19.25,0)" xlink:href="#w"/><use transform="matrix(0.05,0,0,0.05,34.2,0)" xlink:href="#x"/><use transform="matrix(0.05,0,0,0.05,44.2,0)" xlink:href="#y"/><use transform="matrix(0.05,0,0,0.05,56.2,0)" xlink:href="#z"/><use transform="matrix(0.05,0,0,0.05,66.2,0)" xlink:href="#x"/><use transform="matrix(0.05,0,0,0.05,76.2,0)" xlink:href="#x"/><use transform="matrix(0.05,0,0,0.05,86.2,0)" xlink:href="#A"/><use transform="matrix(0.05,0,0,0.05,91.2,0)" xlink:href="#Q"/><use transform="matrix(0.05,0,0,0.05,104.15,0)" xlink:href="#F"/><use transform="matrix(0.05,0,0,0.05,114.15,0)" xlink:href="#G"/><use transform="matrix(0.05,0,0,0.05,124.15,0)" xlink:href="#A"/><use transform="matrix(0.05,0,0,0.05,129.15,0)" xlink:href="#K"/><use transform="matrix(0.05,0,0,0.05,135.1,0)" xlink:href="#F"/><use transform="matrix(0.05,0,0,0.05,145.1,0)" xlink:href="#R"/><path d="M-.9 1.25h150.85v1.32H-.9z"/></g><path d="M232-93c-1 65-40 97-104 97C67 4 28-28 28-90v-158h33c8 89-33 224 67 224 102 0 64-133 71-224h33v155" id="S"/><g id="g"><use transform="matrix(0.05,0,0,0.05,0,0)" xlink:href="#D"/><use transform="matrix(0.05,0,0,0.05,10,0)" xlink:href="#x"/><use transform="matrix(0.05,0,0,0.05,20,0)" xlink:href="#A"/><use transform="matrix(0.05,0,0,0.05,25,0)" xlink:href="#S"/><use transform="matrix(0.05,0,0,0.05,37.95,0)" xlink:href="#P"/><use transform="matrix(0.05,0,0,0.05,46.95,0)" xlink:href="#x"/><use transform="matrix(0.05,0,0,0.05,56.95,0)" xlink:href="#K"/><use transform="matrix(0.05,0,0,0.05,62.900000000000006,0)" xlink:href="#E"/><use transform="matrix(0.05,0,0,0.05,68.85000000000001,0)" xlink:href="#L"/></g><path d="M240 0l2-218c-23 76-54 145-80 218h-23L58-218 59 0H30v-248h44l77 211c21-75 51-140 76-211h43V0h-30" id="T"/><g id="h"><use transform="matrix(0.05,0,0,0.05,0,0)" xlink:href="#t"/><use transform="matrix(0.05,0,0,0.05,5,0)" xlink:href="#T"/><use transform="matrix(0.05,0,0,0.05,19.950000000000003,0)" xlink:href="#J"/><use transform="matrix(0.05,0,0,0.05,29.950000000000003,0)" xlink:href="#v"/><use transform="matrix(0.05,0,0,0.05,33.900000000000006,0)" xlink:href="#G"/><use transform="matrix(0.05,0,0,0.05,43.900000000000006,0)" xlink:href="#Q"/><use transform="matrix(0.05,0,0,0.05,56.85,0)" xlink:href="#F"/><use transform="matrix(0.05,0,0,0.05,66.85000000000001,0)" xlink:href="#G"/><use transform="matrix(0.05,0,0,0.05,76.85000000000001,0)" xlink:href="#A"/><use transform="matrix(0.05,0,0,0.05,81.85000000000001,0)" xlink:href="#K"/><use transform="matrix(0.05,0,0,0.05,87.80000000000001,0)" xlink:href="#F"/><use transform="matrix(0.05,0,0,0.05,97.80000000000001,0)" xlink:href="#R"/><path d="M-.9 1.25h103.55v1.32H-.9z"/></g><path d="M96-169c-40 0-48 33-48 73s9 75 48 75c24 0 41-14 43-38l32 2c-6 37-31 61-74 61-59 0-76-41-82-99-10-93 101-131 147-64 4 7 5 14 7 22l-32 3c-4-21-16-35-41-35" id="U"/><g id="i"><use transform="matrix(0.05,0,0,0.05,0,0)" xlink:href="#U"/><use transform="matrix(0.05,0,0,0.05,9,0)" xlink:href="#M"/><use transform="matrix(0.05,0,0,0.05,19,0)" xlink:href="#K"/><use transform="matrix(0.05,0,0,0.05,24.95,0)" xlink:href="#K"/><use transform="matrix(0.05,0,0,0.05,30.899999999999995,0)" xlink:href="#x"/><use transform="matrix(0.05,0,0,0.05,40.9,0)" xlink:href="#G"/><use transform="matrix(0.05,0,0,0.05,50.9,0)" xlink:href="#A"/><use transform="matrix(0.05,0,0,0.05,55.900000000000006,0)" xlink:href="#S"/><use transform="matrix(0.05,0,0,0.05,68.85,0)" xlink:href="#P"/><use transform="matrix(0.05,0,0,0.05,77.85,0)" xlink:href="#x"/><use transform="matrix(0.05,0,0,0.05,87.85,0)" xlink:href="#K"/></g><g id="j"><use transform="matrix(0.05,0,0,0.05,0,0)" xlink:href="#I"/><use transform="matrix(0.05,0,0,0.05,9,0)" xlink:href="#x"/><use transform="matrix(0.05,0,0,0.05,19,0)" xlink:href="#J"/><use transform="matrix(0.05,0,0,0.05,29,0)" xlink:href="#K"/><use transform="matrix(0.05,0,0,0.05,33.95,0)" xlink:href="#H"/></g><g id="k"><use transform="matrix(0.05,0,0,0.05,0,0)" xlink:href="#U"/><use transform="matrix(0.05,0,0,0.05,9,0)" xlink:href="#M"/><use transform="matrix(0.05,0,0,0.05,19,0)" xlink:href="#K"/><use transform="matrix(0.05,0,0,0.05,24.95,0)" xlink:href="#K"/><use transform="matrix(0.05,0,0,0.05,30.899999999999995,0)" xlink:href="#x"/><use transform="matrix(0.05,0,0,0.05,40.9,0)" xlink:href="#G"/><use transform="matrix(0.05,0,0,0.05,50.9,0)" xlink:href="#A"/><use transform="matrix(0.05,0,0,0.05,55.900000000000006,0)" xlink:href="#S"/><use transform="matrix(0.05,0,0,0.05,68.85,0)" xlink:href="#P"/><use transform="matrix(0.05,0,0,0.05,77.85,0)" xlink:href="#x"/><use transform="matrix(0.05,0,0,0.05,87.85,0)" xlink:href="#K"/><use transform="matrix(0.05,0,0,0.05,93.8,0)" xlink:href="#L"/></g><g id="l"><use transform="matrix(0.05,0,0,0.05,0,0)" xlink:href="#A"/><use transform="matrix(0.05,0,0,0.05,5,0)" xlink:href="#v"/><use transform="matrix(0.05,0,0,0.05,8.95,0)" xlink:href="#w"/><use transform="matrix(0.05,0,0,0.05,23.9,0)" xlink:href="#x"/><use transform="matrix(0.05,0,0,0.05,33.9,0)" xlink:href="#y"/><use transform="matrix(0.05,0,0,0.05,45.9,0)" xlink:href="#z"/><use transform="matrix(0.05,0,0,0.05,55.900000000000006,0)" xlink:href="#x"/><use transform="matrix(0.05,0,0,0.05,65.9,0)" xlink:href="#x"/><use transform="matrix(0.05,0,0,0.05,75.9,0)" xlink:href="#A"/></g><g id="m"><use transform="matrix(0.05,0,0,0.05,0,0)" xlink:href="#t"/><use transform="matrix(0.05,0,0,0.05,5,0)" xlink:href="#Q"/><use transform="matrix(0.05,0,0,0.05,17.950000000000003,0)" xlink:href="#J"/><use transform="matrix(0.05,0,0,0.05,27.950000000000003,0)" xlink:href="#A"/><use transform="matrix(0.05,0,0,0.05,32.95,0)" xlink:href="#x"/><use transform="matrix(0.05,0,0,0.05,42.95,0)" xlink:href="#D"/><use transform="matrix(0.05,0,0,0.05,52.95,0)" xlink:href="#F"/><use transform="matrix(0.05,0,0,0.05,62.95,0)" xlink:href="#K"/><use transform="matrix(0.05,0,0,0.05,68.9,0)" xlink:href="#v"/><use transform="matrix(0.05,0,0,0.05,72.85000000000001,0)" xlink:href="#x"/><use transform="matrix(0.05,0,0,0.05,82.85000000000001,0)" xlink:href="#P"/><path d="M-.9 1.25h93.65v1.32H-.9z"/></g><path d="M205 0l-28-72H64L36 0H1l101-248h38L239 0h-34zm-38-99l-47-123c-12 45-31 82-46 123h93" id="V"/><g id="n"><use transform="matrix(0.05,0,0,0.05,0,0)" xlink:href="#D"/><use transform="matrix(0.05,0,0,0.05,10,0)" xlink:href="#x"/><use transform="matrix(0.05,0,0,0.05,20,0)" xlink:href="#A"/><use transform="matrix(0.05,0,0,0.05,25,0)" xlink:href="#V"/><use transform="matrix(0.05,0,0,0.05,37,0)" xlink:href="#R"/><use transform="matrix(0.05,0,0,0.05,40.95,0)" xlink:href="#R"/><use transform="matrix(0.05,0,0,0.05,44.900000000000006,0)" xlink:href="#Q"/><use transform="matrix(0.05,0,0,0.05,57.85,0)" xlink:href="#J"/><use transform="matrix(0.05,0,0,0.05,67.85000000000001,0)" xlink:href="#A"/><use transform="matrix(0.05,0,0,0.05,72.85000000000001,0)" xlink:href="#x"/><use transform="matrix(0.05,0,0,0.05,82.85000000000001,0)" xlink:href="#D"/><use transform="matrix(0.05,0,0,0.05,92.85000000000001,0)" xlink:href="#F"/><use transform="matrix(0.05,0,0,0.05,102.85000000000001,0)" xlink:href="#K"/><use transform="matrix(0.05,0,0,0.05,108.80000000000001,0)" xlink:href="#v"/><use transform="matrix(0.05,0,0,0.05,112.75,0)" xlink:href="#x"/><use transform="matrix(0.05,0,0,0.05,122.75,0)" xlink:href="#P"/><use transform="matrix(0.05,0,0,0.05,131.75,0)" xlink:href="#E"/><use transform="matrix(0.05,0,0,0.05,137.7,0)" xlink:href="#L"/></g><path d="M140-251c81 0 123 46 123 126C263-46 219 4 140 4 59 4 17-45 17-125s42-126 123-126zm0 227c63 0 89-41 89-101s-29-99-89-99c-61 0-89 39-89 99S79-25 140-24" id="W"/><path d="M101-234c-31-9-42 10-38 44h38v23H63V0H32v-167H5v-23h27c-7-52 17-82 69-68v24" id="X"/><g id="o"><use transform="matrix(0.05,0,0,0.05,0,0)" xlink:href="#R"/><use transform="matrix(0.05,0,0,0.05,3.95,0)" xlink:href="#v"/><use transform="matrix(0.05,0,0,0.05,7.9,0)" xlink:href="#P"/><use transform="matrix(0.05,0,0,0.05,16.9,0)" xlink:href="#A"/><use transform="matrix(0.05,0,0,0.05,21.9,0)" xlink:href="#W"/><use transform="matrix(0.05,0,0,0.05,35.9,0)" xlink:href="#X"/><use transform="matrix(0.05,0,0,0.05,40.9,0)" xlink:href="#Q"/><use transform="matrix(0.05,0,0,0.05,53.85,0)" xlink:href="#J"/><use transform="matrix(0.05,0,0,0.05,63.85,0)" xlink:href="#A"/><use transform="matrix(0.05,0,0,0.05,68.85,0)" xlink:href="#x"/><use transform="matrix(0.05,0,0,0.05,78.85,0)" xlink:href="#D"/><use transform="matrix(0.05,0,0,0.05,88.85,0)" xlink:href="#F"/><use transform="matrix(0.05,0,0,0.05,98.85,0)" xlink:href="#K"/><use transform="matrix(0.05,0,0,0.05,104.80000000000001,0)" xlink:href="#v"/><use transform="matrix(0.05,0,0,0.05,108.75,0)" xlink:href="#x"/><use transform="matrix(0.05,0,0,0.05,118.75,0)" xlink:href="#P"/></g><path d="M30-248c118-7 216 8 213 122C240-48 200 0 122 0H30v-248zM63-27c89 8 146-16 146-99s-60-101-146-95v194" id="Y"/><g id="p"><use transform="matrix(0.05,0,0,0.05,0,0)" xlink:href="#t"/><use transform="matrix(0.05,0,0,0.05,5,0)" xlink:href="#u"/><use transform="matrix(0.05,0,0,0.05,15.3,0)" xlink:href="#v"/><use transform="matrix(0.05,0,0,0.05,19.25,0)" xlink:href="#w"/><use transform="matrix(0.05,0,0,0.05,34.2,0)" xlink:href="#x"/><use transform="matrix(0.05,0,0,0.05,44.2,0)" xlink:href="#y"/><use transform="matrix(0.05,0,0,0.05,56.2,0)" xlink:href="#z"/><use transform="matrix(0.05,0,0,0.05,66.2,0)" xlink:href="#x"/><use transform="matrix(0.05,0,0,0.05,76.2,0)" xlink:href="#x"/><use transform="matrix(0.05,0,0,0.05,86.2,0)" xlink:href="#A"/><use transform="matrix(0.05,0,0,0.05,91.2,0)" xlink:href="#Y"/><use transform="matrix(0.05,0,0,0.05,104.15,0)" xlink:href="#V"/><use transform="matrix(0.05,0,0,0.05,116.15,0)" xlink:href="#W"/><path d="M-.9 1.25h131.95v1.32H-.9z"/></g><g id="q"><use transform="matrix(0.05,0,0,0.05,0,0)" xlink:href="#D"/><use transform="matrix(0.05,0,0,0.05,10,0)" xlink:href="#x"/><use transform="matrix(0.05,0,0,0.05,20,0)" xlink:href="#A"/><use transform="matrix(0.05,0,0,0.05,25,0)" xlink:href="#u"/><use transform="matrix(0.05,0,0,0.05,35.300000000000004,0)" xlink:href="#v"/><use transform="matrix(0.05,0,0,0.05,39.25000000000001,0)" xlink:href="#w"/><use transform="matrix(0.05,0,0,0.05,54.20000000000002,0)" xlink:href="#x"/><use transform="matrix(0.05,0,0,0.05,64.20000000000002,0)" xlink:href="#P"/><use transform="matrix(0.05,0,0,0.05,73.20000000000002,0)" xlink:href="#E"/><use transform="matrix(0.05,0,0,0.05,79.15000000000002,0)" xlink:href="#A"/><use transform="matrix(0.05,0,0,0.05,84.15000000000002,0)" xlink:href="#v"/><use transform="matrix(0.05,0,0,0.05,88.10000000000002,0)" xlink:href="#w"/><use transform="matrix(0.05,0,0,0.05,103.05000000000003,0)" xlink:href="#x"/><use transform="matrix(0.05,0,0,0.05,113.05000000000003,0)" xlink:href="#y"/><use transform="matrix(0.05,0,0,0.05,125.05000000000003,0)" xlink:href="#z"/><use transform="matrix(0.05,0,0,0.05,135.05,0)" xlink:href="#x"/><use transform="matrix(0.05,0,0,0.05,145.05,0)" xlink:href="#x"/><use transform="matrix(0.05,0,0,0.05,155.05,0)" xlink:href="#A"/><use transform="matrix(0.05,0,0,0.05,160.05,0)" xlink:href="#H"/></g><g id="r"><use transform="matrix(0.05,0,0,0.05,0,0)" xlink:href="#R"/><use transform="matrix(0.05,0,0,0.05,3.95,0)" xlink:href="#v"/><use transform="matrix(0.05,0,0,0.05,7.9,0)" xlink:href="#P"/><use transform="matrix(0.05,0,0,0.05,16.9,0)" xlink:href="#A"/><use transform="matrix(0.05,0,0,0.05,21.9,0)" xlink:href="#W"/><use transform="matrix(0.05,0,0,0.05,35.9,0)" xlink:href="#X"/><use transform="matrix(0.05,0,0,0.05,40.9,0)" xlink:href="#u"/><use transform="matrix(0.05,0,0,0.05,51.2,0)" xlink:href="#v"/><use transform="matrix(0.05,0,0,0.05,55.150000000000006,0)" xlink:href="#w"/><use transform="matrix(0.05,0,0,0.05,70.10000000000001,0)" xlink:href="#x"/><use transform="matrix(0.05,0,0,0.05,80.10000000000001,0)" xlink:href="#P"/></g><g id="s"><use transform="matrix(0.05,0,0,0.05,0,0)" xlink:href="#D"/><use transform="matrix(0.05,0,0,0.05,10,0)" xlink:href="#x"/><use transform="matrix(0.05,0,0,0.05,20,0)" xlink:href="#A"/><use transform="matrix(0.05,0,0,0.05,25,0)" xlink:href="#u"/><use transform="matrix(0.05,0,0,0.05,35.300000000000004,0)" xlink:href="#v"/><use transform="matrix(0.05,0,0,0.05,39.25000000000001,0)" xlink:href="#w"/><use transform="matrix(0.05,0,0,0.05,54.20000000000002,0)" xlink:href="#x"/><use transform="matrix(0.05,0,0,0.05,64.20000000000002,0)" xlink:href="#P"/><use transform="matrix(0.05,0,0,0.05,73.20000000000002,0)" xlink:href="#E"/><use transform="matrix(0.05,0,0,0.05,79.15000000000002,0)" xlink:href="#A"/><use transform="matrix(0.05,0,0,0.05,84.15000000000002,0)" xlink:href="#v"/><use transform="matrix(0.05,0,0,0.05,88.10000000000002,0)" xlink:href="#w"/><use transform="matrix(0.05,0,0,0.05,103.05000000000003,0)" xlink:href="#x"/><use transform="matrix(0.05,0,0,0.05,113.05000000000003,0)" xlink:href="#y"/><use transform="matrix(0.05,0,0,0.05,125.05000000000003,0)" xlink:href="#z"/><use transform="matrix(0.05,0,0,0.05,135.05,0)" xlink:href="#x"/><use transform="matrix(0.05,0,0,0.05,145.05,0)" xlink:href="#x"/><use transform="matrix(0.05,0,0,0.05,155.05,0)" xlink:href="#A"/><use transform="matrix(0.05,0,0,0.05,160.05,0)" xlink:href="#L"/></g></defs></g></svg>