<svg xmlns="http://www.w3.org/2000/svg" xmlns:xlink="http://www.w3.org/1999/xlink" width="1838.92" height="1231"><g transform="translate(10.925000000000004 0)"><path d="M1497.4 81.5V1220" fill="none"/><path d="M1497.4 81.5v10m0 9.97v19.98m0 9.98v19.98m0 10v19.97m0 10v19.96m0 10v19.96m0 9.98v19.97m0 10v19.96m0 10v19.97m0 10v19.96m0 10v19.96m0 9.98v19.97m0 10V451m0 10v19.97m0 10v19.96m0 10v19.96m0 9.98v19.98m0 9.98v19.98m0 9.98v19.98m0 9.98v19.98m0 9.98v19.98m0 9.98v19.98m0 9.98v19.98m0 10v19.96m0 10v19.96m0 10v19.96m0 10v19.96m0 10v19.96m0 10v19.96m0 10v19.96m0 10v19.96m0 10v19.96m0 10v19.96m0 10v19.96m0 10v19.96m0 10v19.97m0 10v19.97m0 9.98v19.98m0 9.98v10" stroke="#000" stroke-width="2" fill="none"/><path d="M1498.4 81.5h-2V80h2z"/><path d="M1429 45c0-2.76 2.24-5 5-5h150c2.76 0 5 2.24 5 5v50c0 2.76-2.24 5-5 5h-150c-2.76 0-5-2.24-5-5z" stroke="#000" stroke-width="2" fill="#fff"/><use xlink:href="#a" transform="matrix(1,0,0,1,1429,40) translate(41.07999999999999 33.15)"/><path d="M188 25c0-2.76 2.24-5 5-5h150c2.76 0 5 2.24 5 5v50c0 2.76-2.24 5-5 5H193c-2.76 0-5-2.24-5-5z" stroke="#000" stroke-width="2" fill="#fff"/><use xlink:href="#b" transform="matrix(1,0,0,1,188,20) translate(15.130000000000004 33.15)"/><path d="M268 80v1140" fill="none"/><path d="M268 80v10m0 10v20m0 10v20m0 10v20m0 10v20m0 10v20m0 10v20m0 10v20m0 10v20m0 10v20m0 10v20m0 10v20m0 10v20m0 10v20m0 10v20m0 10v20m0 10v20m0 10v20m0 10v20m0 10v20m0 10v20m0 10v20m0 10v20m0 10v20m0 10v20m0 10v20m0 10v20m0 10v20m0 10v20m0 10v20m0 10v20m0 10v20m0 10v20m0 10v20m0 10v20m0 10v20m0 10v20m0 10v20m0 10v10" stroke="#000" stroke-width="2" fill="none"/><path d="M248 145c0-2.76 2.24-5 5-5h30c2.76 0 5 2.24 5 5v970c0 2.76-2.24 5-5 5h-30c-2.76 0-5-2.24-5-5zM588.6 25c0-2.76 2.24-5 5-5h150c2.76 0 5 2.24 5 5v50c0 2.76-2.24 5-5 5h-150c-2.76 0-5-2.24-5-5z" stroke="#000" stroke-width="2" fill="#fff"/><use xlink:href="#c" transform="matrix(1,0,0,1,588.5999999999999,20) translate(5.480000000000013 33.15)"/><path d="M1421.8 25c0-2.76 2.24-5 5-5h150c2.76 0 5 2.24 5 5v50c0 2.76-2.24 5-5 5h-150c-2.76 0-5-2.24-5-5z" stroke="#000" stroke-width="2" fill="#fff"/><use xlink:href="#d" transform="matrix(1,0,0,1,1421.8000000000002,20) translate(9.65500000000001 33.15)"/><path d="M649.1 183.44H288" stroke="#000" stroke-width="2" fill="none"/><path d="M649.1 183.44l-14.26 4.63v-9.27z"/><path d="M649.42 182.5l-.7 2.1-14.88 4.85v-12.02zm-13.58 4.2l10.03-3.26-10.03-3.26zM288 184.44v-2z"/><use xlink:href="#e" transform="matrix(1,0,0,1,310.10508440308865,157.83839556328647) translate(0 14.4)"/><use xlink:href="#f" transform="matrix(1,0,0,1,310.10508440308865,157.83839556328647) translate(276 14.4)"/><path d="M666.67 1220V81.5" fill="none"/><path d="M666.67 1220v-10m0-9.97v-19.98m0-9.98v-19.98m0-10v-19.97m0-10v-19.96m0-10v-19.96m0-9.98v-19.97m0-10v-19.96m0-10v-19.97m0-10v-19.96m0-10v-19.96m0-9.98v-19.97m0-10V850.5m0-10v-19.97m0-10v-19.96m0-10v-19.96m0-9.98v-19.98m0-9.98v-19.98m0-9.98v-19.98m0-9.98v-19.98m0-9.98V610.8m0-9.98v-19.98m0-9.98v-19.98m0-10v-19.96m0-10v-19.96m0-10V461m0-10v-19.96m0-10V401.1m0-10v-19.96m0-10v-19.96m0-10V311.2m0-10v-19.96m0-10V251.3m0-10v-19.96m0-10v-19.96m0-10V161.4m0-10v-19.97m0-9.98v-19.98m0-9.98v-10" stroke="#000" stroke-width="2" fill="none"/><path d="M667.67 81.5h-2V80h2z"/><path d="M648.6 185c0-2.76 2.24-5 5-5h30c2.76 0 5 2.24 5 5v490c0 2.76-2.24 5-5 5h-30c-2.76 0-5-2.24-5-5z" stroke="#000" stroke-width="2" fill="#fff"/><path d="M985.33 81.5V1220" fill="none"/><path d="M985.33 81.5v10m0 9.97v19.98m0 9.98v19.98m0 10v19.97m0 10v19.96m0 10v19.96m0 9.98v19.97m0 10v19.96m0 10v19.97m0 10v19.96m0 10v19.96m0 9.98v19.97m0 10V451m0 10v19.97m0 10v19.96m0 10v19.96m0 9.98v19.98m0 9.98v19.98m0 9.98v19.98m0 9.98v19.98m0 9.98v19.98m0 9.98v19.98m0 9.98v19.98m0 10v19.96m0 10v19.96m0 10v19.96m0 10v19.96m0 10v19.96m0 10v19.96m0 10v19.96m0 10v19.96m0 10v19.96m0 10v19.96m0 10v19.96m0 10v19.96m0 10v19.97m0 10v19.97m0 9.98v19.98m0 9.98v10" stroke="#000" stroke-width="2" fill="none"/><path d="M986.33 81.5h-2V80h2z"/><path d="M967 205c0-2.76 2.24-5 5-5h30c2.76 0 5 2.24 5 5v50c0 2.76-2.24 5-5 5h-30c-2.76 0-5-2.24-5-5z" stroke="#000" stroke-width="2" fill="#fff"/><path d="M688.6 204.84H966" stroke="#000" stroke-width="2" fill="none"/><path d="M966 204.84l-14.27 4.64v-9.27z"/><path d="M967.26 204.2l-.26.8v.57l-16.27 5.28v-12.02zm-14.53 3.9l10.03-3.26-10.03-3.26z"/><use xlink:href="#g" transform="matrix(1,0,0,1,786.3749999999884,179.240793) translate(0 14.4)"/><path d="M907 25c0-2.76 2.24-5 5-5h150c2.76 0 5 2.24 5 5v50c0 2.76-2.24 5-5 5H912c-2.76 0-5-2.24-5-5z" stroke="#000" stroke-width="2" fill="#fff"/><use xlink:href="#h" transform="matrix(1,0,0,1,907,20) translate(29.12999999999999 33.15)"/><path d="M966.77 257.62H827.83c-.08 0-.14-.07-.14-.15 0-.07-.08-.14-.15-.14H688.6" fill="none"/><path d="M966.77 257.62h-10.3m-10.32 0h-20.63m-10.3 0h-20.64m-10.3 0h-20.64m-10.3 0H832.7m-10.03-.3h-20.63m-10.3 0H771.1m-10.3 0h-20.63m-10.32 0h-20.62m-10.32 0h-10.3" stroke="#000" stroke-width="2" fill="none"/><path d="M968.74 258.62h-1.97v-2h.5zM706.32 248l-15.76 9.33 15.76 9.32-1 1.72-16.72-9.87v-2.33l16.7-9.88z"/><use xlink:href="#i" transform="matrix(1,0,0,1,749.7913798486492,231.73369171292623) translate(0 14.4)"/><use xlink:href="#j" transform="matrix(1,0,0,1,749.7913798486492,231.73369171292623) translate(110.85000000000001 14.4)"/><path d="M1482 483.83c0-2.76 2.24-5 5-5h30c2.76 0 5 2.24 5 5v110c0 2.76-2.24 5-5 5h-30c-2.76 0-5-2.24-5-5z" stroke="#000" stroke-width="2" fill="#fff"/><path d="M688.6 480.12h291.73m0 0c0-2.76 2.24-5 5-5s5 2.24 5 5h94.7c.36 0 .66.3.66.67 0 .36.3.66.65.66h396.43" stroke="#000" stroke-width="2" fill="none"/><path d="M1482.78 481.46l-14.27 4.63v-9.28z"/><path d="M1483.36 480.6l-.4.28-.57 1.75-14.9 4.84v-12.03zm-13.85 4.12l10.04-3.26-10.03-3.26z"/><use xlink:href="#k" transform="matrix(1,0,0,1,746.6666666666667,454.52291951547306) translate(0 14.4)"/><use xlink:href="#f" transform="matrix(1,0,0,1,746.6666666666667,454.52291951547306) translate(177.10000000000002 14.4)"/><path d="M1648 25c0-2.76 2.24-5 5-5h150c2.76 0 5 2.24 5 5v50c0 2.76-2.24 5-5 5h-150c-2.76 0-5-2.24-5-5z" stroke="#000" stroke-width="2" fill="#fff"/><use xlink:href="#l" transform="matrix(1,0,0,1,1648,20) translate(34.404999999999994 33.15)"/><path d="M1246.33 81v395.46m0 0c-2.76 0-5 2.23-5 5 0 2.76 2.24 5 5 5V1220" fill="none"/><path d="M1246.33 81v10.14m0 10.14v20.28m0 10.14v20.28m0 10.14v20.28m0 10.14v20.28m0 10.14v20.28m0 10.14v20.28m0 10.14v20.28m0 10.14v20.28m0 10.14v20.28m0 10.14v20.28m0 10.14v20.28m0 10.14v20.28m0 10.14v10.14m0 0l-1.5.5c-.8.25-1.85 1-2.35 1.7l-.42.57c-.26.36-.53 1-.6 1.44-.07.43-.02 1.13.12 1.55l.25.74c.26.8 1.02 1.85 1.7 2.35l.58.43c.36.26 1 .53 1.44.6.44.07.8.48.8.93v9.38m0 10.2v20.37m0 10.2v20.37m0 10.2v20.37m0 10.2v20.36m0 10.2v20.37m0 10.18v20.38m0 10.2v20.36m0 10.18v20.38m0 10.2v20.36m0 10.2v20.37m0 10.18v20.37m0 10.2v20.37m0 10.18v20.38m0 10.2v20.36m0 10.2v20.37m0 10.2v20.37m0 10.2v20.37m0 10.2v20.36m0 10.2v20.37m0 10.18v20.38m0 10.2v20.37m0 10.18v20.38m0 10.2v20.36m0 10.2V1220" stroke="#000" stroke-width="2" fill="none"/><path d="M1247.33 81h-2v-1h2z"/><path d="M1482.56 597.52h-231.23m0 0c0-2.76-2.24-5-5-5s-5 2.24-5 5h-155c-.4 0-.75-.34-.75-.76s-.34-.76-.76-.76h-94.5m0 0c0-2.76-2.23-5-5-5-2.75 0-5 2.24-5 5H688.6" fill="none"/><path d="M1482.56 597.52h-9.64m-9.63 0H1444m-9.64 0h-19.26m-9.64 0h-19.27m-9.62 0h-19.27m-9.62 0h-19.27m-9.63 0h-19.27m-9.63 0h-19.27m-9.63 0h-9.64m0 0l-.5-1.5c-.25-.8-1-1.85-1.7-2.35l-.57-.42c-.36-.26-1-.53-1.44-.6-.43-.07-1.13-.02-1.55.12l-.75.24c-.8.28-1.84 1.04-2.34 1.7l-.42.6c-.26.35-.53 1-.6 1.43-.07.44-.5.8-.93.8h-9.72m-10.5 0h-21.05m-10.53 0h-21.04m-10.52 0h-21.04m-10.53 0h-21.05m-10.52 0h-7.7c-.4 0-.75-.35-.75-.77 0-.42-.34-.76-.76-.76h-10.3m-10.53 0h-21.06m-10.52 0h-21.04m-10.52 0h-10.53m0 0l-.5-1.5c-.25-.8-1-1.85-1.7-2.35l-.57-.42c-.36-.26-1-.53-1.44-.6-.43-.07-1.13-.02-1.55.12l-.75.24c-.8.25-1.84 1-2.34 1.7l-.42.57c-.26.36-.53 1-.6 1.44-.07.45-.5.8-.93.8h-8.92m-9.72 0h-19.44m-9.73 0h-19.44m-9.72 0H883.1m-9.74 0h-19.44m-9.73 0h-19.46m-9.72 0h-19.45m-9.73 0H766.4m-9.73 0h-19.45m-9.72 0h-19.45m-9.73 0h-9.72" stroke="#000" stroke-width="2" fill="none"/><path d="M1484.05 597.87l1.5.5v.15h-3v-2h.5zM706.32 586.68L690.56 596l15.76 9.32-1 1.72-16.72-9.88v-2.32l16.7-9.88z"/><use xlink:href="#m" transform="matrix(1,0,0,1,724.45,570.4) translate(0 14.4)"/><path d="M61 127c0 3.87-3.13 7-7 7s-7-3.13-7-7 3.13-7 7-7 7 3.13 7 7z" stroke="#000" stroke-width="2" fill="#fff"/><path d="M40 125c0-2.76 2.24-5 5-5h18c2.76 0 5 2.24 5 5v48c0 2.76-2.24 5-5 5H45c-2.76 0-5-2.24-5-5z" fill="none"/><path d="M54 134v15.8c0 2.76 1.16 6.92 2.58 9.28L68 178m-14-23.2L40 178m0-37h28" stroke="#000" stroke-width="2" fill="none"/><use xlink:href="#n" transform="matrix(1,0,0,1,-40,178) translate(51.074999999999996 14.6)"/><path d="M88 142.3h160.88" stroke="#000" stroke-width="2" fill="none"/><path d="M248.88 142.3l-14.27 4.65v-9.27z"/><path d="M249.7 141.52l-.74.53-.47 1.44-14.9 4.82V136.3zm-14.1 4.05l10.04-3.26-10.03-3.25z"/><path d="M1168 25c0-2.76 2.24-5 5-5h150c2.76 0 5 2.24 5 5v50c0 2.76-2.24 5-5 5h-150c-2.76 0-5-2.24-5-5z" stroke="#000" stroke-width="2" fill="#fff"/><use xlink:href="#o" transform="matrix(1,0,0,1,1168,20) translate(39.07999999999999 33.15)"/><path d="M1228 325c0-2.76 2.24-5 5-5h30c2.76 0 5 2.24 5 5v50c0 2.76-2.24 5-5 5h-30c-2.76 0-5-2.24-5-5z" stroke="#000" stroke-width="2" fill="#fff"/><path d="M688.6 322.05h291.73m0 0c0-2.76 2.24-5 5-5s5 2.24 5 5h238.63" stroke="#000" stroke-width="2" fill="none"/><path d="M1228.96 322.05l-14.26 4.63v-9.27z"/><path d="M1229.96 321.32l-1 .73-.38 1.17-14.88 4.84v-12.02zm-14.26 4l10.03-3.27-10.03-3.26z"/><use xlink:href="#p" transform="matrix(1,0,0,1,765.1073549801324,296.44706494043186) translate(0 14.4)"/><use xlink:href="#q" transform="matrix(1,0,0,1,765.1073549801324,296.44706494043186) translate(295.5499999999999 14.4)"/><path d="M1227.3 376.98H990.34m0 0c0-2.77-2.24-5-5-5s-5 2.23-5 5H688.6" fill="none"/><path d="M1227.3 376.98h-9.87m-9.87 0h-19.75m-9.86 0h-19.75m-9.88 0h-19.75m-9.88 0h-19.75m-9.88 0h-19.75m-9.87 0h-19.75m-9.87 0h-19.75m-9.87 0h-9.87m0 0l-.5-1.5c-.25-.8-1-1.86-1.7-2.35l-.57-.43c-.36-.26-1-.53-1.44-.6-.43-.07-1.13 0-1.55.12l-.75.25c-.8.26-1.84 1.02-2.34 1.7l-.42.58c-.26.36-.53 1-.6 1.44-.07.42-.5.78-.93.78h-8.92m-9.72 0h-19.43m-9.74 0h-19.44m-9.72 0H883.1m-9.74 0h-19.44m-9.73 0h-19.46m-9.72 0h-19.45m-9.73 0H766.4m-9.73 0h-19.45m-9.72 0h-19.45m-9.73 0h-9.72" stroke="#000" stroke-width="2" fill="none"/><path d="M1228.25 376.58l1.02 1.4h-1.96v-2h.86zM706.32 367.66l-15.75 9.32 15.75 9.32-1 1.72-16.72-9.88v-2.32l16.7-9.9z"/><use xlink:href="#r" transform="matrix(1,0,0,1,742.8176666666657,351.3763469999999) translate(0 14.4)"/><path d="M440 426.33c0-2.76 2.24-5 5-5h90c2.76 0 5 2.24 5 5v10c0 2.76-1.58 6.6-3.54 8.54l-2.92 2.93c-1.96 1.95-5.78 3.53-8.54 3.53h-80c-2.76 0-5-2.24-5-5z" fill="#fff"/><path d="M440 426.33c0-2.76 2.24-5 5-5h1150c2.76 0 5 2.24 5 5v190c0 2.76-2.24 5-5 5H445c-2.76 0-5-2.24-5-5z" stroke="#000" stroke-width="2" fill="none"/><path d="M540 421.33v20l-10 10h-90" stroke="#000" stroke-width="2" fill="#fff"/><use xlink:href="#s" transform="matrix(1,0,0,1,448,421.33333333333337) translate(0 18.6)"/><use xlink:href="#t" transform="matrix(1,0,0,1,452,459.33333333333337) translate(0 18.6)"/><use xlink:href="#u" transform="matrix(1,0,0,1,452,459.33333333333337) translate(44.95 18.6)"/><use xlink:href="#v" transform="matrix(1,0,0,1,452,459.33333333333337) translate(63.900000000000006 18.6)"/><path d="M647.9 676.98H288" fill="none"/><path d="M647.9 676.98h-10m-10 0h-19.98m-10 0h-20m-10 0h-20m-10 0h-19.98m-10 0h-20m-10 0h-19.98m-10 0h-20m-10 0h-20m-10 0H368m-10 0h-20m-10 0h-20m-9.98 0h-10" stroke="#000" stroke-width="2" fill="none"/><path d="M648.85 676.58l1.02 1.4h-1.96v-2h.86zM305.72 667.66l-15.76 9.32 15.76 9.32-1 1.72-16.72-9.88v-2.33l16.7-9.87z"/><use xlink:href="#w" transform="matrix(1,0,0,1,323.6482157775423,651.3763470000001) translate(0 14.4)"/><path d="M319 275c0-2.76 2.24-5 5-5h90c2.76 0 5 2.24 5 5v10c0 2.76-1.58 6.58-3.54 8.54l-2.92 2.92c-1.96 1.96-5.78 3.54-8.54 3.54h-80c-2.76 0-5-2.24-5-5z" fill="#fff"/><path d="M319 275c0-2.76 2.24-5 5-5h1371c2.76 0 5 2.24 5 5v880c0 2.76-2.24 5-5 5H324c-2.76 0-5-2.24-5-5z" stroke="#000" stroke-width="2" fill="none"/><path d="M419 270v20l-10 10h-90" stroke="#000" stroke-width="2" fill="#fff"/><path d="M319 715h20m15 0h20m15 0h20m15 0h20m15 0h20m15 0h20m15 0h20m15 0h20m15 0h20m15 0h20m15 0h20m15 0h20m15 0h20m15 0h20m15 0h20m15 0h20m15 0h20m15 0h20m15 0h20m15 0h20m15 0h20m15 0h20m15 0h20m15 0h20m15 0h20m15 0h20m15 0h20m15 0h20m15 0h20m15 0h20m15 0h20m15 0h20m15 0h20m15 0h20m15 0h20m15 0h20m15 0h20m15 0h20m15 0h20m15 0h16" stroke="#000" stroke-width="2" fill="none"/><use xlink:href="#x" transform="matrix(1,0,0,1,327,270) translate(0 18.6)"/><use xlink:href="#y" transform="matrix(1,0,0,1,331,308) translate(0 18.6)"/><use xlink:href="#z" transform="matrix(1,0,0,1,331,308) translate(110.85000000000001 18.6)"/><use xlink:href="#A" transform="matrix(1,0,0,1,331,308) translate(197.8 18.6)"/><use xlink:href="#B" transform="matrix(1,0,0,1,331,723) translate(0 18.6)"/><path d="M649 931.67c0-2.76 2.24-5 5-5h30c2.76 0 5 2.24 5 5v130c0 2.76-2.24 5-5 5h-30c-2.76 0-5-2.24-5-5z" stroke="#000" stroke-width="2" fill="#fff"/><path d="M648 1060H289" fill="none"/><path d="M648 1060h-9.97m-9.97 0H608.1m-9.96 0H578.2m-9.98 0h-19.94m-9.97 0h-19.94m-9.97 0h-19.96m-9.97 0h-19.94m-9.97 0H428.6m-9.96 0H398.7m-9.98 0h-19.94m-9.97 0h-19.94m-9.97 0h-19.96m-9.97 0H289" stroke="#000" stroke-width="2" fill="none"/><path d="M649 1061h-1v-2h1zM306.72 1050.68l-15.76 9.32 15.76 9.32-1 1.72-17.72-10.47v-1.14l17.7-10.47z"/><use xlink:href="#C" transform="matrix(1,0,0,1,468.5,1034.4) translate(0 14.4)"/><use xlink:href="#D" transform="matrix(1,0,0,1,333,1034.4) translate(0 14.4)"/><use xlink:href="#E" transform="matrix(1,0,0,1,333,1034.4) translate(74.85000000000001 14.4)"/><use xlink:href="#F" transform="matrix(1,0,0,1,333,1034.4) translate(203.15000000000003 14.4)"/><path d="M400 725c0-2.76 2.24-5 5-5h90c2.76 0 5 2.24 5 5v10c0 2.76-1.58 6.58-3.54 8.54l-2.92 2.92c-1.96 1.96-5.78 3.54-8.54 3.54h-80c-2.76 0-5-2.24-5-5z" fill="#fff"/><path d="M400 725c0-2.76 2.24-5 5-5h670c2.76 0 5 2.24 5 5v410c0 2.76-2.24 5-5 5H405c-2.76 0-5-2.24-5-5z" stroke="#000" stroke-width="2" fill="none"/><path d="M500 720v20l-10 10h-90" stroke="#000" stroke-width="2" fill="#fff"/><path d="M400 930h20m15 0h20m15 0h20m15 0h20m15 0h20m15 0h20m15 0h20m15 0h20m15 0h20m15 0h20m15 0h20m15 0h20m15 0h20m15 0h20m15 0h20m15 0h20m15 0h20m15 0h20m15 0h20m15 0h15" stroke="#000" stroke-width="2" fill="none"/><g><use xlink:href="#x" transform="matrix(1,0,0,1,408,720) translate(0 18.6)"/></g><g><use xlink:href="#y" transform="matrix(1,0,0,1,412,758) translate(0 18.6)"/><use xlink:href="#G" transform="matrix(1,0,0,1,412,758) translate(110.85000000000001 18.6)"/><use xlink:href="#H" transform="matrix(1,0,0,1,412,758) translate(128.8 18.6)"/></g><g><use xlink:href="#B" transform="matrix(1,0,0,1,412,938) translate(0 18.6)"/></g><path d="M649 725c0-2.76 2.24-5 5-5h30c2.76 0 5 2.24 5 5v110c0 2.76-2.24 5-5 5h-30c-2.76 0-5-2.24-5-5z" stroke="#000" stroke-width="2" fill="#fff"/><path d="M648.3 836.98H289" fill="none"/><path d="M648.3 836.98h-9.97m-10 0H608.4m-9.98 0h-19.96m-9.98 0H548.5m-9.98 0h-19.96m-9.98 0H488.6m-9.97 0h-19.96m-9.98 0h-19.97m-9.98 0H398.8m-10 0h-19.95m-9.98 0H338.9m-9.98 0h-19.96m-9.98 0H289" stroke="#000" stroke-width="2" fill="none"/><path d="M649.25 836.58l1.02 1.4h-1.96v-2h.86zM306.72 827.66l-15.76 9.32 15.76 9.32-1 1.72L288 837.55v-1.14l17.7-10.47z"/><g><use xlink:href="#I" transform="matrix(1,0,0,1,422.15,811.376347) translate(0 14.4)"/><use xlink:href="#J" transform="matrix(1,0,0,1,422.15,811.376347) translate(64.85 14.4)"/><use xlink:href="#K" transform="matrix(1,0,0,1,422.15,811.376347) translate(84.85 14.4)"/><use xlink:href="#L" transform="matrix(1,0,0,1,422.15,811.376347) translate(127.75 14.4)"/></g><defs><path d="M84 4C-5 8 30-112 23-190h32v120c0 31 7 50 39 49 72-2 45-101 50-169h31l1 190h-30c-1-10 1-25-2-33-11 22-28 36-60 37" id="M"/><path d="M135-143c-3-34-86-38-87 0 15 53 115 12 119 90S17 21 10-45l28-5c4 36 97 45 98 0-10-56-113-15-118-90-4-57 82-63 122-42 12 7 21 19 24 35" id="N"/><path d="M100-194c63 0 86 42 84 106H49c0 40 14 67 53 68 26 1 43-12 49-29l28 8c-11 28-37 45-77 45C44 4 14-33 15-96c1-61 26-98 85-98zm52 81c6-60-76-77-97-28-3 7-6 17-6 28h103" id="O"/><path d="M114-163C36-179 61-72 57 0H25l-1-190h30c1 12-1 29 2 39 6-27 23-49 58-41v29" id="P"/><path d="M33-154v-36h34v36H33zM33 0v-36h34V0H33" id="Q"/><path d="M232-93c-1 65-40 97-104 97C67 4 28-28 28-90v-158h33c8 89-33 224 67 224 102 0 64-133 71-224h33v155" id="R"/><g id="a"><use transform="matrix(0.05,0,0,0.05,0,0)" xlink:href="#M"/><use transform="matrix(0.05,0,0,0.05,10,0)" xlink:href="#N"/><use transform="matrix(0.05,0,0,0.05,19,0)" xlink:href="#O"/><use transform="matrix(0.05,0,0,0.05,29,0)" xlink:href="#P"/><use transform="matrix(0.05,0,0,0.05,34.95,0)" xlink:href="#Q"/><use transform="matrix(0.05,0,0,0.05,39.95,0)" xlink:href="#R"/><use transform="matrix(0.05,0,0,0.05,52.900000000000006,0)" xlink:href="#N"/><use transform="matrix(0.05,0,0,0.05,61.900000000000006,0)" xlink:href="#O"/><use transform="matrix(0.05,0,0,0.05,71.9,0)" xlink:href="#P"/><path d="M-.9 1.25h79.65v1.32H-.9z"/></g><path d="M127-220V0H93v-220H8v-28h204v28h-85" id="S"/><path d="M24-231v-30h32v30H24zM24 0v-190h32V0H24" id="T"/><path d="M210-169c-67 3-38 105-44 169h-31v-121c0-29-5-50-35-48C34-165 62-65 56 0H25l-1-190h30c1 10-1 24 2 32 10-44 99-50 107 0 11-21 27-35 58-36 85-2 47 119 55 194h-31v-121c0-29-5-49-35-48" id="U"/><path d="M185-189c-5-48-123-54-124 2 14 75 158 14 163 119 3 78-121 87-175 55-17-10-28-26-33-46l33-7c5 56 141 63 141-1 0-78-155-14-162-118-5-82 145-84 179-34 5 7 8 16 11 25" id="V"/><path d="M106-169C34-169 62-67 57 0H25v-261h32l-1 103c12-21 28-36 61-36 89 0 53 116 60 194h-32v-121c2-32-8-49-39-48" id="W"/><path d="M59-47c-2 24 18 29 38 22v24C64 9 27 4 27-40v-127H5v-23h24l9-43h21v43h35v23H59v120" id="X"/><path d="M137 0h-34L2-248h35l83 218 83-218h36" id="Y"/><path d="M206 0h-36l-40-164L89 0H53L-1-190h32L70-26l43-164h34l41 164 42-164h31" id="Z"/><g id="b"><use transform="matrix(0.05,0,0,0.05,0,0)" xlink:href="#Q"/><use transform="matrix(0.05,0,0,0.05,5,0)" xlink:href="#S"/><use transform="matrix(0.05,0,0,0.05,15.3,0)" xlink:href="#T"/><use transform="matrix(0.05,0,0,0.05,19.25,0)" xlink:href="#U"/><use transform="matrix(0.05,0,0,0.05,34.2,0)" xlink:href="#O"/><use transform="matrix(0.05,0,0,0.05,44.2,0)" xlink:href="#V"/><use transform="matrix(0.05,0,0,0.05,56.2,0)" xlink:href="#W"/><use transform="matrix(0.05,0,0,0.05,66.2,0)" xlink:href="#O"/><use transform="matrix(0.05,0,0,0.05,76.2,0)" xlink:href="#O"/><use transform="matrix(0.05,0,0,0.05,86.2,0)" xlink:href="#X"/><use transform="matrix(0.05,0,0,0.05,91.2,0)" xlink:href="#Y"/><use transform="matrix(0.05,0,0,0.05,102.85000000000001,0)" xlink:href="#T"/><use transform="matrix(0.05,0,0,0.05,106.80000000000001,0)" xlink:href="#O"/><use transform="matrix(0.05,0,0,0.05,116.80000000000001,0)" xlink:href="#Z"/><path d="M-.9 1.25h131.55v1.32H-.9z"/></g><path d="M212-179c-10-28-35-45-73-45-59 0-87 40-87 99 0 60 29 101 89 101 43 0 62-24 78-52l27 14C228-24 195 4 139 4 59 4 22-46 18-125c-6-104 99-153 187-111 19 9 31 26 39 46" id="aa"/><path d="M100-194c62-1 85 37 85 99 1 63-27 99-86 99S16-35 15-95c0-66 28-99 85-99zM99-20c44 1 53-31 53-75 0-43-8-75-51-75s-53 32-53 75 10 74 51 75" id="ab"/><path d="M117-194c89-4 53 116 60 194h-32v-121c0-31-8-49-39-48C34-167 62-67 57 0H25l-1-190h30c1 10-1 24 2 32 11-22 29-35 61-36" id="ac"/><path d="M24 0v-261h32V0H24" id="ad"/><g id="c"><use transform="matrix(0.05,0,0,0.05,0,0)" xlink:href="#Q"/><use transform="matrix(0.05,0,0,0.05,5,0)" xlink:href="#S"/><use transform="matrix(0.05,0,0,0.05,15.3,0)" xlink:href="#T"/><use transform="matrix(0.05,0,0,0.05,19.25,0)" xlink:href="#U"/><use transform="matrix(0.05,0,0,0.05,34.2,0)" xlink:href="#O"/><use transform="matrix(0.05,0,0,0.05,44.2,0)" xlink:href="#V"/><use transform="matrix(0.05,0,0,0.05,56.2,0)" xlink:href="#W"/><use transform="matrix(0.05,0,0,0.05,66.2,0)" xlink:href="#O"/><use transform="matrix(0.05,0,0,0.05,76.2,0)" xlink:href="#O"/><use transform="matrix(0.05,0,0,0.05,86.2,0)" xlink:href="#X"/><use transform="matrix(0.05,0,0,0.05,91.2,0)" xlink:href="#aa"/><use transform="matrix(0.05,0,0,0.05,104.15,0)" xlink:href="#ab"/><use transform="matrix(0.05,0,0,0.05,114.15,0)" xlink:href="#ac"/><use transform="matrix(0.05,0,0,0.05,124.15,0)" xlink:href="#X"/><use transform="matrix(0.05,0,0,0.05,129.15,0)" xlink:href="#P"/><use transform="matrix(0.05,0,0,0.05,135.1,0)" xlink:href="#ab"/><use transform="matrix(0.05,0,0,0.05,145.1,0)" xlink:href="#ad"/><path d="M-.9 1.25h150.85v1.32H-.9z"/></g><path d="M140-251c81 0 123 46 123 126C263-46 219 4 140 4 59 4 17-45 17-125s42-126 123-126zm0 227c63 0 89-41 89-101s-29-99-89-99c-61 0-89 39-89 99S79-25 140-24" id="ae"/><path d="M101-234c-31-9-42 10-38 44h38v23H63V0H32v-167H5v-23h27c-7-52 17-82 69-68v24" id="af"/><path d="M26 75v-336h71v23H56V52h41v23H26" id="ag"/><path d="M3 75V52h41v-290H3v-23h71V75H3" id="ah"/><g id="d"><use transform="matrix(0.05,0,0,0.05,0,0)" xlink:href="#ad"/><use transform="matrix(0.05,0,0,0.05,3.95,0)" xlink:href="#T"/><use transform="matrix(0.05,0,0,0.05,7.9,0)" xlink:href="#N"/><use transform="matrix(0.05,0,0,0.05,16.9,0)" xlink:href="#X"/><use transform="matrix(0.05,0,0,0.05,21.9,0)" xlink:href="#ae"/><use transform="matrix(0.05,0,0,0.05,35.9,0)" xlink:href="#af"/><use transform="matrix(0.05,0,0,0.05,40.9,0)" xlink:href="#R"/><use transform="matrix(0.05,0,0,0.05,53.85,0)" xlink:href="#N"/><use transform="matrix(0.05,0,0,0.05,62.85,0)" xlink:href="#O"/><use transform="matrix(0.05,0,0,0.05,72.85,0)" xlink:href="#P"/><use transform="matrix(0.05,0,0,0.05,78.8,0)" xlink:href="#N"/><use transform="matrix(0.05,0,0,0.05,87.8,0)" xlink:href="#Q"/><use transform="matrix(0.05,0,0,0.05,92.8,0)" xlink:href="#R"/><use transform="matrix(0.05,0,0,0.05,105.75,0)" xlink:href="#N"/><use transform="matrix(0.05,0,0,0.05,114.75,0)" xlink:href="#O"/><use transform="matrix(0.05,0,0,0.05,124.75,0)" xlink:href="#P"/><use transform="matrix(0.05,0,0,0.05,130.7,0)" xlink:href="#ag"/><use transform="matrix(0.05,0,0,0.05,135.7,0)" xlink:href="#ah"/><path d="M-.9 1.25h142.5v1.32H-.9z"/></g><path d="M177-190C167-65 218 103 67 71c-23-6-38-20-44-43l32-5c15 47 100 32 89-28v-30C133-14 115 1 83 1 29 1 15-40 15-95c0-56 16-97 71-98 29-1 48 16 59 35 1-10 0-23 2-32h30zM94-22c36 0 50-32 50-73 0-42-14-75-50-75-39 0-46 34-46 75s6 73 46 73" id="ai"/><path d="M115-194c55 1 70 41 70 98S169 2 115 4C84 4 66-9 55-30l1 105H24l-1-265h31l2 30c10-21 28-34 59-34zm-8 174c40 0 45-34 45-75s-6-73-45-74c-42 0-51 32-51 76 0 43 10 73 51 73" id="aj"/><path d="M108 0H70L1-190h34L89-25l56-165h34" id="ak"/><path d="M85-194c31 0 48 13 60 33l-1-100h32l1 261h-30c-2-10 0-23-3-31C134-8 116 4 85 4 32 4 16-35 15-94c0-66 23-100 70-100zm9 24c-40 0-46 34-46 75 0 40 6 74 45 74 42 0 51-32 51-76 0-42-9-74-50-73" id="al"/><path d="M87 75C49 33 22-17 22-94c0-76 28-126 65-167h31c-38 41-64 92-64 168S80 34 118 75H87" id="am"/><path d="M68-38c1 34 0 65-14 84H32c9-13 17-26 17-46H33v-38h35" id="an"/><g id="e"><use transform="matrix(0.05,0,0,0.05,0,0)" xlink:href="#ai"/><use transform="matrix(0.05,0,0,0.05,10,0)" xlink:href="#O"/><use transform="matrix(0.05,0,0,0.05,20,0)" xlink:href="#X"/><use transform="matrix(0.05,0,0,0.05,25,0)" xlink:href="#V"/><use transform="matrix(0.05,0,0,0.05,37,0)" xlink:href="#M"/><use transform="matrix(0.05,0,0,0.05,47,0)" xlink:href="#aj"/><use transform="matrix(0.05,0,0,0.05,57,0)" xlink:href="#O"/><use transform="matrix(0.05,0,0,0.05,67,0)" xlink:href="#P"/><use transform="matrix(0.05,0,0,0.05,72.95,0)" xlink:href="#ak"/><use transform="matrix(0.05,0,0,0.05,81.95,0)" xlink:href="#T"/><use transform="matrix(0.05,0,0,0.05,85.9,0)" xlink:href="#N"/><use transform="matrix(0.05,0,0,0.05,94.9,0)" xlink:href="#O"/><use transform="matrix(0.05,0,0,0.05,104.9,0)" xlink:href="#al"/><use transform="matrix(0.05,0,0,0.05,114.9,0)" xlink:href="#S"/><use transform="matrix(0.05,0,0,0.05,125.2,0)" xlink:href="#T"/><use transform="matrix(0.05,0,0,0.05,129.15,0)" xlink:href="#U"/><use transform="matrix(0.05,0,0,0.05,144.1,0)" xlink:href="#O"/><use transform="matrix(0.05,0,0,0.05,154.1,0)" xlink:href="#V"/><use transform="matrix(0.05,0,0,0.05,166.1,0)" xlink:href="#W"/><use transform="matrix(0.05,0,0,0.05,176.1,0)" xlink:href="#O"/><use transform="matrix(0.05,0,0,0.05,186.1,0)" xlink:href="#O"/><use transform="matrix(0.05,0,0,0.05,196.1,0)" xlink:href="#X"/><use transform="matrix(0.05,0,0,0.05,201.1,0)" xlink:href="#N"/><use transform="matrix(0.05,0,0,0.05,210.10000000000002,0)" xlink:href="#am"/><use transform="matrix(0.05,0,0,0.05,216.04999999999995,0)" xlink:href="#U"/><use transform="matrix(0.05,0,0,0.05,230.99999999999997,0)" xlink:href="#ab"/><use transform="matrix(0.05,0,0,0.05,240.99999999999997,0)" xlink:href="#ac"/><use transform="matrix(0.05,0,0,0.05,250.99999999999997,0)" xlink:href="#X"/><use transform="matrix(0.05,0,0,0.05,255.99999999999997,0)" xlink:href="#W"/><use transform="matrix(0.05,0,0,0.05,266,0)" xlink:href="#an"/></g><path d="M179-190L93 31C79 59 56 82 12 73V49c39 6 53-20 64-50L1-190h34L92-34l54-156h33" id="ao"/><path d="M141-36C126-15 110 5 73 4 37 3 15-17 15-53c-1-64 63-63 125-63 3-35-9-54-41-54-24 1-41 7-42 31l-33-3c5-37 33-52 76-52 45 0 72 20 72 64v82c-1 20 7 32 28 27v20c-31 9-61-2-59-35zM48-53c0 20 12 33 32 33 41-3 63-29 60-74-43 2-92-5-92 41" id="ap"/><path d="M33-261c38 41 65 92 65 168S71 34 33 75H2C39 34 66-17 66-93S39-220 2-261h31" id="aq"/><g id="f"><use transform="matrix(0.05,0,0,0.05,0,0)" xlink:href="#ao"/><use transform="matrix(0.05,0,0,0.05,9,0)" xlink:href="#O"/><use transform="matrix(0.05,0,0,0.05,19,0)" xlink:href="#ap"/><use transform="matrix(0.05,0,0,0.05,29,0)" xlink:href="#P"/><use transform="matrix(0.05,0,0,0.05,34.95,0)" xlink:href="#aq"/></g><path d="M30 0v-248h187v28H63v79h144v27H63v87h162V0H30" id="ar"/><g id="g"><use transform="matrix(0.05,0,0,0.05,0,0)" xlink:href="#ai"/><use transform="matrix(0.05,0,0,0.05,10,0)" xlink:href="#O"/><use transform="matrix(0.05,0,0,0.05,20,0)" xlink:href="#X"/><use transform="matrix(0.05,0,0,0.05,25,0)" xlink:href="#ar"/><use transform="matrix(0.05,0,0,0.05,37,0)" xlink:href="#ac"/><use transform="matrix(0.05,0,0,0.05,47,0)" xlink:href="#X"/><use transform="matrix(0.05,0,0,0.05,52,0)" xlink:href="#T"/><use transform="matrix(0.05,0,0,0.05,55.95,0)" xlink:href="#X"/><use transform="matrix(0.05,0,0,0.05,60.95,0)" xlink:href="#ao"/><use transform="matrix(0.05,0,0,0.05,69.95,0)" xlink:href="#am"/><use transform="matrix(0.05,0,0,0.05,75.9,0)" xlink:href="#aq"/></g><path d="M240 0l2-218c-23 76-54 145-80 218h-23L58-218 59 0H30v-248h44l77 211c21-75 51-140 76-211h43V0h-30" id="as"/><g id="h"><use transform="matrix(0.05,0,0,0.05,0,0)" xlink:href="#Q"/><use transform="matrix(0.05,0,0,0.05,5,0)" xlink:href="#as"/><use transform="matrix(0.05,0,0,0.05,19.950000000000003,0)" xlink:href="#ap"/><use transform="matrix(0.05,0,0,0.05,29.950000000000003,0)" xlink:href="#T"/><use transform="matrix(0.05,0,0,0.05,33.900000000000006,0)" xlink:href="#ac"/><use transform="matrix(0.05,0,0,0.05,43.900000000000006,0)" xlink:href="#aa"/><use transform="matrix(0.05,0,0,0.05,56.85,0)" xlink:href="#ab"/><use transform="matrix(0.05,0,0,0.05,66.85000000000001,0)" xlink:href="#ac"/><use transform="matrix(0.05,0,0,0.05,76.85000000000001,0)" xlink:href="#X"/><use transform="matrix(0.05,0,0,0.05,81.85000000000001,0)" xlink:href="#P"/><use transform="matrix(0.05,0,0,0.05,87.80000000000001,0)" xlink:href="#ab"/><use transform="matrix(0.05,0,0,0.05,97.80000000000001,0)" xlink:href="#ad"/><path d="M-.9 1.25h103.55v1.32H-.9z"/></g><path d="M96-169c-40 0-48 33-48 73s9 75 48 75c24 0 41-14 43-38l32 2c-6 37-31 61-74 61-59 0-76-41-82-99-10-93 101-131 147-64 4 7 5 14 7 22l-32 3c-4-21-16-35-41-35" id="at"/><g id="i"><use transform="matrix(0.05,0,0,0.05,0,0)" xlink:href="#at"/><use transform="matrix(0.05,0,0,0.05,9,0)" xlink:href="#M"/><use transform="matrix(0.05,0,0,0.05,19,0)" xlink:href="#P"/><use transform="matrix(0.05,0,0,0.05,24.95,0)" xlink:href="#P"/><use transform="matrix(0.05,0,0,0.05,30.899999999999995,0)" xlink:href="#O"/><use transform="matrix(0.05,0,0,0.05,40.9,0)" xlink:href="#ac"/><use transform="matrix(0.05,0,0,0.05,50.9,0)" xlink:href="#X"/><use transform="matrix(0.05,0,0,0.05,55.900000000000006,0)" xlink:href="#ar"/><use transform="matrix(0.05,0,0,0.05,67.9,0)" xlink:href="#ac"/><use transform="matrix(0.05,0,0,0.05,77.9,0)" xlink:href="#X"/><use transform="matrix(0.05,0,0,0.05,82.9,0)" xlink:href="#T"/><use transform="matrix(0.05,0,0,0.05,86.85000000000001,0)" xlink:href="#X"/><use transform="matrix(0.05,0,0,0.05,91.85000000000001,0)" xlink:href="#ao"/><use transform="matrix(0.05,0,0,0.05,100.85000000000001,0)" xlink:href="#Q"/></g><g id="j"><use transform="matrix(0.05,0,0,0.05,0,0)" xlink:href="#ar"/><use transform="matrix(0.05,0,0,0.05,12,0)" xlink:href="#ac"/><use transform="matrix(0.05,0,0,0.05,22,0)" xlink:href="#X"/><use transform="matrix(0.05,0,0,0.05,27,0)" xlink:href="#T"/><use transform="matrix(0.05,0,0,0.05,30.950000000000003,0)" xlink:href="#X"/><use transform="matrix(0.05,0,0,0.05,35.95,0)" xlink:href="#ao"/></g><g id="k"><use transform="matrix(0.05,0,0,0.05,0,0)" xlink:href="#ai"/><use transform="matrix(0.05,0,0,0.05,10,0)" xlink:href="#O"/><use transform="matrix(0.05,0,0,0.05,20,0)" xlink:href="#X"/><use transform="matrix(0.05,0,0,0.05,25,0)" xlink:href="#S"/><use transform="matrix(0.05,0,0,0.05,35.300000000000004,0)" xlink:href="#T"/><use transform="matrix(0.05,0,0,0.05,39.25000000000001,0)" xlink:href="#U"/><use transform="matrix(0.05,0,0,0.05,54.20000000000002,0)" xlink:href="#O"/><use transform="matrix(0.05,0,0,0.05,64.20000000000002,0)" xlink:href="#V"/><use transform="matrix(0.05,0,0,0.05,76.20000000000002,0)" xlink:href="#W"/><use transform="matrix(0.05,0,0,0.05,86.20000000000002,0)" xlink:href="#O"/><use transform="matrix(0.05,0,0,0.05,96.20000000000002,0)" xlink:href="#O"/><use transform="matrix(0.05,0,0,0.05,106.2,0)" xlink:href="#X"/><use transform="matrix(0.05,0,0,0.05,111.2,0)" xlink:href="#am"/><use transform="matrix(0.05,0,0,0.05,117.15000000000003,0)" xlink:href="#U"/><use transform="matrix(0.05,0,0,0.05,132.10000000000002,0)" xlink:href="#ab"/><use transform="matrix(0.05,0,0,0.05,142.10000000000002,0)" xlink:href="#ac"/><use transform="matrix(0.05,0,0,0.05,152.10000000000002,0)" xlink:href="#X"/><use transform="matrix(0.05,0,0,0.05,157.10000000000002,0)" xlink:href="#W"/><use transform="matrix(0.05,0,0,0.05,167.10000000000002,0)" xlink:href="#an"/></g><g id="l"><use transform="matrix(0.05,0,0,0.05,0,0)" xlink:href="#Q"/><use transform="matrix(0.05,0,0,0.05,5,0)" xlink:href="#S"/><use transform="matrix(0.05,0,0,0.05,15.3,0)" xlink:href="#T"/><use transform="matrix(0.05,0,0,0.05,19.25,0)" xlink:href="#U"/><use transform="matrix(0.05,0,0,0.05,34.2,0)" xlink:href="#O"/><use transform="matrix(0.05,0,0,0.05,44.2,0)" xlink:href="#V"/><use transform="matrix(0.05,0,0,0.05,56.2,0)" xlink:href="#W"/><use transform="matrix(0.05,0,0,0.05,66.2,0)" xlink:href="#O"/><use transform="matrix(0.05,0,0,0.05,76.2,0)" xlink:href="#O"/><use transform="matrix(0.05,0,0,0.05,86.2,0)" xlink:href="#X"/><path d="M-.9 1.25h93v1.32h-93z"/></g><path d="M18-100v-36l175-74v27L42-118l151 64v27" id="au"/><path d="M18-27v-27l151-64-151-65v-27l175 74v36" id="av"/><g id="m"><use transform="matrix(0.05,0,0,0.05,0,0)" xlink:href="#X"/><use transform="matrix(0.05,0,0,0.05,5,0)" xlink:href="#T"/><use transform="matrix(0.05,0,0,0.05,8.95,0)" xlink:href="#U"/><use transform="matrix(0.05,0,0,0.05,23.9,0)" xlink:href="#O"/><use transform="matrix(0.05,0,0,0.05,33.9,0)" xlink:href="#V"/><use transform="matrix(0.05,0,0,0.05,45.9,0)" xlink:href="#W"/><use transform="matrix(0.05,0,0,0.05,55.900000000000006,0)" xlink:href="#O"/><use transform="matrix(0.05,0,0,0.05,65.9,0)" xlink:href="#O"/><use transform="matrix(0.05,0,0,0.05,75.9,0)" xlink:href="#X"/><use transform="matrix(0.05,0,0,0.05,80.9,0)" xlink:href="#Q"/><use transform="matrix(0.05,0,0,0.05,85.9,0)" xlink:href="#S"/><use transform="matrix(0.05,0,0,0.05,96.2,0)" xlink:href="#T"/><use transform="matrix(0.05,0,0,0.05,100.15,0)" xlink:href="#U"/><use transform="matrix(0.05,0,0,0.05,115.10000000000001,0)" xlink:href="#O"/><use transform="matrix(0.05,0,0,0.05,125.10000000000001,0)" xlink:href="#V"/><use transform="matrix(0.05,0,0,0.05,137.10000000000002,0)" xlink:href="#W"/><use transform="matrix(0.05,0,0,0.05,147.10000000000002,0)" xlink:href="#O"/><use transform="matrix(0.05,0,0,0.05,157.10000000000002,0)" xlink:href="#O"/><use transform="matrix(0.05,0,0,0.05,167.10000000000002,0)" xlink:href="#X"/><use transform="matrix(0.05,0,0,0.05,172.10000000000002,0)" xlink:href="#au"/><use transform="matrix(0.05,0,0,0.05,182.60000000000002,0)" xlink:href="#au"/><use transform="matrix(0.05,0,0,0.05,193.10000000000002,0)" xlink:href="#at"/><use transform="matrix(0.05,0,0,0.05,202.10000000000002,0)" xlink:href="#ab"/><use transform="matrix(0.05,0,0,0.05,212.10000000000002,0)" xlink:href="#ac"/><use transform="matrix(0.05,0,0,0.05,222.10000000000002,0)" xlink:href="#N"/><use transform="matrix(0.05,0,0,0.05,231.10000000000002,0)" xlink:href="#X"/><use transform="matrix(0.05,0,0,0.05,236.10000000000002,0)" xlink:href="#av"/><use transform="matrix(0.05,0,0,0.05,246.60000000000002,0)" xlink:href="#av"/></g><g id="n"><use transform="matrix(0.05,0,0,0.05,0,0)" xlink:href="#V"/><use transform="matrix(0.05,0,0,0.05,12,0)" xlink:href="#M"/><use transform="matrix(0.05,0,0,0.05,22,0)" xlink:href="#aj"/><use transform="matrix(0.05,0,0,0.05,32,0)" xlink:href="#O"/><use transform="matrix(0.05,0,0,0.05,42,0)" xlink:href="#P"/><use transform="matrix(0.05,0,0,0.05,47.95,0)" xlink:href="#ak"/><use transform="matrix(0.05,0,0,0.05,56.95,0)" xlink:href="#T"/><use transform="matrix(0.05,0,0,0.05,60.900000000000006,0)" xlink:href="#N"/><use transform="matrix(0.05,0,0,0.05,69.9,0)" xlink:href="#ab"/><use transform="matrix(0.05,0,0,0.05,79.9,0)" xlink:href="#P"/></g><path d="M30-248c118-7 216 8 213 122C240-48 200 0 122 0H30v-248zM63-27c89 8 146-16 146-99s-60-101-146-95v194" id="aw"/><path d="M205 0l-28-72H64L36 0H1l101-248h38L239 0h-34zm-38-99l-47-123c-12 45-31 82-46 123h93" id="ax"/><g id="o"><use transform="matrix(0.05,0,0,0.05,0,0)" xlink:href="#Q"/><use transform="matrix(0.05,0,0,0.05,5,0)" xlink:href="#R"/><use transform="matrix(0.05,0,0,0.05,17.950000000000003,0)" xlink:href="#N"/><use transform="matrix(0.05,0,0,0.05,26.950000000000003,0)" xlink:href="#O"/><use transform="matrix(0.05,0,0,0.05,36.95,0)" xlink:href="#P"/><use transform="matrix(0.05,0,0,0.05,42.900000000000006,0)" xlink:href="#aw"/><use transform="matrix(0.05,0,0,0.05,55.85,0)" xlink:href="#ax"/><use transform="matrix(0.05,0,0,0.05,67.85000000000001,0)" xlink:href="#ae"/><path d="M-.9 1.25h83.65v1.32H-.9z"/></g><path d="M160-131c35 5 61 23 61 61C221 17 115-2 30 0v-248c76 3 177-17 177 60 0 33-19 50-47 57zm-97-11c50-1 110 9 110-42 0-47-63-36-110-37v79zm0 115c55-2 124 14 124-45 0-56-70-42-124-44v89" id="ay"/><g id="p"><use transform="matrix(0.05,0,0,0.05,0,0)" xlink:href="#ai"/><use transform="matrix(0.05,0,0,0.05,10,0)" xlink:href="#O"/><use transform="matrix(0.05,0,0,0.05,20,0)" xlink:href="#X"/><use transform="matrix(0.05,0,0,0.05,25,0)" xlink:href="#R"/><use transform="matrix(0.05,0,0,0.05,37.95,0)" xlink:href="#N"/><use transform="matrix(0.05,0,0,0.05,46.95,0)" xlink:href="#O"/><use transform="matrix(0.05,0,0,0.05,56.95,0)" xlink:href="#P"/><use transform="matrix(0.05,0,0,0.05,62.900000000000006,0)" xlink:href="#N"/><use transform="matrix(0.05,0,0,0.05,71.9,0)" xlink:href="#ay"/><use transform="matrix(0.05,0,0,0.05,83.9,0)" xlink:href="#ao"/><use transform="matrix(0.05,0,0,0.05,92.9,0)" xlink:href="#V"/><use transform="matrix(0.05,0,0,0.05,104.9,0)" xlink:href="#M"/><use transform="matrix(0.05,0,0,0.05,114.9,0)" xlink:href="#aj"/><use transform="matrix(0.05,0,0,0.05,124.9,0)" xlink:href="#O"/><use transform="matrix(0.05,0,0,0.05,134.9,0)" xlink:href="#P"/><use transform="matrix(0.05,0,0,0.05,140.85,0)" xlink:href="#ak"/><use transform="matrix(0.05,0,0,0.05,149.85,0)" xlink:href="#T"/><use transform="matrix(0.05,0,0,0.05,153.79999999999998,0)" xlink:href="#N"/><use transform="matrix(0.05,0,0,0.05,162.79999999999998,0)" xlink:href="#ab"/><use transform="matrix(0.05,0,0,0.05,172.79999999999998,0)" xlink:href="#P"/><use transform="matrix(0.05,0,0,0.05,178.74999999999997,0)" xlink:href="#am"/><use transform="matrix(0.05,0,0,0.05,184.69999999999996,0)" xlink:href="#at"/><use transform="matrix(0.05,0,0,0.05,193.69999999999996,0)" xlink:href="#M"/><use transform="matrix(0.05,0,0,0.05,203.69999999999996,0)" xlink:href="#P"/><use transform="matrix(0.05,0,0,0.05,209.64999999999998,0)" xlink:href="#P"/><use transform="matrix(0.05,0,0,0.05,215.5999999999999,0)" xlink:href="#O"/><use transform="matrix(0.05,0,0,0.05,225.5999999999999,0)" xlink:href="#ac"/><use transform="matrix(0.05,0,0,0.05,235.5999999999999,0)" xlink:href="#X"/><use transform="matrix(0.05,0,0,0.05,240.5999999999999,0)" xlink:href="#ar"/><use transform="matrix(0.05,0,0,0.05,252.5999999999999,0)" xlink:href="#ac"/><use transform="matrix(0.05,0,0,0.05,262.5999999999999,0)" xlink:href="#X"/><use transform="matrix(0.05,0,0,0.05,267.5999999999999,0)" xlink:href="#T"/><use transform="matrix(0.05,0,0,0.05,271.5499999999999,0)" xlink:href="#X"/><use transform="matrix(0.05,0,0,0.05,276.5499999999999,0)" xlink:href="#ao"/><use transform="matrix(0.05,0,0,0.05,285.5499999999999,0)" xlink:href="#Q"/></g><g id="q"><use transform="matrix(0.05,0,0,0.05,0,0)" xlink:href="#V"/><use transform="matrix(0.05,0,0,0.05,12,0)" xlink:href="#M"/><use transform="matrix(0.05,0,0,0.05,22,0)" xlink:href="#aj"/><use transform="matrix(0.05,0,0,0.05,32,0)" xlink:href="#O"/><use transform="matrix(0.05,0,0,0.05,42,0)" xlink:href="#P"/><use transform="matrix(0.05,0,0,0.05,47.95,0)" xlink:href="#ak"/><use transform="matrix(0.05,0,0,0.05,56.95,0)" xlink:href="#T"/><use transform="matrix(0.05,0,0,0.05,60.900000000000006,0)" xlink:href="#N"/><use transform="matrix(0.05,0,0,0.05,69.9,0)" xlink:href="#ab"/><use transform="matrix(0.05,0,0,0.05,79.9,0)" xlink:href="#P"/><use transform="matrix(0.05,0,0,0.05,85.85000000000001,0)" xlink:href="#aq"/></g><g id="r"><use transform="matrix(0.05,0,0,0.05,0,0)" xlink:href="#ad"/><use transform="matrix(0.05,0,0,0.05,3.95,0)" xlink:href="#T"/><use transform="matrix(0.05,0,0,0.05,7.9,0)" xlink:href="#N"/><use transform="matrix(0.05,0,0,0.05,16.9,0)" xlink:href="#X"/><use transform="matrix(0.05,0,0,0.05,21.9,0)" xlink:href="#ae"/><use transform="matrix(0.05,0,0,0.05,35.9,0)" xlink:href="#af"/><use transform="matrix(0.05,0,0,0.05,40.9,0)" xlink:href="#R"/><use transform="matrix(0.05,0,0,0.05,53.85,0)" xlink:href="#N"/><use transform="matrix(0.05,0,0,0.05,62.85,0)" xlink:href="#O"/><use transform="matrix(0.05,0,0,0.05,72.85,0)" xlink:href="#P"/><use transform="matrix(0.05,0,0,0.05,78.8,0)" xlink:href="#N"/><use transform="matrix(0.05,0,0,0.05,87.8,0)" xlink:href="#Q"/><use transform="matrix(0.05,0,0,0.05,92.8,0)" xlink:href="#R"/><use transform="matrix(0.05,0,0,0.05,105.75,0)" xlink:href="#N"/><use transform="matrix(0.05,0,0,0.05,114.75,0)" xlink:href="#O"/><use transform="matrix(0.05,0,0,0.05,124.75,0)" xlink:href="#P"/><use transform="matrix(0.05,0,0,0.05,130.7,0)" xlink:href="#ag"/><use transform="matrix(0.05,0,0,0.05,135.7,0)" xlink:href="#ah"/><use transform="matrix(0.05,0,0,0.05,140.7,0)" xlink:href="#au"/><use transform="matrix(0.05,0,0,0.05,151.2,0)" xlink:href="#au"/><use transform="matrix(0.05,0,0,0.05,161.7,0)" xlink:href="#at"/><use transform="matrix(0.05,0,0,0.05,170.7,0)" xlink:href="#ab"/><use transform="matrix(0.05,0,0,0.05,180.7,0)" xlink:href="#ac"/><use transform="matrix(0.05,0,0,0.05,190.7,0)" xlink:href="#N"/><use transform="matrix(0.05,0,0,0.05,199.7,0)" xlink:href="#X"/><use transform="matrix(0.05,0,0,0.05,204.7,0)" xlink:href="#av"/><use transform="matrix(0.05,0,0,0.05,215.19999999999996,0)" xlink:href="#av"/></g><g id="s"><use transform="matrix(0.05,0,0,0.05,0,0)" xlink:href="#af"/><use transform="matrix(0.05,0,0,0.05,5,0)" xlink:href="#ab"/><use transform="matrix(0.05,0,0,0.05,15,0)" xlink:href="#P"/></g><g id="t"><use transform="matrix(0.05,0,0,0.05,0,0)" xlink:href="#ag"/><use transform="matrix(0.05,0,0,0.05,5,0)" xlink:href="#M"/><use transform="matrix(0.05,0,0,0.05,15,0)" xlink:href="#N"/><use transform="matrix(0.05,0,0,0.05,24,0)" xlink:href="#O"/><use transform="matrix(0.05,0,0,0.05,34,0)" xlink:href="#P"/></g><g id="u"><use transform="matrix(0.05,0,0,0.05,0,0)" xlink:href="#T"/><use transform="matrix(0.05,0,0,0.05,3.95,0)" xlink:href="#ac"/></g><g id="v"><use transform="matrix(0.05,0,0,0.05,0,0)" xlink:href="#ad"/><use transform="matrix(0.05,0,0,0.05,3.95,0)" xlink:href="#T"/><use transform="matrix(0.05,0,0,0.05,7.9,0)" xlink:href="#N"/><use transform="matrix(0.05,0,0,0.05,16.9,0)" xlink:href="#X"/><use transform="matrix(0.05,0,0,0.05,21.9,0)" xlink:href="#ae"/><use transform="matrix(0.05,0,0,0.05,35.9,0)" xlink:href="#af"/><use transform="matrix(0.05,0,0,0.05,40.9,0)" xlink:href="#R"/><use transform="matrix(0.05,0,0,0.05,53.85,0)" xlink:href="#N"/><use transform="matrix(0.05,0,0,0.05,62.85,0)" xlink:href="#O"/><use transform="matrix(0.05,0,0,0.05,72.85,0)" xlink:href="#P"/><use transform="matrix(0.05,0,0,0.05,78.8,0)" xlink:href="#N"/><use transform="matrix(0.05,0,0,0.05,87.8,0)" xlink:href="#ah"/></g><g id="w"><use transform="matrix(0.05,0,0,0.05,0,0)" xlink:href="#ad"/><use transform="matrix(0.05,0,0,0.05,3.95,0)" xlink:href="#T"/><use transform="matrix(0.05,0,0,0.05,7.9,0)" xlink:href="#N"/><use transform="matrix(0.05,0,0,0.05,16.9,0)" xlink:href="#X"/><use transform="matrix(0.05,0,0,0.05,21.9,0)" xlink:href="#ae"/><use transform="matrix(0.05,0,0,0.05,35.9,0)" xlink:href="#af"/><use transform="matrix(0.05,0,0,0.05,40.9,0)" xlink:href="#S"/><use transform="matrix(0.05,0,0,0.05,51.2,0)" xlink:href="#T"/><use transform="matrix(0.05,0,0,0.05,55.150000000000006,0)" xlink:href="#U"/><use transform="matrix(0.05,0,0,0.05,70.10000000000001,0)" xlink:href="#O"/><use transform="matrix(0.05,0,0,0.05,80.10000000000001,0)" xlink:href="#N"/><use transform="matrix(0.05,0,0,0.05,89.10000000000001,0)" xlink:href="#W"/><use transform="matrix(0.05,0,0,0.05,99.10000000000001,0)" xlink:href="#O"/><use transform="matrix(0.05,0,0,0.05,109.10000000000001,0)" xlink:href="#O"/><use transform="matrix(0.05,0,0,0.05,119.10000000000001,0)" xlink:href="#X"/><use transform="matrix(0.05,0,0,0.05,124.10000000000001,0)" xlink:href="#N"/><use transform="matrix(0.05,0,0,0.05,133.10000000000002,0)" xlink:href="#Q"/><use transform="matrix(0.05,0,0,0.05,138.10000000000002,0)" xlink:href="#S"/><use transform="matrix(0.05,0,0,0.05,148.4,0)" xlink:href="#T"/><use transform="matrix(0.05,0,0,0.05,152.35,0)" xlink:href="#U"/><use transform="matrix(0.05,0,0,0.05,167.29999999999998,0)" xlink:href="#O"/><use transform="matrix(0.05,0,0,0.05,177.29999999999998,0)" xlink:href="#V"/><use transform="matrix(0.05,0,0,0.05,189.29999999999998,0)" xlink:href="#W"/><use transform="matrix(0.05,0,0,0.05,199.29999999999998,0)" xlink:href="#O"/><use transform="matrix(0.05,0,0,0.05,209.29999999999995,0)" xlink:href="#O"/><use transform="matrix(0.05,0,0,0.05,219.29999999999995,0)" xlink:href="#X"/><use transform="matrix(0.05,0,0,0.05,224.29999999999995,0)" xlink:href="#ag"/><use transform="matrix(0.05,0,0,0.05,229.29999999999995,0)" xlink:href="#ah"/><use transform="matrix(0.05,0,0,0.05,234.29999999999995,0)" xlink:href="#au"/><use transform="matrix(0.05,0,0,0.05,244.79999999999995,0)" xlink:href="#au"/><use transform="matrix(0.05,0,0,0.05,255.29999999999995,0)" xlink:href="#at"/><use transform="matrix(0.05,0,0,0.05,264.29999999999995,0)" xlink:href="#ab"/><use transform="matrix(0.05,0,0,0.05,274.29999999999995,0)" xlink:href="#ac"/><use transform="matrix(0.05,0,0,0.05,284.29999999999995,0)" xlink:href="#N"/><use transform="matrix(0.05,0,0,0.05,293.29999999999995,0)" xlink:href="#X"/><use transform="matrix(0.05,0,0,0.05,298.29999999999995,0)" xlink:href="#av"/><use transform="matrix(0.05,0,0,0.05,308.79999999999995,0)" xlink:href="#av"/></g><g id="x"><use transform="matrix(0.05,0,0,0.05,0,0)" xlink:href="#ax"/><use transform="matrix(0.05,0,0,0.05,12,0)" xlink:href="#ad"/><use transform="matrix(0.05,0,0,0.05,15.949999999999998,0)" xlink:href="#X"/><use transform="matrix(0.05,0,0,0.05,20.95,0)" xlink:href="#O"/><use transform="matrix(0.05,0,0,0.05,30.950000000000003,0)" xlink:href="#P"/><use transform="matrix(0.05,0,0,0.05,36.9,0)" xlink:href="#ac"/><use transform="matrix(0.05,0,0,0.05,46.9,0)" xlink:href="#ap"/><use transform="matrix(0.05,0,0,0.05,56.900000000000006,0)" xlink:href="#X"/><use transform="matrix(0.05,0,0,0.05,61.900000000000006,0)" xlink:href="#T"/><use transform="matrix(0.05,0,0,0.05,65.85,0)" xlink:href="#ak"/><use transform="matrix(0.05,0,0,0.05,74.85,0)" xlink:href="#O"/></g><g id="y"><use transform="matrix(0.05,0,0,0.05,0,0)" xlink:href="#ag"/><use transform="matrix(0.05,0,0,0.05,5,0)" xlink:href="#at"/><use transform="matrix(0.05,0,0,0.05,14,0)" xlink:href="#M"/><use transform="matrix(0.05,0,0,0.05,24,0)" xlink:href="#P"/><use transform="matrix(0.05,0,0,0.05,29.950000000000003,0)" xlink:href="#P"/><use transform="matrix(0.05,0,0,0.05,35.9,0)" xlink:href="#O"/><use transform="matrix(0.05,0,0,0.05,45.9,0)" xlink:href="#ac"/><use transform="matrix(0.05,0,0,0.05,55.900000000000006,0)" xlink:href="#X"/><use transform="matrix(0.05,0,0,0.05,60.900000000000006,0)" xlink:href="#ar"/><use transform="matrix(0.05,0,0,0.05,72.9,0)" xlink:href="#ac"/><use transform="matrix(0.05,0,0,0.05,82.9,0)" xlink:href="#X"/><use transform="matrix(0.05,0,0,0.05,87.9,0)" xlink:href="#T"/><use transform="matrix(0.05,0,0,0.05,91.85000000000001,0)" xlink:href="#X"/><use transform="matrix(0.05,0,0,0.05,96.85000000000001,0)" xlink:href="#ao"/></g><g id="z"><use transform="matrix(0.05,0,0,0.05,0,0)" xlink:href="#T"/><use transform="matrix(0.05,0,0,0.05,3.95,0)" xlink:href="#ac"/><use transform="matrix(0.05,0,0,0.05,13.949999999999998,0)" xlink:href="#N"/><use transform="matrix(0.05,0,0,0.05,22.95,0)" xlink:href="#X"/><use transform="matrix(0.05,0,0,0.05,27.950000000000003,0)" xlink:href="#ap"/><use transform="matrix(0.05,0,0,0.05,37.95,0)" xlink:href="#ac"/><use transform="matrix(0.05,0,0,0.05,47.95,0)" xlink:href="#at"/><use transform="matrix(0.05,0,0,0.05,56.95,0)" xlink:href="#O"/><use transform="matrix(0.05,0,0,0.05,66.95,0)" xlink:href="#ab"/><use transform="matrix(0.05,0,0,0.05,76.95,0)" xlink:href="#af"/></g><g id="A"><use transform="matrix(0.05,0,0,0.05,0,0)" xlink:href="#V"/><use transform="matrix(0.05,0,0,0.05,12,0)" xlink:href="#M"/><use transform="matrix(0.05,0,0,0.05,22,0)" xlink:href="#aj"/><use transform="matrix(0.05,0,0,0.05,32,0)" xlink:href="#O"/><use transform="matrix(0.05,0,0,0.05,42,0)" xlink:href="#P"/><use transform="matrix(0.05,0,0,0.05,47.95,0)" xlink:href="#ak"/><use transform="matrix(0.05,0,0,0.05,56.95,0)" xlink:href="#T"/><use transform="matrix(0.05,0,0,0.05,60.900000000000006,0)" xlink:href="#N"/><use transform="matrix(0.05,0,0,0.05,69.9,0)" xlink:href="#ab"/><use transform="matrix(0.05,0,0,0.05,79.9,0)" xlink:href="#P"/><use transform="matrix(0.05,0,0,0.05,85.85000000000001,0)" xlink:href="#ah"/></g><g id="B"><use transform="matrix(0.05,0,0,0.05,0,0)" xlink:href="#ag"/><use transform="matrix(0.05,0,0,0.05,5,0)" xlink:href="#ar"/><use transform="matrix(0.05,0,0,0.05,17,0)" xlink:href="#ad"/><use transform="matrix(0.05,0,0,0.05,20.95,0)" xlink:href="#N"/><use transform="matrix(0.05,0,0,0.05,29.950000000000003,0)" xlink:href="#O"/><use transform="matrix(0.05,0,0,0.05,39.95,0)" xlink:href="#ah"/></g><path d="M233-177c-1 41-23 64-60 70L243 0h-38l-65-103H63V0H30v-248c88 3 205-21 203 71zM63-129c60-2 137 13 137-47 0-61-80-42-137-45v92" id="az"/><g id="D"><use transform="matrix(0.05,0,0,0.05,0,0)" xlink:href="#ar"/><use transform="matrix(0.05,0,0,0.05,12,0)" xlink:href="#az"/><use transform="matrix(0.05,0,0,0.05,24.950000000000003,0)" xlink:href="#az"/><use transform="matrix(0.05,0,0,0.05,37.900000000000006,0)" xlink:href="#ae"/><use transform="matrix(0.05,0,0,0.05,51.900000000000006,0)" xlink:href="#az"/><use transform="matrix(0.05,0,0,0.05,64.85000000000001,0)" xlink:href="#Q"/></g><path d="M33 0v-248h34V0H33" id="aA"/><path d="M190 0L58-211 59 0H30v-248h39L202-35l-2-213h31V0h-41" id="aB"/><path d="M63-220v92h138v28H63V0H30v-248h175v28H63" id="aC"/><g id="E"><use transform="matrix(0.05,0,0,0.05,0,0)" xlink:href="#aA"/><use transform="matrix(0.05,0,0,0.05,5,0)" xlink:href="#aB"/><use transform="matrix(0.05,0,0,0.05,17.950000000000003,0)" xlink:href="#V"/><use transform="matrix(0.05,0,0,0.05,29.950000000000003,0)" xlink:href="#R"/><use transform="matrix(0.05,0,0,0.05,42.900000000000006,0)" xlink:href="#aC"/><use transform="matrix(0.05,0,0,0.05,53.85,0)" xlink:href="#aC"/><use transform="matrix(0.05,0,0,0.05,64.80000000000001,0)" xlink:href="#aA"/><use transform="matrix(0.05,0,0,0.05,69.80000000000001,0)" xlink:href="#aa"/><use transform="matrix(0.05,0,0,0.05,82.75000000000001,0)" xlink:href="#aA"/><use transform="matrix(0.05,0,0,0.05,87.75000000000001,0)" xlink:href="#ar"/><use transform="matrix(0.05,0,0,0.05,99.75000000000001,0)" xlink:href="#aB"/><use transform="matrix(0.05,0,0,0.05,112.7,0)" xlink:href="#S"/></g><path d="M143 4C61 4 22-44 18-125c-5-107 100-154 193-111 17 8 29 25 37 43l-32 9c-13-25-37-40-76-40-61 0-88 39-88 99 0 61 29 100 91 101 35 0 62-11 79-27v-45h-74v-28h105v86C228-13 192 4 143 4" id="aD"/><path d="M197 0v-115H63V0H30v-248h33v105h134v-105h34V0h-34" id="aE"/><g id="F"><use transform="matrix(0.05,0,0,0.05,0,0)" xlink:href="#az"/><use transform="matrix(0.05,0,0,0.05,12.950000000000001,0)" xlink:href="#aA"/><use transform="matrix(0.05,0,0,0.05,17.950000000000003,0)" xlink:href="#aD"/><use transform="matrix(0.05,0,0,0.05,31.950000000000003,0)" xlink:href="#aE"/><use transform="matrix(0.05,0,0,0.05,44.900000000000006,0)" xlink:href="#S"/><use transform="matrix(0.05,0,0,0.05,55.85,0)" xlink:href="#V"/></g><g id="G"><use transform="matrix(0.05,0,0,0.05,0,0)" xlink:href="#T"/><use transform="matrix(0.05,0,0,0.05,3.95,0)" xlink:href="#N"/></g><g id="H"><use transform="matrix(0.05,0,0,0.05,0,0)" xlink:href="#ac"/><use transform="matrix(0.05,0,0,0.05,10,0)" xlink:href="#M"/><use transform="matrix(0.05,0,0,0.05,20,0)" xlink:href="#ad"/><use transform="matrix(0.05,0,0,0.05,23.95,0)" xlink:href="#ad"/><use transform="matrix(0.05,0,0,0.05,27.899999999999995,0)" xlink:href="#ah"/></g><g id="I"><use transform="matrix(0.05,0,0,0.05,0,0)" xlink:href="#P"/><use transform="matrix(0.05,0,0,0.05,5.95,0)" xlink:href="#O"/><use transform="matrix(0.05,0,0,0.05,15.949999999999998,0)" xlink:href="#al"/><use transform="matrix(0.05,0,0,0.05,25.950000000000003,0)" xlink:href="#T"/><use transform="matrix(0.05,0,0,0.05,29.899999999999995,0)" xlink:href="#P"/><use transform="matrix(0.05,0,0,0.05,35.85,0)" xlink:href="#O"/><use transform="matrix(0.05,0,0,0.05,45.85,0)" xlink:href="#at"/><use transform="matrix(0.05,0,0,0.05,54.85,0)" xlink:href="#X"/></g><g id="J"><use transform="matrix(0.05,0,0,0.05,0,0)" xlink:href="#X"/><use transform="matrix(0.05,0,0,0.05,5,0)" xlink:href="#ab"/></g><g id="K"><use transform="matrix(0.05,0,0,0.05,0,0)" xlink:href="#ad"/><use transform="matrix(0.05,0,0,0.05,3.95,0)" xlink:href="#ab"/><use transform="matrix(0.05,0,0,0.05,13.949999999999998,0)" xlink:href="#ai"/><use transform="matrix(0.05,0,0,0.05,23.95,0)" xlink:href="#T"/><use transform="matrix(0.05,0,0,0.05,27.899999999999995,0)" xlink:href="#ac"/></g><g id="L"><use transform="matrix(0.05,0,0,0.05,0,0)" xlink:href="#N"/><use transform="matrix(0.05,0,0,0.05,9,0)" xlink:href="#at"/><use transform="matrix(0.05,0,0,0.05,18,0)" xlink:href="#P"/><use transform="matrix(0.05,0,0,0.05,23.95,0)" xlink:href="#O"/><use transform="matrix(0.05,0,0,0.05,33.95,0)" xlink:href="#O"/><use transform="matrix(0.05,0,0,0.05,43.95,0)" xlink:href="#ac"/></g></defs></g></svg>