<svg xmlns="http://www.w3.org/2000/svg" xmlns:xlink="http://www.w3.org/1999/xlink" width="1681" height="1291"><g transform="translate(2511 -40)"><path d="M-2200 120v1180" fill="none"/><path d="M-2200 120v10.1m0 10.07v20.17m0 10.1v20.16m0 10.08v20.17m0 10.1v20.16m0 10.1v20.17m0 10.08v20.17m0 10.1v20.16m0 10.1v20.16m0 10.08v20.17m0 10.08v20.17m0 10.1v20.16m0 10.1v20.16m0 10.1v20.16m0 10.08v20.18m0 10.08v20.17m0 10.1v20.16m0 10.07v20.17m0 10.1v20.16m0 10.1v20.16m0 10.08v20.17m0 10.1v20.17m0 10.1v20.16m0 10.08V826m0 10.1v20.16m0 10.08v20.18m0 10.08v20.17m0 10.1V947m0 10.1v20.16m0 10.1v20.16m0 10.1v20.16m0 10.08v20.17m0 10.1v20.16m0 10.08v20.17m0 10.08v20.17m0 10.1v20.16m0 10.1v20.16m0 10.08v20.17m0 10.1v20.16m0 10.08v10.1" stroke="#000" stroke-width="2" fill="none"/><path d="M-1880 120v1200" fill="none"/><path d="M-1880 120v10m0 10v20m0 10v20m0 10v20m0 10v20m0 10v20m0 10v20m0 10v20m0 10v20m0 10v20m0 10v20m0 10v20m0 10v20m0 10v20m0 10v20m0 10v20m0 10v20m0 10v20m0 10v20m0 10v20m0 10v20m0 10v20m0 10v20m0 10v20m0 10v20m0 10v20m0 10v20m0 10v20m0 10v20m0 10v20m0 10v20m0 10v20m0 10v20m0 10v20m0 10v20m0 10v20m0 10v20m0 10v20m0 10v20m0 10v20m0 10v10" stroke="#000" stroke-width="2" fill="none"/><path d="M-2417.75 192.25c0 6.77-5.48 12.25-12.25 12.25s-12.25-5.48-12.25-12.25S-2436.77 180-2430 180s12.25 5.48 12.25 12.25z" stroke="#000" stroke-width="2" fill="#fff"/><path d="M-2460 185c0-2.76 2.24-5 5-5h50c2.76 0 5 2.24 5 5v88c0 2.76-2.24 5-5 5h-50c-2.76 0-5-2.24-5-5z" fill="none"/><path d="M-2430 204.5v29.3c0 2.76 1.36 6.78 3.04 8.97L-2400 278m-30-39.2l-30 39.2m0-61.25h60" stroke="#000" stroke-width="2" fill="none"/><use xlink:href="#a" transform="matrix(1,0,0,1,-2540,278) translate(91.05 14.6)"/><path d="M-2250 65c0-2.76 2.24-5 5-5h90c2.76 0 5 2.24 5 5v50c0 2.76-2.24 5-5 5h-90c-2.76 0-5-2.24-5-5z" stroke="#000" stroke-width="2" fill="#fff"/><use xlink:href="#b" transform="matrix(1,0,0,1,-2250,60) translate(6.254999999999997 33.15)"/><path d="M-2220 245c0-2.76 2.24-5 5-5h30c2.76 0 5 2.24 5 5v730c0 2.76-2.24 5-5 5h-30c-2.76 0-5-2.24-5-5z" stroke="#000" stroke-width="2" fill="#fff"/><path d="M-2400 240h182.26c.22 0 .4.18.4.4v.4" stroke="#000" stroke-width="2" fill="none"/><path d="M-2217.34 240.8l-14.5 3.82.52-9.25z"/><path d="M-2216.17 240.2l-.4.05-2.47 1.8-.08.26-13.8 3.64.68-12zm-14.6 3.1l10.2-2.68-9.83-3.82z"/><use xlink:href="#c" transform="matrix(1,0,0,1,-2394.2457678939227,214.39999999999998) translate(0 14.4)"/><path d="M-1220 65c0-2.76 2.24-5 5-5h140c2.76 0 5 2.24 5 5v50c0 2.76-2.24 5-5 5h-140c-2.76 0-5-2.24-5-5z" stroke="#000" stroke-width="2" fill="#fff"/><use xlink:href="#d" transform="matrix(1,0,0,1,-1220,60) translate(34.07999999999999 33.15)"/><path d="M-1940 65c0-2.76 2.24-5 5-5h110c2.76 0 5 2.24 5 5v50c0 2.76-2.24 5-5 5h-110c-2.76 0-5-2.24-5-5z" stroke="#000" stroke-width="2" fill="#fff"/><use xlink:href="#e" transform="matrix(1,0,0,1,-1940,60) translate(6.6049999999999915 33.15)"/><path d="M-1900 285c0-2.76 2.24-5 5-5h30c2.76 0 5 2.24 5 5v490c0 2.76-2.24 5-5 5h-30c-2.76 0-5-2.24-5-5zM-1165 345c0-2.76 2.24-5 5-5h30c2.76 0 5 2.24 5 5v110c0 2.76-2.24 5-5 5h-30c-2.76 0-5-2.24-5-5z" stroke="#000" stroke-width="2" fill="#fff"/><path d="M-2180 283.97h279.3" stroke="#000" stroke-width="2" fill="none"/><path d="M-1900.7 283.97l-14.28 4.63v-9.27z"/><path d="M-1899.45 283.32l-.47 1.44-16.06 5.22v-12.03zm-14.53 3.9l10.03-3.25-10.03-3.26z"/><use xlink:href="#f" transform="matrix(1,0,0,1,-2162.082166577045,258.3663794855202) translate(0 14.4)"/><use xlink:href="#g" transform="matrix(1,0,0,1,-2162.082166577045,258.3663794855202) translate(98.8 14.4)"/><use xlink:href="#h" transform="matrix(1,0,0,1,-2162.082166577045,258.3663794855202) translate(130.75 14.4)"/><path d="M-1145 120v109.13c0 .2-.16.37-.37.37-.2 0-.36.16-.36.37V339" fill="none"/><path d="M-1145 120v10.46m0 10.47v20.92m0 10.47v20.92m0 10.47v20.93m-.73 9.74v20.92m0 10.46v20.92m0 10.47v20.92m0 10.47V339" stroke="#000" stroke-width="2" fill="none"/><path d="M-1144.73 340h-2v-1h2z"/><path d="M-2219.85 980H-2480" fill="none"/><path d="M-2219.85 980h-9.63m-9.64 0h-19.27m-9.62 0h-19.27m-9.63 0h-19.27m-9.64 0h-19.27m-9.64 0H-2374m-9.65 0h-19.27m-9.63 0h-19.27m-9.64 0h-19.27m-9.63 0h-9.64M-2462.8 969.82L-2480 980l17.2 10.18" stroke="#000" stroke-width="2" fill="none"/><path d="M-1899.64 776.72h-139.9c-.15 0-.28.13-.28.3 0 .16-.13.3-.3.3H-2180" fill="none"/><path d="M-1899.64 776.72h-10.4m-10.42 0h-20.8m-10.4 0h-20.82m-10.4 0h-20.82m-10.4 0h-20.8m-9.83.6h-20.8m-10.42 0h-20.8m-10.4 0h-20.82m-10.4 0h-20.82m-10.4 0h-10.4" stroke="#000" stroke-width="2" fill="none"/><path d="M-1898.9 777.72h-.74v-1zM-2162.28 768l-15.76 9.3 15.76 9.33-1 1.72-16.72-9.88v-2.32l16.7-9.88z"/><path d="M-1720 65c0-2.76 2.24-5 5-5h130c2.76 0 5 2.24 5 5v50c0 2.76-2.24 5-5 5h-130c-2.76 0-5-2.24-5-5z" stroke="#000" stroke-width="2" fill="#fff"/><use xlink:href="#i" transform="matrix(1,0,0,1,-1720,60) translate(17.62999999999999 33.15)"/><path d="M-1670 305c0-2.76 2.24-5 5-5h30c2.76 0 5 2.24 5 5v230c0 2.76-2.24 5-5 5h-30c-2.76 0-5-2.24-5-5z" stroke="#000" stroke-width="2" fill="#fff"/><path d="M-1650 120v179" fill="none"/><path d="M-1650 120v9.94m0 9.95v19.88m0 9.94v19.9m0 9.94v19.88m0 9.95v19.88m0 9.94v19.9m0 9.94V299M-1859 305.33h189" stroke="#000" stroke-width="2" fill="none"/><path d="M-1859 306.33h-1v-2h1zM-1670 305.33l-14.27 4.64v-9.27z"/><path d="M-1669.8 304.35l-.2.65v1.38l-15.27 4.97v-12.03zm-13.47 4.24l10.03-3.27-10.03-3.26z"/><use xlink:href="#j" transform="matrix(1,0,0,1,-1811.4,279.73333333333323) translate(0 14.4)"/><path d="M-1480 65c0-2.76 2.24-5 5-5h130c2.76 0 5 2.24 5 5v50c0 2.76-2.24 5-5 5h-130c-2.76 0-5-2.24-5-5z" stroke="#000" stroke-width="2" fill="#fff"/><use xlink:href="#k" transform="matrix(1,0,0,1,-1480,60) translate(41.57999999999999 33.15)"/><path d="M-1430 325c0-2.76 2.24-5 5-5h30c2.76 0 5 2.24 5 5v170c0 2.76-2.24 5-5 5h-30c-2.76 0-5-2.24-5-5z" stroke="#000" stroke-width="2" fill="#fff"/><path d="M-1630 321.33h100.13c.2 0 .35.16.35.36 0 .2.16.35.36.35h100.12" stroke="#000" stroke-width="2" fill="none"/><path d="M-1429.04 322.05l-14.26 4.63v-9.27z"/><path d="M-1428.04 321.32l-1 .73-.38 1.17-14.88 4.84v-12.02zm-14.26 4l10.03-3.27-10.03-3.26z"/><use xlink:href="#l" transform="matrix(1,0,0,1,-1615.4560390870922,295.7340906356682) translate(0 14.4)"/><path d="M-1390 345.33h224" stroke="#000" stroke-width="2" fill="none"/><path d="M-1166 345.33l-14.27 4.64v-9.27z"/><path d="M-1164.88 344.64l-.12.36v1.06l-16.27 5.3V339.3zm-14.4 3.95l10.04-3.27-10.03-3.26z"/><use xlink:href="#m" transform="matrix(1,0,0,1,-1339.85,319.7333333333333) translate(0 14.4)"/><path d="M-1165.9 455.76h-111.42c-.07 0-.13.05-.13.12 0 .07-.05.12-.12.12H-1389" fill="none"/><path d="M-1165.9 455.76h-10.63m-10.63 0h-21.27m-10.64 0h-21.27m-10.64 0h-21.27m-10.4.24h-21.26m-10.65 0h-21.27m-10.64 0h-21.27m-10.63 0H-1389" stroke="#000" stroke-width="2" fill="none"/><path d="M-1165 455l.25 1.58.13.18h-1.27v-2h.9zM-1374.73 460.64L-1389 456l14.27-4.64z"/><path d="M-1373.73 462l-16.27-5.27v-1.46l16.27-5.28zm-12.03-6l10.03 3.26v-6.52z"/><use xlink:href="#a" transform="matrix(1,0,0,1,-1296.382118923517,459.99696848655833) translate(0 14.4)"/><path d="M-1416.9 500H-1630" fill="none"/><path d="M-1416.9 500h-10.14m-10.15 0h-20.28m-10.15 0h-20.3m-10.15 0h-20.3m-10.14 0h-20.3m-10.14 0h-20.3m-10.15 0h-20.3m-10.15 0H-1630" stroke="#000" stroke-width="2" fill="none"/><path d="M-1615.73 504.64L-1630 500l14.27-4.64z"/><path d="M-1614.73 506l-15.27-4.95v-2.1l15.27-4.96zm-12.03-6l10.03 3.26v-6.52z"/><use xlink:href="#n" transform="matrix(1,0,0,1,-1556.9454459186068,503.99999999999994) translate(0 14.4)"/><path d="M-1636.9 540H-1859" fill="none"/><path d="M-1636.9 540h-10.57m-10.57 0h-21.16m-10.57 0h-21.16m-10.57 0h-21.16m-10.57 0h-21.16m-10.56 0h-21.16m-10.57 0h-21.15m-10.57 0H-1859" stroke="#000" stroke-width="2" fill="none"/><path d="M-1844.73 544.64L-1859 540l14.27-4.64z"/><path d="M-1843.73 546l-16.27-5.27v-1.46l16.27-5.28zm-12.03-6l10.03 3.26v-6.52z"/><path d="M-2180 853.33h295m0 0c0-2.76 2.24-5 5-5s5 2.24 5 5h934" stroke="#000" stroke-width="2" fill="none"/><path d="M-941 853.33l-14.27 4.64v-9.27z"/><path d="M-940 852.6v1.46l-16.27 5.3V847.3zm-14.27 4l10.03-3.27-10.03-3.26z"/><use xlink:href="#o" transform="matrix(1,0,0,1,-1603.95,827.7333333333332) translate(0 14.4)"/><path d="M-1409.63 120v199" fill="none"/><path d="M-1409.63 120v9.48m0 9.47v18.95m0 9.48v18.95m0 9.48v18.96m0 9.48v18.95m0 9.47v18.95m0 9.48v18.95m0 9.47V319" stroke="#000" stroke-width="2" fill="none"/><path d="M-1408.63 320h-2v-1h2z"/><path d="M-1000 65c0-2.76 2.24-5 5-5h140c2.76 0 5 2.24 5 5v50c0 2.76-2.24 5-5 5h-140c-2.76 0-5-2.24-5-5z" stroke="#000" stroke-width="2" fill="#fff"/><use xlink:href="#p" transform="matrix(1,0,0,1,-1000,60) translate(44.07999999999999 33.15)"/><path d="M-919.27 180v659" fill="none"/><path d="M-919.27 180v9.98m0 10v19.96m0 9.98v19.97m0 9.98v19.97m0 9.98v19.97m0 10v19.96m0 9.98v19.97m0 10v19.97m0 9.98v19.97m0 10v19.96m0 9.98v19.97m0 10V519.47m0 10v19.96m0 9.98v19.97m0 9.98v19.97m0 9.98v19.97m0 10v19.96m0 9.98v19.97m0 10v19.97m0 9.98v19.97m0 10v19.96m0 9.98v19.97m0 10V839" stroke="#000" stroke-width="2" fill="none"/><path d="M-918.27 840h-2v-1h2z"/><path d="M-940 845c0-2.76 2.24-5 5-5h30c2.76 0 5 2.24 5 5v110c0 2.76-2.24 5-5 5h-30c-2.76 0-5-2.24-5-5z" stroke="#000" stroke-width="2" fill="#fff"/><path d="M-1651.4 541v307.33m0 0c-2.76 0-5 2.24-5 5s2.24 5 5 5V1310" fill="none"/><path d="M-1651.4 541v10.24m0 10.25v20.48m0 10.24v20.5m0 10.24v20.48m0 10.25v20.48m0 10.24v20.5m0 10.24v20.48m0 10.25v20.48m0 10.24v20.5m0 10.24v20.48m0 10.25v10.23m0 0l-1.5.5c-.8.26-1.85 1.02-2.35 1.7l-.42.58c-.26.36-.53 1-.6 1.44-.07.44-.02 1.13.12 1.55l.24.74c.25.8 1 1.85 1.7 2.34l.57.43c.36.27 1 .54 1.44.6.45.08.8.5.8.93v9.24m0 10.04v20.08m0 10.04v20.07m0 10.03v20.07m0 10.04v20.07m0 10.05v20.08m0 10.03v20.08m0 10.03v20.08m0 10.04v20.06m0 10.04v20.07m0 10.04v20.08m0 10.04v20.07m0 10.03v20.07m0 10.04v20.07m0 10.05v20.08m0 10.03V1310" stroke="#000" stroke-width="2" fill="none"/><path d="M-1650.4 541h-2v-1h2z"/><path d="M-1408.73 501v347.33m0 0c-2.76 0-5 2.24-5 5s2.24 5 5 5V1320" fill="none"/><path d="M-1408.73 501v9.65m0 9.65v19.3m0 9.64v19.3m0 9.65v19.28m0 9.65v19.3m0 9.64v19.3m0 9.65v19.3m0 9.64v19.3m0 9.65v19.3m0 9.65v19.3m0 9.65v19.3m0 9.64v19.3m0 9.65v9.63m0 0l-1.5.5c-.8.26-1.86 1.02-2.35 1.7l-.43.58c-.27.36-.54 1-.6 1.44-.08.44-.02 1.13.12 1.55l.24.74c.26.8 1.02 1.85 1.7 2.34l.58.43c.36.27 1 .54 1.44.6.43.08.8.5.8.93v9.46m0 10.25v20.52m0 10.26v20.52m0 10.26v20.53m0 10.26v20.5m0 10.26v20.52m0 10.26v20.52m0 10.26v20.52m0 10.26v20.5m0 10.27v20.52m0 10.25v20.52m0 10.26v20.52m0 10.26v20.53m0 10.26v20.5m0 10.26v20.52m0 10.26V1320" stroke="#000" stroke-width="2" fill="none"/><path d="M-1407.73 501h-2v-1h2z"/><path d="M-1150.07 461v387.33m0 0c-2.76 0-5 2.24-5 5s2.24 5 5 5V1320" fill="none"/><path d="M-1150.07 461v9.93m0 9.93v19.87m0 9.93v19.86m0 9.93v19.87m0 9.93v19.86m0 9.94v19.87m0 9.94v19.86m0 9.93v19.87m0 9.93v19.86m0 9.92v19.87m0 9.92v19.86m0 9.93v19.88m0 9.93v19.87m0 9.93v9.93m0 0l-1.5.5c-.8.26-1.85 1.02-2.35 1.7l-.42.58c-.26.36-.53 1-.6 1.44-.07.44-.02 1.13.12 1.55l.25.74c.26.8 1.02 1.85 1.7 2.34l.58.43c.36.27 1 .54 1.44.6.44.08.8.5.8.93v9.46m0 10.25v20.52m0 10.26v20.52m0 10.26v20.53m0 10.26v20.5m0 10.26v20.52m0 10.26v20.52m0 10.26v20.52m0 10.26v20.5m0 10.27v20.52m0 10.25v20.52m0 10.26v20.52m0 10.26v20.53m0 10.26v20.5m0 10.26v20.52m0 10.26V1320" stroke="#000" stroke-width="2" fill="none"/><path d="M-1149.07 461h-2v-1h2z"/><path d="M-940.7 956.98h-204.37m0 0c0-2.77-2.24-5-5-5s-5 2.23-5 5h-248.66m0 0c0-2.77-2.24-5-5-5s-5 2.23-5 5H-1646.4m0 0c0-2.77-2.24-5-5-5s-5 2.23-5 5H-1875m0 0c0-2.77-2.24-5-5-5s-5 2.23-5 5h-294" stroke="#000" stroke-width="2" fill="none"/><path d="M-939.75 956.58l1.02 1.4h-1.96v-2h.86zM-2164.73 961.6L-2179 957l14.27-4.64z"/><path d="M-2163.73 963l-16.27-5.3v-1.45l16.27-5.3zm-12.03-6.02l10.03 3.26v-6.52z"/><path d="M-920 960v360" fill="none"/><path d="M-920 960v10m0 10v20m0 10v20m0 10v20m0 10v20m0 10v20m0 10v20m0 10v20m0 10v20m0 10v20m0 10v20m0 10v20m0 10v10" stroke="#000" stroke-width="2" fill="none"/><defs><path d="M232-93c-1 65-40 97-104 97C67 4 28-28 28-90v-158h33c8 89-33 224 67 224 102 0 64-133 71-224h33v155" id="q"/><path d="M135-143c-3-34-86-38-87 0 15 53 115 12 119 90S17 21 10-45l28-5c4 36 97 45 98 0-10-56-113-15-118-90-4-57 82-63 122-42 12 7 21 19 24 35" id="r"/><path d="M100-194c63 0 86 42 84 106H49c0 40 14 67 53 68 26 1 43-12 49-29l28 8c-11 28-37 45-77 45C44 4 14-33 15-96c1-61 26-98 85-98zm52 81c6-60-76-77-97-28-3 7-6 17-6 28h103" id="s"/><path d="M114-163C36-179 61-72 57 0H25l-1-190h30c1 12-1 29 2 39 6-27 23-49 58-41v29" id="t"/><g id="a"><use transform="matrix(0.05,0,0,0.05,0,0)" xlink:href="#q"/><use transform="matrix(0.05,0,0,0.05,12.950000000000001,0)" xlink:href="#r"/><use transform="matrix(0.05,0,0,0.05,21.950000000000003,0)" xlink:href="#s"/><use transform="matrix(0.05,0,0,0.05,31.950000000000003,0)" xlink:href="#t"/></g><path d="M33-154v-36h34v36H33zM33 0v-36h34V0H33" id="u"/><path d="M30 0v-248h33v221h125V0H30" id="v"/><path d="M100-194c62-1 85 37 85 99 1 63-27 99-86 99S16-35 15-95c0-66 28-99 85-99zM99-20c44 1 53-31 53-75 0-43-8-75-51-75s-53 32-53 75 10 74 51 75" id="w"/><path d="M177-190C167-65 218 103 67 71c-23-6-38-20-44-43l32-5c15 47 100 32 89-28v-30C133-14 115 1 83 1 29 1 15-40 15-95c0-56 16-97 71-98 29-1 48 16 59 35 1-10 0-23 2-32h30zM94-22c36 0 50-32 50-73 0-42-14-75-50-75-39 0-46 34-46 75s6 73 46 73" id="x"/><path d="M24-231v-30h32v30H24zM24 0v-190h32V0H24" id="y"/><path d="M117-194c89-4 53 116 60 194h-32v-121c0-31-8-49-39-48C34-167 62-67 57 0H25l-1-190h30c1 10-1 24 2 32 11-22 29-35 61-36" id="z"/><path d="M137 0h-34L2-248h35l83 218 83-218h36" id="A"/><path d="M206 0h-36l-40-164L89 0H53L-1-190h32L70-26l43-164h34l41 164 42-164h31" id="B"/><g id="b"><use transform="matrix(0.05,0,0,0.05,0,0)" xlink:href="#u"/><use transform="matrix(0.05,0,0,0.05,5,0)" xlink:href="#v"/><use transform="matrix(0.05,0,0,0.05,15,0)" xlink:href="#w"/><use transform="matrix(0.05,0,0,0.05,25,0)" xlink:href="#x"/><use transform="matrix(0.05,0,0,0.05,35,0)" xlink:href="#y"/><use transform="matrix(0.05,0,0,0.05,38.95,0)" xlink:href="#z"/><use transform="matrix(0.05,0,0,0.05,48.95,0)" xlink:href="#A"/><use transform="matrix(0.05,0,0,0.05,60.6,0)" xlink:href="#y"/><use transform="matrix(0.05,0,0,0.05,64.55,0)" xlink:href="#s"/><use transform="matrix(0.05,0,0,0.05,74.55,0)" xlink:href="#B"/><path d="M-.9 1.25h89.3v1.32H-.9z"/></g><path d="M24 0v-261h32V0H24" id="C"/><path d="M30-248c87 1 191-15 191 75 0 78-77 80-158 76V0H30v-248zm33 125c57 0 124 11 124-50 0-59-68-47-124-48v98" id="D"/><path d="M85-194c31 0 48 13 60 33l-1-100h32l1 261h-30c-2-10 0-23-3-31C134-8 116 4 85 4 32 4 16-35 15-94c0-66 23-100 70-100zm9 24c-40 0-46 34-46 75 0 40 6 74 45 74 42 0 51-32 51-76 0-42-9-74-50-73" id="E"/><path d="M87 75C49 33 22-17 22-94c0-76 28-126 65-167h31c-38 41-64 92-64 168S80 34 118 75H87" id="F"/><path d="M33-261c38 41 65 92 65 168S71 34 33 75H2C39 34 66-17 66-93S39-220 2-261h31" id="G"/><g id="c"><use transform="matrix(0.05,0,0,0.05,0,0)" xlink:href="#C"/><use transform="matrix(0.05,0,0,0.05,3.95,0)" xlink:href="#w"/><use transform="matrix(0.05,0,0,0.05,13.949999999999998,0)" xlink:href="#x"/><use transform="matrix(0.05,0,0,0.05,23.95,0)" xlink:href="#y"/><use transform="matrix(0.05,0,0,0.05,27.899999999999995,0)" xlink:href="#z"/><use transform="matrix(0.05,0,0,0.05,37.9,0)" xlink:href="#D"/><use transform="matrix(0.05,0,0,0.05,49.9,0)" xlink:href="#t"/><use transform="matrix(0.05,0,0,0.05,55.85,0)" xlink:href="#s"/><use transform="matrix(0.05,0,0,0.05,65.85,0)" xlink:href="#r"/><use transform="matrix(0.05,0,0,0.05,74.85,0)" xlink:href="#r"/><use transform="matrix(0.05,0,0,0.05,83.85,0)" xlink:href="#s"/><use transform="matrix(0.05,0,0,0.05,93.85,0)" xlink:href="#E"/><use transform="matrix(0.05,0,0,0.05,103.84999999999998,0)" xlink:href="#F"/><use transform="matrix(0.05,0,0,0.05,109.80000000000001,0)" xlink:href="#G"/></g><path d="M30-248c118-7 216 8 213 122C240-48 200 0 122 0H30v-248zM63-27c89 8 146-16 146-99s-60-101-146-95v194" id="H"/><path d="M205 0l-28-72H64L36 0H1l101-248h38L239 0h-34zm-38-99l-47-123c-12 45-31 82-46 123h93" id="I"/><path d="M140-251c81 0 123 46 123 126C263-46 219 4 140 4 59 4 17-45 17-125s42-126 123-126zm0 227c63 0 89-41 89-101s-29-99-89-99c-61 0-89 39-89 99S79-25 140-24" id="J"/><g id="d"><use transform="matrix(0.05,0,0,0.05,0,0)" xlink:href="#u"/><use transform="matrix(0.05,0,0,0.05,5,0)" xlink:href="#q"/><use transform="matrix(0.05,0,0,0.05,17.950000000000003,0)" xlink:href="#r"/><use transform="matrix(0.05,0,0,0.05,26.950000000000003,0)" xlink:href="#s"/><use transform="matrix(0.05,0,0,0.05,36.95,0)" xlink:href="#t"/><use transform="matrix(0.05,0,0,0.05,42.900000000000006,0)" xlink:href="#H"/><use transform="matrix(0.05,0,0,0.05,55.85,0)" xlink:href="#I"/><use transform="matrix(0.05,0,0,0.05,67.85000000000001,0)" xlink:href="#J"/><path d="M-.9 1.25h83.65v1.32H-.9z"/></g><path d="M212-179c-10-28-35-45-73-45-59 0-87 40-87 99 0 60 29 101 89 101 43 0 62-24 78-52l27 14C228-24 195 4 139 4 59 4 22-46 18-125c-6-104 99-153 187-111 19 9 31 26 39 46" id="K"/><path d="M59-47c-2 24 18 29 38 22v24C64 9 27 4 27-40v-127H5v-23h24l9-43h21v43h35v23H59v120" id="L"/><g id="e"><use transform="matrix(0.05,0,0,0.05,0,0)" xlink:href="#u"/><use transform="matrix(0.05,0,0,0.05,5,0)" xlink:href="#v"/><use transform="matrix(0.05,0,0,0.05,15,0)" xlink:href="#w"/><use transform="matrix(0.05,0,0,0.05,25,0)" xlink:href="#x"/><use transform="matrix(0.05,0,0,0.05,35,0)" xlink:href="#y"/><use transform="matrix(0.05,0,0,0.05,38.95,0)" xlink:href="#z"/><use transform="matrix(0.05,0,0,0.05,48.95,0)" xlink:href="#K"/><use transform="matrix(0.05,0,0,0.05,61.900000000000006,0)" xlink:href="#w"/><use transform="matrix(0.05,0,0,0.05,71.9,0)" xlink:href="#z"/><use transform="matrix(0.05,0,0,0.05,81.9,0)" xlink:href="#L"/><use transform="matrix(0.05,0,0,0.05,86.9,0)" xlink:href="#t"/><use transform="matrix(0.05,0,0,0.05,92.85000000000001,0)" xlink:href="#w"/><use transform="matrix(0.05,0,0,0.05,102.85000000000001,0)" xlink:href="#C"/><path d="M-.9 1.25h108.6v1.32H-.9z"/></g><path d="M67-158c22-48 132-52 116 29L158 0h-32l25-140c3-38-53-32-70-12C52-117 51-52 38 0H6l36-190h30" id="M"/><path d="M165-48c-4 18 1 34 23 27l-3 20c-29 8-62 0-52-35h-2C116-14 99 4 63 4 30 4 8-16 8-49c0-68 71-67 138-67 10-26 0-56-31-54-26 1-42 9-47 31l-32-5c8-67 160-71 144 15-5 28-9 54-15 81zM42-50c3 52 80 24 89-6 7-12 7-24 11-38-47 1-103-4-100 44" id="N"/><path d="M248-111c6-24 9-61-24-58-72 9-57 108-77 169h-31l26-142c3-37-50-30-64-10C52-115 50-51 37 0H6l36-190h30c-1 10-6 24-4 32 13-43 101-52 105 5 13-22 29-41 61-41 90 0 28 129 23 194h-31" id="O"/><path d="M111-194c62-3 86 47 72 106H45c-7 38 6 69 45 68 27-1 43-14 53-32l24 11C152-15 129 4 87 4 38 3 12-23 12-71c0-70 32-119 99-123zm44 81c14-66-71-72-95-28-4 8-8 17-11 28h106" id="P"/><path d="M58-38C53-5 46 26 28 46H7C19 32 27 18 32 0H17l7-38h34" id="Q"/><g id="f"><use transform="matrix(0.05,0,0,0.05,0,0)" xlink:href="#C"/><use transform="matrix(0.05,0,0,0.05,3.95,0)" xlink:href="#w"/><use transform="matrix(0.05,0,0,0.05,13.949999999999998,0)" xlink:href="#x"/><use transform="matrix(0.05,0,0,0.05,23.95,0)" xlink:href="#y"/><use transform="matrix(0.05,0,0,0.05,27.899999999999995,0)" xlink:href="#z"/><use transform="matrix(0.05,0,0,0.05,37.9,0)" xlink:href="#F"/><use transform="matrix(0.05,0,0,0.05,43.85,0)" xlink:href="#M"/><use transform="matrix(0.05,0,0,0.05,53.85,0)" xlink:href="#N"/><use transform="matrix(0.05,0,0,0.05,63.85,0)" xlink:href="#O"/><use transform="matrix(0.05,0,0,0.05,78.8,0)" xlink:href="#P"/><use transform="matrix(0.05,0,0,0.05,88.8,0)" xlink:href="#Q"/></g><path d="M67-162c32-53 139-36 121 50C175-51 163 2 97 4 68 4 52-11 42-31 38 6 28 39 22 75H-9l50-265h29c-1 10 0 20-3 28zm89 36c0-26-10-43-35-43-54 0-67 50-69 103-1 29 14 45 42 46 53 0 62-58 62-106" id="R"/><path d="M188 0h-37l-8-164L71 0H34L18-190h31l8 164 75-164h34l8 164 74-164h31" id="S"/><g id="g"><use transform="matrix(0.05,0,0,0.05,0,0)" xlink:href="#R"/><use transform="matrix(0.05,0,0,0.05,10,0)" xlink:href="#S"/><use transform="matrix(0.05,0,0,0.05,21.950000000000003,0)" xlink:href="#Q"/></g><path d="M66-151c12-25 30-51 66-40l-6 26C45-176 58-65 38 0H6l36-190h30" id="T"/><path d="M68-162c25-46 127-43 121 31C183-60 169 1 98 4 69 5 53-11 43-31L36 0H5l52-261h31zm88 36c2-27-9-43-34-43-55 0-70 51-70 103 0 29 15 45 43 46 52 0 58-58 61-106" id="U"/><path d="M222 0l43-216c-8 16-17 34-26 49L143 0h-22L81-216 41 0H11l48-248h42l38 208 116-208h45L252 0h-30" id="V"/><g id="h"><use transform="matrix(0.05,0,0,0.05,0,0)" xlink:href="#T"/><use transform="matrix(0.05,0,0,0.05,5.95,0)" xlink:href="#P"/><use transform="matrix(0.05,0,0,0.05,15.949999999999998,0)" xlink:href="#O"/><use transform="matrix(0.05,0,0,0.05,30.899999999999995,0)" xlink:href="#P"/><use transform="matrix(0.05,0,0,0.05,40.9,0)" xlink:href="#O"/><use transform="matrix(0.05,0,0,0.05,55.85,0)" xlink:href="#U"/><use transform="matrix(0.05,0,0,0.05,65.85,0)" xlink:href="#P"/><use transform="matrix(0.05,0,0,0.05,75.85,0)" xlink:href="#T"/><use transform="matrix(0.05,0,0,0.05,81.8,0)" xlink:href="#V"/><use transform="matrix(0.05,0,0,0.05,96.75,0)" xlink:href="#P"/><use transform="matrix(0.05,0,0,0.05,106.75,0)" xlink:href="#G"/></g><path d="M185-189c-5-48-123-54-124 2 14 75 158 14 163 119 3 78-121 87-175 55-17-10-28-26-33-46l33-7c5 56 141 63 141-1 0-78-155-14-162-118-5-82 145-84 179-34 5 7 8 16 11 25" id="W"/><path d="M96-169c-40 0-48 33-48 73s9 75 48 75c24 0 41-14 43-38l32 2c-6 37-31 61-74 61-59 0-76-41-82-99-10-93 101-131 147-64 4 7 5 14 7 22l-32 3c-4-21-16-35-41-35" id="X"/><path d="M84 4C-5 8 30-112 23-190h32v120c0 31 7 50 39 49 72-2 45-101 50-169h31l1 190h-30c-1-10 1-25-2-33-11 22-28 36-60 37" id="Y"/><path d="M179-190L93 31C79 59 56 82 12 73V49c39 6 53-20 64-50L1-190h34L92-34l54-156h33" id="Z"/><g id="i"><use transform="matrix(0.05,0,0,0.05,0,0)" xlink:href="#u"/><use transform="matrix(0.05,0,0,0.05,5,0)" xlink:href="#W"/><use transform="matrix(0.05,0,0,0.05,17,0)" xlink:href="#s"/><use transform="matrix(0.05,0,0,0.05,27,0)" xlink:href="#X"/><use transform="matrix(0.05,0,0,0.05,36,0)" xlink:href="#Y"/><use transform="matrix(0.05,0,0,0.05,46,0)" xlink:href="#t"/><use transform="matrix(0.05,0,0,0.05,51.95,0)" xlink:href="#y"/><use transform="matrix(0.05,0,0,0.05,55.900000000000006,0)" xlink:href="#L"/><use transform="matrix(0.05,0,0,0.05,60.900000000000006,0)" xlink:href="#Z"/><use transform="matrix(0.05,0,0,0.05,69.9,0)" xlink:href="#q"/><use transform="matrix(0.05,0,0,0.05,82.85000000000001,0)" xlink:href="#L"/><use transform="matrix(0.05,0,0,0.05,87.85000000000001,0)" xlink:href="#y"/><use transform="matrix(0.05,0,0,0.05,91.80000000000001,0)" xlink:href="#C"/><use transform="matrix(0.05,0,0,0.05,95.75000000000001,0)" xlink:href="#r"/><path d="M-.9 1.25h106.55v1.32H-.9z"/></g><path d="M143 0L79-87 56-68V0H24v-261h32v163l83-92h37l-77 82L181 0h-38" id="aa"/><g id="j"><use transform="matrix(0.05,0,0,0.05,0,0)" xlink:href="#C"/><use transform="matrix(0.05,0,0,0.05,3.95,0)" xlink:href="#w"/><use transform="matrix(0.05,0,0,0.05,13.949999999999998,0)" xlink:href="#x"/><use transform="matrix(0.05,0,0,0.05,23.95,0)" xlink:href="#y"/><use transform="matrix(0.05,0,0,0.05,27.899999999999995,0)" xlink:href="#z"/><use transform="matrix(0.05,0,0,0.05,37.9,0)" xlink:href="#F"/><use transform="matrix(0.05,0,0,0.05,43.85,0)" xlink:href="#L"/><use transform="matrix(0.05,0,0,0.05,48.85,0)" xlink:href="#w"/><use transform="matrix(0.05,0,0,0.05,58.85,0)" xlink:href="#aa"/><use transform="matrix(0.05,0,0,0.05,67.85,0)" xlink:href="#s"/><use transform="matrix(0.05,0,0,0.05,77.85,0)" xlink:href="#z"/><use transform="matrix(0.05,0,0,0.05,87.85,0)" xlink:href="#G"/></g><path d="M233-177c-1 41-23 64-60 70L243 0h-38l-65-103H63V0H30v-248c88 3 205-21 203 71zM63-129c60-2 137 13 137-47 0-61-80-42-137-45v92" id="ab"/><path d="M141-36C126-15 110 5 73 4 37 3 15-17 15-53c-1-64 63-63 125-63 3-35-9-54-41-54-24 1-41 7-42 31l-33-3c5-37 33-52 76-52 45 0 72 20 72 64v82c-1 20 7 32 28 27v20c-31 9-61-2-59-35zM48-53c0 20 12 33 32 33 41-3 63-29 60-74-43 2-92-5-92 41" id="ac"/><path d="M210-169c-67 3-38 105-44 169h-31v-121c0-29-5-50-35-48C34-165 62-65 56 0H25l-1-190h30c1 10-1 24 2 32 10-44 99-50 107 0 11-21 27-35 58-36 85-2 47 119 55 194h-31v-121c0-29-5-49-35-48" id="ad"/><g id="k"><use transform="matrix(0.05,0,0,0.05,0,0)" xlink:href="#u"/><use transform="matrix(0.05,0,0,0.05,5,0)" xlink:href="#ab"/><use transform="matrix(0.05,0,0,0.05,17.950000000000003,0)" xlink:href="#s"/><use transform="matrix(0.05,0,0,0.05,27.950000000000003,0)" xlink:href="#ac"/><use transform="matrix(0.05,0,0,0.05,37.95,0)" xlink:href="#C"/><use transform="matrix(0.05,0,0,0.05,41.900000000000006,0)" xlink:href="#ad"/><path d="M-.9 1.25h58.65v1.32H-.9z"/></g><path d="M143 4C61 4 22-44 18-125c-5-107 100-154 193-111 17 8 29 25 37 43l-32 9c-13-25-37-40-76-40-61 0-88 39-88 99 0 61 29 100 91 101 35 0 62-11 79-27v-45h-74v-28h105v86C228-13 192 4 143 4" id="ae"/><path d="M106-169C34-169 62-67 57 0H25v-261h32l-1 103c12-21 28-36 61-36 89 0 53 116 60 194h-32v-121c2-32-8-49-39-48" id="af"/><path d="M33 0v-248h34V0H33" id="ag"/><path d="M101-234c-31-9-42 10-38 44h38v23H63V0H32v-167H5v-23h27c-7-52 17-82 69-68v24" id="ah"/><g id="l"><use transform="matrix(0.05,0,0,0.05,0,0)" xlink:href="#E"/><use transform="matrix(0.05,0,0,0.05,10,0)" xlink:href="#w"/><use transform="matrix(0.05,0,0,0.05,20,0)" xlink:href="#ae"/><use transform="matrix(0.05,0,0,0.05,34,0)" xlink:href="#s"/><use transform="matrix(0.05,0,0,0.05,44,0)" xlink:href="#L"/><use transform="matrix(0.05,0,0,0.05,49,0)" xlink:href="#I"/><use transform="matrix(0.05,0,0,0.05,61,0)" xlink:href="#Y"/><use transform="matrix(0.05,0,0,0.05,71,0)" xlink:href="#L"/><use transform="matrix(0.05,0,0,0.05,76,0)" xlink:href="#af"/><use transform="matrix(0.05,0,0,0.05,86,0)" xlink:href="#ag"/><use transform="matrix(0.05,0,0,0.05,91,0)" xlink:href="#z"/><use transform="matrix(0.05,0,0,0.05,101,0)" xlink:href="#ah"/><use transform="matrix(0.05,0,0,0.05,106,0)" xlink:href="#w"/><use transform="matrix(0.05,0,0,0.05,116,0)" xlink:href="#F"/><use transform="matrix(0.05,0,0,0.05,121.95,0)" xlink:href="#L"/><use transform="matrix(0.05,0,0,0.05,126.95,0)" xlink:href="#w"/><use transform="matrix(0.05,0,0,0.05,136.95,0)" xlink:href="#aa"/><use transform="matrix(0.05,0,0,0.05,145.95,0)" xlink:href="#s"/><use transform="matrix(0.05,0,0,0.05,155.95,0)" xlink:href="#z"/><use transform="matrix(0.05,0,0,0.05,165.95,0)" xlink:href="#G"/></g><g id="m"><use transform="matrix(0.05,0,0,0.05,0,0)" xlink:href="#ah"/><use transform="matrix(0.05,0,0,0.05,5,0)" xlink:href="#y"/><use transform="matrix(0.05,0,0,0.05,8.95,0)" xlink:href="#z"/><use transform="matrix(0.05,0,0,0.05,18.95,0)" xlink:href="#E"/><use transform="matrix(0.05,0,0,0.05,28.950000000000003,0)" xlink:href="#q"/><use transform="matrix(0.05,0,0,0.05,41.9,0)" xlink:href="#r"/><use transform="matrix(0.05,0,0,0.05,50.9,0)" xlink:href="#s"/><use transform="matrix(0.05,0,0,0.05,60.900000000000006,0)" xlink:href="#t"/><use transform="matrix(0.05,0,0,0.05,66.85,0)" xlink:href="#F"/><use transform="matrix(0.05,0,0,0.05,72.8,0)" xlink:href="#z"/><use transform="matrix(0.05,0,0,0.05,82.8,0)" xlink:href="#ac"/><use transform="matrix(0.05,0,0,0.05,92.8,0)" xlink:href="#ad"/><use transform="matrix(0.05,0,0,0.05,107.75,0)" xlink:href="#s"/><use transform="matrix(0.05,0,0,0.05,117.75,0)" xlink:href="#G"/></g><g id="n"><use transform="matrix(0.05,0,0,0.05,0,0)" xlink:href="#I"/><use transform="matrix(0.05,0,0,0.05,12,0)" xlink:href="#Y"/><use transform="matrix(0.05,0,0,0.05,22,0)" xlink:href="#L"/><use transform="matrix(0.05,0,0,0.05,27,0)" xlink:href="#af"/><use transform="matrix(0.05,0,0,0.05,37,0)" xlink:href="#ag"/><use transform="matrix(0.05,0,0,0.05,42,0)" xlink:href="#z"/><use transform="matrix(0.05,0,0,0.05,52,0)" xlink:href="#ah"/><use transform="matrix(0.05,0,0,0.05,57,0)" xlink:href="#w"/></g><path d="M108 0H70L1-190h34L89-25l56-165h34" id="ai"/><path d="M127-220V0H93v-220H8v-28h204v28h-85" id="aj"/><g id="o"><use transform="matrix(0.05,0,0,0.05,0,0)" xlink:href="#z"/><use transform="matrix(0.05,0,0,0.05,10,0)" xlink:href="#ac"/><use transform="matrix(0.05,0,0,0.05,20,0)" xlink:href="#ai"/><use transform="matrix(0.05,0,0,0.05,29,0)" xlink:href="#y"/><use transform="matrix(0.05,0,0,0.05,32.95,0)" xlink:href="#x"/><use transform="matrix(0.05,0,0,0.05,42.95,0)" xlink:href="#ac"/><use transform="matrix(0.05,0,0,0.05,52.95,0)" xlink:href="#L"/><use transform="matrix(0.05,0,0,0.05,57.95,0)" xlink:href="#s"/><use transform="matrix(0.05,0,0,0.05,67.95,0)" xlink:href="#aj"/><use transform="matrix(0.05,0,0,0.05,76.9,0)" xlink:href="#w"/></g><path d="M240 0l2-218c-23 76-54 145-80 218h-23L58-218 59 0H30v-248h44l77 211c21-75 51-140 76-211h43V0h-30" id="ak"/><g id="p"><use transform="matrix(0.05,0,0,0.05,0,0)" xlink:href="#u"/><use transform="matrix(0.05,0,0,0.05,5,0)" xlink:href="#ak"/><use transform="matrix(0.05,0,0,0.05,19.950000000000003,0)" xlink:href="#ac"/><use transform="matrix(0.05,0,0,0.05,29.950000000000003,0)" xlink:href="#y"/><use transform="matrix(0.05,0,0,0.05,33.900000000000006,0)" xlink:href="#z"/><use transform="matrix(0.05,0,0,0.05,43.900000000000006,0)" xlink:href="#q"/><use transform="matrix(0.05,0,0,0.05,56.85,0)" xlink:href="#ag"/><path d="M-.9 1.25h63.65v1.32H-.9z"/></g></defs></g></svg>