<svg xmlns="http://www.w3.org/2000/svg" xmlns:xlink="http://www.w3.org/1999/xlink" width="1870.4" height="2646.4"><g transform="translate(0 0)"><path d="M1400 260v1020" fill="none"/><path d="M1400 260v10m0 10v20m0 10v20m0 10v20m0 10v20m0 10v20m0 10v20m0 10v20m0 10v20m0 10v20m0 10v20m0 10v20m0 10v20m0 10v20m0 10v20m0 10v20m0 10v20m0 10v20m0 10v20m0 10v20m0 10v20m0 10v20m0 10v20m0 10v20m0 10v20m0 10v20m0 10v20m0 10v20m0 10v20m0 10v20m0 10v20m0 10v20m0 10v20m0 10v20m0 10v10" stroke="#000" stroke-width="2" fill="none"/><path d="M280 145c0-2.76 2.24-5 5-5h150c2.76 0 5 2.24 5 5v110c0 2.76-2.24 5-5 5H285c-2.76 0-5-2.24-5-5z" stroke="#000" stroke-width="2" fill="#fff"/><use xlink:href="#a" transform="matrix(1,0,0,1,280,140) translate(9.680000000000001 63.15)"/><path d="M57.25 287.25c0 4-3.25 7.25-7.25 7.25s-7.25-3.25-7.25-7.25S46 280 50 280s7.25 3.25 7.25 7.25z" stroke="#000" stroke-width="2" fill="#fff"/><path d="M20 285c0-2.76 2.24-5 5-5h50c2.76 0 5 2.24 5 5v48c0 2.76-2.24 5-5 5H25c-2.76 0-5-2.24-5-5z" fill="none"/><path d="M50 294.5v15.3c0 2.76 1.77 6.37 3.96 8.06L80 338m-30-23.2L20 338m0-36.25h60" stroke="#000" stroke-width="2" fill="none"/><use xlink:href="#b" transform="matrix(1,0,0,1,-60,338) translate(68.625 14.6)"/><path d="M359 261v1019" fill="none"/><path d="M359 261v10m0 9.98v19.98m0 10v19.97m0 10v19.97m0 10v19.97m0 10v19.97m0 10v19.97m0 10v19.98m0 10v19.97m0 10v19.98m0 10v19.97m0 10v19.97m0 10v19.97m0 10v19.97m0 10v19.98m0 10v19.97m0 10v19.97m0 10v19.97m0 9.98v19.98m0 10v19.97m0 10v19.97m0 10v19.97m0 10v19.97m0 10v19.97m0 10v19.98m0 10v19.97m0 10v19.98m0 10v19.97m0 10v19.97m0 10v19.97m0 10v19.97m0 10v19.98m0 10v19.97m0 10V1260m0 10v9.98" stroke="#000" stroke-width="2" fill="none"/><path d="M360 261h-2v-1h2z"/><path d="M336 325c0-2.76 2.24-5 5-5h30c2.76 0 5 2.24 5 5v790c0 2.76-2.24 5-5 5h-30c-2.76 0-5-2.24-5-5zM608 145c0-2.76 2.24-5 5-5h150c2.76 0 5 2.24 5 5v110c0 2.76-2.24 5-5 5H613c-2.76 0-5-2.24-5-5z" stroke="#000" stroke-width="2" fill="#fff"/><use xlink:href="#c" transform="matrix(1,0,0,1,608,140) translate(5.480000000000013 63.15)"/><path d="M376 441.33h146.13c.2 0 .35.16.35.36 0 .2.16.35.36.35h146.12" stroke="#000" stroke-width="2" fill="none"/><path d="M668.96 442.05l-14.26 4.63v-9.27z" stroke="#000" stroke-width="2"/><use xlink:href="#d" transform="matrix(1,0,0,1,393.04030135199554,415.7336877467629) translate(0 14.4)"/><use xlink:href="#e" transform="matrix(1,0,0,1,393.04030135199554,415.7336877467629) translate(170 14.4)"/><use xlink:href="#f" transform="matrix(1,0,0,1,393.04030135199554,415.7336877467629) translate(218 14.4)"/><path d="M689.67 261v1019" fill="none"/><path d="M689.67 261v10m0 9.98v19.98m0 10v19.97m0 10v19.97m0 10v19.97m0 10v19.97m0 10v19.97m0 10v19.98m0 10v19.97m0 10v19.98m0 10v19.97m0 10v19.97m0 10v19.97m0 10v19.97m0 10v19.98m0 10v19.97m0 10v19.97m0 10v19.97m0 9.98v19.98m0 10v19.97m0 10v19.97m0 10v19.97m0 10v19.97m0 10v19.97m0 10v19.98m0 10v19.97m0 10v19.98m0 10v19.97m0 10v19.97m0 10v19.97m0 10v19.97m0 10v19.98m0 10v19.97m0 10V1260m0 10v9.98" stroke="#000" stroke-width="2" fill="none"/><path d="M690.67 261h-2v-1h2z"/><path d="M80 320h258.07" stroke="#000" stroke-width="2" fill="none"/><path d="M338.07 320l-14.26 4.64v-9.28z"/><path d="M341.3 320h-.3l-1.58.25-.9.65-15.7 5.1v-12zm-16.5 3.26l10.04-3.26-10.03-3.26z"/><use xlink:href="#g" transform="matrix(1,0,0,1,168.33333333333326,294.4) translate(0 14.4)"/><use xlink:href="#h" transform="matrix(1,0,0,1,127.575,294.4) translate(0 14.4)"/><use xlink:href="#i" transform="matrix(1,0,0,1,127.575,294.4) translate(39.95 14.4)"/><path d="M668 445c0-2.76 2.24-5 5-5h30c2.76 0 5 2.24 5 5v290c0 2.76-2.24 5-5 5h-30c-2.76 0-5-2.24-5-5z" stroke="#000" stroke-width="2" fill="#fff"/><path d="M708 460h674.26c.22 0 .4.18.4.4v.4" stroke="#000" stroke-width="2" fill="none"/><path d="M1382.66 460.8l-14.5 3.82.52-9.25z"/><path d="M1383.83 460.2l-.4.05-2.47 1.8-.08.26-13.8 3.64.68-12zm-14.6 3.1l10.2-2.68-9.83-3.82z"/><use xlink:href="#j" transform="matrix(1,0,0,1,984.9572159723824,434.4) translate(0 14.4)"/><use xlink:href="#k" transform="matrix(1,0,0,1,984.9572159723824,434.4) translate(177.10000000000002 14.4)"/><use xlink:href="#f" transform="matrix(1,0,0,1,984.9572159723824,434.4) translate(221.05 14.4)"/><path d="M1380 465c0-2.76 2.24-5 5-5h30c2.76 0 5 2.24 5 5v70c0 2.76-2.24 5-5 5h-30c-2.76 0-5-2.24-5-5z" stroke="#000" stroke-width="2" fill="#fff"/><path d="M1379.83 537.7H708" fill="none"/><path d="M1379.83 537.7h-10.18m-10.18 0h-20.35m-10.18 0h-20.36m-10.18 0h-20.36m-10.18 0h-20.36m-10.18 0h-20.36m-10.17 0h-20.37m-10.18 0h-20.36m-10.2 0h-20.35m-10.18 0h-20.36m-10.17 0h-20.35m-10.18 0h-20.36m-10.18 0h-20.36m-10.18 0h-20.36m-10.18 0h-20.36m-10.18 0H911.6m-10.2 0h-20.35m-10.18 0H850.5m-10.17 0h-20.36m-10.18 0h-20.37m-10.17 0H758.9m-10.18 0h-20.36m-10.18 0H708" stroke="#000" stroke-width="2" fill="none"/><path d="M1381.8 538.7h-1.97v-2h.5zM722.27 542.33L708 537.7l14.27-4.64z"/><path d="M723.27 543.7L708 538.76v-2.1l15.27-4.96zm-12.03-6l10.03 3.26v-6.52z"/><use xlink:href="#l" transform="matrix(1,0,0,1,1003.4665353315374,512.0985419496766) translate(0 14.4)"/><path d="M1140 565c0-2.76 2.24-5 5-5h150c2.76 0 5 2.24 5 5v50c0 2.76-2.24 5-5 5h-150c-2.76 0-5-2.24-5-5z" stroke="#000" stroke-width="2" fill="#fff"/><use xlink:href="#m" transform="matrix(1,0,0,1,1140,560) translate(34.105 33.15)"/><path d="M708 590h432" stroke="#000" stroke-width="2" fill="none"/><path d="M1140 590l-14.27 4.64v-9.28z"/><path d="M1140 588.95v2.1l-15.27 4.96v-12zm-13.27 4.3l10.03-3.25-10.03-3.26z"/><use xlink:href="#n" transform="matrix(1,0,0,1,725.3499999999999,564.4000000000001) translate(0 14.4)"/><use xlink:href="#o" transform="matrix(1,0,0,1,725.3499999999999,564.4000000000001) translate(146.95000000000002 14.4)"/><use xlink:href="#p" transform="matrix(1,0,0,1,725.3499999999999,564.4000000000001) translate(184.85000000000002 14.4)"/><use xlink:href="#e" transform="matrix(1,0,0,1,725.3499999999999,564.4000000000001) translate(262.45000000000005 14.4)"/><use xlink:href="#q" transform="matrix(1,0,0,1,725.3499999999999,564.4000000000001) translate(310.45000000000005 14.4)"/><path d="M1320 145c0-2.76 2.24-5 5-5h150c2.76 0 5 2.24 5 5v110c0 2.76-2.24 5-5 5h-150c-2.76 0-5-2.24-5-5z" stroke="#000" stroke-width="2" fill="#fff"/><use xlink:href="#r" transform="matrix(1,0,0,1,1320,140) translate(14.930000000000001 63.15)"/><path d="M1380 665c0-2.76 2.24-5 5-5h30c2.76 0 5 2.24 5 5v50c0 2.76-2.24 5-5 5h-30c-2.76 0-5-2.24-5-5z" stroke="#000" stroke-width="2" fill="#fff"/><path d="M709 661.33h335.63c.2 0 .35.16.35.36 0 .2.16.35.36.35h335.62" stroke="#000" stroke-width="2" fill="none"/><path d="M709 662.33h-1v-2h1zM1380.96 662.05l-14.26 4.63v-9.27z"/><path d="M1381.96 661.32l-1 .73-.38 1.17-14.88 4.84v-12.02zm-14.26 4l10.03-3.27-10.03-3.26z"/><use xlink:href="#s" transform="matrix(1,0,0,1,925.5909261115415,635.7337457676132) translate(0 14.4)"/><path d="M1379.54 717.3H709" fill="none"/><path d="M1379.54 717.3h-10.16m-10.16 0h-20.32m-10.16 0h-20.32m-10.16 0h-20.32m-10.16 0h-20.32m-10.16 0H1217m-10.17 0h-20.32m-10.15 0h-20.32m-10.16 0h-20.32m-10.16 0h-20.33m-10.16 0h-20.3m-10.17 0h-20.32m-10.15 0h-20.32m-10.16 0h-20.32m-10.16 0h-20.33m-10.16 0h-20.3m-10.17 0h-20.3m-10.17 0h-20.32m-10.16 0h-20.32m-10.16 0h-20.32m-10.16 0H759.8m-10.16 0h-20.32m-10.16 0H709" stroke="#000" stroke-width="2" fill="none"/><path d="M1380.25 716.58l1.26 1.72h-1.96v-2h.67zM726.72 707.98l-15.76 9.32 15.76 9.32-1 1.72L708 717.87v-1.14l17.7-10.47z"/><path d="M667.7 737.53H377" fill="none"/><path d="M667.7 737.53h-9.68m-9.7 0h-19.37m-9.7 0H599.9m-9.7 0h-19.37m-9.68 0h-19.38m-9.7 0h-19.37m-9.7 0H483.6m-9.7 0h-19.38m-9.7 0h-19.37m-9.7 0H396.4m-9.7 0H377" stroke="#000" stroke-width="2" fill="none"/><path d="M668.25 736.58l1.43 1.95h-1.97v-2h.55zM394.72 728.2l-15.76 9.33 15.76 9.32-1 1.72L376 738.1v-1.14l17.7-10.47z"/><use xlink:href="#t" transform="matrix(1,0,0,1,476.456180974075,711.933195182515) translate(0 14.4)"/><path d="M50 338v453c0 2.76 2.24 5 5 5h280" stroke="#000" stroke-width="2" fill="none"/><path d="M335 796l-14.27 4.64v-9.28z"/><path d="M336 795.27v1.46L319.73 802v-12zm-14.27 4l10.03-3.27-10.03-3.26z"/><use xlink:href="#u" transform="matrix(1,0,0,1,121.38333333333323,770.4000000000001) translate(0 14.4)"/><use xlink:href="#i" transform="matrix(1,0,0,1,121.38333333333323,770.4000000000001) translate(39 14.4)"/><path d="M377 800h293.26c.22 0 .4.18.4.4v.4" stroke="#000" stroke-width="2" fill="none"/><path d="M377 801h-1v-2h1zM670.66 800.8l-14.5 3.82.52-9.25z"/><path d="M671.83 800.2l-.4.05-2.47 1.8-.08.26-13.8 3.64.68-12zm-14.6 3.1l10.2-2.68-9.83-3.82z"/><use xlink:href="#v" transform="matrix(1,0,0,1,430.05,774.4) translate(0 14.4)"/><path d="M668 805c0-2.76 2.24-5 5-5h30c2.76 0 5 2.24 5 5v250c0 2.76-2.24 5-5 5h-30c-2.76 0-5-2.24-5-5z" stroke="#000" stroke-width="2" fill="#fff"/><path d="M708 826.67h671" stroke="#000" stroke-width="2" fill="none"/><path d="M1379 826.67l-14.27 4.63v-9.27z"/><path d="M1380 825.94v1.45l-16.27 5.28v-12.03zm-14.27 4l10.03-3.27-10.03-3.26z"/><use xlink:href="#w" transform="matrix(1,0,0,1,934.525,801.0666666666667) translate(0 14.4)"/><path d="M1380 825c0-2.76 2.24-5 5-5h30c2.76 0 5 2.24 5 5v50c0 2.76-2.24 5-5 5h-30c-2.76 0-5-2.24-5-5z" stroke="#000" stroke-width="2" fill="#fff"/><path d="M1379.54 877.3H1043.8c-.02 0-.03 0-.03.02H708" fill="none"/><path d="M1379.54 877.3h-10.17m-10.18 0h-20.36m-10.18 0h-20.35m-10.16 0h-20.35m-10.2 0h-20.34m-10.17 0h-20.37m-10.17 0h-20.35m-10.17 0h-20.35m-10.17 0h-20.34m-10.18 0h-20.35m-10.18 0h-20.35m-10.17 0h-10.14c-.02 0-.03 0-.03.02h-10.16m-10.16 0h-20.35m-10.2 0h-20.34m-10.18 0h-20.35m-10.17 0H911.5m-10.17 0h-20.35m-10.17 0h-20.34m-10.18 0h-20.35m-10.18 0H789.4m-10.17 0h-20.35m-10.18 0h-20.35m-10.17 0H708" stroke="#000" stroke-width="2" fill="none"/><path d="M1380.25 876.58l1.26 1.72h-1.96v-2h.67zM725.72 868l-15.76 9.33 15.76 9.32-1 1.72L708 878.5v-2.33l16.7-9.88z"/><use xlink:href="#t" transform="matrix(1,0,0,1,997.86948635939,851.6984950138632) translate(0 14.4)"/><path d="M1380 965c0-2.76 2.24-5 5-5h30c2.76 0 5 2.24 5 5v50c0 2.76-2.24 5-5 5h-30c-2.76 0-5-2.24-5-5z" stroke="#000" stroke-width="2" fill="#fff"/><path d="M709 961.98h672.06" stroke="#000" stroke-width="2" fill="none"/><path d="M709 962.98h-1v-2h1zM1381.06 961.98l-14.27 4.63v-9.26z"/><path d="M1382.05 961.25l-1.1.8-.36 1.13-14.8 4.8v-12zm-14.26 4l10.02-3.27-10.03-3.26z"/><use xlink:href="#s" transform="matrix(1,0,0,1,925.6290426114821,936.3788978722275) translate(0 14.4)"/><path d="M1379.3 1016.98H709" stroke="#000" stroke-width="2" fill="none"/><path d="M1380.25 1016.58l1.02 1.4h-1.96v-2h.86zM723.27 1021.6L709 1017l14.27-4.64z"/><path d="M724.27 1023l-16.27-5.3v-1.45l16.27-5.3zm-12.03-6.02l10.03 3.26v-6.52z"/><path d="M667.3 1056.98H377" fill="none"/><path d="M667.3 1056.98h-9.67m-9.68 0H628.6m-9.68 0h-19.35m-9.68 0h-19.36m-9.68 0H541.5m-9.67 0h-19.35m-9.68 0h-19.35m-9.68 0H454.4m-9.66 0h-19.36m-9.67 0h-19.35m-9.67 0H377" stroke="#000" stroke-width="2" fill="none"/><path d="M668.25 1056.58l1.02 1.4h-1.96v-2h.86zM394.72 1047.66l-15.76 9.32 15.76 9.32-1 1.72-17.72-10.47v-1.14l17.7-10.47z"/><g><use xlink:href="#t" transform="matrix(1,0,0,1,476.252922,1031.3763470000001) translate(0 14.4)"/></g><path d="M1379 826.67l-14.27 4.63v-9.27z"/><path d="M1380 825.94v1.45l-16.27 5.28v-12.03zm-14.27 4l10.03-3.27-10.03-3.26z"/><defs><path d="M33-154v-36h34v36H33zM33 0v-36h34V0H33" id="x"/><path d="M127-220V0H93v-220H8v-28h204v28h-85" id="y"/><path d="M24-231v-30h32v30H24zM24 0v-190h32V0H24" id="z"/><path d="M210-169c-67 3-38 105-44 169h-31v-121c0-29-5-50-35-48C34-165 62-65 56 0H25l-1-190h30c1 10-1 24 2 32 10-44 99-50 107 0 11-21 27-35 58-36 85-2 47 119 55 194h-31v-121c0-29-5-49-35-48" id="A"/><path d="M100-194c63 0 86 42 84 106H49c0 40 14 67 53 68 26 1 43-12 49-29l28 8c-11 28-37 45-77 45C44 4 14-33 15-96c1-61 26-98 85-98zm52 81c6-60-76-77-97-28-3 7-6 17-6 28h103" id="B"/><path d="M233-177c-1 41-23 64-60 70L243 0h-38l-65-103H63V0H30v-248c88 3 205-21 203 71zM63-129c60-2 137 13 137-47 0-61-80-42-137-45v92" id="C"/><path d="M96-169c-40 0-48 33-48 73s9 75 48 75c24 0 41-14 43-38l32 2c-6 37-31 61-74 61-59 0-76-41-82-99-10-93 101-131 147-64 4 7 5 14 7 22l-32 3c-4-21-16-35-41-35" id="D"/><path d="M100-194c62-1 85 37 85 99 1 63-27 99-86 99S16-35 15-95c0-66 28-99 85-99zM99-20c44 1 53-31 53-75 0-43-8-75-51-75s-53 32-53 75 10 74 51 75" id="E"/><path d="M114-163C36-179 61-72 57 0H25l-1-190h30c1 12-1 29 2 39 6-27 23-49 58-41v29" id="F"/><path d="M85-194c31 0 48 13 60 33l-1-100h32l1 261h-30c-2-10 0-23-3-31C134-8 116 4 85 4 32 4 16-35 15-94c0-66 23-100 70-100zm9 24c-40 0-46 34-46 75 0 40 6 74 45 74 42 0 51-32 51-76 0-42-9-74-50-73" id="G"/><path d="M137 0h-34L2-248h35l83 218 83-218h36" id="H"/><path d="M206 0h-36l-40-164L89 0H53L-1-190h32L70-26l43-164h34l41 164 42-164h31" id="I"/><g id="a"><use transform="matrix(0.05,0,0,0.05,0,0)" xlink:href="#x"/><use transform="matrix(0.05,0,0,0.05,5,0)" xlink:href="#y"/><use transform="matrix(0.05,0,0,0.05,15.3,0)" xlink:href="#z"/><use transform="matrix(0.05,0,0,0.05,19.25,0)" xlink:href="#A"/><use transform="matrix(0.05,0,0,0.05,34.2,0)" xlink:href="#B"/><use transform="matrix(0.05,0,0,0.05,44.2,0)" xlink:href="#C"/><use transform="matrix(0.05,0,0,0.05,57.150000000000006,0)" xlink:href="#B"/><use transform="matrix(0.05,0,0,0.05,67.15,0)" xlink:href="#D"/><use transform="matrix(0.05,0,0,0.05,76.15,0)" xlink:href="#E"/><use transform="matrix(0.05,0,0,0.05,86.15,0)" xlink:href="#F"/><use transform="matrix(0.05,0,0,0.05,92.10000000000001,0)" xlink:href="#G"/><use transform="matrix(0.05,0,0,0.05,102.10000000000001,0)" xlink:href="#H"/><use transform="matrix(0.05,0,0,0.05,113.75,0)" xlink:href="#z"/><use transform="matrix(0.05,0,0,0.05,117.7,0)" xlink:href="#B"/><use transform="matrix(0.05,0,0,0.05,127.7,0)" xlink:href="#I"/><path d="M-.9 1.25h142.45v1.32H-.9z"/></g><path d="M30-248c87 1 191-15 191 75 0 78-77 80-158 76V0H30v-248zm33 125c57 0 124 11 124-50 0-59-68-47-124-48v98" id="J"/><path d="M24 0v-261h32V0H24" id="K"/><path d="M59-47c-2 24 18 29 38 22v24C64 9 27 4 27-40v-127H5v-23h24l9-43h21v43h35v23H59v120" id="L"/><path d="M141-36C126-15 110 5 73 4 37 3 15-17 15-53c-1-64 63-63 125-63 3-35-9-54-41-54-24 1-41 7-42 31l-33-3c5-37 33-52 76-52 45 0 72 20 72 64v82c-1 20 7 32 28 27v20c-31 9-61-2-59-35zM48-53c0 20 12 33 32 33 41-3 63-29 60-74-43 2-92-5-92 41" id="M"/><g id="b"><use transform="matrix(0.05,0,0,0.05,0,0)" xlink:href="#J"/><use transform="matrix(0.05,0,0,0.05,12,0)" xlink:href="#F"/><use transform="matrix(0.05,0,0,0.05,17.95,0)" xlink:href="#E"/><use transform="matrix(0.05,0,0,0.05,27.950000000000003,0)" xlink:href="#K"/><use transform="matrix(0.05,0,0,0.05,31.899999999999995,0)" xlink:href="#B"/><use transform="matrix(0.05,0,0,0.05,41.9,0)" xlink:href="#L"/><use transform="matrix(0.05,0,0,0.05,46.9,0)" xlink:href="#M"/><use transform="matrix(0.05,0,0,0.05,56.900000000000006,0)" xlink:href="#F"/><use transform="matrix(0.05,0,0,0.05,62.85,0)" xlink:href="#z"/><use transform="matrix(0.05,0,0,0.05,66.8,0)" xlink:href="#B"/><use transform="matrix(0.05,0,0,0.05,76.8,0)" xlink:href="#F"/></g><path d="M185-189c-5-48-123-54-124 2 14 75 158 14 163 119 3 78-121 87-175 55-17-10-28-26-33-46l33-7c5 56 141 63 141-1 0-78-155-14-162-118-5-82 145-84 179-34 5 7 8 16 11 25" id="N"/><path d="M106-169C34-169 62-67 57 0H25v-261h32l-1 103c12-21 28-36 61-36 89 0 53 116 60 194h-32v-121c2-32-8-49-39-48" id="O"/><path d="M212-179c-10-28-35-45-73-45-59 0-87 40-87 99 0 60 29 101 89 101 43 0 62-24 78-52l27 14C228-24 195 4 139 4 59 4 22-46 18-125c-6-104 99-153 187-111 19 9 31 26 39 46" id="P"/><path d="M117-194c89-4 53 116 60 194h-32v-121c0-31-8-49-39-48C34-167 62-67 57 0H25l-1-190h30c1 10-1 24 2 32 11-22 29-35 61-36" id="Q"/><g id="c"><use transform="matrix(0.05,0,0,0.05,0,0)" xlink:href="#x"/><use transform="matrix(0.05,0,0,0.05,5,0)" xlink:href="#y"/><use transform="matrix(0.05,0,0,0.05,15.3,0)" xlink:href="#z"/><use transform="matrix(0.05,0,0,0.05,19.25,0)" xlink:href="#A"/><use transform="matrix(0.05,0,0,0.05,34.2,0)" xlink:href="#B"/><use transform="matrix(0.05,0,0,0.05,44.2,0)" xlink:href="#N"/><use transform="matrix(0.05,0,0,0.05,56.2,0)" xlink:href="#O"/><use transform="matrix(0.05,0,0,0.05,66.2,0)" xlink:href="#B"/><use transform="matrix(0.05,0,0,0.05,76.2,0)" xlink:href="#B"/><use transform="matrix(0.05,0,0,0.05,86.2,0)" xlink:href="#L"/><use transform="matrix(0.05,0,0,0.05,91.2,0)" xlink:href="#P"/><use transform="matrix(0.05,0,0,0.05,104.15,0)" xlink:href="#E"/><use transform="matrix(0.05,0,0,0.05,114.15,0)" xlink:href="#Q"/><use transform="matrix(0.05,0,0,0.05,124.15,0)" xlink:href="#L"/><use transform="matrix(0.05,0,0,0.05,129.15,0)" xlink:href="#F"/><use transform="matrix(0.05,0,0,0.05,135.1,0)" xlink:href="#E"/><use transform="matrix(0.05,0,0,0.05,145.1,0)" xlink:href="#K"/><path d="M-.9 1.25h150.85v1.32H-.9z"/></g><path d="M87 75C49 33 22-17 22-94c0-76 28-126 65-167h31c-38 41-64 92-64 168S80 34 118 75H87" id="R"/><path d="M68-38c1 34 0 65-14 84H32c9-13 17-26 17-46H33v-38h35" id="S"/><g id="d"><use transform="matrix(0.05,0,0,0.05,0,0)" xlink:href="#Q"/><use transform="matrix(0.05,0,0,0.05,10,0)" xlink:href="#B"/><use transform="matrix(0.05,0,0,0.05,20,0)" xlink:href="#I"/><use transform="matrix(0.05,0,0,0.05,32.95,0)" xlink:href="#y"/><use transform="matrix(0.05,0,0,0.05,43.25000000000001,0)" xlink:href="#z"/><use transform="matrix(0.05,0,0,0.05,47.20000000000001,0)" xlink:href="#A"/><use transform="matrix(0.05,0,0,0.05,62.15000000000001,0)" xlink:href="#B"/><use transform="matrix(0.05,0,0,0.05,72.15,0)" xlink:href="#C"/><use transform="matrix(0.05,0,0,0.05,85.10000000000001,0)" xlink:href="#B"/><use transform="matrix(0.05,0,0,0.05,95.10000000000001,0)" xlink:href="#D"/><use transform="matrix(0.05,0,0,0.05,104.10000000000001,0)" xlink:href="#E"/><use transform="matrix(0.05,0,0,0.05,114.10000000000001,0)" xlink:href="#F"/><use transform="matrix(0.05,0,0,0.05,120.05000000000001,0)" xlink:href="#G"/><use transform="matrix(0.05,0,0,0.05,130.05,0)" xlink:href="#R"/><use transform="matrix(0.05,0,0,0.05,136,0)" xlink:href="#D"/><use transform="matrix(0.05,0,0,0.05,145,0)" xlink:href="#M"/><use transform="matrix(0.05,0,0,0.05,155,0)" xlink:href="#L"/><use transform="matrix(0.05,0,0,0.05,160,0)" xlink:href="#S"/></g><path d="M135-143c-3-34-86-38-87 0 15 53 115 12 119 90S17 21 10-45l28-5c4 36 97 45 98 0-10-56-113-15-118-90-4-57 82-63 122-42 12 7 21 19 24 35" id="T"/><g id="e"><use transform="matrix(0.05,0,0,0.05,0,0)" xlink:href="#G"/><use transform="matrix(0.05,0,0,0.05,10,0)" xlink:href="#B"/><use transform="matrix(0.05,0,0,0.05,20,0)" xlink:href="#T"/><use transform="matrix(0.05,0,0,0.05,29,0)" xlink:href="#D"/><use transform="matrix(0.05,0,0,0.05,38,0)" xlink:href="#S"/></g><path d="M84 4C-5 8 30-112 23-190h32v120c0 31 7 50 39 49 72-2 45-101 50-169h31l1 190h-30c-1-10 1-25-2-33-11 22-28 36-60 37" id="U"/><path d="M33-261c38 41 65 92 65 168S71 34 33 75H2C39 34 66-17 66-93S39-220 2-261h31" id="V"/><g id="f"><use transform="matrix(0.05,0,0,0.05,0,0)" xlink:href="#U"/><use transform="matrix(0.05,0,0,0.05,10,0)" xlink:href="#T"/><use transform="matrix(0.05,0,0,0.05,19,0)" xlink:href="#B"/><use transform="matrix(0.05,0,0,0.05,29,0)" xlink:href="#F"/><use transform="matrix(0.05,0,0,0.05,34.95,0)" xlink:href="#V"/></g><g id="h"><use transform="matrix(0.05,0,0,0.05,0,0)" xlink:href="#T"/><use transform="matrix(0.05,0,0,0.05,9,0)" xlink:href="#L"/><use transform="matrix(0.05,0,0,0.05,14,0)" xlink:href="#M"/><use transform="matrix(0.05,0,0,0.05,24,0)" xlink:href="#F"/><use transform="matrix(0.05,0,0,0.05,29.950000000000003,0)" xlink:href="#L"/></g><path d="M143 0L79-87 56-68V0H24v-261h32v163l83-92h37l-77 82L181 0h-38" id="W"/><g id="i"><use transform="matrix(0.05,0,0,0.05,0,0)" xlink:href="#D"/><use transform="matrix(0.05,0,0,0.05,9,0)" xlink:href="#K"/><use transform="matrix(0.05,0,0,0.05,12.949999999999998,0)" xlink:href="#z"/><use transform="matrix(0.05,0,0,0.05,16.9,0)" xlink:href="#D"/><use transform="matrix(0.05,0,0,0.05,25.899999999999995,0)" xlink:href="#W"/><use transform="matrix(0.05,0,0,0.05,34.9,0)" xlink:href="#B"/><use transform="matrix(0.05,0,0,0.05,44.9,0)" xlink:href="#G"/></g><path d="M177-190C167-65 218 103 67 71c-23-6-38-20-44-43l32-5c15 47 100 32 89-28v-30C133-14 115 1 83 1 29 1 15-40 15-95c0-56 16-97 71-98 29-1 48 16 59 35 1-10 0-23 2-32h30zM94-22c36 0 50-32 50-73 0-42-14-75-50-75-39 0-46 34-46 75s6 73 46 73" id="X"/><g id="j"><use transform="matrix(0.05,0,0,0.05,0,0)" xlink:href="#X"/><use transform="matrix(0.05,0,0,0.05,10,0)" xlink:href="#B"/><use transform="matrix(0.05,0,0,0.05,20,0)" xlink:href="#L"/><use transform="matrix(0.05,0,0,0.05,25,0)" xlink:href="#y"/><use transform="matrix(0.05,0,0,0.05,35.300000000000004,0)" xlink:href="#z"/><use transform="matrix(0.05,0,0,0.05,39.25000000000001,0)" xlink:href="#A"/><use transform="matrix(0.05,0,0,0.05,54.20000000000002,0)" xlink:href="#B"/><use transform="matrix(0.05,0,0,0.05,64.20000000000002,0)" xlink:href="#N"/><use transform="matrix(0.05,0,0,0.05,76.20000000000002,0)" xlink:href="#O"/><use transform="matrix(0.05,0,0,0.05,86.20000000000002,0)" xlink:href="#B"/><use transform="matrix(0.05,0,0,0.05,96.20000000000002,0)" xlink:href="#B"/><use transform="matrix(0.05,0,0,0.05,106.2,0)" xlink:href="#L"/><use transform="matrix(0.05,0,0,0.05,111.2,0)" xlink:href="#R"/><use transform="matrix(0.05,0,0,0.05,117.15000000000003,0)" xlink:href="#A"/><use transform="matrix(0.05,0,0,0.05,132.10000000000002,0)" xlink:href="#E"/><use transform="matrix(0.05,0,0,0.05,142.10000000000002,0)" xlink:href="#Q"/><use transform="matrix(0.05,0,0,0.05,152.10000000000002,0)" xlink:href="#L"/><use transform="matrix(0.05,0,0,0.05,157.10000000000002,0)" xlink:href="#O"/><use transform="matrix(0.05,0,0,0.05,167.10000000000002,0)" xlink:href="#S"/></g><path d="M179-190L93 31C79 59 56 82 12 73V49c39 6 53-20 64-50L1-190h34L92-34l54-156h33" id="Y"/><g id="k"><use transform="matrix(0.05,0,0,0.05,0,0)" xlink:href="#Y"/><use transform="matrix(0.05,0,0,0.05,9,0)" xlink:href="#B"/><use transform="matrix(0.05,0,0,0.05,19,0)" xlink:href="#M"/><use transform="matrix(0.05,0,0,0.05,29,0)" xlink:href="#F"/><use transform="matrix(0.05,0,0,0.05,33.95,0)" xlink:href="#S"/></g><g id="l"><use transform="matrix(0.05,0,0,0.05,0,0)" xlink:href="#L"/><use transform="matrix(0.05,0,0,0.05,5,0)" xlink:href="#z"/><use transform="matrix(0.05,0,0,0.05,8.95,0)" xlink:href="#A"/><use transform="matrix(0.05,0,0,0.05,23.9,0)" xlink:href="#B"/><use transform="matrix(0.05,0,0,0.05,33.9,0)" xlink:href="#N"/><use transform="matrix(0.05,0,0,0.05,45.9,0)" xlink:href="#O"/><use transform="matrix(0.05,0,0,0.05,55.900000000000006,0)" xlink:href="#B"/><use transform="matrix(0.05,0,0,0.05,65.9,0)" xlink:href="#B"/><use transform="matrix(0.05,0,0,0.05,75.9,0)" xlink:href="#L"/></g><g id="m"><use transform="matrix(0.05,0,0,0.05,0,0)" xlink:href="#L"/><use transform="matrix(0.05,0,0,0.05,5,0)" xlink:href="#z"/><use transform="matrix(0.05,0,0,0.05,8.95,0)" xlink:href="#A"/><use transform="matrix(0.05,0,0,0.05,23.9,0)" xlink:href="#B"/><use transform="matrix(0.05,0,0,0.05,33.9,0)" xlink:href="#C"/><use transform="matrix(0.05,0,0,0.05,46.85,0)" xlink:href="#B"/><use transform="matrix(0.05,0,0,0.05,56.85,0)" xlink:href="#D"/><use transform="matrix(0.05,0,0,0.05,65.85,0)" xlink:href="#E"/><use transform="matrix(0.05,0,0,0.05,75.85,0)" xlink:href="#F"/><use transform="matrix(0.05,0,0,0.05,81.8,0)" xlink:href="#G"/><path d="M-.9 1.25h93.6v1.32H-.9z"/></g><g id="n"><use transform="matrix(0.05,0,0,0.05,0,0)" xlink:href="#y"/><use transform="matrix(0.05,0,0,0.05,10.3,0)" xlink:href="#z"/><use transform="matrix(0.05,0,0,0.05,14.25,0)" xlink:href="#A"/><use transform="matrix(0.05,0,0,0.05,29.200000000000003,0)" xlink:href="#B"/><use transform="matrix(0.05,0,0,0.05,39.2,0)" xlink:href="#C"/><use transform="matrix(0.05,0,0,0.05,52.150000000000006,0)" xlink:href="#B"/><use transform="matrix(0.05,0,0,0.05,62.150000000000006,0)" xlink:href="#D"/><use transform="matrix(0.05,0,0,0.05,71.15,0)" xlink:href="#E"/><use transform="matrix(0.05,0,0,0.05,81.15,0)" xlink:href="#F"/><use transform="matrix(0.05,0,0,0.05,87.10000000000001,0)" xlink:href="#G"/><use transform="matrix(0.05,0,0,0.05,97.10000000000001,0)" xlink:href="#R"/><use transform="matrix(0.05,0,0,0.05,103.05000000000001,0)" xlink:href="#L"/><use transform="matrix(0.05,0,0,0.05,108.05000000000001,0)" xlink:href="#z"/><use transform="matrix(0.05,0,0,0.05,112,0)" xlink:href="#A"/><use transform="matrix(0.05,0,0,0.05,126.95,0)" xlink:href="#B"/><use transform="matrix(0.05,0,0,0.05,136.95000000000002,0)" xlink:href="#S"/></g><g id="o"><use transform="matrix(0.05,0,0,0.05,0,0)" xlink:href="#Q"/><use transform="matrix(0.05,0,0,0.05,10,0)" xlink:href="#U"/><use transform="matrix(0.05,0,0,0.05,20,0)" xlink:href="#K"/><use transform="matrix(0.05,0,0,0.05,23.95,0)" xlink:href="#K"/><use transform="matrix(0.05,0,0,0.05,27.899999999999995,0)" xlink:href="#S"/></g><g id="p"><use transform="matrix(0.05,0,0,0.05,0,0)" xlink:href="#D"/><use transform="matrix(0.05,0,0,0.05,9,0)" xlink:href="#M"/><use transform="matrix(0.05,0,0,0.05,19,0)" xlink:href="#L"/><use transform="matrix(0.05,0,0,0.05,24,0)" xlink:href="#B"/><use transform="matrix(0.05,0,0,0.05,34,0)" xlink:href="#X"/><use transform="matrix(0.05,0,0,0.05,44,0)" xlink:href="#E"/><use transform="matrix(0.05,0,0,0.05,54,0)" xlink:href="#F"/><use transform="matrix(0.05,0,0,0.05,59.95,0)" xlink:href="#Y"/><use transform="matrix(0.05,0,0,0.05,67.6,0)" xlink:href="#S"/></g><g id="q"><use transform="matrix(0.05,0,0,0.05,0,0)" xlink:href="#L"/><use transform="matrix(0.05,0,0,0.05,5,0)" xlink:href="#z"/><use transform="matrix(0.05,0,0,0.05,8.95,0)" xlink:href="#A"/><use transform="matrix(0.05,0,0,0.05,23.9,0)" xlink:href="#B"/><use transform="matrix(0.05,0,0,0.05,33.9,0)" xlink:href="#N"/><use transform="matrix(0.05,0,0,0.05,45.9,0)" xlink:href="#O"/><use transform="matrix(0.05,0,0,0.05,55.900000000000006,0)" xlink:href="#B"/><use transform="matrix(0.05,0,0,0.05,65.9,0)" xlink:href="#B"/><use transform="matrix(0.05,0,0,0.05,75.9,0)" xlink:href="#L"/><use transform="matrix(0.05,0,0,0.05,80.9,0)" xlink:href="#V"/></g><path d="M30-248c118-7 216 8 213 122C240-48 200 0 122 0H30v-248zM63-27c89 8 146-16 146-99s-60-101-146-95v194" id="Z"/><path d="M205 0l-28-72H64L36 0H1l101-248h38L239 0h-34zm-38-99l-47-123c-12 45-31 82-46 123h93" id="aa"/><path d="M140-251c81 0 123 46 123 126C263-46 219 4 140 4 59 4 17-45 17-125s42-126 123-126zm0 227c63 0 89-41 89-101s-29-99-89-99c-61 0-89 39-89 99S79-25 140-24" id="ab"/><g id="r"><use transform="matrix(0.05,0,0,0.05,0,0)" xlink:href="#x"/><use transform="matrix(0.05,0,0,0.05,5,0)" xlink:href="#y"/><use transform="matrix(0.05,0,0,0.05,15.3,0)" xlink:href="#z"/><use transform="matrix(0.05,0,0,0.05,19.25,0)" xlink:href="#A"/><use transform="matrix(0.05,0,0,0.05,34.2,0)" xlink:href="#B"/><use transform="matrix(0.05,0,0,0.05,44.2,0)" xlink:href="#N"/><use transform="matrix(0.05,0,0,0.05,56.2,0)" xlink:href="#O"/><use transform="matrix(0.05,0,0,0.05,66.2,0)" xlink:href="#B"/><use transform="matrix(0.05,0,0,0.05,76.2,0)" xlink:href="#B"/><use transform="matrix(0.05,0,0,0.05,86.2,0)" xlink:href="#L"/><use transform="matrix(0.05,0,0,0.05,91.2,0)" xlink:href="#Z"/><use transform="matrix(0.05,0,0,0.05,104.15,0)" xlink:href="#aa"/><use transform="matrix(0.05,0,0,0.05,116.15,0)" xlink:href="#ab"/><path d="M-.9 1.25h131.95v1.32H-.9z"/></g><path d="M108 0H70L1-190h34L89-25l56-165h34" id="ac"/><g id="s"><use transform="matrix(0.05,0,0,0.05,0,0)" xlink:href="#T"/><use transform="matrix(0.05,0,0,0.05,9,0)" xlink:href="#M"/><use transform="matrix(0.05,0,0,0.05,19,0)" xlink:href="#ac"/><use transform="matrix(0.05,0,0,0.05,28,0)" xlink:href="#B"/><use transform="matrix(0.05,0,0,0.05,38,0)" xlink:href="#y"/><use transform="matrix(0.05,0,0,0.05,48.300000000000004,0)" xlink:href="#z"/><use transform="matrix(0.05,0,0,0.05,52.25,0)" xlink:href="#A"/><use transform="matrix(0.05,0,0,0.05,67.2,0)" xlink:href="#B"/><use transform="matrix(0.05,0,0,0.05,77.2,0)" xlink:href="#C"/><use transform="matrix(0.05,0,0,0.05,90.15,0)" xlink:href="#B"/><use transform="matrix(0.05,0,0,0.05,100.15,0)" xlink:href="#D"/><use transform="matrix(0.05,0,0,0.05,109.15,0)" xlink:href="#E"/><use transform="matrix(0.05,0,0,0.05,119.15,0)" xlink:href="#F"/><use transform="matrix(0.05,0,0,0.05,125.10000000000001,0)" xlink:href="#G"/><use transform="matrix(0.05,0,0,0.05,135.10000000000002,0)" xlink:href="#R"/><use transform="matrix(0.05,0,0,0.05,141.05,0)" xlink:href="#L"/><use transform="matrix(0.05,0,0,0.05,146.05,0)" xlink:href="#z"/><use transform="matrix(0.05,0,0,0.05,150,0)" xlink:href="#A"/><use transform="matrix(0.05,0,0,0.05,164.95,0)" xlink:href="#B"/><use transform="matrix(0.05,0,0,0.05,174.95,0)" xlink:href="#C"/><use transform="matrix(0.05,0,0,0.05,187.89999999999998,0)" xlink:href="#B"/><use transform="matrix(0.05,0,0,0.05,197.89999999999998,0)" xlink:href="#D"/><use transform="matrix(0.05,0,0,0.05,206.89999999999998,0)" xlink:href="#E"/><use transform="matrix(0.05,0,0,0.05,216.89999999999998,0)" xlink:href="#F"/><use transform="matrix(0.05,0,0,0.05,222.84999999999997,0)" xlink:href="#G"/><use transform="matrix(0.05,0,0,0.05,232.84999999999997,0)" xlink:href="#V"/></g><g id="t"><use transform="matrix(0.05,0,0,0.05,0,0)" xlink:href="#L"/><use transform="matrix(0.05,0,0,0.05,5,0)" xlink:href="#z"/><use transform="matrix(0.05,0,0,0.05,8.95,0)" xlink:href="#A"/><use transform="matrix(0.05,0,0,0.05,23.9,0)" xlink:href="#B"/><use transform="matrix(0.05,0,0,0.05,33.9,0)" xlink:href="#C"/><use transform="matrix(0.05,0,0,0.05,46.85,0)" xlink:href="#B"/><use transform="matrix(0.05,0,0,0.05,56.85,0)" xlink:href="#D"/><use transform="matrix(0.05,0,0,0.05,65.85,0)" xlink:href="#E"/><use transform="matrix(0.05,0,0,0.05,75.85,0)" xlink:href="#F"/><use transform="matrix(0.05,0,0,0.05,81.8,0)" xlink:href="#G"/></g><path d="M115-194c55 1 70 41 70 98S169 2 115 4C84 4 66-9 55-30l1 105H24l-1-265h31l2 30c10-21 28-34 59-34zm-8 174c40 0 45-34 45-75s-6-73-45-74c-42 0-51 32-51 76 0 43 10 73 51 73" id="ad"/><g id="u"><use transform="matrix(0.05,0,0,0.05,0,0)" xlink:href="#T"/><use transform="matrix(0.05,0,0,0.05,9,0)" xlink:href="#L"/><use transform="matrix(0.05,0,0,0.05,14,0)" xlink:href="#E"/><use transform="matrix(0.05,0,0,0.05,24,0)" xlink:href="#ad"/></g><g id="v"><use transform="matrix(0.05,0,0,0.05,0,0)" xlink:href="#D"/><use transform="matrix(0.05,0,0,0.05,9,0)" xlink:href="#K"/><use transform="matrix(0.05,0,0,0.05,12.949999999999998,0)" xlink:href="#E"/><use transform="matrix(0.05,0,0,0.05,22.95,0)" xlink:href="#T"/><use transform="matrix(0.05,0,0,0.05,31.950000000000003,0)" xlink:href="#B"/><use transform="matrix(0.05,0,0,0.05,41.95,0)" xlink:href="#y"/><use transform="matrix(0.05,0,0,0.05,52.25,0)" xlink:href="#z"/><use transform="matrix(0.05,0,0,0.05,56.20000000000002,0)" xlink:href="#A"/><use transform="matrix(0.05,0,0,0.05,71.15,0)" xlink:href="#B"/><use transform="matrix(0.05,0,0,0.05,81.15,0)" xlink:href="#C"/><use transform="matrix(0.05,0,0,0.05,94.10000000000001,0)" xlink:href="#B"/><use transform="matrix(0.05,0,0,0.05,104.10000000000001,0)" xlink:href="#D"/><use transform="matrix(0.05,0,0,0.05,113.10000000000001,0)" xlink:href="#E"/><use transform="matrix(0.05,0,0,0.05,123.10000000000001,0)" xlink:href="#F"/><use transform="matrix(0.05,0,0,0.05,129.05,0)" xlink:href="#G"/><use transform="matrix(0.05,0,0,0.05,139.05,0)" xlink:href="#R"/><use transform="matrix(0.05,0,0,0.05,145,0)" xlink:href="#U"/><use transform="matrix(0.05,0,0,0.05,155,0)" xlink:href="#T"/><use transform="matrix(0.05,0,0,0.05,164,0)" xlink:href="#B"/><use transform="matrix(0.05,0,0,0.05,174,0)" xlink:href="#F"/><use transform="matrix(0.05,0,0,0.05,179.95,0)" xlink:href="#V"/></g><path d="M30 0v-248h33v221h125V0H30" id="ae"/><g id="w"><use transform="matrix(0.05,0,0,0.05,0,0)" xlink:href="#X"/><use transform="matrix(0.05,0,0,0.05,10,0)" xlink:href="#B"/><use transform="matrix(0.05,0,0,0.05,20,0)" xlink:href="#L"/><use transform="matrix(0.05,0,0,0.05,25,0)" xlink:href="#ae"/><use transform="matrix(0.05,0,0,0.05,35,0)" xlink:href="#M"/><use transform="matrix(0.05,0,0,0.05,45,0)" xlink:href="#L"/><use transform="matrix(0.05,0,0,0.05,50,0)" xlink:href="#B"/><use transform="matrix(0.05,0,0,0.05,60,0)" xlink:href="#T"/><use transform="matrix(0.05,0,0,0.05,69,0)" xlink:href="#L"/><use transform="matrix(0.05,0,0,0.05,74,0)" xlink:href="#y"/><use transform="matrix(0.05,0,0,0.05,84.3,0)" xlink:href="#z"/><use transform="matrix(0.05,0,0,0.05,88.25,0)" xlink:href="#A"/><use transform="matrix(0.05,0,0,0.05,103.2,0)" xlink:href="#B"/><use transform="matrix(0.05,0,0,0.05,113.2,0)" xlink:href="#C"/><use transform="matrix(0.05,0,0,0.05,126.15,0)" xlink:href="#B"/><use transform="matrix(0.05,0,0,0.05,136.15,0)" xlink:href="#D"/><use transform="matrix(0.05,0,0,0.05,145.15,0)" xlink:href="#E"/><use transform="matrix(0.05,0,0,0.05,155.15,0)" xlink:href="#F"/><use transform="matrix(0.05,0,0,0.05,161.1,0)" xlink:href="#G"/><use transform="matrix(0.05,0,0,0.05,171.1,0)" xlink:href="#R"/><use transform="matrix(0.05,0,0,0.05,177.04999999999998,0)" xlink:href="#U"/><use transform="matrix(0.05,0,0,0.05,187.04999999999998,0)" xlink:href="#T"/><use transform="matrix(0.05,0,0,0.05,196.04999999999998,0)" xlink:href="#B"/><use transform="matrix(0.05,0,0,0.05,206.04999999999995,0)" xlink:href="#F"/><use transform="matrix(0.05,0,0,0.05,211.99999999999997,0)" xlink:href="#V"/></g></defs></g></svg>