<svg xmlns="http://www.w3.org/2000/svg" xmlns:xlink="http://www.w3.org/1999/xlink" width="1148" height="639"><g transform="translate(-12 -12)"><path d="M1010 120v500" fill="none"/><path d="M1010 120v9.8m0 9.8v19.62m0 9.8v19.6m0 9.8v19.62m0 9.8v19.6m0 9.8v19.62m0 9.8v19.6m0 9.82v19.6m0 9.8v19.62m0 9.8v19.6m0 9.8v19.62m0 9.8v19.6m0 9.82v19.6m0 9.8v19.62m0 9.8v19.6m0 9.8V571m0 9.8v19.6m0 9.82v9.8" stroke="#000" stroke-width="2" fill="none"/><path d="M640 120v520" fill="none"/><path d="M640 120v10.2m0 10.2v20.38m0 10.2v20.4m0 10.2v20.38m0 10.2v20.4m0 10.2v20.38m0 10.2v20.4m0 10.18v20.4m0 10.2v20.38m0 10.2v20.4m0 10.2v20.38m0 10.2v20.4m0 10.18v20.4m0 10.2v20.38m0 10.2v20.4m0 10.2V589m0 10.2v20.4m0 10.18V640" stroke="#000" stroke-width="2" fill="none"/><path d="M350 120v510" fill="none"/><path d="M350 120v10m0 10v20m0 10v20m0 10v20m0 10v20m0 10v20m0 10v20m0 10v20m0 10v20m0 10v20m0 10v20m0 10v20m0 10v20m0 10v20m0 10v20m0 10v20m0 10v20m0 10v10" stroke="#000" stroke-width="2" fill="none"/><path d="M280 37c0-2.76 2.24-5 5-5h130c2.76 0 5 2.24 5 5v78c0 2.76-2.24 5-5 5H285c-2.76 0-5-2.24-5-5z" stroke="#000" stroke-width="2" fill="#fff"/><use xlink:href="#a" transform="matrix(1,0,0,1,280,32) translate(5.130000000000004 47.4)"/><path d="M72.75 150.75c0 5.94-4.8 10.75-10.75 10.75-5.94 0-10.75-4.8-10.75-10.75 0-5.94 4.8-10.75 10.75-10.75 5.94 0 10.75 4.8 10.75 10.75z" stroke="#000" stroke-width="2" fill="#fff"/><path d="M32 145c0-2.76 2.24-5 5-5h50c2.76 0 5 2.24 5 5v76c0 2.76-2.24 5-5 5H37c-2.76 0-5-2.24-5-5z" fill="none"/><path d="M62 161.5v25.1c0 2.76 1.47 6.7 3.3 8.77L92 226m-30-34.4L32 226m0-53.75h60" stroke="#000" stroke-width="2" fill="none"/><use xlink:href="#b" transform="matrix(1,0,0,1,-48,226) translate(91.05 14.6)"/><path d="M330 195c0-2.76 2.24-5 5-5h30c2.76 0 5 2.24 5 5v380c0 2.76-2.24 5-5 5h-30c-2.76 0-5-2.24-5-5z" stroke="#000" stroke-width="2" fill="#fff"/><path d="M92 194h118.96c.08 0 .15.07.15.16 0 .08.08.15.17.15h118.96" stroke="#000" stroke-width="2" fill="none"/><path d="M330.23 194.3l-14.27 4.65v-9.27z"/><path d="M330.54 193.36L330 195v.44l-15.04 4.88V188.3zm-13.58 4.2l10.03-3.25-10.04-3.25z"/><use xlink:href="#c" transform="matrix(1,0,0,1,118.64234481584754,168.40028820900332) translate(0.0049999999999954525 14.4)"/><use xlink:href="#d" transform="matrix(1,0,0,1,118.64234481584754,168.40028820900332) translate(114.955 14.4)"/><path d="M370 242.3h250.88" stroke="#000" stroke-width="2" fill="none"/><path d="M620.88 242.3l-14.27 4.65v-9.27z"/><path d="M621.7 241.52l-.74.53-.47 1.44-14.9 4.82V236.3zm-14.1 4.05l10.04-3.26-10.03-3.25z"/><use xlink:href="#e" transform="matrix(1,0,0,1,389.96431643901747,216.71054313022327) translate(0.0049999999999954525 14.4)"/><path d="M550 37c0-2.76 2.24-5 5-5h170c2.76 0 5 2.24 5 5v78c0 2.76-2.24 5-5 5H555c-2.76 0-5-2.24-5-5z" stroke="#000" stroke-width="2" fill="#fff"/><use xlink:href="#f" transform="matrix(1,0,0,1,550,32) translate(15.480000000000013 47.4)"/><path d="M620 245c0-2.76 2.24-5 5-5h30c2.76 0 5 2.24 5 5v310c0 2.76-2.24 5-5 5h-30c-2.76 0-5-2.24-5-5zM880 37c0-2.76 2.24-5 5-5h250c2.76 0 5 2.24 5 5v78c0 2.76-2.24 5-5 5H885c-2.76 0-5-2.24-5-5z" stroke="#000" stroke-width="2" fill="#fff"/><use xlink:href="#g" transform="matrix(1,0,0,1,880,32) translate(43.95499999999999 47.4)"/><path d="M329.06 580H80" fill="none"/><path d="M329.06 580h-10.38m-10.37 0h-20.75m-10.38 0h-20.75m-10.38 0H225.3m-10.4 0h-20.75m-10.37 0h-20.76m-10.38 0H131.9m-10.4 0h-20.74m-10.38 0H80M97.2 569.82L80 580l17.2 10.18M661 285h328" stroke="#000" stroke-width="2" fill="none"/><path d="M661 286h-1v-2h1zM989 285l-14.27 4.64v-9.28z"/><path d="M990.2 284.34l-.2.66v.73L973.73 291v-12zm-14.47 3.92l10.03-3.26-10.03-3.26z"/><use xlink:href="#h" transform="matrix(1,0,0,1,706,259.4) translate(0 14.4)"/><path d="M990 285c0-2.76 2.24-5 5-5h30c2.76 0 5 2.24 5 5v50c0 2.76-2.24 5-5 5h-30c-2.76 0-5-2.24-5-5z" stroke="#000" stroke-width="2" fill="#fff"/><path d="M990.42 338.5H661" fill="none"/><path d="M990.42 338.5h-9.98m-9.98 0H950.5m-10 0h-19.96m-9.98 0H890.6m-10 0h-19.95m-9.98 0H830.7m-9.98 0h-19.97m-9.98 0H770.8m-9.98 0h-19.96m-9.98 0H710.9m-9.97 0h-19.97m-9.98 0H661" stroke="#000" stroke-width="2" fill="none"/><path d="M992.05 339.04l1.37.44v.02h-3v-2h.5zM678.72 329.18l-15.76 9.32 15.76 9.32-1 1.72L660 339.07v-1.14l17.7-10.47z"/><path d="M640 405c0-2.76 2.24-5 5-5h30c2.76 0 5 2.24 5 5v70c0 2.76-2.24 5-5 5h-30c-2.76 0-5-2.24-5-5z" stroke="#000" stroke-width="2" fill="#fff"/><path d="M661 370h35c2.76 0 5-2.24 5-5s2.24-5 5-5h9.8c2.76 0 5 2.24 5 5v33.65c0 2.76-2.24 5-5 5h-35" stroke="#000" stroke-width="2" fill="none"/><path d="M661 371h-1v-2h1zM695.06 408.28l-14.27-4.63 14.26-4.64z"/><path d="M696.06 409.66l-16.16-5.25-.15-.98-.3-.4 16.6-5.4zm-12.03-6l10.03 3.24v-6.5z"/><use xlink:href="#i" transform="matrix(1,0,0,1,728.7945438741176,367.2) translate(0 14.4)"/><use xlink:href="#j" transform="matrix(1,0,0,1,728.7945438741176,367.2) translate(181.64999999999998 14.4)"/><use xlink:href="#k" transform="matrix(1,0,0,1,728.7945438741176,367.2) translate(225.95 14.4)"/><use xlink:href="#l" transform="matrix(1,0,0,1,728.7945438741176,367.2) translate(270.15 14.4)"/><use xlink:href="#m" transform="matrix(1,0,0,1,728.7945438741176,367.2) translate(319.15 14.4)"/><use xlink:href="#n" transform="matrix(1,0,0,1,728.7945438741176,367.2) translate(363.15 14.4)"/><path d="M680.84 475.66h35c2.76 0 5 2.24 5 5V515c0 2.76-2.24 5-5 5H661" fill="none"/><path d="M680.84 475.66h9.6m9.62 0h19.22m1.56 8.06v19.22m0 9.6v3.74c0 2.05-1.67 3.72-3.73 3.72h-8.04m-9.6 0H680.2m-9.6 0H661" stroke="#000" stroke-width="2" fill="none"/><path d="M680.84 476.66h-1.38L680 475v-.34h.84zM678.72 510.68L662.97 520l15.75 9.32-1 1.72L660 520.57v-1.14l17.7-10.47z"/><path d="M619.6 557.37H370" fill="none"/><path d="M619.6 557.37h-10.4m-10.4 0H578m-10.4 0h-20.8m-10.4 0h-20.8m-10.4 0h-20.8m-10.4 0h-20.8m-10.4 0H422m-10.4 0h-20.8m-10.4 0H370" stroke="#000" stroke-width="2" fill="none"/><path d="M620.25 556.58l1.3 1.8h-1.95v-2h.62zM387.72 548.05l-15.76 9.32 15.76 9.32-1 1.72-16.72-9.88v-2.33l16.7-9.87z"/><defs><path d="M33-154v-36h34v36H33zM33 0v-36h34V0H33" id="o"/><path d="M127-220V0H93v-220H8v-28h204v28h-85" id="p"/><path d="M24-231v-30h32v30H24zM24 0v-190h32V0H24" id="q"/><path d="M210-169c-67 3-38 105-44 169h-31v-121c0-29-5-50-35-48C34-165 62-65 56 0H25l-1-190h30c1 10-1 24 2 32 10-44 99-50 107 0 11-21 27-35 58-36 85-2 47 119 55 194h-31v-121c0-29-5-49-35-48" id="r"/><path d="M100-194c63 0 86 42 84 106H49c0 40 14 67 53 68 26 1 43-12 49-29l28 8c-11 28-37 45-77 45C44 4 14-33 15-96c1-61 26-98 85-98zm52 81c6-60-76-77-97-28-3 7-6 17-6 28h103" id="s"/><path d="M185-189c-5-48-123-54-124 2 14 75 158 14 163 119 3 78-121 87-175 55-17-10-28-26-33-46l33-7c5 56 141 63 141-1 0-78-155-14-162-118-5-82 145-84 179-34 5 7 8 16 11 25" id="t"/><path d="M106-169C34-169 62-67 57 0H25v-261h32l-1 103c12-21 28-36 61-36 89 0 53 116 60 194h-32v-121c2-32-8-49-39-48" id="u"/><path d="M59-47c-2 24 18 29 38 22v24C64 9 27 4 27-40v-127H5v-23h24l9-43h21v43h35v23H59v120" id="v"/><path d="M137 0h-34L2-248h35l83 218 83-218h36" id="w"/><path d="M206 0h-36l-40-164L89 0H53L-1-190h32L70-26l43-164h34l41 164 42-164h31" id="x"/><g id="a"><use transform="matrix(0.05,0,0,0.05,0,0)" xlink:href="#o"/><use transform="matrix(0.05,0,0,0.05,5,0)" xlink:href="#p"/><use transform="matrix(0.05,0,0,0.05,15.3,0)" xlink:href="#q"/><use transform="matrix(0.05,0,0,0.05,19.25,0)" xlink:href="#r"/><use transform="matrix(0.05,0,0,0.05,34.2,0)" xlink:href="#s"/><use transform="matrix(0.05,0,0,0.05,44.2,0)" xlink:href="#t"/><use transform="matrix(0.05,0,0,0.05,56.2,0)" xlink:href="#u"/><use transform="matrix(0.05,0,0,0.05,66.2,0)" xlink:href="#s"/><use transform="matrix(0.05,0,0,0.05,76.2,0)" xlink:href="#s"/><use transform="matrix(0.05,0,0,0.05,86.2,0)" xlink:href="#v"/><use transform="matrix(0.05,0,0,0.05,91.2,0)" xlink:href="#w"/><use transform="matrix(0.05,0,0,0.05,102.85000000000001,0)" xlink:href="#q"/><use transform="matrix(0.05,0,0,0.05,106.80000000000001,0)" xlink:href="#s"/><use transform="matrix(0.05,0,0,0.05,116.80000000000001,0)" xlink:href="#x"/><path d="M-.9 1.25h131.55v1.32H-.9z"/></g><path fill="#333" d="M232-93c-1 65-40 97-104 97C67 4 28-28 28-90v-158h33c8 89-33 224 67 224 102 0 64-133 71-224h33v155" id="y"/><path fill="#333" d="M135-143c-3-34-86-38-87 0 15 53 115 12 119 90S17 21 10-45l28-5c4 36 97 45 98 0-10-56-113-15-118-90-4-57 82-63 122-42 12 7 21 19 24 35" id="z"/><path fill="#333" d="M100-194c63 0 86 42 84 106H49c0 40 14 67 53 68 26 1 43-12 49-29l28 8c-11 28-37 45-77 45C44 4 14-33 15-96c1-61 26-98 85-98zm52 81c6-60-76-77-97-28-3 7-6 17-6 28h103" id="A"/><path fill="#333" d="M114-163C36-179 61-72 57 0H25l-1-190h30c1 12-1 29 2 39 6-27 23-49 58-41v29" id="B"/><g id="b"><use transform="matrix(0.05,0,0,0.05,0,0)" xlink:href="#y"/><use transform="matrix(0.05,0,0,0.05,12.950000000000001,0)" xlink:href="#z"/><use transform="matrix(0.05,0,0,0.05,21.950000000000003,0)" xlink:href="#A"/><use transform="matrix(0.05,0,0,0.05,31.950000000000003,0)" xlink:href="#B"/></g><path fill="#333" d="M185-189c-5-48-123-54-124 2 14 75 158 14 163 119 3 78-121 87-175 55-17-10-28-26-33-46l33-7c5 56 141 63 141-1 0-78-155-14-162-118-5-82 145-84 179-34 5 7 8 16 11 25" id="C"/><path fill="#333" d="M59-47c-2 24 18 29 38 22v24C64 9 27 4 27-40v-127H5v-23h24l9-43h21v43h35v23H59v120" id="D"/><path fill="#333" d="M84 4C-5 8 30-112 23-190h32v120c0 31 7 50 39 49 72-2 45-101 50-169h31l1 190h-30c-1-10 1-25-2-33-11 22-28 36-60 37" id="E"/><path fill="#333" d="M117-194c89-4 53 116 60 194h-32v-121c0-31-8-49-39-48C34-167 62-67 57 0H25l-1-190h30c1 10-1 24 2 32 11-22 29-35 61-36" id="F"/><path fill="#333" d="M85-194c31 0 48 13 60 33l-1-100h32l1 261h-30c-2-10 0-23-3-31C134-8 116 4 85 4 32 4 16-35 15-94c0-66 23-100 70-100zm9 24c-40 0-46 34-46 75 0 40 6 74 45 74 42 0 51-32 51-76 0-42-9-74-50-73" id="G"/><path fill="#333" d="M9 0v-24l116-142H16v-24h144v24L44-24h123V0H9" id="H"/><path fill="#333" d="M24 0v-261h32V0H24" id="I"/><g id="c"><use transform="matrix(0.05,0,0,0.05,0,0)" xlink:href="#C"/><use transform="matrix(0.05,0,0,0.05,12,0)" xlink:href="#D"/><use transform="matrix(0.05,0,0,0.05,17,0)" xlink:href="#E"/><use transform="matrix(0.05,0,0,0.05,27,0)" xlink:href="#F"/><use transform="matrix(0.05,0,0,0.05,37,0)" xlink:href="#G"/><use transform="matrix(0.05,0,0,0.05,47,0)" xlink:href="#A"/><use transform="matrix(0.05,0,0,0.05,57,0)" xlink:href="#F"/><use transform="matrix(0.05,0,0,0.05,67,0)" xlink:href="#H"/><use transform="matrix(0.05,0,0,0.05,76,0)" xlink:href="#A"/><use transform="matrix(0.05,0,0,0.05,86,0)" xlink:href="#D"/><use transform="matrix(0.05,0,0,0.05,91,0)" xlink:href="#D"/><use transform="matrix(0.05,0,0,0.05,96,0)" xlink:href="#A"/><use transform="matrix(0.05,0,0,0.05,106,0)" xlink:href="#I"/></g><path fill="#333" d="M141-36C126-15 110 5 73 4 37 3 15-17 15-53c-1-64 63-63 125-63 3-35-9-54-41-54-24 1-41 7-42 31l-33-3c5-37 33-52 76-52 45 0 72 20 72 64v82c-1 20 7 32 28 27v20c-31 9-61-2-59-35zM48-53c0 20 12 33 32 33 41-3 63-29 60-74-43 2-92-5-92 41" id="J"/><path fill="#333" d="M115-194c53 0 69 39 70 98 0 66-23 100-70 100C84 3 66-7 56-30L54 0H23l1-261h32v101c10-23 28-34 59-34zm-8 174c40 0 45-34 45-75 0-40-5-75-45-74-42 0-51 32-51 76 0 43 10 73 51 73" id="K"/><path fill="#333" d="M177-190C167-65 218 103 67 71c-23-6-38-20-44-43l32-5c15 47 100 32 89-28v-30C133-14 115 1 83 1 29 1 15-40 15-95c0-56 16-97 71-98 29-1 48 16 59 35 1-10 0-23 2-32h30zM94-22c36 0 50-32 50-73 0-42-14-75-50-75-39 0-46 34-46 75s6 73 46 73" id="L"/><g id="d"><use transform="matrix(0.05,0,0,0.05,0,0)" xlink:href="#J"/><use transform="matrix(0.05,0,0,0.05,10,0)" xlink:href="#K"/><use transform="matrix(0.05,0,0,0.05,20,0)" xlink:href="#L"/><use transform="matrix(0.05,0,0,0.05,30,0)" xlink:href="#A"/><use transform="matrix(0.05,0,0,0.05,40,0)" xlink:href="#K"/><use transform="matrix(0.05,0,0,0.05,50,0)" xlink:href="#A"/><use transform="matrix(0.05,0,0,0.05,60,0)" xlink:href="#F"/></g><path fill="#333" d="M100-194c62-1 85 37 85 99 1 63-27 99-86 99S16-35 15-95c0-66 28-99 85-99zM99-20c44 1 53-31 53-75 0-43-8-75-51-75s-53 32-53 75 10 74 51 75" id="M"/><path fill="#333" d="M96-169c-40 0-48 33-48 73s9 75 48 75c24 0 41-14 43-38l32 2c-6 37-31 61-74 61-59 0-76-41-82-99-10-93 101-131 147-64 4 7 5 14 7 22l-32 3c-4-21-16-35-41-35" id="N"/><path fill="#333" d="M143 0L79-87 56-68V0H24v-261h32v163l83-92h37l-77 82L181 0h-38" id="O"/><path fill="#333" d="M127-220V0H93v-220H8v-28h204v28h-85" id="P"/><path fill="#333" d="M24-231v-30h32v30H24zM24 0v-190h32V0H24" id="Q"/><path fill="#333" d="M210-169c-67 3-38 105-44 169h-31v-121c0-29-5-50-35-48C34-165 62-65 56 0H25l-1-190h30c1 10-1 24 2 32 10-44 99-50 107 0 11-21 27-35 58-36 85-2 47 119 55 194h-31v-121c0-29-5-49-35-48" id="R"/><path fill="#333" d="M106-169C34-169 62-67 57 0H25v-261h32l-1 103c12-21 28-36 61-36 89 0 53 116 60 194h-32v-121c2-32-8-49-39-48" id="S"/><path fill="#333" d="M87 75C49 33 22-17 22-94c0-76 28-126 65-167h31c-38 41-64 92-64 168S80 34 118 75H87" id="T"/><path fill="#333" d="M33-261c38 41 65 92 65 168S71 34 33 75H2C39 34 66-17 66-93S39-220 2-261h31" id="U"/><g id="e"><use transform="matrix(0.05,0,0,0.05,0,0)" xlink:href="#I"/><use transform="matrix(0.05,0,0,0.05,3.95,0)" xlink:href="#M"/><use transform="matrix(0.05,0,0,0.05,13.949999999999998,0)" xlink:href="#N"/><use transform="matrix(0.05,0,0,0.05,22.95,0)" xlink:href="#O"/><use transform="matrix(0.05,0,0,0.05,31.950000000000003,0)" xlink:href="#P"/><use transform="matrix(0.05,0,0,0.05,42.25,0)" xlink:href="#Q"/><use transform="matrix(0.05,0,0,0.05,46.2,0)" xlink:href="#R"/><use transform="matrix(0.05,0,0,0.05,61.150000000000006,0)" xlink:href="#A"/><use transform="matrix(0.05,0,0,0.05,71.15,0)" xlink:href="#C"/><use transform="matrix(0.05,0,0,0.05,83.15,0)" xlink:href="#S"/><use transform="matrix(0.05,0,0,0.05,93.15,0)" xlink:href="#A"/><use transform="matrix(0.05,0,0,0.05,103.15,0)" xlink:href="#A"/><use transform="matrix(0.05,0,0,0.05,113.15,0)" xlink:href="#D"/><use transform="matrix(0.05,0,0,0.05,118.15,0)" xlink:href="#T"/><use transform="matrix(0.05,0,0,0.05,124.10000000000001,0)" xlink:href="#D"/><use transform="matrix(0.05,0,0,0.05,129.10000000000002,0)" xlink:href="#Q"/><use transform="matrix(0.05,0,0,0.05,133.05,0)" xlink:href="#R"/><use transform="matrix(0.05,0,0,0.05,148,0)" xlink:href="#A"/><use transform="matrix(0.05,0,0,0.05,158,0)" xlink:href="#C"/><use transform="matrix(0.05,0,0,0.05,170,0)" xlink:href="#S"/><use transform="matrix(0.05,0,0,0.05,180,0)" xlink:href="#A"/><use transform="matrix(0.05,0,0,0.05,190,0)" xlink:href="#A"/><use transform="matrix(0.05,0,0,0.05,200,0)" xlink:href="#D"/><use transform="matrix(0.05,0,0,0.05,205,0)" xlink:href="#U"/></g><path d="M212-179c-10-28-35-45-73-45-59 0-87 40-87 99 0 60 29 101 89 101 43 0 62-24 78-52l27 14C228-24 195 4 139 4 59 4 22-46 18-125c-6-104 99-153 187-111 19 9 31 26 39 46" id="V"/><path d="M100-194c62-1 85 37 85 99 1 63-27 99-86 99S16-35 15-95c0-66 28-99 85-99zM99-20c44 1 53-31 53-75 0-43-8-75-51-75s-53 32-53 75 10 74 51 75" id="W"/><path d="M117-194c89-4 53 116 60 194h-32v-121c0-31-8-49-39-48C34-167 62-67 57 0H25l-1-190h30c1 10-1 24 2 32 11-22 29-35 61-36" id="X"/><path d="M114-163C36-179 61-72 57 0H25l-1-190h30c1 12-1 29 2 39 6-27 23-49 58-41v29" id="Y"/><path d="M24 0v-261h32V0H24" id="Z"/><g id="f"><use transform="matrix(0.05,0,0,0.05,0,0)" xlink:href="#o"/><use transform="matrix(0.05,0,0,0.05,5,0)" xlink:href="#p"/><use transform="matrix(0.05,0,0,0.05,15.3,0)" xlink:href="#q"/><use transform="matrix(0.05,0,0,0.05,19.25,0)" xlink:href="#r"/><use transform="matrix(0.05,0,0,0.05,34.2,0)" xlink:href="#s"/><use transform="matrix(0.05,0,0,0.05,44.2,0)" xlink:href="#t"/><use transform="matrix(0.05,0,0,0.05,56.2,0)" xlink:href="#u"/><use transform="matrix(0.05,0,0,0.05,66.2,0)" xlink:href="#s"/><use transform="matrix(0.05,0,0,0.05,76.2,0)" xlink:href="#s"/><use transform="matrix(0.05,0,0,0.05,86.2,0)" xlink:href="#v"/><use transform="matrix(0.05,0,0,0.05,91.2,0)" xlink:href="#V"/><use transform="matrix(0.05,0,0,0.05,104.15,0)" xlink:href="#W"/><use transform="matrix(0.05,0,0,0.05,114.15,0)" xlink:href="#X"/><use transform="matrix(0.05,0,0,0.05,124.15,0)" xlink:href="#v"/><use transform="matrix(0.05,0,0,0.05,129.15,0)" xlink:href="#Y"/><use transform="matrix(0.05,0,0,0.05,135.1,0)" xlink:href="#W"/><use transform="matrix(0.05,0,0,0.05,145.1,0)" xlink:href="#Z"/><path d="M-.9 1.25h150.85v1.32H-.9z"/></g><g id="g"><use transform="matrix(0.05,0,0,0.05,0,0)" xlink:href="#v"/><use transform="matrix(0.05,0,0,0.05,5,0)" xlink:href="#q"/><use transform="matrix(0.05,0,0,0.05,8.95,0)" xlink:href="#r"/><use transform="matrix(0.05,0,0,0.05,23.9,0)" xlink:href="#s"/><use transform="matrix(0.05,0,0,0.05,33.9,0)" xlink:href="#t"/><use transform="matrix(0.05,0,0,0.05,45.9,0)" xlink:href="#u"/><use transform="matrix(0.05,0,0,0.05,55.900000000000006,0)" xlink:href="#s"/><use transform="matrix(0.05,0,0,0.05,65.9,0)" xlink:href="#s"/><use transform="matrix(0.05,0,0,0.05,75.9,0)" xlink:href="#v"/><use transform="matrix(0.05,0,0,0.05,80.9,0)" xlink:href="#o"/><use transform="matrix(0.05,0,0,0.05,85.9,0)" xlink:href="#p"/><use transform="matrix(0.05,0,0,0.05,96.2,0)" xlink:href="#q"/><use transform="matrix(0.05,0,0,0.05,100.15,0)" xlink:href="#r"/><use transform="matrix(0.05,0,0,0.05,115.10000000000001,0)" xlink:href="#s"/><use transform="matrix(0.05,0,0,0.05,125.10000000000001,0)" xlink:href="#t"/><use transform="matrix(0.05,0,0,0.05,137.10000000000002,0)" xlink:href="#u"/><use transform="matrix(0.05,0,0,0.05,147.10000000000002,0)" xlink:href="#s"/><use transform="matrix(0.05,0,0,0.05,157.10000000000002,0)" xlink:href="#s"/><use transform="matrix(0.05,0,0,0.05,167.10000000000002,0)" xlink:href="#v"/><path d="M-.9 1.25H173v1.32H-.9z"/></g><path d="M135-143c-3-34-86-38-87 0 15 53 115 12 119 90S17 21 10-45l28-5c4 36 97 45 98 0-10-56-113-15-118-90-4-57 82-63 122-42 12 7 21 19 24 35" id="aa"/><path d="M141-36C126-15 110 5 73 4 37 3 15-17 15-53c-1-64 63-63 125-63 3-35-9-54-41-54-24 1-41 7-42 31l-33-3c5-37 33-52 76-52 45 0 72 20 72 64v82c-1 20 7 32 28 27v20c-31 9-61-2-59-35zM48-53c0 20 12 33 32 33 41-3 63-29 60-74-43 2-92-5-92 41" id="ab"/><path d="M87 75C49 33 22-17 22-94c0-76 28-126 65-167h31c-38 41-64 92-64 168S80 34 118 75H87" id="ac"/><path d="M30 0v-248h33v221h125V0H30" id="ad"/><path d="M140-251c81 0 123 46 123 126C263-46 219 4 140 4 59 4 17-45 17-125s42-126 123-126zm0 227c63 0 89-41 89-101s-29-99-89-99c-61 0-89 39-89 99S79-25 140-24" id="ae"/><path d="M194 0L95-120 63-95V0H30v-248h33v124l119-124h40L117-140 236 0h-42" id="af"/><path d="M30 0v-248h187v28H63v79h144v27H63v87h162V0H30" id="ag"/><path d="M30-248c118-7 216 8 213 122C240-48 200 0 122 0H30v-248zM63-27c89 8 146-16 146-99s-60-101-146-95v194" id="ah"/><path d="M33-261c38 41 65 92 65 168S71 34 33 75H2C39 34 66-17 66-93S39-220 2-261h31" id="ai"/><g id="h"><use transform="matrix(0.05,0,0,0.05,0,0)" xlink:href="#aa"/><use transform="matrix(0.05,0,0,0.05,9,0)" xlink:href="#s"/><use transform="matrix(0.05,0,0,0.05,19,0)" xlink:href="#v"/><use transform="matrix(0.05,0,0,0.05,24,0)" xlink:href="#p"/><use transform="matrix(0.05,0,0,0.05,34.300000000000004,0)" xlink:href="#q"/><use transform="matrix(0.05,0,0,0.05,38.25000000000001,0)" xlink:href="#r"/><use transform="matrix(0.05,0,0,0.05,53.20000000000002,0)" xlink:href="#s"/><use transform="matrix(0.05,0,0,0.05,63.20000000000002,0)" xlink:href="#t"/><use transform="matrix(0.05,0,0,0.05,75.20000000000002,0)" xlink:href="#u"/><use transform="matrix(0.05,0,0,0.05,85.20000000000002,0)" xlink:href="#s"/><use transform="matrix(0.05,0,0,0.05,95.20000000000002,0)" xlink:href="#s"/><use transform="matrix(0.05,0,0,0.05,105.2,0)" xlink:href="#v"/><use transform="matrix(0.05,0,0,0.05,110.2,0)" xlink:href="#t"/><use transform="matrix(0.05,0,0,0.05,122.2,0)" xlink:href="#v"/><use transform="matrix(0.05,0,0,0.05,127.2,0)" xlink:href="#ab"/><use transform="matrix(0.05,0,0,0.05,137.20000000000002,0)" xlink:href="#v"/><use transform="matrix(0.05,0,0,0.05,142.20000000000002,0)" xlink:href="#s"/><use transform="matrix(0.05,0,0,0.05,152.20000000000002,0)" xlink:href="#ac"/><use transform="matrix(0.05,0,0,0.05,158.15,0)" xlink:href="#ad"/><use transform="matrix(0.05,0,0,0.05,168.15,0)" xlink:href="#ae"/><use transform="matrix(0.05,0,0,0.05,182.15,0)" xlink:href="#V"/><use transform="matrix(0.05,0,0,0.05,195.1,0)" xlink:href="#af"/><use transform="matrix(0.05,0,0,0.05,207.10000000000002,0)" xlink:href="#ag"/><use transform="matrix(0.05,0,0,0.05,219.10000000000002,0)" xlink:href="#ah"/><use transform="matrix(0.05,0,0,0.05,232.04999999999995,0)" xlink:href="#ai"/></g><path d="M85-194c31 0 48 13 60 33l-1-100h32l1 261h-30c-2-10 0-23-3-31C134-8 116 4 85 4 32 4 16-35 15-94c0-66 23-100 70-100zm9 24c-40 0-46 34-46 75 0 40 6 74 45 74 42 0 51-32 51-76 0-42-9-74-50-73" id="aj"/><path d="M84 4C-5 8 30-112 23-190h32v120c0 31 7 50 39 49 72-2 45-101 50-169h31l1 190h-30c-1-10 1-25-2-33-11 22-28 36-60 37" id="ak"/><path d="M115-194c55 1 70 41 70 98S169 2 115 4C84 4 66-9 55-30l1 105H24l-1-265h31l2 30c10-21 28-34 59-34zm-8 174c40 0 45-34 45-75s-6-73-45-74c-42 0-51 32-51 76 0 43 10 73 51 73" id="al"/><path d="M108 0H70L1-190h34L89-25l56-165h34" id="am"/><path d="M68-38c1 34 0 65-14 84H32c9-13 17-26 17-46H33v-38h35" id="an"/><g id="i"><use transform="matrix(0.05,0,0,0.05,0,0)" xlink:href="#aa"/><use transform="matrix(0.05,0,0,0.05,9,0)" xlink:href="#s"/><use transform="matrix(0.05,0,0,0.05,19,0)" xlink:href="#X"/><use transform="matrix(0.05,0,0,0.05,29,0)" xlink:href="#aj"/><use transform="matrix(0.05,0,0,0.05,39,0)" xlink:href="#ag"/><use transform="matrix(0.05,0,0,0.05,51,0)" xlink:href="#r"/><use transform="matrix(0.05,0,0,0.05,65.95,0)" xlink:href="#ab"/><use transform="matrix(0.05,0,0,0.05,75.95,0)" xlink:href="#q"/><use transform="matrix(0.05,0,0,0.05,79.9,0)" xlink:href="#Z"/><use transform="matrix(0.05,0,0,0.05,83.85000000000001,0)" xlink:href="#ac"/><use transform="matrix(0.05,0,0,0.05,89.80000000000001,0)" xlink:href="#aa"/><use transform="matrix(0.05,0,0,0.05,98.80000000000001,0)" xlink:href="#ak"/><use transform="matrix(0.05,0,0,0.05,108.80000000000001,0)" xlink:href="#al"/><use transform="matrix(0.05,0,0,0.05,118.80000000000001,0)" xlink:href="#s"/><use transform="matrix(0.05,0,0,0.05,128.8,0)" xlink:href="#Y"/><use transform="matrix(0.05,0,0,0.05,134.75,0)" xlink:href="#am"/><use transform="matrix(0.05,0,0,0.05,143.75,0)" xlink:href="#q"/><use transform="matrix(0.05,0,0,0.05,147.7,0)" xlink:href="#aa"/><use transform="matrix(0.05,0,0,0.05,156.7,0)" xlink:href="#W"/><use transform="matrix(0.05,0,0,0.05,166.7,0)" xlink:href="#Y"/><use transform="matrix(0.05,0,0,0.05,171.64999999999998,0)" xlink:href="#an"/></g><path d="M109-170H84l-4-78h32zm-65 0H19l-4-78h33" id="ao"/><g id="j"><use transform="matrix(0.05,0,0,0.05,0,0)" xlink:href="#ao"/><use transform="matrix(0.05,0,0,0.05,6.3500000000000005,0)" xlink:href="#X"/><use transform="matrix(0.05,0,0,0.05,16.35,0)" xlink:href="#s"/><use transform="matrix(0.05,0,0,0.05,26.35,0)" xlink:href="#x"/></g><g id="k"><use transform="matrix(0.05,0,0,0.05,0,0)" xlink:href="#p"/><use transform="matrix(0.05,0,0,0.05,10.3,0)" xlink:href="#q"/><use transform="matrix(0.05,0,0,0.05,14.25,0)" xlink:href="#r"/><use transform="matrix(0.05,0,0,0.05,29.200000000000003,0)" xlink:href="#s"/></g><g id="l"><use transform="matrix(0.05,0,0,0.05,0,0)" xlink:href="#aa"/><use transform="matrix(0.05,0,0,0.05,9,0)" xlink:href="#u"/><use transform="matrix(0.05,0,0,0.05,19,0)" xlink:href="#s"/><use transform="matrix(0.05,0,0,0.05,29,0)" xlink:href="#s"/><use transform="matrix(0.05,0,0,0.05,39,0)" xlink:href="#v"/></g><g id="m"><use transform="matrix(0.05,0,0,0.05,0,0)" xlink:href="#aa"/><use transform="matrix(0.05,0,0,0.05,9,0)" xlink:href="#s"/><use transform="matrix(0.05,0,0,0.05,19,0)" xlink:href="#X"/><use transform="matrix(0.05,0,0,0.05,29,0)" xlink:href="#aj"/></g><g id="n"><use transform="matrix(0.05,0,0,0.05,0,0)" xlink:href="#q"/><use transform="matrix(0.05,0,0,0.05,3.95,0)" xlink:href="#X"/><use transform="matrix(0.05,0,0,0.05,13.949999999999998,0)" xlink:href="#ao"/><use transform="matrix(0.05,0,0,0.05,20.3,0)" xlink:href="#ai"/></g></defs></g></svg>