<svg xmlns="http://www.w3.org/2000/svg" xmlns:xlink="http://www.w3.org/1999/xlink" width="1037.6" height="1107.19"><g transform="translate(-29 0)"><path d="M252 25c0-2.76 2.24-5 5-5h150c2.76 0 5 2.24 5 5v110c0 2.76-2.24 5-5 5H257c-2.76 0-5-2.24-5-5z" stroke="#000" stroke-width="2" fill="#fff"/><use xlink:href="#a" transform="matrix(1,0,0,1,252,20) translate(5.65500000000001 63.15)"/><path d="M312 185c0-2.76 2.24-5 5-5h30c2.76 0 5 2.24 5 5v890c0 2.76-2.24 5-5 5h-30c-2.76 0-5-2.24-5-5z" stroke="#000" stroke-width="2" fill="#fff"/><path d="M332 140v40" fill="none"/><path d="M332 140v13.33m0 13.34V180M40 184.77h272.07" stroke="#000" stroke-width="2" fill="none"/><path d="M312.07 184.77l-14.26 4.64v-9.26z"/><path d="M312.38 183.82L312 185v.85l-15.2 4.93v-12.02zm-13.57 4.2l10.04-3.25-10.03-3.26z"/><use xlink:href="#b" transform="matrix(1,0,0,1,63.03704436525976,159.17321763133407) translate(0 14.4)"/><path d="M512 25c0-2.76 2.24-5 5-5h350c2.76 0 5 2.24 5 5v110c0 2.76-2.24 5-5 5H517c-2.76 0-5-2.24-5-5z" stroke="#000" stroke-width="2" fill="#fff"/><use xlink:href="#c" transform="matrix(1,0,0,1,512,20) translate(21.775000000000034 63.15)"/><path d="M672 225c0-2.76 2.24-5 5-5h30c2.76 0 5 2.24 5 5v790c0 2.76-2.24 5-5 5h-30c-2.76 0-5-2.24-5-5z" stroke="#000" stroke-width="2" fill="#fff"/><path d="M692 140v80" fill="none"/><path d="M692 140v8.9m0 8.88v17.78m0 8.88v17.78m0 8.9V220M352 228.67h320" stroke="#000" stroke-width="2" fill="none"/><path d="M672 228.67l-14.27 4.63v-9.27z"/><path d="M672 227.62v2.1l-15.27 4.96v-12.03zm-13.27 4.3l10.03-3.25-10.03-3.26z"/><use xlink:href="#b" transform="matrix(1,0,0,1,399,203.06666666666675) translate(0 14.4)"/><path d="M700 285c0-2.76 2.24-5 5-5h30c2.76 0 5 2.24 5 5v30c0 2.76-2.24 5-5 5h-30c-2.76 0-5-2.24-5-5z" stroke="#000" stroke-width="2" fill="#fff"/><path d="M712 238h73c2.76 0 5 2.24 5 5v33.23c0 2.76-2.24 5-5 5h-45.6" stroke="#000" stroke-width="2" fill="none"/><path d="M753.65 285.87l-14.26-4.64 14.25-4.63z"/><path d="M754.65 287.24l-15.88-5.16-.82-1.12-.5-.16 17.2-5.58zm-12.03-6l10.03 3.25v-6.53z"/><use xlink:href="#d" transform="matrix(1,0,0,1,798,235.12285094962874) translate(0 14.4)"/><path d="M741 311.33h35c2.76 0 5 2.24 5 5v39.34c0 2.76-2.24 5-5 5h-64" fill="none"/><path d="M741 311.33h10.56m10.55 0h17.8c.6 0 1.1.5 1.1 1.1v1.13m0 10.55v21.12m0 10.56v2.44c0 1.35-1.1 2.45-2.44 2.45h-13.78m-10.56 0h-21.1m-10.56 0H712" stroke="#000" stroke-width="2" fill="none"/><path d="M741 312.33h-1v-2h1zM729.72 351.35l-15.76 9.32 15.76 9.32-1 1.7-16.72-9.87v-2.33l16.7-9.87z"/><use xlink:href="#e" transform="matrix(1,0,0,1,789,339.7000000000001) translate(0 14.4)"/><path d="M700 427c0-2.76 2.24-5 5-5h30c2.76 0 5 2.24 5 5v30c0 2.76-2.24 5-5 5h-30c-2.76 0-5-2.24-5-5z" stroke="#000" stroke-width="2" fill="#fff"/><path d="M712 379.33h73c2.76 0 5 2.24 5 5v38c0 2.76-2.24 5-5 5h-44" stroke="#000" stroke-width="2" fill="none"/><path d="M755.27 431.97L741 427.33l14.27-4.63z"/><path d="M756.27 433.35l-16.27-5.3V427l-.06-.37 16.33-5.3zm-12.03-6.02l10.03 3.26v-6.53z"/><use xlink:href="#f" transform="matrix(1,0,0,1,797.9999999999999,378.03333333333336) translate(0 14.4)"/><path d="M741 453.33h35c2.76 0 5 2.24 5 5V497c0 2.76-2.24 5-5 5h-64" fill="none"/><path d="M741 453.33h10.5m10.52 0h17.96c.56 0 1.02.46 1.02 1.03v1.02m0 10.5v21.03m0 10.52v2.3c0 1.26-1.02 2.28-2.3 2.28h-14.14m-10.52 0h-21.02m-10.5 0H712" stroke="#000" stroke-width="2" fill="none"/><path d="M741 454.33h-1v-2h1zM729.72 492.68L713.97 502l15.75 9.32-1 1.72-16.72-9.88v-2.32l16.7-9.88z"/><use xlink:href="#e" transform="matrix(1,0,0,1,789,481.36666666666673) translate(0 14.4)"/><path d="M700 727c0-2.76 2.24-5 5-5h30c2.76 0 5 2.24 5 5v30c0 2.76-2.24 5-5 5h-30c-2.76 0-5-2.24-5-5z" stroke="#000" stroke-width="2" fill="#fff"/><path d="M712 679.33h73c2.76 0 5 2.24 5 5V731c0 2.76-2.24 5-5 5h-45" stroke="#000" stroke-width="2" fill="none"/><path d="M754.27 740.64L740 736l14.27-4.64z"/><path d="M755.27 742L740 737.06v-2.1l15.27-4.96zm-12.03-6l10.03 3.26v-6.52z"/><use xlink:href="#g" transform="matrix(1,0,0,1,798,682.8666666666667) translate(0 14.4)"/><path d="M741 753.33h35c2.76 0 5 2.24 5 5v44c0 2.76-2.24 5-5 5h-64" fill="none"/><path d="M741 753.33h10.87m10.86 0h16.54c.95 0 1.73.78 1.73 1.74v1.73m0 10.87v21.73m0 10.87v3.53c0 1.95-1.58 3.53-3.53 3.53h-11.14m-10.86 0h-21.74m-10.86 0H712" stroke="#000" stroke-width="2" fill="none"/><path d="M741 754.33h-1v-2h1zM729.72 798l-15.76 9.33 15.76 9.32-1 1.72L712 808.5v-2.33l16.7-9.88z"/><use xlink:href="#e" transform="matrix(1,0,0,1,789,784.0333333333334) translate(0 14.4)"/><path d="M700 887c0-2.76 2.24-5 5-5h30c2.76 0 5 2.24 5 5v30c0 2.76-2.24 5-5 5h-30c-2.76 0-5-2.24-5-5z" stroke="#000" stroke-width="2" fill="#fff"/><path d="M712 830h73c2.76 0 5 2.24 5 5v56c0 2.76-2.24 5-5 5h-45" stroke="#000" stroke-width="2" fill="none"/><path d="M754.27 900.64L740 896l14.27-4.64z"/><path d="M755.27 902L740 897.06v-2.1l15.27-4.96zm-12.03-6l10.03 3.26v-6.52z"/><use xlink:href="#h" transform="matrix(1,0,0,1,798.0000000000001,838.2000000000002) translate(0 14.4)"/><path d="M741 913.33h35c2.76 0 5 2.24 5 5v45.34c0 2.76-2.24 5-5 5h-63" fill="none"/><path d="M741 913.33h10.9m10.88 0h16.44c.98 0 1.78.8 1.78 1.78v1.8m0 10.88v21.78m0 10.88v4.12c0 2.27-1.84 4.1-4.1 4.1h-9.46m-10.88 0h-21.78m-10.9 0H713" stroke="#000" stroke-width="2" fill="none"/><path d="M741 914.33h-1v-2h1zM730.72 959.35l-15.76 9.32 15.76 9.32-1 1.7L712 969.25v-1.14l17.7-10.47z"/><use xlink:href="#e" transform="matrix(1,0,0,1,789,944.2000000000002) translate(0 14.4)"/><path d="M700 567c0-2.76 2.24-5 5-5h30c2.76 0 5 2.24 5 5v30c0 2.76-2.24 5-5 5h-30c-2.76 0-5-2.24-5-5z" stroke="#000" stroke-width="2" fill="#fff"/><path d="M712 519.33h73c2.76 0 5 2.24 5 5V571c0 2.76-2.24 5-5 5h-45" stroke="#000" stroke-width="2" fill="none"/><path d="M754.27 580.64L740 576l14.27-4.64z"/><path d="M755.27 582L740 577.06v-2.1l15.27-4.96zm-12.03-6l10.03 3.26v-6.52z"/><use xlink:href="#i" transform="matrix(1,0,0,1,798,522.8666666666667) translate(0 14.4)"/><path d="M741 593.33h35c2.76 0 5 2.24 5 5V637c0 2.76-2.24 5-5 5h-64" fill="none"/><path d="M741 593.33h10.5m10.52 0h17.96c.56 0 1.02.46 1.02 1.03v1.02m0 10.5v21.03m0 10.52v2.3c0 1.26-1.02 2.28-2.3 2.28h-14.14m-10.52 0h-21.02m-10.5 0H712" stroke="#000" stroke-width="2" fill="none"/><path d="M741 594.33h-1v-2h1zM729.72 632.68L713.96 642l15.76 9.32-1 1.72-16.72-9.88v-2.32l16.7-9.88z"/><use xlink:href="#e" transform="matrix(1,0,0,1,789,621.3666666666669) translate(0 14.4)"/><path d="M671 1014H353" fill="none"/><path d="M671 1014h-9.64m-9.63 0h-19.28m-9.63 0h-19.27m-9.64 0h-19.26m-9.64 0h-19.27m-9.64 0H516.8m-9.64 0H487.9m-9.63 0H459m-9.64 0H430.1m-9.65 0h-19.27m-9.63 0h-19.28m-9.63 0H353" stroke="#000" stroke-width="2" fill="none"/><path d="M672 1015h-1v-2h1zM370.72 1004.68l-15.76 9.32 15.76 9.32-1 1.72-17.72-10.47v-1.14l17.7-10.47z"/><use xlink:href="#e" transform="matrix(1,0,0,1,482.55,988.4000000000001) translate(0 14.4)"/><path d="M311.18 1076.2H100" fill="none"/><path d="M311.18 1076.2h-10.06m-10.05 0h-20.12m-10.05 0h-20.1m-10.07 0h-20.1m-10.07 0h-20.1m-10.07 0h-20.12m-10.06 0h-20.1m-10.06 0H100" stroke="#000" stroke-width="2" fill="none"/><path d="M312.25 1076.58l.45.6h-1.52v-2h.85z"/><path d="M117.2 1066l-17.2 10.2 17.2 10.17" stroke="#000" stroke-width="2" fill="none"/><use xlink:href="#j" transform="matrix(1,0,0,1,183.63920445795975,1050.5862552287053) translate(0 14.4)"/><defs><path d="M33-154v-36h34v36H33zM33 0v-36h34V0H33" id="k"/><path d="M233-177c-1 41-23 64-60 70L243 0h-38l-65-103H63V0H30v-248c88 3 205-21 203 71zM63-129c60-2 137 13 137-47 0-61-80-42-137-45v92" id="l"/><path d="M100-194c63 0 86 42 84 106H49c0 40 14 67 53 68 26 1 43-12 49-29l28 8c-11 28-37 45-77 45C44 4 14-33 15-96c1-61 26-98 85-98zm52 81c6-60-76-77-97-28-3 7-6 17-6 28h103" id="m"/><path d="M177-190C167-65 218 103 67 71c-23-6-38-20-44-43l32-5c15 47 100 32 89-28v-30C133-14 115 1 83 1 29 1 15-40 15-95c0-56 16-97 71-98 29-1 48 16 59 35 1-10 0-23 2-32h30zM94-22c36 0 50-32 50-73 0-42-14-75-50-75-39 0-46 34-46 75s6 73 46 73" id="n"/><path d="M84 4C-5 8 30-112 23-190h32v120c0 31 7 50 39 49 72-2 45-101 50-169h31l1 190h-30c-1-10 1-25-2-33-11 22-28 36-60 37" id="o"/><path d="M24 0v-261h32V0H24" id="p"/><path d="M141-36C126-15 110 5 73 4 37 3 15-17 15-53c-1-64 63-63 125-63 3-35-9-54-41-54-24 1-41 7-42 31l-33-3c5-37 33-52 76-52 45 0 72 20 72 64v82c-1 20 7 32 28 27v20c-31 9-61-2-59-35zM48-53c0 20 12 33 32 33 41-3 63-29 60-74-43 2-92-5-92 41" id="q"/><path d="M59-47c-2 24 18 29 38 22v24C64 9 27 4 27-40v-127H5v-23h24l9-43h21v43h35v23H59v120" id="r"/><path d="M24-231v-30h32v30H24zM24 0v-190h32V0H24" id="s"/><path d="M100-194c62-1 85 37 85 99 1 63-27 99-86 99S16-35 15-95c0-66 28-99 85-99zM99-20c44 1 53-31 53-75 0-43-8-75-51-75s-53 32-53 75 10 74 51 75" id="t"/><path d="M117-194c89-4 53 116 60 194h-32v-121c0-31-8-49-39-48C34-167 62-67 57 0H25l-1-190h30c1 10-1 24 2 32 11-22 29-35 61-36" id="u"/><path d="M212-179c-10-28-35-45-73-45-59 0-87 40-87 99 0 60 29 101 89 101 43 0 62-24 78-52l27 14C228-24 195 4 139 4 59 4 22-46 18-125c-6-104 99-153 187-111 19 9 31 26 39 46" id="v"/><path d="M114-163C36-179 61-72 57 0H25l-1-190h30c1 12-1 29 2 39 6-27 23-49 58-41v29" id="w"/><g id="a"><use transform="matrix(0.05,0,0,0.05,0,0)" xlink:href="#k"/><use transform="matrix(0.05,0,0,0.05,5,0)" xlink:href="#l"/><use transform="matrix(0.05,0,0,0.05,17.950000000000003,0)" xlink:href="#m"/><use transform="matrix(0.05,0,0,0.05,27.950000000000003,0)" xlink:href="#n"/><use transform="matrix(0.05,0,0,0.05,37.95,0)" xlink:href="#o"/><use transform="matrix(0.05,0,0,0.05,47.95,0)" xlink:href="#p"/><use transform="matrix(0.05,0,0,0.05,51.900000000000006,0)" xlink:href="#q"/><use transform="matrix(0.05,0,0,0.05,61.900000000000006,0)" xlink:href="#r"/><use transform="matrix(0.05,0,0,0.05,66.9,0)" xlink:href="#s"/><use transform="matrix(0.05,0,0,0.05,70.85000000000001,0)" xlink:href="#t"/><use transform="matrix(0.05,0,0,0.05,80.85000000000001,0)" xlink:href="#u"/><use transform="matrix(0.05,0,0,0.05,90.85000000000001,0)" xlink:href="#v"/><use transform="matrix(0.05,0,0,0.05,103.80000000000001,0)" xlink:href="#t"/><use transform="matrix(0.05,0,0,0.05,113.80000000000001,0)" xlink:href="#u"/><use transform="matrix(0.05,0,0,0.05,123.80000000000001,0)" xlink:href="#r"/><use transform="matrix(0.05,0,0,0.05,128.8,0)" xlink:href="#w"/><use transform="matrix(0.05,0,0,0.05,134.75,0)" xlink:href="#t"/><use transform="matrix(0.05,0,0,0.05,144.75,0)" xlink:href="#p"/><path d="M-.9 1.25h150.5v1.32H-.9z"/></g><path d="M96-169c-40 0-48 33-48 73s9 75 48 75c24 0 41-14 43-38l32 2c-6 37-31 61-74 61-59 0-76-41-82-99-10-93 101-131 147-64 4 7 5 14 7 22l-32 3c-4-21-16-35-41-35" id="x"/><path d="M106-169C34-169 62-67 57 0H25v-261h32l-1 103c12-21 28-36 61-36 89 0 53 116 60 194h-32v-121c2-32-8-49-39-48" id="y"/><path d="M143 0L79-87 56-68V0H24v-261h32v163l83-92h37l-77 82L181 0h-38" id="z"/><path d="M127-220V0H93v-220H8v-28h204v28h-85" id="A"/><path d="M210-169c-67 3-38 105-44 169h-31v-121c0-29-5-50-35-48C34-165 62-65 56 0H25l-1-190h30c1 10-1 24 2 32 10-44 99-50 107 0 11-21 27-35 58-36 85-2 47 119 55 194h-31v-121c0-29-5-49-35-48" id="B"/><path d="M185-189c-5-48-123-54-124 2 14 75 158 14 163 119 3 78-121 87-175 55-17-10-28-26-33-46l33-7c5 56 141 63 141-1 0-78-155-14-162-118-5-82 145-84 179-34 5 7 8 16 11 25" id="C"/><path d="M87 75C49 33 22-17 22-94c0-76 28-126 65-167h31c-38 41-64 92-64 168S80 34 118 75H87" id="D"/><path d="M33-261c38 41 65 92 65 168S71 34 33 75H2C39 34 66-17 66-93S39-220 2-261h31" id="E"/><g id="b"><use transform="matrix(0.05,0,0,0.05,0,0)" xlink:href="#x"/><use transform="matrix(0.05,0,0,0.05,9,0)" xlink:href="#y"/><use transform="matrix(0.05,0,0,0.05,19,0)" xlink:href="#m"/><use transform="matrix(0.05,0,0,0.05,29,0)" xlink:href="#x"/><use transform="matrix(0.05,0,0,0.05,38,0)" xlink:href="#z"/><use transform="matrix(0.05,0,0,0.05,47,0)" xlink:href="#A"/><use transform="matrix(0.05,0,0,0.05,57.300000000000004,0)" xlink:href="#s"/><use transform="matrix(0.05,0,0,0.05,61.25,0)" xlink:href="#B"/><use transform="matrix(0.05,0,0,0.05,76.2,0)" xlink:href="#m"/><use transform="matrix(0.05,0,0,0.05,86.2,0)" xlink:href="#C"/><use transform="matrix(0.05,0,0,0.05,98.2,0)" xlink:href="#y"/><use transform="matrix(0.05,0,0,0.05,108.2,0)" xlink:href="#m"/><use transform="matrix(0.05,0,0,0.05,118.2,0)" xlink:href="#m"/><use transform="matrix(0.05,0,0,0.05,128.2,0)" xlink:href="#r"/><use transform="matrix(0.05,0,0,0.05,133.2,0)" xlink:href="#D"/><use transform="matrix(0.05,0,0,0.05,139.14999999999998,0)" xlink:href="#r"/><use transform="matrix(0.05,0,0,0.05,144.14999999999998,0)" xlink:href="#s"/><use transform="matrix(0.05,0,0,0.05,148.09999999999997,0)" xlink:href="#B"/><use transform="matrix(0.05,0,0,0.05,163.04999999999995,0)" xlink:href="#m"/><use transform="matrix(0.05,0,0,0.05,173.04999999999995,0)" xlink:href="#C"/><use transform="matrix(0.05,0,0,0.05,185.04999999999995,0)" xlink:href="#y"/><use transform="matrix(0.05,0,0,0.05,195.04999999999995,0)" xlink:href="#m"/><use transform="matrix(0.05,0,0,0.05,205.04999999999995,0)" xlink:href="#m"/><use transform="matrix(0.05,0,0,0.05,215.04999999999995,0)" xlink:href="#r"/><use transform="matrix(0.05,0,0,0.05,220.04999999999995,0)" xlink:href="#E"/></g><path d="M135-143c-3-34-86-38-87 0 15 53 115 12 119 90S17 21 10-45l28-5c4 36 97 45 98 0-10-56-113-15-118-90-4-57 82-63 122-42 12 7 21 19 24 35" id="F"/><path d="M143 4C61 4 22-44 18-125c-5-107 100-154 193-111 17 8 29 25 37 43l-32 9c-13-25-37-40-76-40-61 0-88 39-88 99 0 61 29 100 91 101 35 0 62-11 79-27v-45h-74v-28h105v86C228-13 192 4 143 4" id="G"/><path d="M30 0v-248h33v221h125V0H30" id="H"/><path d="M206 0h-36l-40-164L89 0H53L-1-190h32L70-26l43-164h34l41 164 42-164h31" id="I"/><g id="c"><use transform="matrix(0.05,0,0,0.05,0,0)" xlink:href="#p"/><use transform="matrix(0.05,0,0,0.05,3.95,0)" xlink:href="#t"/><use transform="matrix(0.05,0,0,0.05,13.949999999999998,0)" xlink:href="#x"/><use transform="matrix(0.05,0,0,0.05,22.95,0)" xlink:href="#q"/><use transform="matrix(0.05,0,0,0.05,32.95,0)" xlink:href="#p"/><use transform="matrix(0.05,0,0,0.05,36.900000000000006,0)" xlink:href="#l"/><use transform="matrix(0.05,0,0,0.05,49.85000000000001,0)" xlink:href="#m"/><use transform="matrix(0.05,0,0,0.05,59.85,0)" xlink:href="#n"/><use transform="matrix(0.05,0,0,0.05,69.85000000000001,0)" xlink:href="#o"/><use transform="matrix(0.05,0,0,0.05,79.85000000000001,0)" xlink:href="#p"/><use transform="matrix(0.05,0,0,0.05,83.80000000000001,0)" xlink:href="#q"/><use transform="matrix(0.05,0,0,0.05,93.80000000000001,0)" xlink:href="#r"/><use transform="matrix(0.05,0,0,0.05,98.80000000000001,0)" xlink:href="#s"/><use transform="matrix(0.05,0,0,0.05,102.75,0)" xlink:href="#t"/><use transform="matrix(0.05,0,0,0.05,112.75,0)" xlink:href="#u"/><use transform="matrix(0.05,0,0,0.05,122.75,0)" xlink:href="#F"/><use transform="matrix(0.05,0,0,0.05,131.75,0)" xlink:href="#k"/><use transform="matrix(0.05,0,0,0.05,136.75,0)" xlink:href="#G"/><use transform="matrix(0.05,0,0,0.05,150.75,0)" xlink:href="#m"/><use transform="matrix(0.05,0,0,0.05,160.75,0)" xlink:href="#w"/><use transform="matrix(0.05,0,0,0.05,166.7,0)" xlink:href="#B"/><use transform="matrix(0.05,0,0,0.05,181.64999999999998,0)" xlink:href="#q"/><use transform="matrix(0.05,0,0,0.05,191.64999999999998,0)" xlink:href="#u"/><use transform="matrix(0.05,0,0,0.05,201.64999999999998,0)" xlink:href="#H"/><use transform="matrix(0.05,0,0,0.05,211.64999999999998,0)" xlink:href="#q"/><use transform="matrix(0.05,0,0,0.05,221.64999999999998,0)" xlink:href="#I"/><use transform="matrix(0.05,0,0,0.05,234.59999999999997,0)" xlink:href="#l"/><use transform="matrix(0.05,0,0,0.05,247.54999999999995,0)" xlink:href="#m"/><use transform="matrix(0.05,0,0,0.05,257.54999999999995,0)" xlink:href="#n"/><use transform="matrix(0.05,0,0,0.05,267.54999999999995,0)" xlink:href="#o"/><use transform="matrix(0.05,0,0,0.05,277.54999999999995,0)" xlink:href="#p"/><use transform="matrix(0.05,0,0,0.05,281.49999999999994,0)" xlink:href="#q"/><use transform="matrix(0.05,0,0,0.05,291.49999999999994,0)" xlink:href="#r"/><use transform="matrix(0.05,0,0,0.05,296.49999999999994,0)" xlink:href="#s"/><use transform="matrix(0.05,0,0,0.05,300.44999999999993,0)" xlink:href="#t"/><use transform="matrix(0.05,0,0,0.05,310.44999999999993,0)" xlink:href="#u"/><use transform="matrix(0.05,0,0,0.05,320.44999999999993,0)" xlink:href="#F"/><path d="M-.9 1.25h331.25v1.32H-.9z"/></g><path d="M240 0l2-218c-23 76-54 145-80 218h-23L58-218 59 0H30v-248h44l77 211c21-75 51-140 76-211h43V0h-30" id="J"/><path d="M141 0L90-78 38 0H4l68-98-65-92h35l48 74 47-74h35l-64 92 68 98h-35" id="K"/><path d="M205 0l-28-72H64L36 0H1l101-248h38L239 0h-34zm-38-99l-47-123c-12 45-31 82-46 123h93" id="L"/><path d="M115-194c53 0 69 39 70 98 0 66-23 100-70 100C84 3 66-7 56-30L54 0H23l1-261h32v101c10-23 28-34 59-34zm-8 174c40 0 45-34 45-75 0-40-5-75-45-74-42 0-51 32-51 76 0 43 10 73 51 73" id="M"/><path d="M9 0v-24l116-142H16v-24h144v24L44-24h123V0H9" id="N"/><g id="d"><use transform="matrix(0.05,0,0,0.05,0,0)" xlink:href="#x"/><use transform="matrix(0.05,0,0,0.05,9,0)" xlink:href="#y"/><use transform="matrix(0.05,0,0,0.05,19,0)" xlink:href="#m"/><use transform="matrix(0.05,0,0,0.05,29,0)" xlink:href="#x"/><use transform="matrix(0.05,0,0,0.05,38,0)" xlink:href="#z"/><use transform="matrix(0.05,0,0,0.05,47,0)" xlink:href="#J"/><use transform="matrix(0.05,0,0,0.05,61.95,0)" xlink:href="#q"/><use transform="matrix(0.05,0,0,0.05,71.95,0)" xlink:href="#K"/><use transform="matrix(0.05,0,0,0.05,80.95,0)" xlink:href="#L"/><use transform="matrix(0.05,0,0,0.05,92.95,0)" xlink:href="#w"/><use transform="matrix(0.05,0,0,0.05,98.9,0)" xlink:href="#M"/><use transform="matrix(0.05,0,0,0.05,108.9,0)" xlink:href="#m"/><use transform="matrix(0.05,0,0,0.05,118.9,0)" xlink:href="#s"/><use transform="matrix(0.05,0,0,0.05,122.85000000000001,0)" xlink:href="#r"/><use transform="matrix(0.05,0,0,0.05,127.85000000000001,0)" xlink:href="#F"/><use transform="matrix(0.05,0,0,0.05,136.85000000000002,0)" xlink:href="#N"/><use transform="matrix(0.05,0,0,0.05,145.85000000000002,0)" xlink:href="#m"/><use transform="matrix(0.05,0,0,0.05,155.85000000000002,0)" xlink:href="#s"/><use transform="matrix(0.05,0,0,0.05,159.8,0)" xlink:href="#r"/><use transform="matrix(0.05,0,0,0.05,164.8,0)" xlink:href="#D"/><use transform="matrix(0.05,0,0,0.05,170.75,0)" xlink:href="#r"/><use transform="matrix(0.05,0,0,0.05,175.75,0)" xlink:href="#s"/><use transform="matrix(0.05,0,0,0.05,179.7,0)" xlink:href="#B"/><use transform="matrix(0.05,0,0,0.05,194.64999999999998,0)" xlink:href="#m"/><use transform="matrix(0.05,0,0,0.05,204.64999999999998,0)" xlink:href="#C"/><use transform="matrix(0.05,0,0,0.05,216.64999999999998,0)" xlink:href="#y"/><use transform="matrix(0.05,0,0,0.05,226.64999999999998,0)" xlink:href="#m"/><use transform="matrix(0.05,0,0,0.05,236.64999999999998,0)" xlink:href="#m"/><use transform="matrix(0.05,0,0,0.05,246.64999999999998,0)" xlink:href="#r"/><use transform="matrix(0.05,0,0,0.05,251.64999999999998,0)" xlink:href="#E"/></g><g id="e"><use transform="matrix(0.05,0,0,0.05,0,0)" xlink:href="#w"/><use transform="matrix(0.05,0,0,0.05,5.95,0)" xlink:href="#m"/><use transform="matrix(0.05,0,0,0.05,15.949999999999998,0)" xlink:href="#F"/><use transform="matrix(0.05,0,0,0.05,24.95,0)" xlink:href="#o"/><use transform="matrix(0.05,0,0,0.05,34.95,0)" xlink:href="#p"/><use transform="matrix(0.05,0,0,0.05,38.900000000000006,0)" xlink:href="#r"/><use transform="matrix(0.05,0,0,0.05,43.900000000000006,0)" xlink:href="#q"/><use transform="matrix(0.05,0,0,0.05,53.900000000000006,0)" xlink:href="#r"/></g><path d="M30-248c87 1 191-15 191 75 0 78-77 80-158 76V0H30v-248zm33 125c57 0 124 11 124-50 0-59-68-47-124-48v98" id="O"/><g id="f"><use transform="matrix(0.05,0,0,0.05,0,0)" xlink:href="#x"/><use transform="matrix(0.05,0,0,0.05,9,0)" xlink:href="#y"/><use transform="matrix(0.05,0,0,0.05,19,0)" xlink:href="#m"/><use transform="matrix(0.05,0,0,0.05,29,0)" xlink:href="#x"/><use transform="matrix(0.05,0,0,0.05,38,0)" xlink:href="#z"/><use transform="matrix(0.05,0,0,0.05,47,0)" xlink:href="#O"/><use transform="matrix(0.05,0,0,0.05,59,0)" xlink:href="#q"/><use transform="matrix(0.05,0,0,0.05,69,0)" xlink:href="#o"/><use transform="matrix(0.05,0,0,0.05,79,0)" xlink:href="#F"/><use transform="matrix(0.05,0,0,0.05,88,0)" xlink:href="#m"/><use transform="matrix(0.05,0,0,0.05,98,0)" xlink:href="#u"/><use transform="matrix(0.05,0,0,0.05,108,0)" xlink:href="#N"/><use transform="matrix(0.05,0,0,0.05,117,0)" xlink:href="#m"/><use transform="matrix(0.05,0,0,0.05,127,0)" xlink:href="#s"/><use transform="matrix(0.05,0,0,0.05,130.95,0)" xlink:href="#r"/><use transform="matrix(0.05,0,0,0.05,135.95,0)" xlink:href="#D"/><use transform="matrix(0.05,0,0,0.05,141.89999999999998,0)" xlink:href="#r"/><use transform="matrix(0.05,0,0,0.05,146.89999999999998,0)" xlink:href="#s"/><use transform="matrix(0.05,0,0,0.05,150.84999999999997,0)" xlink:href="#B"/><use transform="matrix(0.05,0,0,0.05,165.79999999999995,0)" xlink:href="#m"/><use transform="matrix(0.05,0,0,0.05,175.79999999999995,0)" xlink:href="#C"/><use transform="matrix(0.05,0,0,0.05,187.79999999999995,0)" xlink:href="#y"/><use transform="matrix(0.05,0,0,0.05,197.79999999999995,0)" xlink:href="#m"/><use transform="matrix(0.05,0,0,0.05,207.79999999999995,0)" xlink:href="#m"/><use transform="matrix(0.05,0,0,0.05,217.79999999999995,0)" xlink:href="#r"/><use transform="matrix(0.05,0,0,0.05,222.79999999999995,0)" xlink:href="#E"/></g><path d="M190 0L58-211 59 0H30v-248h39L202-35l-2-213h31V0h-41" id="P"/><g id="g"><use transform="matrix(0.05,0,0,0.05,0,0)" xlink:href="#x"/><use transform="matrix(0.05,0,0,0.05,9,0)" xlink:href="#y"/><use transform="matrix(0.05,0,0,0.05,19,0)" xlink:href="#m"/><use transform="matrix(0.05,0,0,0.05,29,0)" xlink:href="#x"/><use transform="matrix(0.05,0,0,0.05,38,0)" xlink:href="#z"/><use transform="matrix(0.05,0,0,0.05,47,0)" xlink:href="#P"/><use transform="matrix(0.05,0,0,0.05,59.95,0)" xlink:href="#q"/><use transform="matrix(0.05,0,0,0.05,69.95,0)" xlink:href="#x"/><use transform="matrix(0.05,0,0,0.05,78.95,0)" xlink:href="#y"/><use transform="matrix(0.05,0,0,0.05,88.95,0)" xlink:href="#r"/><use transform="matrix(0.05,0,0,0.05,93.95,0)" xlink:href="#q"/><use transform="matrix(0.05,0,0,0.05,103.95,0)" xlink:href="#w"/><use transform="matrix(0.05,0,0,0.05,109.9,0)" xlink:href="#M"/><use transform="matrix(0.05,0,0,0.05,119.9,0)" xlink:href="#m"/><use transform="matrix(0.05,0,0,0.05,129.9,0)" xlink:href="#s"/><use transform="matrix(0.05,0,0,0.05,133.85,0)" xlink:href="#r"/><use transform="matrix(0.05,0,0,0.05,138.85,0)" xlink:href="#D"/><use transform="matrix(0.05,0,0,0.05,144.79999999999998,0)" xlink:href="#r"/><use transform="matrix(0.05,0,0,0.05,149.79999999999998,0)" xlink:href="#s"/><use transform="matrix(0.05,0,0,0.05,153.74999999999997,0)" xlink:href="#B"/><use transform="matrix(0.05,0,0,0.05,168.69999999999996,0)" xlink:href="#m"/><use transform="matrix(0.05,0,0,0.05,178.69999999999996,0)" xlink:href="#C"/><use transform="matrix(0.05,0,0,0.05,190.69999999999996,0)" xlink:href="#y"/><use transform="matrix(0.05,0,0,0.05,200.69999999999996,0)" xlink:href="#m"/><use transform="matrix(0.05,0,0,0.05,210.69999999999996,0)" xlink:href="#m"/><use transform="matrix(0.05,0,0,0.05,220.69999999999996,0)" xlink:href="#r"/><use transform="matrix(0.05,0,0,0.05,225.69999999999996,0)" xlink:href="#E"/></g><path d="M63-220v92h138v28H63V0H30v-248h175v28H63" id="Q"/><g id="h"><use transform="matrix(0.05,0,0,0.05,0,0)" xlink:href="#x"/><use transform="matrix(0.05,0,0,0.05,9,0)" xlink:href="#y"/><use transform="matrix(0.05,0,0,0.05,19,0)" xlink:href="#m"/><use transform="matrix(0.05,0,0,0.05,29,0)" xlink:href="#x"/><use transform="matrix(0.05,0,0,0.05,38,0)" xlink:href="#z"/><use transform="matrix(0.05,0,0,0.05,47,0)" xlink:href="#Q"/><use transform="matrix(0.05,0,0,0.05,57.95,0)" xlink:href="#m"/><use transform="matrix(0.05,0,0,0.05,67.95,0)" xlink:href="#s"/><use transform="matrix(0.05,0,0,0.05,71.9,0)" xlink:href="#m"/><use transform="matrix(0.05,0,0,0.05,81.9,0)" xlink:href="#w"/><use transform="matrix(0.05,0,0,0.05,87.85000000000001,0)" xlink:href="#r"/><use transform="matrix(0.05,0,0,0.05,92.85000000000001,0)" xlink:href="#q"/><use transform="matrix(0.05,0,0,0.05,102.85000000000001,0)" xlink:href="#n"/><use transform="matrix(0.05,0,0,0.05,112.85000000000001,0)" xlink:href="#F"/><use transform="matrix(0.05,0,0,0.05,121.85000000000001,0)" xlink:href="#w"/><use transform="matrix(0.05,0,0,0.05,127.80000000000001,0)" xlink:href="#o"/><use transform="matrix(0.05,0,0,0.05,137.8,0)" xlink:href="#y"/><use transform="matrix(0.05,0,0,0.05,147.8,0)" xlink:href="#m"/><use transform="matrix(0.05,0,0,0.05,157.8,0)" xlink:href="#D"/><use transform="matrix(0.05,0,0,0.05,163.75,0)" xlink:href="#r"/><use transform="matrix(0.05,0,0,0.05,168.75,0)" xlink:href="#s"/><use transform="matrix(0.05,0,0,0.05,172.7,0)" xlink:href="#B"/><use transform="matrix(0.05,0,0,0.05,187.64999999999998,0)" xlink:href="#m"/><use transform="matrix(0.05,0,0,0.05,197.64999999999998,0)" xlink:href="#C"/><use transform="matrix(0.05,0,0,0.05,209.64999999999998,0)" xlink:href="#y"/><use transform="matrix(0.05,0,0,0.05,219.64999999999998,0)" xlink:href="#m"/><use transform="matrix(0.05,0,0,0.05,229.64999999999998,0)" xlink:href="#m"/><use transform="matrix(0.05,0,0,0.05,239.64999999999998,0)" xlink:href="#r"/><use transform="matrix(0.05,0,0,0.05,244.64999999999998,0)" xlink:href="#E"/></g><g id="i"><use transform="matrix(0.05,0,0,0.05,0,0)" xlink:href="#x"/><use transform="matrix(0.05,0,0,0.05,9,0)" xlink:href="#y"/><use transform="matrix(0.05,0,0,0.05,19,0)" xlink:href="#m"/><use transform="matrix(0.05,0,0,0.05,29,0)" xlink:href="#x"/><use transform="matrix(0.05,0,0,0.05,38,0)" xlink:href="#z"/><use transform="matrix(0.05,0,0,0.05,47,0)" xlink:href="#l"/><use transform="matrix(0.05,0,0,0.05,59.95,0)" xlink:href="#o"/><use transform="matrix(0.05,0,0,0.05,69.95,0)" xlink:href="#y"/><use transform="matrix(0.05,0,0,0.05,79.95,0)" xlink:href="#m"/><use transform="matrix(0.05,0,0,0.05,89.95,0)" xlink:href="#N"/><use transform="matrix(0.05,0,0,0.05,98.95,0)" xlink:href="#m"/><use transform="matrix(0.05,0,0,0.05,108.95,0)" xlink:href="#s"/><use transform="matrix(0.05,0,0,0.05,112.9,0)" xlink:href="#r"/><use transform="matrix(0.05,0,0,0.05,117.9,0)" xlink:href="#D"/><use transform="matrix(0.05,0,0,0.05,123.85000000000001,0)" xlink:href="#r"/><use transform="matrix(0.05,0,0,0.05,128.85000000000002,0)" xlink:href="#s"/><use transform="matrix(0.05,0,0,0.05,132.8,0)" xlink:href="#B"/><use transform="matrix(0.05,0,0,0.05,147.75,0)" xlink:href="#m"/><use transform="matrix(0.05,0,0,0.05,157.75,0)" xlink:href="#C"/><use transform="matrix(0.05,0,0,0.05,169.75,0)" xlink:href="#y"/><use transform="matrix(0.05,0,0,0.05,179.75,0)" xlink:href="#m"/><use transform="matrix(0.05,0,0,0.05,189.75,0)" xlink:href="#m"/><use transform="matrix(0.05,0,0,0.05,199.75,0)" xlink:href="#r"/><use transform="matrix(0.05,0,0,0.05,204.75,0)" xlink:href="#E"/></g><g id="j"><use transform="matrix(0.05,0,0,0.05,0,0)" xlink:href="#w"/><use transform="matrix(0.05,0,0,0.05,5.95,0)" xlink:href="#m"/><use transform="matrix(0.05,0,0,0.05,15.949999999999998,0)" xlink:href="#F"/><use transform="matrix(0.05,0,0,0.05,24.95,0)" xlink:href="#o"/><use transform="matrix(0.05,0,0,0.05,34.95,0)" xlink:href="#p"/><use transform="matrix(0.05,0,0,0.05,38.900000000000006,0)" xlink:href="#r"/></g></defs></g></svg>