<svg xmlns="http://www.w3.org/2000/svg" xmlns:xlink="http://www.w3.org/1999/xlink" width="1870.4" height="1323.2"><g transform="translate(0 0)"><path d="M99.75 179.75c0 10.9-8.84 19.75-19.75 19.75-10.9 0-19.75-8.84-19.75-19.75C60.25 168.85 69.1 160 80 160c10.9 0 19.75 8.84 19.75 19.75z" stroke="#000" stroke-width="2" fill="#fff"/><path d="M40 165c0-2.76 2.24-5 5-5h70c2.76 0 5 2.24 5 5v148c0 2.76-2.24 5-5 5H45c-2.76 0-5-2.24-5-5z" fill="none"/><path d="M80 199.5v50.3c0 2.76 1.2 6.9 2.67 9.22L120 318m-40-63.2L40 318m0-98.75h80" stroke="#000" stroke-width="2" fill="none"/><use xlink:href="#a" transform="matrix(1,0,0,1,-40,318) translate(101.05 14.6)"/><path d="M240 37c0-2.76 2.24-5 5-5h150c2.76 0 5 2.24 5 5v110c0 2.76-2.24 5-5 5H245c-2.76 0-5-2.24-5-5z" stroke="#000" stroke-width="2" fill="#fff"/><use xlink:href="#b" transform="matrix(1,0,0,1,240,32) translate(21.75499999999999 63.15)"/><path d="M320 152v1128" fill="none"/><path d="M320 152v9.9m0 9.9v19.78m0 9.9v19.78m0 9.9v19.8m0 9.88v19.8m0 9.9v19.78m0 9.9V340m0 9.9v19.78m0 9.9v19.8m0 9.88v19.8m0 9.9v19.78m0 9.9v19.78m0 9.9v19.8m0 9.88v19.8m0 9.88v19.8m0 9.9v19.78m0 9.9v19.78m0 9.9v19.8m0 9.88v19.8m0 9.9v19.77m0 9.9v19.78m0 9.9v19.78m0 9.9v19.8m0 9.88v19.8m0 9.9v19.78m0 9.9V904m0 9.9v19.78m0 9.9v19.8m0 9.88v19.8m0 9.9v19.78m0 9.9v19.78m0 9.9v19.8m0 9.88v19.8m0 9.88v19.8m0 9.9v19.78m0 9.9v19.78m0 9.9v19.8m0 9.88v19.8m0 9.9v9.88" stroke="#000" stroke-width="2" fill="none"/><path d="M300 245c0-2.76 2.24-5 5-5h30c2.76 0 5 2.24 5 5v1010c0 2.76-2.24 5-5 5h-30c-2.76 0-5-2.24-5-5z" stroke="#000" stroke-width="2" fill="#fff"/><path d="M120 250h180" stroke="#000" stroke-width="2" fill="none"/><path d="M300 250l-14.27 4.64v-9.28z"/><path d="M300 248.95v2.1L284.73 256v-12zm-13.27 4.3l10.03-3.25-10.03-3.26z"/><use xlink:href="#c" transform="matrix(1,0,0,1,125.59841041653027,224.39999999999998) translate(0 14.4)"/><path d="M685.4 37c0-2.76 2.24-5 5-5h150c2.76 0 5 2.24 5 5v110c0 2.76-2.24 5-5 5h-150c-2.76 0-5-2.24-5-5z" stroke="#000" stroke-width="2" fill="#fff"/><use xlink:href="#d" transform="matrix(1,0,0,1,685.3999999999999,32) translate(12.104999999999999 63.15)"/><path d="M765.4 152v1128" fill="none"/><path d="M765.4 152v9.9m0 9.9v19.78m0 9.9v19.78m0 9.9v19.8m0 9.88v19.8m0 9.9v19.78m0 9.9V340m0 9.9v19.78m0 9.9v19.8m0 9.88v19.8m0 9.9v19.78m0 9.9v19.78m0 9.9v19.8m0 9.88v19.8m0 9.88v19.8m0 9.9v19.78m0 9.9v19.78m0 9.9v19.8m0 9.88v19.8m0 9.9v19.77m0 9.9v19.78m0 9.9v19.78m0 9.9v19.8m0 9.88v19.8m0 9.9v19.78m0 9.9V904m0 9.9v19.78m0 9.9v19.8m0 9.88v19.8m0 9.9v19.78m0 9.9v19.78m0 9.9v19.8m0 9.88v19.8m0 9.88v19.8m0 9.9v19.78m0 9.9v19.78m0 9.9v19.8m0 9.88v19.8m0 9.9v9.88" stroke="#000" stroke-width="2" fill="none"/><path d="M745.4 265c0-2.76 2.24-5 5-5h30c2.76 0 5 2.24 5 5v950c0 2.76-2.24 5-5 5h-30c-2.76 0-5-2.24-5-5z" stroke="#000" stroke-width="2" fill="#fff"/><path d="M341 262.95h405.07" stroke="#000" stroke-width="2" fill="none"/><path d="M341 263.95h-1v-2h1zM746.07 262.95l-14.27 4.63v-9.27z"/><path d="M746.42 262l-.06.05-.67 2.07-14.9 4.84v-12.02zm-13.62 4.2l10.03-3.25-10.03-3.26z"/><use xlink:href="#e" transform="matrix(1,0,0,1,345.29093330723344,237.3470527879368) translate(0 14.4)"/><use xlink:href="#f" transform="matrix(1,0,0,1,345.29093330723344,237.3470527879368) translate(206.79999999999998 14.4)"/><use xlink:href="#g" transform="matrix(1,0,0,1,345.29093330723344,237.3470527879368) translate(279.65 14.4)"/><path d="M945.4 37c0-2.76 2.24-5 5-5h150c2.76 0 5 2.24 5 5v110c0 2.76-2.24 5-5 5h-150c-2.76 0-5-2.24-5-5z" stroke="#000" stroke-width="2" fill="#fff"/><use xlink:href="#h" transform="matrix(1,0,0,1,945.3999999999999,32) translate(29.12999999999999 63.15)"/><path d="M1025.4 152v1128" fill="none"/><path d="M1025.4 152v9.9m0 9.9v19.78m0 9.9v19.78m0 9.9v19.8m0 9.88v19.8m0 9.9v19.78m0 9.9V340m0 9.9v19.78m0 9.9v19.8m0 9.88v19.8m0 9.9v19.78m0 9.9v19.78m0 9.9v19.8m0 9.88v19.8m0 9.88v19.8m0 9.9v19.78m0 9.9v19.78m0 9.9v19.8m0 9.88v19.8m0 9.9v19.77m0 9.9v19.78m0 9.9v19.78m0 9.9v19.8m0 9.88v19.8m0 9.9v19.78m0 9.9V904m0 9.9v19.78m0 9.9v19.8m0 9.88v19.8m0 9.9v19.78m0 9.9v19.78m0 9.9v19.8m0 9.88v19.8m0 9.88v19.8m0 9.9v19.78m0 9.9v19.78m0 9.9v19.8m0 9.88v19.8m0 9.9v9.88M786.4 301.43h218.7" stroke="#000" stroke-width="2" fill="none"/><path d="M786.4 302.43h-1v-2h1zM1005.1 301.43l-14.25 4.63v-9.27z"/><path d="M1007.28 301.08l-1.32.97-.05.17-16.05 5.22v-12.02zm-15.43 3.6l10.03-3.25-10.03-3.26z"/><use xlink:href="#i" transform="matrix(1,0,0,1,818.9071929999999,275.829707) translate(0 14.4)"/><path d="M1005 305c0-2.76 2.24-5 5-5h30c2.76 0 5 2.24 5 5v70c0 2.76-2.24 5-5 5h-30c-2.76 0-5-2.24-5-5z" stroke="#000" stroke-width="2" fill="#fff"/><path d="M1006 379.3H786.4" fill="none"/><path d="M1006 379.3h-10.46m-10.46 0h-20.92m-10.45 0h-20.9m-10.46 0h-20.92m-10.45 0h-20.92m-10.45 0h-20.92m-10.45 0H807.3m-10.44 0H786.4" stroke="#000" stroke-width="2" fill="none"/><path d="M1007.05 379.04l1.94.63v.62h-3v-2h.5zM804.12 369.97l-15.76 9.32 15.76 9.3-1 1.73-17.72-10.47v-1.14l17.7-10.48z"/><use xlink:href="#j" transform="matrix(1,0,0,1,845.7710123330944,353.6860768498917) translate(0 14.4)"/><path d="M786.4 701.43h234m0 0c0-2.76 2.24-5 5-5s5 2.24 5 5h112.97c.17 0 .3.14.3.3 0 .18.15.32.32.32h356.96" stroke="#000" stroke-width="2" fill="none"/><path d="M786.4 702.43h-1v-2h1zM1501.84 701.4l-.88.65-.47 1.44-16.24 9.6-1.02-1.73 15.76-9.32-15.76-9.32 1.02-1.72z"/><use xlink:href="#k" transform="matrix(1,0,0,1,842.234767381962,675.8297070000001) translate(0 14.4)"/><use xlink:href="#l" transform="matrix(1,0,0,1,842.234767381962,675.8297070000001) translate(188.75 14.4)"/><use xlink:href="#g" transform="matrix(1,0,0,1,842.234767381962,675.8297070000001) translate(307.5 14.4)"/><path d="M1440 545c0-2.76 2.24-5 5-5h150c2.76 0 5 2.24 5 5v110c0 2.76-2.24 5-5 5h-150c-2.76 0-5-2.24-5-5z" stroke="#000" stroke-width="2" fill="#fff"/><use xlink:href="#m" transform="matrix(1,0,0,1,1440,540) translate(41.029999999999994 63.15)"/><path d="M1205.4 37c0-2.76 2.24-5 5-5h150c2.76 0 5 2.24 5 5v110c0 2.76-2.24 5-5 5h-150c-2.76 0-5-2.24-5-5z" stroke="#000" stroke-width="2" fill="#fff"/><use xlink:href="#n" transform="matrix(1,0,0,1,1205.3999999999999,32) translate(39.07999999999999 63.15)"/><path d="M1285.4 152v545.05m0 0c-2.76 0-5 2.24-5 5s2.24 5 5 5V1280" fill="none"/><path d="M1285.4 152v10.1m0 10.1v20.17m0 10.1v20.18m0 10.1v20.18m0 10.1v20.2m0 10.08v20.2m0 10.1v20.18m0 10.1v20.18m0 10.1v20.18m0 10.1v20.18m0 10.1v20.18m0 10.1v20.18m0 10.1v20.18m0 10.1v20.18m0 10.1V586m0 10.1v20.18m0 10.1v20.18m0 10.1v20.18m0 10.1v10.1m0 0l-1.5.48c-.8.26-1.85 1.02-2.35 1.7l-.42.58c-.26.36-.53 1-.6 1.44-.07.43-.02 1.13.12 1.55l.24.76c.25.8 1 1.84 1.7 2.34l.57.42c.36.26 1 .53 1.44.6.45.07.8.5.8.93v9.25m0 10.05v20.1m0 10.06v20.1m0 10.06v20.1m0 10.06v20.1m0 10.05v20.1m0 10.06v20.1m0 10.05v20.1m0 10.06v20.1m0 10.05v20.1m0 10.05v20.1m0 10.05v20.1m0 10.06v20.1m0 10.06v20.1m0 10.05v20.1m0 10.06v20.1m0 10.05v20.1m0 10.06v20.1m0 10.05v20.1m0 10.05V1280M786.4 463.33H1025c.06 0 .1.06.1.12s-.04.12-.1.12h-4.6m0 0c0-2.76 2.24-5 5-5s5 2.24 5 5h234.02" stroke="#000" stroke-width="2" fill="none"/><path d="M786.4 464.33h-1v-2h1zM1264.42 463.57l-14.27 4.63v-9.27z"/><path d="M1265.68 462.93l-.47 1.43-16.05 5.22v-12.02zm-14.53 3.9l10.03-3.26-10.03-3.26z"/><use xlink:href="#o" transform="matrix(1,0,0,1,836.700760628276,437.73333333333335) translate(0 14.4)"/><path d="M1265 465c0-2.76 2.24-5 5-5h30c2.76 0 5 2.24 5 5v70c0 2.76-2.24 5-5 5h-30c-2.76 0-5-2.24-5-5z" stroke="#000" stroke-width="2" fill="#fff"/><path d="M1264.17 536.15H1030.4m0 0c0-2.76-2.24-5-5-5s-5 2.24-5 5l2.44-.4c1.35-.23 1.34-.42-.03-.42H786.4" fill="none"/><path d="M1264.17 536.15h-9.74m-9.74 0h-19.5m-9.73 0H1196m-9.75 0h-19.48m-9.74 0h-19.48m-9.74 0h-19.48m-9.74 0h-19.48m-9.74 0h-19.48m-9.74 0h-9.74m0 0l-.5-1.5c-.25-.8-1-1.85-1.7-2.35l-.57-.42c-.36-.26-1-.53-1.44-.6-.45-.07-1.14-.02-1.56.12l-.75.25c-.8.26-1.85 1.02-2.35 1.7l-.42.58c-.26.35-.53 1-.6 1.43-.07.44.22.73.66.66l1.64-.28c1.35-.22 1.34-.4-.03-.4h-2.72m-10.16 0H989.6m-10.16 0h-20.32m-10.16 0h-20.32m-10.16 0h-20.32m-10.16 0h-20.32m-10.16 0H837.2m-10.16 0h-20.32m-10.16 0H786.4" stroke="#000" stroke-width="2" fill="none"/><path d="M1265.25 536.58l.42.57h-1.5v-2h.85zM804.12 526l-15.76 9.33 15.76 9.32-1 1.72-17.72-10.47v-1.14l17.7-10.47z"/><use xlink:href="#p" transform="matrix(1,0,0,1,1069.4553824751565,510.5534766652683) translate(0 14.4)"/><path d="M1520 661v619" fill="none"/><path d="M1520 661v9.83m0 9.82v19.65m0 9.83v19.65m0 9.82v19.65m0 9.83v19.65m0 9.83v19.65m0 9.83v19.65m0 9.83v19.66m0 9.82v19.65m0 9.83v19.65m0 9.84v19.65m0 9.8v19.66m0 9.83v19.64m0 9.83v19.65m0 9.82v19.65m0 9.82v19.65m0 9.82v19.64m0 9.83v19.65m0 9.83v19.65m0 9.82v19.65m0 9.83v19.65m0 9.82v9.83" stroke="#000" stroke-width="2" fill="none"/><path d="M1521 661h-2v-1h2z"/><path d="M765.4 925c0-2.76 2.24-5 5-5h30c2.76 0 5 2.24 5 5v230c0 2.76-2.24 5-5 5h-30c-2.76 0-5-2.24-5-5z" stroke="#000" stroke-width="2" fill="#fff"/><path d="M785.4 879.35h55.7c2.76 0 5 2.24 5 5v34.07c0 2.76-2.24 5-5 5h-35.95" stroke="#000" stroke-width="2" fill="none"/><path d="M819.4 928.05l-14.25-4.63 14.26-4.64z"/><path d="M820.4 929.43l-15.08-4.9-.17-1.1-.63-.86 15.9-5.16zm-12.02-6l10.03 3.25v-6.52z"/><use xlink:href="#q" transform="matrix(1,0,0,1,854.0941559999997,880.7134247567343) translate(0 14.4)"/><path d="M1640 65c0-2.76 2.24-5 5-5h200c2.76 0 5 2.24 5 5v110c0 2.76-2.24 5-5 5h-200c-2.76 0-5-2.24-5-5z" stroke="#000" stroke-width="2" fill="#fff"/><use xlink:href="#r" transform="matrix(1,0,0,1,1640,60) translate(105.00500000000001 66.9)"/><path d="M1745 180v1100" fill="none"/><path d="M1745 180v9.9m0 9.92v19.82m0 9.9v19.83m0 9.9v19.83m0 9.9v19.83m0 9.9v19.83m0 9.9v19.83m0 9.9v19.82m0 9.9v19.83m0 9.9v19.83m0 9.9v19.83m0 9.92v19.82m0 9.9v19.83m0 9.9v19.83m0 9.9v19.83m0 9.9v19.83m0 9.9v19.83m0 9.9v19.82m0 9.9v19.83m0 9.9v19.82m0 9.9v19.83m0 9.9v19.83m0 9.9v19.83m0 9.9v19.83m0 9.9v19.82m0 9.9v19.83m0 9.9v19.83m0 9.9v19.83m0 9.92v19.82m0 9.9v19.83m0 9.9v19.83m0 9.9v19.83m0 9.9v19.83m0 9.9V1171m0 9.9v19.82m0 9.9v19.83m0 9.9v19.83m0 9.9v9.92M805.4 1001.14h215m0 0c0-2.76 2.24-5 5-5s5 2.24 5 5h250m0 0c0-2.76 2.24-5 5-5s5 2.24 5 5H1515m0 0c0-2.76 2.24-5 5-5s5 2.24 5 5h200.5" stroke="#000" stroke-width="2" fill="none"/><path d="M1725.5 1001.14l-14.26 4.64v-9.27z"/><path d="M1727.68 1000.8l-1.7 1.24-15.74 5.1v-12zm-15.44 3.6l10.03-3.26-10.03-3.26z"/><use xlink:href="#s" transform="matrix(1,0,0,1,1051.004653534091,975.5412186379926) translate(0 14.4)"/><path d="M1725 1005c0-2.76 2.24-5 5-5h30c2.76 0 5 2.24 5 5v70c0 2.76-2.24 5-5 5h-30c-2.76 0-5-2.24-5-5z" stroke="#000" stroke-width="2" fill="#fff"/><path d="M1726.43 1079.9v1.72c0 .95-.78 1.73-1.73 1.73H1525m0 0c0-2.76-2.24-5-5-5s-5 2.24-5 5h-224.6m0 0c0-2.76-2.24-5-5-5s-5 2.24-5 5h-250m0 0c0-2.76-2.24-5-5-5s-5 2.24-5 5h-215" fill="none"/><path d="M1726.43 1079.9v1.72c0 .95-.78 1.73-1.73 1.73h-4.57m-9.75 0h-19.52m-9.75 0h-19.5m-9.76 0h-19.52m-9.75 0h-19.52m-9.75 0h-19.52m-9.75 0h-19.52m-9.74 0H1525m0 0l-.5-1.5c-.25-.8-1-1.86-1.7-2.35l-.57-.43c-.36-.26-1-.52-1.44-.6-.45-.07-1.14 0-1.56.13l-.75.24c-.8.26-1.85 1.02-2.35 1.7l-.42.58c-.26.36-.53 1-.6 1.44-.07.43-.5.8-.93.8h-9.9m-10.7 0h-21.38m-10.7 0h-21.4m-10.68 0h-21.4m-10.7 0h-21.38m-10.7 0h-21.38m-10.7 0h-21.4m-10.68 0h-10.7m0 0l-.5-1.52c-.25-.8-1-1.85-1.7-2.34l-.57-.43c-.36-.26-1-.52-1.44-.6-.45-.07-1.14 0-1.56.13l-.75.24c-.8.26-1.85 1.02-2.35 1.7l-.42.58c-.26.36-.53 1-.6 1.44-.07.43-.5.8-.93.8h-9.62m-10.4 0h-20.85m-10.4 0h-20.85m-10.4 0h-20.85m-10.4 0h-20.85m-10.4 0h-20.85m-10.4 0h-20.85m-10.4 0h-20.85m-10.4 0h-10.43m0 0l-.5-1.52c-.25-.8-1-1.85-1.7-2.34l-.57-.43c-.36-.26-1-.52-1.44-.6-.45-.07-1.14 0-1.56.13l-.75.24c-.8.26-1.85 1.02-2.35 1.7l-.42.58c-.26.36-.53 1-.6 1.44-.07.43-.5.8-.93.8h-9.44m-10.24 0h-20.47m-10.24 0h-20.47m-10.23 0h-20.48m-10.24 0H887.3m-10.23 0H856.6m-10.25 0h-20.47m-10.24 0H805.4" stroke="#000" stroke-width="2" fill="none"/><path d="M1727.05 1079.04l2.5.8.04.14-2.88.86-.58-1.9.68-.22zM823.12 1074.03l-15.76 9.32 15.76 9.32-1 1.72-16.72-9.9v-2.3l16.7-9.9z"/><path d="M806.4 1155.16h35c2.76 0 5 2.24 5 5v35.5c0 2.77-2.24 5-5 5h-55" fill="none"/><path d="M806.4 1155.16h9.7m9.7 0h19.4m1.2 8.5v19.4m0 9.7v3.95c0 2.2-1.77 3.97-3.95 3.97h-7.55m-9.7 0h-19.4m-9.7 0h-9.7" stroke="#000" stroke-width="2" fill="none"/><path d="M806.4 1156.16h-1.38l.38-1.16v-.84h1zM804.12 1191.35l-15.76 9.32 15.76 9.32-1 1.7-17.72-10.46v-1.14l17.7-10.47z"/><path d="M744.7 1216.98H340" fill="none"/><path d="M744.7 1216.98h-10.37m-10.38 0H703.2m-10.38 0h-20.75m-10.38 0h-20.76m-10.38 0H609.8m-10.37 0h-20.76m-10.37 0h-20.76m-10.38 0H516.4m-10.37 0h-20.75m-10.38 0h-20.75m-10.38 0h-20.75m-10.38 0H391.9m-10.4 0h-20.75m-10.37 0H340" stroke="#000" stroke-width="2" fill="none"/><path d="M745.65 1216.58l1.02 1.4h-1.96v-2h.86zM357.72 1207.66l-15.75 9.32 15.75 9.32-1 1.72-16.72-9.88v-2.32l16.7-9.9z"/><path d="M299.3 1256.98H60" fill="none"/><path d="M299.3 1256.98h-9.97m-9.97 0h-19.94m-9.97 0H229.5m-9.96 0H199.6m-9.98 0h-19.94m-9.97 0h-19.93m-9.97 0h-19.94m-9.98 0H79.94m-9.97 0H60" stroke="#000" stroke-width="2" fill="none"/><path d="M300.25 1256.58l1.02 1.4h-1.96v-2h.86z"/><path d="M77.2 1246.8L60 1256.98l17.2 10.18" stroke="#000" stroke-width="2" fill="none"/><path d="M1625 37c0-2.76 2.24-5 5-5h195c2.76 0 5 2.24 5 5v110c0 2.76-2.24 5-5 5h-195c-2.76 0-5-2.24-5-5z" stroke="#000" stroke-width="2" fill="#fff"/><use xlink:href="#t" transform="matrix(1,0,0,1,1625,32) translate(18.68 63.15)"/><use xlink:href="#u" transform="matrix(1,0,0,1,1625,32) translate(181.32999999999998 63.15)"/><path d="M1500 705c0-2.76 2.24-5 5-5h30c2.76 0 5 2.24 5 5v70c0 2.76-2.24 5-5 5h-30c-2.76 0-5-2.24-5-5z" stroke="#000" stroke-width="2" fill="#fff"/><path d="M1499.3 776.98h-208.9m0 0c0-2.77-2.24-5-5-5s-5 2.23-5 5H1143c-.08 0-.15-.07-.15-.16 0-.08-.07-.15-.15-.15h-112.3m0 0c0-2.76-2.24-5-5-5s-5 2.24-5 5h-234" fill="none"/><path d="M1499.3 776.98h-9.94m-9.95 0h-19.9m-9.93 0h-19.9m-9.95 0h-19.9m-9.94 0h-19.9m-9.94 0h-19.9m-9.95 0h-19.9m-9.95 0h-9.95m0 0l-.5-1.5c-.25-.8-1-1.86-1.7-2.35l-.57-.43c-.36-.26-1-.53-1.44-.6-.45-.07-1.14 0-1.56.12l-.75.25c-.8.26-1.85 1.02-2.35 1.7l-.42.58c-.26.36-.53 1-.6 1.44-.07.42-.5.78-.93.78h-9.63m-10.43 0h-20.86m-10.43 0h-20.86m-10.44 0h-20.86m-10.43 0h-20.85m-10.12-.3h-20.86m-10.43 0h-20.85m-10.43 0h-20.86m-10.43 0h-10.43m0 0l-.5-1.52c-.25-.8-1-1.85-1.7-2.34l-.57-.43c-.36-.27-1-.54-1.44-.6-.45-.08-1.14-.02-1.56.12l-.75.24c-.8.26-1.85 1.02-2.35 1.7l-.42.58c-.26.36-.53 1-.6 1.44-.07.43-.5.8-.93.8h-8.95m-9.75 0h-19.5m-9.75 0h-19.5m-9.75 0h-19.5m-9.75 0h-19.5m-9.75 0h-19.5m-9.75 0h-19.5m-9.75 0h-19.5m-9.75 0h-9.75" stroke="#000" stroke-width="2" fill="none"/><path d="M1500.25 776.58l1.02 1.4h-1.96v-2h.86zM804.12 767.35l-15.76 9.32 15.76 9.32-1 1.7-17.72-10.46v-1.14l17.7-10.47z"/><g><use xlink:href="#v" transform="matrix(1,0,0,1,1106.388443761428,751.0681169689262) translate(0 14.4)"/></g><defs><path d="M232-93c-1 65-40 97-104 97C67 4 28-28 28-90v-158h33c8 89-33 224 67 224 102 0 64-133 71-224h33v155" id="w"/><path d="M135-143c-3-34-86-38-87 0 15 53 115 12 119 90S17 21 10-45l28-5c4 36 97 45 98 0-10-56-113-15-118-90-4-57 82-63 122-42 12 7 21 19 24 35" id="x"/><path d="M100-194c63 0 86 42 84 106H49c0 40 14 67 53 68 26 1 43-12 49-29l28 8c-11 28-37 45-77 45C44 4 14-33 15-96c1-61 26-98 85-98zm52 81c6-60-76-77-97-28-3 7-6 17-6 28h103" id="y"/><path d="M114-163C36-179 61-72 57 0H25l-1-190h30c1 12-1 29 2 39 6-27 23-49 58-41v29" id="z"/><g id="a"><use transform="matrix(0.05,0,0,0.05,0,0)" xlink:href="#w"/><use transform="matrix(0.05,0,0,0.05,12.950000000000001,0)" xlink:href="#x"/><use transform="matrix(0.05,0,0,0.05,21.950000000000003,0)" xlink:href="#y"/><use transform="matrix(0.05,0,0,0.05,31.950000000000003,0)" xlink:href="#z"/></g><path d="M33-154v-36h34v36H33zM33 0v-36h34V0H33" id="A"/><path d="M240 0l2-218c-23 76-54 145-80 218h-23L58-218 59 0H30v-248h44l77 211c21-75 51-140 76-211h43V0h-30" id="B"/><path d="M141-36C126-15 110 5 73 4 37 3 15-17 15-53c-1-64 63-63 125-63 3-35-9-54-41-54-24 1-41 7-42 31l-33-3c5-37 33-52 76-52 45 0 72 20 72 64v82c-1 20 7 32 28 27v20c-31 9-61-2-59-35zM48-53c0 20 12 33 32 33 41-3 63-29 60-74-43 2-92-5-92 41" id="C"/><path d="M177-190C167-65 218 103 67 71c-23-6-38-20-44-43l32-5c15 47 100 32 89-28v-30C133-14 115 1 83 1 29 1 15-40 15-95c0-56 16-97 71-98 29-1 48 16 59 35 1-10 0-23 2-32h30zM94-22c36 0 50-32 50-73 0-42-14-75-50-75-39 0-46 34-46 75s6 73 46 73" id="D"/><path d="M137 0h-34L2-248h35l83 218 83-218h36" id="E"/><path d="M24-231v-30h32v30H24zM24 0v-190h32V0H24" id="F"/><path d="M206 0h-36l-40-164L89 0H53L-1-190h32L70-26l43-164h34l41 164 42-164h31" id="G"/><g id="b"><use transform="matrix(0.05,0,0,0.05,0,0)" xlink:href="#A"/><use transform="matrix(0.05,0,0,0.05,5,0)" xlink:href="#B"/><use transform="matrix(0.05,0,0,0.05,19.950000000000003,0)" xlink:href="#y"/><use transform="matrix(0.05,0,0,0.05,29.950000000000003,0)" xlink:href="#x"/><use transform="matrix(0.05,0,0,0.05,38.95,0)" xlink:href="#x"/><use transform="matrix(0.05,0,0,0.05,47.95,0)" xlink:href="#C"/><use transform="matrix(0.05,0,0,0.05,57.95,0)" xlink:href="#D"/><use transform="matrix(0.05,0,0,0.05,67.95,0)" xlink:href="#y"/><use transform="matrix(0.05,0,0,0.05,77.95,0)" xlink:href="#E"/><use transform="matrix(0.05,0,0,0.05,89.60000000000001,0)" xlink:href="#F"/><use transform="matrix(0.05,0,0,0.05,93.55000000000001,0)" xlink:href="#y"/><use transform="matrix(0.05,0,0,0.05,103.55000000000001,0)" xlink:href="#G"/><path d="M-.9 1.25h118.3v1.32H-.9z"/></g><path d="M96-169c-40 0-48 33-48 73s9 75 48 75c24 0 41-14 43-38l32 2c-6 37-31 61-74 61-59 0-76-41-82-99-10-93 101-131 147-64 4 7 5 14 7 22l-32 3c-4-21-16-35-41-35" id="H"/><path d="M24 0v-261h32V0H24" id="I"/><path d="M143 0L79-87 56-68V0H24v-261h32v163l83-92h37l-77 82L181 0h-38" id="J"/><path d="M185-189c-5-48-123-54-124 2 14 75 158 14 163 119 3 78-121 87-175 55-17-10-28-26-33-46l33-7c5 56 141 63 141-1 0-78-155-14-162-118-5-82 145-84 179-34 5 7 8 16 11 25" id="K"/><path d="M117-194c89-4 53 116 60 194h-32v-121c0-31-8-49-39-48C34-167 62-67 57 0H25l-1-190h30c1 10-1 24 2 32 11-22 29-35 61-36" id="L"/><path d="M85-194c31 0 48 13 60 33l-1-100h32l1 261h-30c-2-10 0-23-3-31C134-8 116 4 85 4 32 4 16-35 15-94c0-66 23-100 70-100zm9 24c-40 0-46 34-46 75 0 40 6 74 45 74 42 0 51-32 51-76 0-42-9-74-50-73" id="M"/><path d="M87 75C49 33 22-17 22-94c0-76 28-126 65-167h31c-38 41-64 92-64 168S80 34 118 75H87" id="N"/><path d="M33-261c38 41 65 92 65 168S71 34 33 75H2C39 34 66-17 66-93S39-220 2-261h31" id="O"/><g id="c"><use transform="matrix(0.05,0,0,0.05,0,0)" xlink:href="#H"/><use transform="matrix(0.05,0,0,0.05,9,0)" xlink:href="#I"/><use transform="matrix(0.05,0,0,0.05,12.949999999999998,0)" xlink:href="#F"/><use transform="matrix(0.05,0,0,0.05,16.9,0)" xlink:href="#H"/><use transform="matrix(0.05,0,0,0.05,25.899999999999995,0)" xlink:href="#J"/><use transform="matrix(0.05,0,0,0.05,34.9,0)" xlink:href="#K"/><use transform="matrix(0.05,0,0,0.05,46.9,0)" xlink:href="#y"/><use transform="matrix(0.05,0,0,0.05,56.900000000000006,0)" xlink:href="#L"/><use transform="matrix(0.05,0,0,0.05,66.9,0)" xlink:href="#M"/><use transform="matrix(0.05,0,0,0.05,76.9,0)" xlink:href="#B"/><use transform="matrix(0.05,0,0,0.05,91.85000000000001,0)" xlink:href="#y"/><use transform="matrix(0.05,0,0,0.05,101.85000000000001,0)" xlink:href="#x"/><use transform="matrix(0.05,0,0,0.05,110.85000000000001,0)" xlink:href="#x"/><use transform="matrix(0.05,0,0,0.05,119.85000000000001,0)" xlink:href="#C"/><use transform="matrix(0.05,0,0,0.05,129.85000000000002,0)" xlink:href="#D"/><use transform="matrix(0.05,0,0,0.05,139.85000000000002,0)" xlink:href="#y"/><use transform="matrix(0.05,0,0,0.05,149.85000000000002,0)" xlink:href="#N"/><use transform="matrix(0.05,0,0,0.05,155.8,0)" xlink:href="#O"/></g><path d="M212-179c-10-28-35-45-73-45-59 0-87 40-87 99 0 60 29 101 89 101 43 0 62-24 78-52l27 14C228-24 195 4 139 4 59 4 22-46 18-125c-6-104 99-153 187-111 19 9 31 26 39 46" id="P"/><path d="M100-194c62-1 85 37 85 99 1 63-27 99-86 99S16-35 15-95c0-66 28-99 85-99zM99-20c44 1 53-31 53-75 0-43-8-75-51-75s-53 32-53 75 10 74 51 75" id="Q"/><path d="M59-47c-2 24 18 29 38 22v24C64 9 27 4 27-40v-127H5v-23h24l9-43h21v43h35v23H59v120" id="R"/><g id="d"><use transform="matrix(0.05,0,0,0.05,0,0)" xlink:href="#A"/><use transform="matrix(0.05,0,0,0.05,5,0)" xlink:href="#B"/><use transform="matrix(0.05,0,0,0.05,19.950000000000003,0)" xlink:href="#y"/><use transform="matrix(0.05,0,0,0.05,29.950000000000003,0)" xlink:href="#x"/><use transform="matrix(0.05,0,0,0.05,38.95,0)" xlink:href="#x"/><use transform="matrix(0.05,0,0,0.05,47.95,0)" xlink:href="#C"/><use transform="matrix(0.05,0,0,0.05,57.95,0)" xlink:href="#D"/><use transform="matrix(0.05,0,0,0.05,67.95,0)" xlink:href="#y"/><use transform="matrix(0.05,0,0,0.05,77.95,0)" xlink:href="#P"/><use transform="matrix(0.05,0,0,0.05,90.9,0)" xlink:href="#Q"/><use transform="matrix(0.05,0,0,0.05,100.9,0)" xlink:href="#L"/><use transform="matrix(0.05,0,0,0.05,110.9,0)" xlink:href="#R"/><use transform="matrix(0.05,0,0,0.05,115.9,0)" xlink:href="#z"/><use transform="matrix(0.05,0,0,0.05,121.85000000000001,0)" xlink:href="#Q"/><use transform="matrix(0.05,0,0,0.05,131.85000000000002,0)" xlink:href="#I"/><path d="M-.9 1.25h137.6v1.32H-.9z"/></g><path d="M33 0v-248h34V0H33" id="S"/><path d="M30-248c118-7 216 8 213 122C240-48 200 0 122 0H30v-248zM63-27c89 8 146-16 146-99s-60-101-146-95v194" id="T"/><path d="M68-38c1 34 0 65-14 84H32c9-13 17-26 17-46H33v-38h35" id="U"/><g id="e"><use transform="matrix(0.05,0,0,0.05,0,0)" xlink:href="#x"/><use transform="matrix(0.05,0,0,0.05,9,0)" xlink:href="#y"/><use transform="matrix(0.05,0,0,0.05,19,0)" xlink:href="#L"/><use transform="matrix(0.05,0,0,0.05,29,0)" xlink:href="#M"/><use transform="matrix(0.05,0,0,0.05,39,0)" xlink:href="#B"/><use transform="matrix(0.05,0,0,0.05,53.95,0)" xlink:href="#y"/><use transform="matrix(0.05,0,0,0.05,63.95,0)" xlink:href="#x"/><use transform="matrix(0.05,0,0,0.05,72.95,0)" xlink:href="#x"/><use transform="matrix(0.05,0,0,0.05,81.95,0)" xlink:href="#C"/><use transform="matrix(0.05,0,0,0.05,91.95,0)" xlink:href="#D"/><use transform="matrix(0.05,0,0,0.05,101.95,0)" xlink:href="#y"/><use transform="matrix(0.05,0,0,0.05,111.95,0)" xlink:href="#N"/><use transform="matrix(0.05,0,0,0.05,117.9,0)" xlink:href="#x"/><use transform="matrix(0.05,0,0,0.05,126.9,0)" xlink:href="#y"/><use transform="matrix(0.05,0,0,0.05,136.9,0)" xlink:href="#x"/><use transform="matrix(0.05,0,0,0.05,145.9,0)" xlink:href="#x"/><use transform="matrix(0.05,0,0,0.05,154.9,0)" xlink:href="#F"/><use transform="matrix(0.05,0,0,0.05,158.85,0)" xlink:href="#Q"/><use transform="matrix(0.05,0,0,0.05,168.85,0)" xlink:href="#L"/><use transform="matrix(0.05,0,0,0.05,178.85,0)" xlink:href="#S"/><use transform="matrix(0.05,0,0,0.05,183.85,0)" xlink:href="#T"/><use transform="matrix(0.05,0,0,0.05,196.79999999999998,0)" xlink:href="#U"/></g><path d="M108 0H70L1-190h34L89-25l56-165h34" id="V"/><g id="f"><use transform="matrix(0.05,0,0,0.05,0,0)" xlink:href="#z"/><use transform="matrix(0.05,0,0,0.05,5.95,0)" xlink:href="#y"/><use transform="matrix(0.05,0,0,0.05,15.949999999999998,0)" xlink:href="#H"/><use transform="matrix(0.05,0,0,0.05,24.95,0)" xlink:href="#y"/><use transform="matrix(0.05,0,0,0.05,34.95,0)" xlink:href="#F"/><use transform="matrix(0.05,0,0,0.05,38.900000000000006,0)" xlink:href="#V"/><use transform="matrix(0.05,0,0,0.05,47.900000000000006,0)" xlink:href="#y"/><use transform="matrix(0.05,0,0,0.05,57.900000000000006,0)" xlink:href="#z"/><use transform="matrix(0.05,0,0,0.05,62.85,0)" xlink:href="#U"/></g><path d="M210-169c-67 3-38 105-44 169h-31v-121c0-29-5-50-35-48C34-165 62-65 56 0H25l-1-190h30c1 10-1 24 2 32 10-44 99-50 107 0 11-21 27-35 58-36 85-2 47 119 55 194h-31v-121c0-29-5-49-35-48" id="W"/><path d="M127-220V0H93v-220H8v-28h204v28h-85" id="X"/><path d="M141 0L90-78 38 0H4l68-98-65-92h35l48 74 47-74h35l-64 92 68 98h-35" id="Y"/><g id="g"><use transform="matrix(0.05,0,0,0.05,0,0)" xlink:href="#W"/><use transform="matrix(0.05,0,0,0.05,14.950000000000001,0)" xlink:href="#y"/><use transform="matrix(0.05,0,0,0.05,24.950000000000003,0)" xlink:href="#x"/><use transform="matrix(0.05,0,0,0.05,33.95,0)" xlink:href="#x"/><use transform="matrix(0.05,0,0,0.05,42.95,0)" xlink:href="#C"/><use transform="matrix(0.05,0,0,0.05,52.95,0)" xlink:href="#D"/><use transform="matrix(0.05,0,0,0.05,62.95,0)" xlink:href="#y"/><use transform="matrix(0.05,0,0,0.05,72.95,0)" xlink:href="#X"/><use transform="matrix(0.05,0,0,0.05,81.9,0)" xlink:href="#y"/><use transform="matrix(0.05,0,0,0.05,91.9,0)" xlink:href="#Y"/><use transform="matrix(0.05,0,0,0.05,100.9,0)" xlink:href="#R"/><use transform="matrix(0.05,0,0,0.05,105.9,0)" xlink:href="#O"/></g><g id="h"><use transform="matrix(0.05,0,0,0.05,0,0)" xlink:href="#A"/><use transform="matrix(0.05,0,0,0.05,5,0)" xlink:href="#B"/><use transform="matrix(0.05,0,0,0.05,19.950000000000003,0)" xlink:href="#C"/><use transform="matrix(0.05,0,0,0.05,29.950000000000003,0)" xlink:href="#F"/><use transform="matrix(0.05,0,0,0.05,33.900000000000006,0)" xlink:href="#L"/><use transform="matrix(0.05,0,0,0.05,43.900000000000006,0)" xlink:href="#P"/><use transform="matrix(0.05,0,0,0.05,56.85,0)" xlink:href="#Q"/><use transform="matrix(0.05,0,0,0.05,66.85000000000001,0)" xlink:href="#L"/><use transform="matrix(0.05,0,0,0.05,76.85000000000001,0)" xlink:href="#R"/><use transform="matrix(0.05,0,0,0.05,81.85000000000001,0)" xlink:href="#z"/><use transform="matrix(0.05,0,0,0.05,87.80000000000001,0)" xlink:href="#Q"/><use transform="matrix(0.05,0,0,0.05,97.80000000000001,0)" xlink:href="#I"/><path d="M-.9 1.25h103.55v1.32H-.9z"/></g><g id="i"><use transform="matrix(0.05,0,0,0.05,0,0)" xlink:href="#D"/><use transform="matrix(0.05,0,0,0.05,10,0)" xlink:href="#y"/><use transform="matrix(0.05,0,0,0.05,20,0)" xlink:href="#R"/><use transform="matrix(0.05,0,0,0.05,25,0)" xlink:href="#w"/><use transform="matrix(0.05,0,0,0.05,37.95,0)" xlink:href="#x"/><use transform="matrix(0.05,0,0,0.05,46.95,0)" xlink:href="#y"/><use transform="matrix(0.05,0,0,0.05,56.95,0)" xlink:href="#z"/><use transform="matrix(0.05,0,0,0.05,62.900000000000006,0)" xlink:href="#N"/><use transform="matrix(0.05,0,0,0.05,68.85000000000001,0)" xlink:href="#x"/><use transform="matrix(0.05,0,0,0.05,77.85000000000001,0)" xlink:href="#y"/><use transform="matrix(0.05,0,0,0.05,87.85000000000001,0)" xlink:href="#x"/><use transform="matrix(0.05,0,0,0.05,96.85000000000001,0)" xlink:href="#x"/><use transform="matrix(0.05,0,0,0.05,105.85000000000001,0)" xlink:href="#F"/><use transform="matrix(0.05,0,0,0.05,109.80000000000001,0)" xlink:href="#Q"/><use transform="matrix(0.05,0,0,0.05,119.80000000000001,0)" xlink:href="#L"/><use transform="matrix(0.05,0,0,0.05,129.8,0)" xlink:href="#S"/><use transform="matrix(0.05,0,0,0.05,134.8,0)" xlink:href="#T"/><use transform="matrix(0.05,0,0,0.05,147.75,0)" xlink:href="#O"/></g><g id="j"><use transform="matrix(0.05,0,0,0.05,0,0)" xlink:href="#x"/><use transform="matrix(0.05,0,0,0.05,9,0)" xlink:href="#y"/><use transform="matrix(0.05,0,0,0.05,19,0)" xlink:href="#L"/><use transform="matrix(0.05,0,0,0.05,29,0)" xlink:href="#M"/><use transform="matrix(0.05,0,0,0.05,39,0)" xlink:href="#F"/><use transform="matrix(0.05,0,0,0.05,42.95,0)" xlink:href="#L"/><use transform="matrix(0.05,0,0,0.05,52.95,0)" xlink:href="#D"/><use transform="matrix(0.05,0,0,0.05,62.95,0)" xlink:href="#w"/><use transform="matrix(0.05,0,0,0.05,75.9,0)" xlink:href="#x"/><use transform="matrix(0.05,0,0,0.05,84.9,0)" xlink:href="#y"/><use transform="matrix(0.05,0,0,0.05,94.9,0)" xlink:href="#z"/></g><g id="k"><use transform="matrix(0.05,0,0,0.05,0,0)" xlink:href="#B"/><use transform="matrix(0.05,0,0,0.05,14.950000000000001,0)" xlink:href="#y"/><use transform="matrix(0.05,0,0,0.05,24.950000000000003,0)" xlink:href="#x"/><use transform="matrix(0.05,0,0,0.05,33.95,0)" xlink:href="#x"/><use transform="matrix(0.05,0,0,0.05,42.95,0)" xlink:href="#C"/><use transform="matrix(0.05,0,0,0.05,52.95,0)" xlink:href="#D"/><use transform="matrix(0.05,0,0,0.05,62.95,0)" xlink:href="#y"/><use transform="matrix(0.05,0,0,0.05,72.95,0)" xlink:href="#N"/><use transform="matrix(0.05,0,0,0.05,78.9,0)" xlink:href="#x"/><use transform="matrix(0.05,0,0,0.05,87.9,0)" xlink:href="#y"/><use transform="matrix(0.05,0,0,0.05,97.9,0)" xlink:href="#L"/><use transform="matrix(0.05,0,0,0.05,107.9,0)" xlink:href="#M"/><use transform="matrix(0.05,0,0,0.05,117.9,0)" xlink:href="#F"/><use transform="matrix(0.05,0,0,0.05,121.85000000000001,0)" xlink:href="#L"/><use transform="matrix(0.05,0,0,0.05,131.85000000000002,0)" xlink:href="#D"/><use transform="matrix(0.05,0,0,0.05,141.85000000000002,0)" xlink:href="#w"/><use transform="matrix(0.05,0,0,0.05,154.8,0)" xlink:href="#x"/><use transform="matrix(0.05,0,0,0.05,163.8,0)" xlink:href="#y"/><use transform="matrix(0.05,0,0,0.05,173.8,0)" xlink:href="#z"/><use transform="matrix(0.05,0,0,0.05,178.75,0)" xlink:href="#U"/></g><g id="l"><use transform="matrix(0.05,0,0,0.05,0,0)" xlink:href="#z"/><use transform="matrix(0.05,0,0,0.05,5.95,0)" xlink:href="#y"/><use transform="matrix(0.05,0,0,0.05,15.949999999999998,0)" xlink:href="#H"/><use transform="matrix(0.05,0,0,0.05,24.95,0)" xlink:href="#y"/><use transform="matrix(0.05,0,0,0.05,34.95,0)" xlink:href="#F"/><use transform="matrix(0.05,0,0,0.05,38.900000000000006,0)" xlink:href="#V"/><use transform="matrix(0.05,0,0,0.05,47.900000000000006,0)" xlink:href="#F"/><use transform="matrix(0.05,0,0,0.05,51.85,0)" xlink:href="#L"/><use transform="matrix(0.05,0,0,0.05,61.85,0)" xlink:href="#D"/><use transform="matrix(0.05,0,0,0.05,71.85000000000001,0)" xlink:href="#w"/><use transform="matrix(0.05,0,0,0.05,84.80000000000001,0)" xlink:href="#x"/><use transform="matrix(0.05,0,0,0.05,93.80000000000001,0)" xlink:href="#y"/><use transform="matrix(0.05,0,0,0.05,103.80000000000001,0)" xlink:href="#z"/><use transform="matrix(0.05,0,0,0.05,108.75,0)" xlink:href="#U"/></g><g id="m"><use transform="matrix(0.05,0,0,0.05,0,0)" xlink:href="#A"/><use transform="matrix(0.05,0,0,0.05,5,0)" xlink:href="#B"/><use transform="matrix(0.05,0,0,0.05,19.950000000000003,0)" xlink:href="#y"/><use transform="matrix(0.05,0,0,0.05,29.950000000000003,0)" xlink:href="#x"/><use transform="matrix(0.05,0,0,0.05,38.95,0)" xlink:href="#x"/><use transform="matrix(0.05,0,0,0.05,47.95,0)" xlink:href="#C"/><use transform="matrix(0.05,0,0,0.05,57.95,0)" xlink:href="#D"/><use transform="matrix(0.05,0,0,0.05,67.95,0)" xlink:href="#y"/><path d="M-.9 1.25h79.75v1.32H-.9z"/></g><path d="M205 0l-28-72H64L36 0H1l101-248h38L239 0h-34zm-38-99l-47-123c-12 45-31 82-46 123h93" id="Z"/><path d="M140-251c81 0 123 46 123 126C263-46 219 4 140 4 59 4 17-45 17-125s42-126 123-126zm0 227c63 0 89-41 89-101s-29-99-89-99c-61 0-89 39-89 99S79-25 140-24" id="aa"/><g id="n"><use transform="matrix(0.05,0,0,0.05,0,0)" xlink:href="#A"/><use transform="matrix(0.05,0,0,0.05,5,0)" xlink:href="#w"/><use transform="matrix(0.05,0,0,0.05,17.950000000000003,0)" xlink:href="#x"/><use transform="matrix(0.05,0,0,0.05,26.950000000000003,0)" xlink:href="#y"/><use transform="matrix(0.05,0,0,0.05,36.95,0)" xlink:href="#z"/><use transform="matrix(0.05,0,0,0.05,42.900000000000006,0)" xlink:href="#T"/><use transform="matrix(0.05,0,0,0.05,55.85,0)" xlink:href="#Z"/><use transform="matrix(0.05,0,0,0.05,67.85000000000001,0)" xlink:href="#aa"/><path d="M-.9 1.25h83.65v1.32H-.9z"/></g><path d="M101-234c-31-9-42 10-38 44h38v23H63V0H32v-167H5v-23h27c-7-52 17-82 69-68v24" id="ab"/><g id="o"><use transform="matrix(0.05,0,0,0.05,0,0)" xlink:href="#ab"/><use transform="matrix(0.05,0,0,0.05,5,0)" xlink:href="#F"/><use transform="matrix(0.05,0,0,0.05,8.95,0)" xlink:href="#L"/><use transform="matrix(0.05,0,0,0.05,18.95,0)" xlink:href="#M"/><use transform="matrix(0.05,0,0,0.05,28.950000000000003,0)" xlink:href="#w"/><use transform="matrix(0.05,0,0,0.05,41.9,0)" xlink:href="#x"/><use transform="matrix(0.05,0,0,0.05,50.9,0)" xlink:href="#y"/><use transform="matrix(0.05,0,0,0.05,60.900000000000006,0)" xlink:href="#z"/><use transform="matrix(0.05,0,0,0.05,66.85,0)" xlink:href="#N"/><use transform="matrix(0.05,0,0,0.05,72.8,0)" xlink:href="#z"/><use transform="matrix(0.05,0,0,0.05,78.75,0)" xlink:href="#y"/><use transform="matrix(0.05,0,0,0.05,88.75,0)" xlink:href="#H"/><use transform="matrix(0.05,0,0,0.05,97.75,0)" xlink:href="#y"/><use transform="matrix(0.05,0,0,0.05,107.75,0)" xlink:href="#F"/><use transform="matrix(0.05,0,0,0.05,111.7,0)" xlink:href="#V"/><use transform="matrix(0.05,0,0,0.05,120.7,0)" xlink:href="#y"/><use transform="matrix(0.05,0,0,0.05,130.7,0)" xlink:href="#z"/><use transform="matrix(0.05,0,0,0.05,136.64999999999998,0)" xlink:href="#O"/></g><g id="p"><use transform="matrix(0.05,0,0,0.05,0,0)" xlink:href="#z"/><use transform="matrix(0.05,0,0,0.05,5.95,0)" xlink:href="#y"/><use transform="matrix(0.05,0,0,0.05,15.949999999999998,0)" xlink:href="#H"/><use transform="matrix(0.05,0,0,0.05,24.95,0)" xlink:href="#y"/><use transform="matrix(0.05,0,0,0.05,34.95,0)" xlink:href="#F"/><use transform="matrix(0.05,0,0,0.05,38.900000000000006,0)" xlink:href="#V"/><use transform="matrix(0.05,0,0,0.05,47.900000000000006,0)" xlink:href="#F"/><use transform="matrix(0.05,0,0,0.05,51.85,0)" xlink:href="#L"/><use transform="matrix(0.05,0,0,0.05,61.85,0)" xlink:href="#D"/><use transform="matrix(0.05,0,0,0.05,71.85000000000001,0)" xlink:href="#w"/><use transform="matrix(0.05,0,0,0.05,84.80000000000001,0)" xlink:href="#x"/><use transform="matrix(0.05,0,0,0.05,93.80000000000001,0)" xlink:href="#y"/><use transform="matrix(0.05,0,0,0.05,103.80000000000001,0)" xlink:href="#z"/></g><g id="q"><use transform="matrix(0.05,0,0,0.05,0,0)" xlink:href="#M"/><use transform="matrix(0.05,0,0,0.05,10,0)" xlink:href="#y"/><use transform="matrix(0.05,0,0,0.05,20,0)" xlink:href="#I"/><use transform="matrix(0.05,0,0,0.05,23.95,0)" xlink:href="#F"/><use transform="matrix(0.05,0,0,0.05,27.899999999999995,0)" xlink:href="#V"/><use transform="matrix(0.05,0,0,0.05,36.9,0)" xlink:href="#y"/><use transform="matrix(0.05,0,0,0.05,46.9,0)" xlink:href="#z"/><use transform="matrix(0.05,0,0,0.05,52.85,0)" xlink:href="#B"/><use transform="matrix(0.05,0,0,0.05,67.8,0)" xlink:href="#y"/><use transform="matrix(0.05,0,0,0.05,77.8,0)" xlink:href="#x"/><use transform="matrix(0.05,0,0,0.05,86.8,0)" xlink:href="#x"/><use transform="matrix(0.05,0,0,0.05,95.8,0)" xlink:href="#C"/><use transform="matrix(0.05,0,0,0.05,105.80000000000001,0)" xlink:href="#D"/><use transform="matrix(0.05,0,0,0.05,115.80000000000001,0)" xlink:href="#y"/><use transform="matrix(0.05,0,0,0.05,125.80000000000001,0)" xlink:href="#N"/><use transform="matrix(0.05,0,0,0.05,131.75,0)" xlink:href="#W"/><use transform="matrix(0.05,0,0,0.05,146.7,0)" xlink:href="#y"/><use transform="matrix(0.05,0,0,0.05,156.7,0)" xlink:href="#x"/><use transform="matrix(0.05,0,0,0.05,165.7,0)" xlink:href="#x"/><use transform="matrix(0.05,0,0,0.05,174.7,0)" xlink:href="#C"/><use transform="matrix(0.05,0,0,0.05,184.7,0)" xlink:href="#D"/><use transform="matrix(0.05,0,0,0.05,194.7,0)" xlink:href="#y"/><use transform="matrix(0.05,0,0,0.05,204.7,0)" xlink:href="#O"/></g><path d="M-.9 1.25H.9v1.32H-.9z" id="r"/><g id="s"><use transform="matrix(0.05,0,0,0.05,0,0)" xlink:href="#z"/><use transform="matrix(0.05,0,0,0.05,5.95,0)" xlink:href="#y"/><use transform="matrix(0.05,0,0,0.05,15.949999999999998,0)" xlink:href="#H"/><use transform="matrix(0.05,0,0,0.05,24.95,0)" xlink:href="#y"/><use transform="matrix(0.05,0,0,0.05,34.95,0)" xlink:href="#F"/><use transform="matrix(0.05,0,0,0.05,38.900000000000006,0)" xlink:href="#V"/><use transform="matrix(0.05,0,0,0.05,47.900000000000006,0)" xlink:href="#y"/><use transform="matrix(0.05,0,0,0.05,57.900000000000006,0)" xlink:href="#B"/><use transform="matrix(0.05,0,0,0.05,72.85000000000001,0)" xlink:href="#y"/><use transform="matrix(0.05,0,0,0.05,82.85000000000001,0)" xlink:href="#x"/><use transform="matrix(0.05,0,0,0.05,91.85000000000001,0)" xlink:href="#x"/><use transform="matrix(0.05,0,0,0.05,100.85000000000001,0)" xlink:href="#C"/><use transform="matrix(0.05,0,0,0.05,110.85000000000001,0)" xlink:href="#D"/><use transform="matrix(0.05,0,0,0.05,120.85000000000001,0)" xlink:href="#y"/><use transform="matrix(0.05,0,0,0.05,130.85000000000002,0)" xlink:href="#N"/><use transform="matrix(0.05,0,0,0.05,136.8,0)" xlink:href="#W"/><use transform="matrix(0.05,0,0,0.05,151.75,0)" xlink:href="#y"/><use transform="matrix(0.05,0,0,0.05,161.75,0)" xlink:href="#x"/><use transform="matrix(0.05,0,0,0.05,170.75,0)" xlink:href="#x"/><use transform="matrix(0.05,0,0,0.05,179.75,0)" xlink:href="#C"/><use transform="matrix(0.05,0,0,0.05,189.75,0)" xlink:href="#D"/><use transform="matrix(0.05,0,0,0.05,199.75,0)" xlink:href="#y"/><use transform="matrix(0.05,0,0,0.05,209.75,0)" xlink:href="#O"/></g><path d="M26 75v-336h71v23H56V52h41v23H26" id="ac"/><g id="t"><use transform="matrix(0.05,0,0,0.05,0,0)" xlink:href="#z"/><use transform="matrix(0.05,0,0,0.05,5.95,0)" xlink:href="#y"/><use transform="matrix(0.05,0,0,0.05,15.949999999999998,0)" xlink:href="#H"/><use transform="matrix(0.05,0,0,0.05,24.95,0)" xlink:href="#y"/><use transform="matrix(0.05,0,0,0.05,34.95,0)" xlink:href="#F"/><use transform="matrix(0.05,0,0,0.05,38.900000000000006,0)" xlink:href="#V"/><use transform="matrix(0.05,0,0,0.05,47.900000000000006,0)" xlink:href="#F"/><use transform="matrix(0.05,0,0,0.05,51.85,0)" xlink:href="#L"/><use transform="matrix(0.05,0,0,0.05,61.85,0)" xlink:href="#D"/><use transform="matrix(0.05,0,0,0.05,71.85000000000001,0)" xlink:href="#w"/><use transform="matrix(0.05,0,0,0.05,84.80000000000001,0)" xlink:href="#x"/><use transform="matrix(0.05,0,0,0.05,93.80000000000001,0)" xlink:href="#y"/><use transform="matrix(0.05,0,0,0.05,103.80000000000001,0)" xlink:href="#z"/><use transform="matrix(0.05,0,0,0.05,109.75,0)" xlink:href="#A"/><use transform="matrix(0.05,0,0,0.05,114.75,0)" xlink:href="#w"/><use transform="matrix(0.05,0,0,0.05,127.7,0)" xlink:href="#x"/><use transform="matrix(0.05,0,0,0.05,136.70000000000002,0)" xlink:href="#y"/><use transform="matrix(0.05,0,0,0.05,146.70000000000002,0)" xlink:href="#z"/><use transform="matrix(0.05,0,0,0.05,152.65,0)" xlink:href="#ac"/><path d="M-.9 1.25h164.45v1.32H-.9z"/></g><path d="M3 75V52h41v-290H3v-23h71V75H3" id="ad"/><g id="u"><use transform="matrix(0.05,0,0,0.05,0,0)" xlink:href="#ad"/><path d="M-.9 1.25h6.8v1.32H-.9z"/></g><g id="v"><use transform="matrix(0.05,0,0,0.05,0,0)" xlink:href="#W"/><use transform="matrix(0.05,0,0,0.05,14.950000000000001,0)" xlink:href="#y"/><use transform="matrix(0.05,0,0,0.05,24.950000000000003,0)" xlink:href="#x"/><use transform="matrix(0.05,0,0,0.05,33.95,0)" xlink:href="#x"/><use transform="matrix(0.05,0,0,0.05,42.95,0)" xlink:href="#C"/><use transform="matrix(0.05,0,0,0.05,52.95,0)" xlink:href="#D"/><use transform="matrix(0.05,0,0,0.05,62.95,0)" xlink:href="#y"/></g></defs></g></svg>