<svg xmlns="http://www.w3.org/2000/svg" xmlns:xlink="http://www.w3.org/1999/xlink" width="1870.4" height="2646.4"><g transform="translate(0 0)"><path d="M280 145c0-2.76 2.24-5 5-5h150c2.76 0 5 2.24 5 5v110c0 2.76-2.24 5-5 5H285c-2.76 0-5-2.24-5-5z" stroke="#000" stroke-width="2" fill="#fff"/><use xlink:href="#a" transform="matrix(1,0,0,1,280,140) translate(20.45499999999999 63.15)"/><path d="M57.25 287.25c0 4-3.25 7.25-7.25 7.25s-7.25-3.25-7.25-7.25S46 280 50 280s7.25 3.25 7.25 7.25z" stroke="#000" stroke-width="2" fill="#fff"/><path d="M20 285c0-2.76 2.24-5 5-5h50c2.76 0 5 2.24 5 5v48c0 2.76-2.24 5-5 5H25c-2.76 0-5-2.24-5-5z" fill="none"/><path d="M50 294.5v15.3c0 2.76 1.77 6.37 3.96 8.06L80 338m-30-23.2L20 338m0-36.25h60" stroke="#000" stroke-width="2" fill="none"/><use xlink:href="#b" transform="matrix(1,0,0,1,-60,338) translate(68.625 14.6)"/><path d="M359 261v1019" fill="none"/><path d="M359 261v10m0 9.98v19.98m0 10v19.97m0 10v19.97m0 10v19.97m0 10v19.97m0 10v19.97m0 10v19.98m0 10v19.97m0 10v19.98m0 10v19.97m0 10v19.97m0 10v19.97m0 10v19.97m0 10v19.98m0 10v19.97m0 10v19.97m0 10v19.97m0 9.98v19.98m0 10v19.97m0 10v19.97m0 10v19.97m0 10v19.97m0 10v19.97m0 10v19.98m0 10v19.97m0 10v19.98m0 10v19.97m0 10v19.97m0 10v19.97m0 10v19.97m0 10v19.98m0 10v19.97m0 10V1260m0 10v9.98" stroke="#000" stroke-width="2" fill="none"/><path d="M360 261h-2v-1h2z"/><path d="M340 325c0-2.76 2.24-5 5-5h30c2.76 0 5 2.24 5 5v790c0 2.76-2.24 5-5 5h-30c-2.76 0-5-2.24-5-5zM608 145c0-2.76 2.24-5 5-5h150c2.76 0 5 2.24 5 5v110c0 2.76-2.24 5-5 5H613c-2.76 0-5-2.24-5-5z" stroke="#000" stroke-width="2" fill="#fff"/><use xlink:href="#c" transform="matrix(1,0,0,1,608,140) translate(5.480000000000013 63.15)"/><path d="M342.07 320H80" stroke="#000" stroke-width="2" fill="none"/><path d="M342.07 320l-14.26 4.64v-9.28z"/><path d="M345.3 320h-.3l-1.58.25-.9.65-15.7 5.1v-12zm-16.5 3.26l10.04-3.26-10.03-3.26zM80 321v-2z"/><use xlink:href="#d" transform="matrix(1,0,0,1,168.88739914342096,294.4) translate(0 14.4)"/><use xlink:href="#e" transform="matrix(1,0,0,1,168.88739914342096,294.4) translate(69.95 14.4)"/><path d="M340 404H80" stroke="#000" stroke-width="2" fill="none"/><path d="M340 404l-14.27 4.64v-9.28z"/><path d="M340 402.95v2.1L324.73 410v-12zm-13.27 4.3l10.03-3.25-10.03-3.26z"/><use xlink:href="#f" transform="matrix(1,0,0,1,186.575,378.4) translate(0 14.4)"/><path d="M380 441.33h144.13c.2 0 .35.16.35.36 0 .2.16.35.36.35h144.12" stroke="#000" stroke-width="2" fill="none"/><path d="M668.96 442.05l-14.26 4.63v-9.27z"/><path d="M669.96 441.32l-1 .73-.38 1.17-14.88 4.84v-12.02zm-14.26 4l10.03-3.27-10.03-3.26z"/><use xlink:href="#g" transform="matrix(1,0,0,1,420.0170587091535,415.73386222739146) translate(0 14.4)"/><path d="M689.67 261v1019" fill="none"/><path d="M689.67 261v10m0 9.98v19.98m0 10v19.97m0 10v19.97m0 10v19.97m0 10v19.97m0 10v19.97m0 10v19.98m0 10v19.97m0 10v19.98m0 10v19.97m0 10v19.97m0 10v19.97m0 10v19.97m0 10v19.98m0 10v19.97m0 10v19.97m0 10v19.97m0 9.98v19.98m0 10v19.97m0 10v19.97m0 10v19.97m0 10v19.97m0 10v19.97m0 10v19.98m0 10v19.97m0 10v19.98m0 10v19.97m0 10v19.97m0 10v19.97m0 10v19.97m0 10v19.98m0 10v19.97m0 10V1260m0 10v9.98" stroke="#000" stroke-width="2" fill="none"/><path d="M690.67 261h-2v-1h2z"/><path d="M668 445c0-2.76 2.24-5 5-5h30c2.76 0 5 2.24 5 5v50c0 2.76-2.24 5-5 5h-30c-2.76 0-5-2.24-5-5z" stroke="#000" stroke-width="2" fill="#fff"/><path d="M340 522.67H80" stroke="#000" stroke-width="2" fill="none"/><path d="M340 522.67l-14.27 4.63v-9.27z"/><path d="M340 521.62v2.1l-15.27 4.96v-12.03zm-13.27 4.3l10.03-3.25-10.03-3.26z"/><use xlink:href="#h" transform="matrix(1,0,0,1,187.05,497.0666666666667) translate(0 14.4)"/><path d="M667.15 496H380" fill="none"/><path d="M667.15 496h-9.57m-9.57 0h-19.14m-9.57 0h-19.15m-9.57 0h-19.15m-9.57 0h-19.14m-9.57 0H514m-9.57 0H485.3m-9.58 0h-19.15m-9.57 0h-19.14m-9.57 0h-19.16m-9.57 0H380" stroke="#000" stroke-width="2" fill="none"/><path d="M668.25 496.58l.3.42h-1.4v-2h.85zM397.72 486.68L381.96 496l15.76 9.32-1 1.72-16.72-9.88v-2.32l16.7-9.88z"/><use xlink:href="#i" transform="matrix(1,0,0,1,508.0991837656853,470.3999999999999) translate(0 14.4)"/><path d="M668 565c0-2.76 2.24-5 5-5h30c2.76 0 5 2.24 5 5v470c0 2.76-2.24 5-5 5h-30c-2.76 0-5-2.24-5-5z" stroke="#000" stroke-width="2" fill="#fff"/><path d="M380 561.33h144.13c.2 0 .35.16.35.36 0 .2.16.35.36.35h144.12" stroke="#000" stroke-width="2" fill="none"/><path d="M668.96 562.05l-14.26 4.63v-9.27z"/><path d="M669.96 561.32l-1 .73-.38 1.17-14.88 4.84v-12.02zm-14.26 4l10.03-3.27-10.03-3.26z"/><use xlink:href="#j" transform="matrix(1,0,0,1,449.020406231061,535.7342918104342) translate(0 14.4)"/><path d="M1040 585c0-2.76 2.24-5 5-5h150c2.76 0 5 2.24 5 5v110c0 2.76-2.24 5-5 5h-150c-2.76 0-5-2.24-5-5z" stroke="#000" stroke-width="2" fill="#fff"/><use xlink:href="#k" transform="matrix(1,0,0,1,1040,580) translate(28.95499999999999 63.15)"/><path d="M708 642.67h331" stroke="#000" stroke-width="2" fill="none"/><path d="M1039 642.67l-14.27 4.63v-9.27z"/><path d="M1040 641.94v1.45l-16.27 5.28v-12.03zm-14.27 4l10.03-3.27-10.03-3.26z"/><use xlink:href="#l" transform="matrix(1,0,0,1,745.65,617.0666666666668) translate(0 14.4)"/><use xlink:href="#m" transform="matrix(1,0,0,1,745.65,617.0666666666668) translate(137.75 14.4)"/><use xlink:href="#n" transform="matrix(1,0,0,1,745.65,617.0666666666668) translate(177.75 14.4)"/><use xlink:href="#e" transform="matrix(1,0,0,1,745.65,617.0666666666668) translate(211.75 14.4)"/><path d="M700 745c0-2.76 2.24-5 5-5h30c2.76 0 5 2.24 5 5v210c0 2.76-2.24 5-5 5h-30c-2.76 0-5-2.24-5-5z" stroke="#000" stroke-width="2" fill="#fff"/><path d="M708 694.67h67c2.76 0 5 2.24 5 5V740c0 2.76-2.24 5-5 5h-35" stroke="#000" stroke-width="2" fill="none"/><path d="M754.27 749.64L740 745l14.27-4.64z"/><path d="M755.27 751L740 746.06V745l-.16-1 15.43-5zm-12.03-6l10.03 3.26v-6.52z"/><use xlink:href="#o" transform="matrix(1,0,0,1,788.0000000000001,693.0333333333334) translate(0 14.4)"/><path d="M1340 145c0-2.76 2.24-5 5-5h150c2.76 0 5 2.24 5 5v110c0 2.76-2.24 5-5 5h-150c-2.76 0-5-2.24-5-5z" stroke="#000" stroke-width="2" fill="#fff"/><use xlink:href="#p" transform="matrix(1,0,0,1,1340,140) translate(34.404999999999994 63.15)"/><path d="M1420 260v1020" fill="none"/><path d="M1420 260v10m0 10v20m0 10v20m0 10v20m0 10v20m0 10v20m0 10v20m0 10v20m0 10v20m0 10v20m0 10v20m0 10v20m0 10v20m0 10v20m0 10v20m0 10v20m0 10v20m0 10v20m0 10v20m0 10v20m0 10v20m0 10v20m0 10v20m0 10v20m0 10v20m0 10v20m0 10v20m0 10v20m0 10v20m0 10v20m0 10v20m0 10v20m0 10v20m0 10v20m0 10v10" stroke="#000" stroke-width="2" fill="none"/><path d="M1400 805c0-2.76 2.24-5 5-5h30c2.76 0 5 2.24 5 5v70c0 2.76-2.24 5-5 5h-30c-2.76 0-5-2.24-5-5z" stroke="#000" stroke-width="2" fill="#fff"/><path d="M740 802.67h330.18c.08 0 .15.07.15.15 0 .1.07.16.16.16h330.16" stroke="#000" stroke-width="2" fill="none"/><path d="M1400.66 802.98l-14.27 4.63v-9.26z"/><path d="M1401 802.03l-.04.02-.68 2.1-14.9 4.84v-12.03zm-13.6 4.2l10.02-3.25-10.03-3.26z"/><use xlink:href="#q" transform="matrix(1,0,0,1,878.8833333333332,777.0666666666668) translate(0 14.4)"/><path d="M1399.3 876.98H741" fill="none"/><path d="M1399.3 876.98h-9.97m-9.97 0h-19.95m-9.97 0h-19.94m-10 0h-19.94m-9.97 0h-19.96m-9.97 0h-19.95m-9.98 0h-19.95m-9.98 0h-19.95m-9.97 0h-19.95m-9.98 0h-19.95m-9.97 0h-19.95m-9.97 0h-19.95m-9.98 0h-19.94m-9.98 0h-19.95m-9.97 0H970.4m-9.96 0H940.5m-10 0h-19.94m-9.97 0h-19.96m-9.97 0h-19.95m-9.98 0H820.8m-9.98 0h-19.95m-9.97 0h-19.95m-9.98 0H741" stroke="#000" stroke-width="2" fill="none"/><path d="M1400.25 876.58l1.02 1.4h-1.96v-2h.86zM758.72 867.66l-15.76 9.32 15.76 9.32-1 1.72L740 877.55v-1.14l17.7-10.47z"/><path d="M741 955.16h35c2.76 0 5 2.24 5 5V995c0 2.76-2.24 5-5 5h-67" fill="none"/><path d="M741 955.16h10.46m10.45 0h18.2c.5 0 .9.4.9.9v.92m0 10.46v20.9m0 10.47v.6c0 .33-.27.6-.6.6h-19.12m-10.46 0H729.9m-10.44 0H709" stroke="#000" stroke-width="2" fill="none"/><path d="M741 956.16h-1.38L740 955v-.84h1zM726.72 990.68l-15.75 9.32 15.75 9.32-1 1.72-17.72-10.47v-1.14l17.7-10.47z"/><path d="M667.42 1037.13H381" fill="none"/><path d="M667.42 1037.13h-9.55m-9.54 0h-19.1m-9.55 0h-19.1m-9.54 0h-19.1m-9.54 0h-19.1m-9.54 0h-19.1m-9.54 0h-19.1m-9.55 0h-19.1m-9.54 0h-19.1m-9.54 0h-19.1m-9.55 0H381" stroke="#000" stroke-width="2" fill="none"/><path d="M668.25 1036.58l1.14 1.55h-1.98v-2h.76zM398.72 1027.8l-15.76 9.33 15.76 9.32-1 1.72L380 1037.7v-1.14l17.7-10.47z"/><path d="M1120 700v97.98m0 0c-2.76 0-5 2.24-5 5s2.24 5 5 5v64m0 0c-2.76 0-5 2.23-5 5 0 2.76 2.24 5 5 5V1280" fill="none"/><path d="M1120 700v10.9m0 10.87v21.78m0 10.88v21.77m0 10.9v10.88m0 0l-1.5.5c-.8.25-1.85 1-2.35 1.7l-.42.57c-.26.36-.53 1-.6 1.44-.07.42-.02 1.12.12 1.54l.24.75c.25.78 1 1.83 1.7 2.33l.57.42c.36.26 1 .53 1.44.6.45.07.8.5.8.93v9.86m0 10.67v21.34m0 10.67V872m0 0l-1.5.5c-.8.25-1.85 1-2.35 1.7l-.42.57c-.26.36-.53 1-.6 1.44-.07.42-.02 1.12.12 1.54l.24.74c.25.8 1 1.85 1.7 2.35l.57.42c.36.26 1 .53 1.44.6.45.07.8.48.8.93v9.4m0 10.2v20.42m0 10.2v20.42m0 10.2v20.4m0 10.22v20.4m0 10.22v20.4m0 10.2v20.43m0 10.2v20.4m0 10.2v20.42m0 10.2v20.42m0 10.2v20.4m0 10.22v20.4m0 10.22v20.4m0 10.2V1280" stroke="#000" stroke-width="2" fill="none"/><defs><path d="M33-154v-36h34v36H33zM33 0v-36h34V0H33" id="r"/><path d="M127-220V0H93v-220H8v-28h204v28h-85" id="s"/><path d="M24-231v-30h32v30H24zM24 0v-190h32V0H24" id="t"/><path d="M210-169c-67 3-38 105-44 169h-31v-121c0-29-5-50-35-48C34-165 62-65 56 0H25l-1-190h30c1 10-1 24 2 32 10-44 99-50 107 0 11-21 27-35 58-36 85-2 47 119 55 194h-31v-121c0-29-5-49-35-48" id="u"/><path d="M100-194c63 0 86 42 84 106H49c0 40 14 67 53 68 26 1 43-12 49-29l28 8c-11 28-37 45-77 45C44 4 14-33 15-96c1-61 26-98 85-98zm52 81c6-60-76-77-97-28-3 7-6 17-6 28h103" id="v"/><path d="M30 0v-248h187v28H63v79h144v27H63v87h162V0H30" id="w"/><path d="M24 0v-261h32V0H24" id="x"/><path d="M117-194c89-4 53 116 60 194h-32v-121c0-31-8-49-39-48C34-167 62-67 57 0H25l-1-190h30c1 10-1 24 2 32 11-22 29-35 61-36" id="y"/><path d="M59-47c-2 24 18 29 38 22v24C64 9 27 4 27-40v-127H5v-23h24l9-43h21v43h35v23H59v120" id="z"/><path d="M135-143c-3-34-86-38-87 0 15 53 115 12 119 90S17 21 10-45l28-5c4 36 97 45 98 0-10-56-113-15-118-90-4-57 82-63 122-42 12 7 21 19 24 35" id="A"/><g id="a"><use transform="matrix(0.05,0,0,0.05,0,0)" xlink:href="#r"/><use transform="matrix(0.05,0,0,0.05,5,0)" xlink:href="#s"/><use transform="matrix(0.05,0,0,0.05,15.3,0)" xlink:href="#t"/><use transform="matrix(0.05,0,0,0.05,19.25,0)" xlink:href="#u"/><use transform="matrix(0.05,0,0,0.05,34.2,0)" xlink:href="#v"/><use transform="matrix(0.05,0,0,0.05,44.2,0)" xlink:href="#w"/><use transform="matrix(0.05,0,0,0.05,56.2,0)" xlink:href="#x"/><use transform="matrix(0.05,0,0,0.05,60.150000000000006,0)" xlink:href="#v"/><use transform="matrix(0.05,0,0,0.05,70.15,0)" xlink:href="#u"/><use transform="matrix(0.05,0,0,0.05,85.10000000000001,0)" xlink:href="#v"/><use transform="matrix(0.05,0,0,0.05,95.10000000000001,0)" xlink:href="#y"/><use transform="matrix(0.05,0,0,0.05,105.10000000000001,0)" xlink:href="#z"/><use transform="matrix(0.05,0,0,0.05,110.10000000000001,0)" xlink:href="#A"/><path d="M-.9 1.25H120v1.32H-.9z"/></g><path d="M30-248c87 1 191-15 191 75 0 78-77 80-158 76V0H30v-248zm33 125c57 0 124 11 124-50 0-59-68-47-124-48v98" id="B"/><path d="M114-163C36-179 61-72 57 0H25l-1-190h30c1 12-1 29 2 39 6-27 23-49 58-41v29" id="C"/><path d="M100-194c62-1 85 37 85 99 1 63-27 99-86 99S16-35 15-95c0-66 28-99 85-99zM99-20c44 1 53-31 53-75 0-43-8-75-51-75s-53 32-53 75 10 74 51 75" id="D"/><path d="M141-36C126-15 110 5 73 4 37 3 15-17 15-53c-1-64 63-63 125-63 3-35-9-54-41-54-24 1-41 7-42 31l-33-3c5-37 33-52 76-52 45 0 72 20 72 64v82c-1 20 7 32 28 27v20c-31 9-61-2-59-35zM48-53c0 20 12 33 32 33 41-3 63-29 60-74-43 2-92-5-92 41" id="E"/><g id="b"><use transform="matrix(0.05,0,0,0.05,0,0)" xlink:href="#B"/><use transform="matrix(0.05,0,0,0.05,12,0)" xlink:href="#C"/><use transform="matrix(0.05,0,0,0.05,17.95,0)" xlink:href="#D"/><use transform="matrix(0.05,0,0,0.05,27.950000000000003,0)" xlink:href="#x"/><use transform="matrix(0.05,0,0,0.05,31.899999999999995,0)" xlink:href="#v"/><use transform="matrix(0.05,0,0,0.05,41.9,0)" xlink:href="#z"/><use transform="matrix(0.05,0,0,0.05,46.9,0)" xlink:href="#E"/><use transform="matrix(0.05,0,0,0.05,56.900000000000006,0)" xlink:href="#C"/><use transform="matrix(0.05,0,0,0.05,62.85,0)" xlink:href="#t"/><use transform="matrix(0.05,0,0,0.05,66.8,0)" xlink:href="#v"/><use transform="matrix(0.05,0,0,0.05,76.8,0)" xlink:href="#C"/></g><path d="M185-189c-5-48-123-54-124 2 14 75 158 14 163 119 3 78-121 87-175 55-17-10-28-26-33-46l33-7c5 56 141 63 141-1 0-78-155-14-162-118-5-82 145-84 179-34 5 7 8 16 11 25" id="F"/><path d="M106-169C34-169 62-67 57 0H25v-261h32l-1 103c12-21 28-36 61-36 89 0 53 116 60 194h-32v-121c2-32-8-49-39-48" id="G"/><path d="M212-179c-10-28-35-45-73-45-59 0-87 40-87 99 0 60 29 101 89 101 43 0 62-24 78-52l27 14C228-24 195 4 139 4 59 4 22-46 18-125c-6-104 99-153 187-111 19 9 31 26 39 46" id="H"/><g id="c"><use transform="matrix(0.05,0,0,0.05,0,0)" xlink:href="#r"/><use transform="matrix(0.05,0,0,0.05,5,0)" xlink:href="#s"/><use transform="matrix(0.05,0,0,0.05,15.3,0)" xlink:href="#t"/><use transform="matrix(0.05,0,0,0.05,19.25,0)" xlink:href="#u"/><use transform="matrix(0.05,0,0,0.05,34.2,0)" xlink:href="#v"/><use transform="matrix(0.05,0,0,0.05,44.2,0)" xlink:href="#F"/><use transform="matrix(0.05,0,0,0.05,56.2,0)" xlink:href="#G"/><use transform="matrix(0.05,0,0,0.05,66.2,0)" xlink:href="#v"/><use transform="matrix(0.05,0,0,0.05,76.2,0)" xlink:href="#v"/><use transform="matrix(0.05,0,0,0.05,86.2,0)" xlink:href="#z"/><use transform="matrix(0.05,0,0,0.05,91.2,0)" xlink:href="#H"/><use transform="matrix(0.05,0,0,0.05,104.15,0)" xlink:href="#D"/><use transform="matrix(0.05,0,0,0.05,114.15,0)" xlink:href="#y"/><use transform="matrix(0.05,0,0,0.05,124.15,0)" xlink:href="#z"/><use transform="matrix(0.05,0,0,0.05,129.15,0)" xlink:href="#C"/><use transform="matrix(0.05,0,0,0.05,135.1,0)" xlink:href="#D"/><use transform="matrix(0.05,0,0,0.05,145.1,0)" xlink:href="#x"/><path d="M-.9 1.25h150.85v1.32H-.9z"/></g><path d="M85-194c31 0 48 13 60 33l-1-100h32l1 261h-30c-2-10 0-23-3-31C134-8 116 4 85 4 32 4 16-35 15-94c0-66 23-100 70-100zm9 24c-40 0-46 34-46 75 0 40 6 74 45 74 42 0 51-32 51-76 0-42-9-74-50-73" id="I"/><path d="M87 75C49 33 22-17 22-94c0-76 28-126 65-167h31c-38 41-64 92-64 168S80 34 118 75H87" id="J"/><path d="M96-169c-40 0-48 33-48 73s9 75 48 75c24 0 41-14 43-38l32 2c-6 37-31 61-74 61-59 0-76-41-82-99-10-93 101-131 147-64 4 7 5 14 7 22l-32 3c-4-21-16-35-41-35" id="K"/><path d="M68-38c1 34 0 65-14 84H32c9-13 17-26 17-46H33v-38h35" id="L"/><g id="d"><use transform="matrix(0.05,0,0,0.05,0,0)" xlink:href="#E"/><use transform="matrix(0.05,0,0,0.05,10,0)" xlink:href="#I"/><use transform="matrix(0.05,0,0,0.05,20,0)" xlink:href="#I"/><use transform="matrix(0.05,0,0,0.05,30,0)" xlink:href="#J"/><use transform="matrix(0.05,0,0,0.05,35.95,0)" xlink:href="#K"/><use transform="matrix(0.05,0,0,0.05,44.95,0)" xlink:href="#E"/><use transform="matrix(0.05,0,0,0.05,54.95,0)" xlink:href="#z"/><use transform="matrix(0.05,0,0,0.05,59.95,0)" xlink:href="#L"/></g><path d="M33-261c38 41 65 92 65 168S71 34 33 75H2C39 34 66-17 66-93S39-220 2-261h31" id="M"/><g id="e"><use transform="matrix(0.05,0,0,0.05,0,0)" xlink:href="#I"/><use transform="matrix(0.05,0,0,0.05,10,0)" xlink:href="#v"/><use transform="matrix(0.05,0,0,0.05,20,0)" xlink:href="#A"/><use transform="matrix(0.05,0,0,0.05,29,0)" xlink:href="#K"/><use transform="matrix(0.05,0,0,0.05,38,0)" xlink:href="#M"/></g><g id="f"><use transform="matrix(0.05,0,0,0.05,0,0)" xlink:href="#A"/><use transform="matrix(0.05,0,0,0.05,9,0)" xlink:href="#z"/><use transform="matrix(0.05,0,0,0.05,14,0)" xlink:href="#E"/><use transform="matrix(0.05,0,0,0.05,24,0)" xlink:href="#C"/><use transform="matrix(0.05,0,0,0.05,29.950000000000003,0)" xlink:href="#z"/><use transform="matrix(0.05,0,0,0.05,34.95,0)" xlink:href="#J"/><use transform="matrix(0.05,0,0,0.05,40.900000000000006,0)" xlink:href="#M"/></g><path d="M206 0h-36l-40-164L89 0H53L-1-190h32L70-26l43-164h34l41 164 42-164h31" id="N"/><path d="M233-177c-1 41-23 64-60 70L243 0h-38l-65-103H63V0H30v-248c88 3 205-21 203 71zM63-129c60-2 137 13 137-47 0-61-80-42-137-45v92" id="O"/><g id="g"><use transform="matrix(0.05,0,0,0.05,0,0)" xlink:href="#y"/><use transform="matrix(0.05,0,0,0.05,10,0)" xlink:href="#v"/><use transform="matrix(0.05,0,0,0.05,20,0)" xlink:href="#N"/><use transform="matrix(0.05,0,0,0.05,32.95,0)" xlink:href="#s"/><use transform="matrix(0.05,0,0,0.05,43.25000000000001,0)" xlink:href="#t"/><use transform="matrix(0.05,0,0,0.05,47.20000000000001,0)" xlink:href="#u"/><use transform="matrix(0.05,0,0,0.05,62.15000000000001,0)" xlink:href="#v"/><use transform="matrix(0.05,0,0,0.05,72.15,0)" xlink:href="#O"/><use transform="matrix(0.05,0,0,0.05,85.10000000000001,0)" xlink:href="#v"/><use transform="matrix(0.05,0,0,0.05,95.10000000000001,0)" xlink:href="#K"/><use transform="matrix(0.05,0,0,0.05,104.10000000000001,0)" xlink:href="#D"/><use transform="matrix(0.05,0,0,0.05,114.10000000000001,0)" xlink:href="#C"/><use transform="matrix(0.05,0,0,0.05,120.05000000000001,0)" xlink:href="#I"/><use transform="matrix(0.05,0,0,0.05,130.05,0)" xlink:href="#J"/><use transform="matrix(0.05,0,0,0.05,136,0)" xlink:href="#K"/><use transform="matrix(0.05,0,0,0.05,145,0)" xlink:href="#E"/><use transform="matrix(0.05,0,0,0.05,155,0)" xlink:href="#z"/><use transform="matrix(0.05,0,0,0.05,160,0)" xlink:href="#L"/><use transform="matrix(0.05,0,0,0.05,165,0)" xlink:href="#I"/><use transform="matrix(0.05,0,0,0.05,175,0)" xlink:href="#v"/><use transform="matrix(0.05,0,0,0.05,185,0)" xlink:href="#A"/><use transform="matrix(0.05,0,0,0.05,194,0)" xlink:href="#K"/><use transform="matrix(0.05,0,0,0.05,203,0)" xlink:href="#M"/></g><path d="M115-194c55 1 70 41 70 98S169 2 115 4C84 4 66-9 55-30l1 105H24l-1-265h31l2 30c10-21 28-34 59-34zm-8 174c40 0 45-34 45-75s-6-73-45-74c-42 0-51 32-51 76 0 43 10 73 51 73" id="P"/><g id="h"><use transform="matrix(0.05,0,0,0.05,0,0)" xlink:href="#A"/><use transform="matrix(0.05,0,0,0.05,9,0)" xlink:href="#z"/><use transform="matrix(0.05,0,0,0.05,14,0)" xlink:href="#D"/><use transform="matrix(0.05,0,0,0.05,24,0)" xlink:href="#P"/><use transform="matrix(0.05,0,0,0.05,34,0)" xlink:href="#J"/><use transform="matrix(0.05,0,0,0.05,39.95,0)" xlink:href="#M"/></g><path d="M84 4C-5 8 30-112 23-190h32v120c0 31 7 50 39 49 72-2 45-101 50-169h31l1 190h-30c-1-10 1-25-2-33-11 22-28 36-60 37" id="Q"/><g id="i"><use transform="matrix(0.05,0,0,0.05,0,0)" xlink:href="#z"/><use transform="matrix(0.05,0,0,0.05,5,0)" xlink:href="#C"/><use transform="matrix(0.05,0,0,0.05,10.95,0)" xlink:href="#Q"/><use transform="matrix(0.05,0,0,0.05,20.95,0)" xlink:href="#v"/></g><g id="j"><use transform="matrix(0.05,0,0,0.05,0,0)" xlink:href="#K"/><use transform="matrix(0.05,0,0,0.05,9,0)" xlink:href="#x"/><use transform="matrix(0.05,0,0,0.05,12.949999999999998,0)" xlink:href="#D"/><use transform="matrix(0.05,0,0,0.05,22.95,0)" xlink:href="#A"/><use transform="matrix(0.05,0,0,0.05,31.950000000000003,0)" xlink:href="#v"/><use transform="matrix(0.05,0,0,0.05,41.95,0)" xlink:href="#s"/><use transform="matrix(0.05,0,0,0.05,52.25,0)" xlink:href="#t"/><use transform="matrix(0.05,0,0,0.05,56.20000000000002,0)" xlink:href="#u"/><use transform="matrix(0.05,0,0,0.05,71.15,0)" xlink:href="#v"/><use transform="matrix(0.05,0,0,0.05,81.15,0)" xlink:href="#O"/><use transform="matrix(0.05,0,0,0.05,94.10000000000001,0)" xlink:href="#v"/><use transform="matrix(0.05,0,0,0.05,104.10000000000001,0)" xlink:href="#K"/><use transform="matrix(0.05,0,0,0.05,113.10000000000001,0)" xlink:href="#D"/><use transform="matrix(0.05,0,0,0.05,123.10000000000001,0)" xlink:href="#C"/><use transform="matrix(0.05,0,0,0.05,129.05,0)" xlink:href="#I"/><use transform="matrix(0.05,0,0,0.05,139.05,0)" xlink:href="#J"/><use transform="matrix(0.05,0,0,0.05,145,0)" xlink:href="#M"/></g><g id="k"><use transform="matrix(0.05,0,0,0.05,0,0)" xlink:href="#r"/><use transform="matrix(0.05,0,0,0.05,5,0)" xlink:href="#s"/><use transform="matrix(0.05,0,0,0.05,15.3,0)" xlink:href="#t"/><use transform="matrix(0.05,0,0,0.05,19.25,0)" xlink:href="#u"/><use transform="matrix(0.05,0,0,0.05,34.2,0)" xlink:href="#v"/><use transform="matrix(0.05,0,0,0.05,44.2,0)" xlink:href="#O"/><use transform="matrix(0.05,0,0,0.05,57.150000000000006,0)" xlink:href="#v"/><use transform="matrix(0.05,0,0,0.05,67.15,0)" xlink:href="#K"/><use transform="matrix(0.05,0,0,0.05,76.15,0)" xlink:href="#D"/><use transform="matrix(0.05,0,0,0.05,86.15,0)" xlink:href="#C"/><use transform="matrix(0.05,0,0,0.05,92.10000000000001,0)" xlink:href="#I"/><path d="M-.9 1.25H103v1.32H-.9z"/></g><path d="M115-194c53 0 69 39 70 98 0 66-23 100-70 100C84 3 66-7 56-30L54 0H23l1-261h32v101c10-23 28-34 59-34zm-8 174c40 0 45-34 45-75 0-40-5-75-45-74-42 0-51 32-51 76 0 43 10 73 51 73" id="R"/><path d="M177-190C167-65 218 103 67 71c-23-6-38-20-44-43l32-5c15 47 100 32 89-28v-30C133-14 115 1 83 1 29 1 15-40 15-95c0-56 16-97 71-98 29-1 48 16 59 35 1-10 0-23 2-32h30zM94-22c36 0 50-32 50-73 0-42-14-75-50-75-39 0-46 34-46 75s6 73 46 73" id="S"/><g id="l"><use transform="matrix(0.05,0,0,0.05,0,0)" xlink:href="#z"/><use transform="matrix(0.05,0,0,0.05,5,0)" xlink:href="#t"/><use transform="matrix(0.05,0,0,0.05,8.95,0)" xlink:href="#u"/><use transform="matrix(0.05,0,0,0.05,23.9,0)" xlink:href="#v"/><use transform="matrix(0.05,0,0,0.05,33.9,0)" xlink:href="#O"/><use transform="matrix(0.05,0,0,0.05,46.85,0)" xlink:href="#v"/><use transform="matrix(0.05,0,0,0.05,56.85,0)" xlink:href="#K"/><use transform="matrix(0.05,0,0,0.05,65.85,0)" xlink:href="#D"/><use transform="matrix(0.05,0,0,0.05,75.85,0)" xlink:href="#C"/><use transform="matrix(0.05,0,0,0.05,81.8,0)" xlink:href="#I"/><use transform="matrix(0.05,0,0,0.05,91.8,0)" xlink:href="#J"/><use transform="matrix(0.05,0,0,0.05,97.75,0)" xlink:href="#R"/><use transform="matrix(0.05,0,0,0.05,107.75,0)" xlink:href="#v"/><use transform="matrix(0.05,0,0,0.05,117.75,0)" xlink:href="#S"/><use transform="matrix(0.05,0,0,0.05,127.75,0)" xlink:href="#L"/></g><g id="m"><use transform="matrix(0.05,0,0,0.05,0,0)" xlink:href="#v"/><use transform="matrix(0.05,0,0,0.05,10,0)" xlink:href="#y"/><use transform="matrix(0.05,0,0,0.05,20,0)" xlink:href="#I"/><use transform="matrix(0.05,0,0,0.05,30,0)" xlink:href="#L"/></g><g id="n"><use transform="matrix(0.05,0,0,0.05,0,0)" xlink:href="#K"/><use transform="matrix(0.05,0,0,0.05,9,0)" xlink:href="#E"/><use transform="matrix(0.05,0,0,0.05,19,0)" xlink:href="#z"/><use transform="matrix(0.05,0,0,0.05,24,0)" xlink:href="#L"/></g><g id="o"><use transform="matrix(0.05,0,0,0.05,0,0)" xlink:href="#E"/><use transform="matrix(0.05,0,0,0.05,10,0)" xlink:href="#I"/><use transform="matrix(0.05,0,0,0.05,20,0)" xlink:href="#I"/><use transform="matrix(0.05,0,0,0.05,30,0)" xlink:href="#s"/><use transform="matrix(0.05,0,0,0.05,40.300000000000004,0)" xlink:href="#t"/><use transform="matrix(0.05,0,0,0.05,44.25000000000001,0)" xlink:href="#u"/><use transform="matrix(0.05,0,0,0.05,59.20000000000002,0)" xlink:href="#v"/><use transform="matrix(0.05,0,0,0.05,69.20000000000002,0)" xlink:href="#s"/><use transform="matrix(0.05,0,0,0.05,78.15000000000002,0)" xlink:href="#D"/><use transform="matrix(0.05,0,0,0.05,88.15000000000002,0)" xlink:href="#F"/><use transform="matrix(0.05,0,0,0.05,100.15000000000002,0)" xlink:href="#G"/><use transform="matrix(0.05,0,0,0.05,110.15000000000003,0)" xlink:href="#v"/><use transform="matrix(0.05,0,0,0.05,120.15000000000003,0)" xlink:href="#v"/><use transform="matrix(0.05,0,0,0.05,130.15000000000003,0)" xlink:href="#z"/><use transform="matrix(0.05,0,0,0.05,135.15000000000003,0)" xlink:href="#J"/><use transform="matrix(0.05,0,0,0.05,141.10000000000002,0)" xlink:href="#z"/><use transform="matrix(0.05,0,0,0.05,146.10000000000002,0)" xlink:href="#t"/><use transform="matrix(0.05,0,0,0.05,150.05,0)" xlink:href="#u"/><use transform="matrix(0.05,0,0,0.05,165,0)" xlink:href="#v"/><use transform="matrix(0.05,0,0,0.05,175,0)" xlink:href="#O"/><use transform="matrix(0.05,0,0,0.05,187.95,0)" xlink:href="#v"/><use transform="matrix(0.05,0,0,0.05,197.95,0)" xlink:href="#K"/><use transform="matrix(0.05,0,0,0.05,206.94999999999996,0)" xlink:href="#D"/><use transform="matrix(0.05,0,0,0.05,216.94999999999996,0)" xlink:href="#C"/><use transform="matrix(0.05,0,0,0.05,222.89999999999998,0)" xlink:href="#I"/><use transform="matrix(0.05,0,0,0.05,232.89999999999998,0)" xlink:href="#M"/></g><g id="p"><use transform="matrix(0.05,0,0,0.05,0,0)" xlink:href="#r"/><use transform="matrix(0.05,0,0,0.05,5,0)" xlink:href="#s"/><use transform="matrix(0.05,0,0,0.05,15.3,0)" xlink:href="#t"/><use transform="matrix(0.05,0,0,0.05,19.25,0)" xlink:href="#u"/><use transform="matrix(0.05,0,0,0.05,34.2,0)" xlink:href="#v"/><use transform="matrix(0.05,0,0,0.05,44.2,0)" xlink:href="#F"/><use transform="matrix(0.05,0,0,0.05,56.2,0)" xlink:href="#G"/><use transform="matrix(0.05,0,0,0.05,66.2,0)" xlink:href="#v"/><use transform="matrix(0.05,0,0,0.05,76.2,0)" xlink:href="#v"/><use transform="matrix(0.05,0,0,0.05,86.2,0)" xlink:href="#z"/><path d="M-.9 1.25h93v1.32h-93z"/></g><g id="q"><use transform="matrix(0.05,0,0,0.05,0,0)" xlink:href="#E"/><use transform="matrix(0.05,0,0,0.05,10,0)" xlink:href="#I"/><use transform="matrix(0.05,0,0,0.05,20,0)" xlink:href="#I"/><use transform="matrix(0.05,0,0,0.05,30,0)" xlink:href="#s"/><use transform="matrix(0.05,0,0,0.05,40.300000000000004,0)" xlink:href="#t"/><use transform="matrix(0.05,0,0,0.05,44.25000000000001,0)" xlink:href="#u"/><use transform="matrix(0.05,0,0,0.05,59.20000000000002,0)" xlink:href="#v"/><use transform="matrix(0.05,0,0,0.05,69.20000000000002,0)" xlink:href="#J"/><use transform="matrix(0.05,0,0,0.05,75.15000000000002,0)" xlink:href="#z"/><use transform="matrix(0.05,0,0,0.05,80.15000000000002,0)" xlink:href="#t"/><use transform="matrix(0.05,0,0,0.05,84.10000000000002,0)" xlink:href="#u"/><use transform="matrix(0.05,0,0,0.05,99.05000000000003,0)" xlink:href="#v"/><use transform="matrix(0.05,0,0,0.05,109.05000000000003,0)" xlink:href="#O"/><use transform="matrix(0.05,0,0,0.05,122.00000000000003,0)" xlink:href="#v"/><use transform="matrix(0.05,0,0,0.05,132.00000000000003,0)" xlink:href="#K"/><use transform="matrix(0.05,0,0,0.05,141.00000000000003,0)" xlink:href="#D"/><use transform="matrix(0.05,0,0,0.05,151.00000000000003,0)" xlink:href="#C"/><use transform="matrix(0.05,0,0,0.05,156.95000000000002,0)" xlink:href="#I"/><use transform="matrix(0.05,0,0,0.05,166.95000000000002,0)" xlink:href="#M"/></g></defs></g></svg>