<svg xmlns="http://www.w3.org/2000/svg" xmlns:xlink="http://www.w3.org/1999/xlink" width="1109" height="1351"><g transform="translate(0 20)"><path d="M20 105c0-2.76 2.24-5 5-5h150c2.76 0 5 2.24 5 5v110c0 2.76-2.24 5-5 5H25c-2.76 0-5-2.24-5-5z" stroke="#000" stroke-width="2" fill="#fff"/><use xlink:href="#a" transform="matrix(1,0,0,1,20,100) translate(57.43 63.15)"/><path d="M380 5c0-2.76 2.24-5 5-5h210c2.76 0 5 2.24 5 5v70c0 2.76-2.24 5-5 5H385c-2.76 0-5-2.24-5-5z" stroke="#000" stroke-width="2" fill="#fff"/><use xlink:href="#b" transform="matrix(1,0,0,1,380,0) translate(38.15500000000001 44.4)"/><path d="M490 80v1240" fill="none"/><path d="M490 80v10.08m0 10.08v20.17m0 10.08v20.17m0 10.08v20.16m0 10.1v20.16m0 10.08v20.16m0 10.08v20.16m0 10.1v20.15m0 10.07v20.16m0 10.08v20.18m0 10.08v20.16m0 10.08v20.16m0 10.1V453m0 10.1v20.15m0 10.08v20.17m0 10.08v20.16m0 10.08v20.16m0 10.1v20.15m0 10.08v20.17m0 10.08v20.17m0 10.08v20.16m0 10.08v20.16m0 10.08v20.17m0 10.08v20.16m0 10.07v20.16m0 10.1v20.15m0 10.08v20.16m0 10.08v20.17m0 10.08v20.16m0 10.1v20.15m0 10.1v20.15m0 10.08v20.16m0 10.08v20.17m0 10.07v20.16m0 10.08v20.17m0 10.1v20.15m0 10.08v20.16m0 10.08v20.17m0 10.1v20.15m0 10.08v20.16m0 10.07v20.17m0 10.08V1320" stroke="#000" stroke-width="2" fill="none"/><path d="M470 165c0-2.76 2.24-5 5-5h30c2.76 0 5 2.24 5 5v1130c0 2.76-2.24 5-5 5h-30c-2.76 0-5-2.24-5-5z" stroke="#000" stroke-width="2" fill="#fff"/><path d="M180 160h292.26c.22 0 .4.18.4.4v.4" stroke="#000" stroke-width="2" fill="none"/><path d="M472.66 160.8l-14.5 3.82.52-9.25z"/><path d="M473.83 160.2l-.4.05-2.47 1.8-.08.26-13.8 3.64.68-12zm-14.6 3.1l10.2-2.68-9.83-3.82z"/><use xlink:href="#c" transform="matrix(1,0,0,1,242.64262008020708,134.39999999999998) translate(0 14.4)"/><path d="M480 342.57c0-2.76 2.24-5 5-5h30c2.76 0 5 2.24 5 5v70c0 2.77-2.24 5-5 5h-30c-2.76 0-5-2.23-5-5z" stroke="#000" stroke-width="2" fill="#fff"/><path d="M510 293.63h46c2.76 0 5 2.23 5 5v38.86c0 2.76-2.24 5-5 5h-35" stroke="#000" stroke-width="2" fill="none"/><path d="M535.27 347.13L521 342.5l14.27-4.64z"/><path d="M536.27 348.5L520 343.23v-.65l-.12-.76 16.4-5.32zm-12.03-6l10.03 3.25v-6.52z"/><use xlink:href="#d" transform="matrix(1,0,0,1,569,301.759936) translate(0 14.4)"/><path d="M520.63 413.86h35c2.76 0 5 2.23 5 5v33.7c0 2.78-2.24 5-5 5h-3.7c-1.06 0-1.93-.85-1.93-1.92 0-1.07-.87-1.94-1.94-1.94H510" fill="none"/><path d="M520.63 413.86h9.22m9.2 0h18.44m3.13 6.07v18.43m0 9.22v5.78c0 2.33-1.88 4.2-4.2 4.2h-4.23m-5.34-3.86h-18.43m-9.22 0H510" stroke="#000" stroke-width="2" fill="none"/><path d="M520.63 414.86h-1.38l.66-2h.73zM524.27 458.34L510 453.7l14.27-4.63z"/><path d="M525.27 459.7L510 454.76v-2.1l15.27-4.96zm-12.03-6l10.03 3.26v-6.52z"/><use xlink:href="#e" transform="matrix(1,0,0,1,568.633125426983,430.3547708243992) translate(0 14.4)"/><path d="M480 742.57c0-2.76 2.24-5 5-5h30c2.76 0 5 2.24 5 5v70c0 2.77-2.24 5-5 5h-30c-2.76 0-5-2.23-5-5zM480 542.57c0-2.76 2.24-5 5-5h30c2.76 0 5 2.24 5 5v70c0 2.77-2.24 5-5 5h-30c-2.76 0-5-2.23-5-5zM480 1142.57c0-2.76 2.24-5 5-5h30c2.76 0 5 2.24 5 5v70c0 2.77-2.24 5-5 5h-30c-2.76 0-5-2.23-5-5zM480 942.57c0-2.76 2.24-5 5-5h30c2.76 0 5 2.24 5 5v70c0 2.77-2.24 5-5 5h-30c-2.76 0-5-2.23-5-5z" stroke="#000" stroke-width="2" fill="#fff"/><path d="M510 486.9h45.93c2.76 0 5 2.24 5 5v45.17c0 2.77-2.24 5-5 5h-35" stroke="#000" stroke-width="2" fill="none"/><path d="M535.2 546.7l-14.27-4.63 14.27-4.63z"/><path d="M536.2 548.1L520 542.8v-.25l-.2-1.18 16.4-5.34zm-12.03-6.03l10.03 3.26v-6.5z"/><use xlink:href="#f" transform="matrix(1,0,0,1,568.932370351856,498.2204993883046) translate(0 14.4)"/><path d="M521 612.73h35c2.76 0 5 2.24 5 5v36.5c0 2.75-2.24 5-5 5h-46" fill="none"/><path d="M521 612.73h9.17m9.16 0h18.33m3.34 5.83v18.33m0 9.16v10.57c0 1.43-1.16 2.6-2.6 2.6h-2.57m-9.17 0h-18.33m-9.16 0H510" stroke="#000" stroke-width="2" fill="none"/><path d="M521 613.73h-1.38l.38-1.16v-.84h1zM524.27 663.85L510 659.22l14.27-4.64z"/><path d="M525.27 665.23L510 660.27v-2.1l15.27-4.97zm-12.03-6l10.03 3.24v-6.5z"/><use xlink:href="#e" transform="matrix(1,0,0,1,568.9999996081247,630.6741850274186) translate(0 14.4)"/><path d="M519.9 816.14h35c2.75 0 5 2.24 5 5v31.5c0 2.72-2.23 4.93-4.96 4.93h-1.4c-1.96 0-3.54-1.58-3.54-3.53 0-1.95-1.58-3.54-3.54-3.54H510" fill="none"/><path d="M519.9 816.14h9.2m9.24 0h18.45m3.1 6.13v18.45m0 9.23v3.8c0 2.12-1.72 3.82-3.83 3.82h-5.6c-.26 0-.47-.2-.47-.47v-.47m-3.1-6.13h-18.45m-9.22 0H510" stroke="#000" stroke-width="2" fill="none"/><path d="M519.9 817.14h-3v-.04l2.14-1.57.12-.4h.73zM524.27 855.14L510 850.5l14.27-4.63z"/><path d="M525.27 856.5L510 851.56v-2.1l15.27-4.96zm-12.03-6l10.03 3.26v-6.52z"/><use xlink:href="#e" transform="matrix(1,0,0,1,567.8856136081247,831.5933224691465) translate(0 14.4)"/><path d="M510 694h46c2.76 0 5 2.23 5 5v38.5c0 2.76-2.24 5-5 5h-35" stroke="#000" stroke-width="2" fill="none"/><path d="M535.27 747.13L521 742.5l14.27-4.64z"/><path d="M536.27 748.5L520 743.23v-.65l-.12-.76 16.4-5.32zm-12.03-6l10.03 3.25v-6.52z"/><use xlink:href="#g" transform="matrix(1,0,0,1,568.9999996081247,701.9442431283741) translate(0 14.4)"/><path d="M510 885.28h45.7c2.76 0 5 2.24 5 5v45.32c0 2.76-2.24 5-5 5h-35" stroke="#000" stroke-width="2" fill="none"/><path d="M534.96 945.23l-14.27-4.63 14.26-4.64z"/><path d="M535.96 946.6l-16.16-5.24-.05-.37-.68-.93 16.9-5.48zm-12.03-6l10.03 3.26v-6.52z"/><use xlink:href="#h" transform="matrix(1,0,0,1,568.6941556081247,896.7925442866775) translate(0 14.4)"/><path d="M521 1012.73h35c2.76 0 5 2.24 5 5v34.84c0 2.77-2.24 5-5 5h-2.06c-2.18 0-3.94-1.76-3.94-3.94 0-2.17-1.76-3.94-3.94-3.94H510" fill="none"/><path d="M521 1012.73h9.58m9.58 0h19.17m1.67 7.9v19.17m0 9.58v4.1c0 2.26-1.83 4.1-4.1 4.1h-6.87m-1.7-7.9h-19.17m-9.58 0H510" stroke="#000" stroke-width="2" fill="none"/><path d="M521 1013.73h-1.38l.38-1.16v-.84h1zM524.27 1054.33L510 1049.7l14.27-4.64z"/><path d="M525.27 1055.7l-15.27-4.95v-2.1l15.27-4.97zm-12.03-6l10.03 3.25v-6.52z"/><use xlink:href="#e" transform="matrix(1,0,0,1,568.9999996081247,1030.5789862736628) translate(0 14.4)"/><path d="M510 1092.38h45c2.76 0 5 2.24 5 5v40.2c0 2.76-2.24 5-5 5h-35" stroke="#000" stroke-width="2" fill="none"/><path d="M534.27 1147.2l-14.27-4.63 14.27-4.63z"/><path d="M535.27 1148.6l-15.27-4.97v-1.06l-.16-1 15.43-5zm-12.03-6.03l10.03 3.26v-6.52z"/><use xlink:href="#i" transform="matrix(1,0,0,1,568,1101.6757047155902) translate(0 14.4)"/><path d="M521 1207.8h35c2.76 0 5 2.23 5 5v45.33c0 2.76-2.24 5-5 5h-46" fill="none"/><path d="M521 1207.8h9.76m9.75 0h19.52m.98 8.77v19.5m0 9.77V1262c0 .63-.5 1.13-1.1 1.13h-1.12m-9.76 0h-19.5m-9.76 0H510" stroke="#000" stroke-width="2" fill="none"/><path d="M521 1208.8h-1v-2h1zM524.27 1267.76l-14.27-4.63 14.27-4.64z"/><path d="M525.27 1269.14l-15.27-4.96v-2.1l15.27-4.97zm-12.03-6l10.03 3.25v-6.53z"/><path d="M889 5c0-2.76 2.24-5 5-5h190c2.76 0 5 2.24 5 5v70c0 2.76-2.24 5-5 5H894c-2.76 0-5-2.24-5-5z" stroke="#000" stroke-width="2" fill="#fff"/><use xlink:href="#j" transform="matrix(1,0,0,1,889,0) translate(37.43 44.4)"/><path d="M510 181.33h229.63c.2 0 .35.16.35.36 0 .2.16.35.36.35h229.62" stroke="#000" stroke-width="2" fill="none"/><path d="M969.96 182.05l-14.26 4.63v-9.27z"/><path d="M970.96 181.32l-1 .73-.38 1.17-14.88 4.84v-12.02zm-14.26 4l10.03-3.27-10.03-3.26z"/><use xlink:href="#k" transform="matrix(1,0,0,1,626.5413444591563,155.73378709001562) translate(0 14.4)"/><path d="M989 80v1240" fill="none"/><path d="M989 80v10.08m0 10.08v20.17m0 10.08v20.17m0 10.08v20.16m0 10.1v20.16m0 10.08v20.16m0 10.08v20.16m0 10.1v20.15m0 10.07v20.16m0 10.08v20.18m0 10.08v20.16m0 10.08v20.16m0 10.1V453m0 10.1v20.15m0 10.08v20.17m0 10.08v20.16m0 10.08v20.16m0 10.1v20.15m0 10.08v20.17m0 10.08v20.17m0 10.08v20.16m0 10.08v20.16m0 10.08v20.17m0 10.08v20.16m0 10.07v20.16m0 10.1v20.15m0 10.08v20.16m0 10.08v20.17m0 10.08v20.16m0 10.1v20.15m0 10.1v20.15m0 10.08v20.16m0 10.08v20.17m0 10.07v20.16m0 10.08v20.17m0 10.1v20.15m0 10.08v20.16m0 10.08v20.17m0 10.1v20.15m0 10.08v20.16m0 10.07v20.17m0 10.08V1320" stroke="#000" stroke-width="2" fill="none"/><path d="M969 185c0-2.76 2.24-5 5-5h30c2.76 0 5 2.24 5 5v50c0 2.76-2.24 5-5 5h-30c-2.76 0-5-2.24-5-5z" stroke="#000" stroke-width="2" fill="#fff"/><path d="M968.3 236.98H739.87c-.4 0-.7.32-.7.7 0 .4-.33.72-.72.72H510" fill="none"/><path d="M968.3 236.98h-10.2m-10.23 0h-20.43m-10.22 0H896.8m-10.22 0h-20.44m-10.2 0H835.5m-10.22 0h-20.43m-10.22 0H774.2m-10.22 0h-20.43m-8.8 1.42h-20.43m-10.2 0h-20.44m-10.22 0h-20.43m-10.22 0H622.4m-10.22 0h-20.43m-10.22 0H561.1m-10.22 0h-20.43m-10.2 0H510" stroke="#000" stroke-width="2" fill="none"/><path d="M969.25 236.58l1.02 1.4h-1.96v-2h.86zM524.27 243.04L510 238.4l14.27-4.64z"/><path d="M525.27 244.4L510 239.46v-2.1l15.27-4.96zm-12.03-6l10.03 3.26v-6.52z"/><use xlink:href="#l" transform="matrix(1,0,0,1,694.2437186777887,242.3952767072493) translate(0 14.4)"/><defs><path d="M127-220V0H93v-220H8v-28h204v28h-85" id="m"/><path d="M24-231v-30h32v30H24zM24 0v-190h32V0H24" id="n"/><path d="M210-169c-67 3-38 105-44 169h-31v-121c0-29-5-50-35-48C34-165 62-65 56 0H25l-1-190h30c1 10-1 24 2 32 10-44 99-50 107 0 11-21 27-35 58-36 85-2 47 119 55 194h-31v-121c0-29-5-49-35-48" id="o"/><path d="M100-194c63 0 86 42 84 106H49c0 40 14 67 53 68 26 1 43-12 49-29l28 8c-11 28-37 45-77 45C44 4 14-33 15-96c1-61 26-98 85-98zm52 81c6-60-76-77-97-28-3 7-6 17-6 28h103" id="p"/><path d="M114-163C36-179 61-72 57 0H25l-1-190h30c1 12-1 29 2 39 6-27 23-49 58-41v29" id="q"/><g id="a"><use transform="matrix(0.05,0,0,0.05,0,0)" xlink:href="#m"/><use transform="matrix(0.05,0,0,0.05,10.3,0)" xlink:href="#n"/><use transform="matrix(0.05,0,0,0.05,14.25,0)" xlink:href="#o"/><use transform="matrix(0.05,0,0,0.05,29.200000000000003,0)" xlink:href="#p"/><use transform="matrix(0.05,0,0,0.05,39.2,0)" xlink:href="#q"/><path d="M-.9 1.25h46.95v1.32H-.9z"/></g><path d="M233-177c-1 41-23 64-60 70L243 0h-38l-65-103H63V0H30v-248c88 3 205-21 203 71zM63-129c60-2 137 13 137-47 0-61-80-42-137-45v92" id="r"/><path d="M177-190C167-65 218 103 67 71c-23-6-38-20-44-43l32-5c15 47 100 32 89-28v-30C133-14 115 1 83 1 29 1 15-40 15-95c0-56 16-97 71-98 29-1 48 16 59 35 1-10 0-23 2-32h30zM94-22c36 0 50-32 50-73 0-42-14-75-50-75-39 0-46 34-46 75s6 73 46 73" id="s"/><path d="M84 4C-5 8 30-112 23-190h32v120c0 31 7 50 39 49 72-2 45-101 50-169h31l1 190h-30c-1-10 1-25-2-33-11 22-28 36-60 37" id="t"/><path d="M24 0v-261h32V0H24" id="u"/><path d="M141-36C126-15 110 5 73 4 37 3 15-17 15-53c-1-64 63-63 125-63 3-35-9-54-41-54-24 1-41 7-42 31l-33-3c5-37 33-52 76-52 45 0 72 20 72 64v82c-1 20 7 32 28 27v20c-31 9-61-2-59-35zM48-53c0 20 12 33 32 33 41-3 63-29 60-74-43 2-92-5-92 41" id="v"/><path d="M59-47c-2 24 18 29 38 22v24C64 9 27 4 27-40v-127H5v-23h24l9-43h21v43h35v23H59v120" id="w"/><path d="M100-194c62-1 85 37 85 99 1 63-27 99-86 99S16-35 15-95c0-66 28-99 85-99zM99-20c44 1 53-31 53-75 0-43-8-75-51-75s-53 32-53 75 10 74 51 75" id="x"/><path d="M117-194c89-4 53 116 60 194h-32v-121c0-31-8-49-39-48C34-167 62-67 57 0H25l-1-190h30c1 10-1 24 2 32 11-22 29-35 61-36" id="y"/><path d="M212-179c-10-28-35-45-73-45-59 0-87 40-87 99 0 60 29 101 89 101 43 0 62-24 78-52l27 14C228-24 195 4 139 4 59 4 22-46 18-125c-6-104 99-153 187-111 19 9 31 26 39 46" id="z"/><g id="b"><use transform="matrix(0.05,0,0,0.05,0,0)" xlink:href="#r"/><use transform="matrix(0.05,0,0,0.05,12.950000000000001,0)" xlink:href="#p"/><use transform="matrix(0.05,0,0,0.05,22.950000000000003,0)" xlink:href="#s"/><use transform="matrix(0.05,0,0,0.05,32.95,0)" xlink:href="#t"/><use transform="matrix(0.05,0,0,0.05,42.95,0)" xlink:href="#u"/><use transform="matrix(0.05,0,0,0.05,46.900000000000006,0)" xlink:href="#v"/><use transform="matrix(0.05,0,0,0.05,56.900000000000006,0)" xlink:href="#w"/><use transform="matrix(0.05,0,0,0.05,61.900000000000006,0)" xlink:href="#n"/><use transform="matrix(0.05,0,0,0.05,65.85000000000001,0)" xlink:href="#x"/><use transform="matrix(0.05,0,0,0.05,75.85000000000001,0)" xlink:href="#y"/><use transform="matrix(0.05,0,0,0.05,85.85000000000001,0)" xlink:href="#z"/><use transform="matrix(0.05,0,0,0.05,98.80000000000001,0)" xlink:href="#x"/><use transform="matrix(0.05,0,0,0.05,108.80000000000001,0)" xlink:href="#y"/><use transform="matrix(0.05,0,0,0.05,118.80000000000001,0)" xlink:href="#q"/><use transform="matrix(0.05,0,0,0.05,124.75,0)" xlink:href="#w"/><use transform="matrix(0.05,0,0,0.05,129.75,0)" xlink:href="#x"/><use transform="matrix(0.05,0,0,0.05,139.75,0)" xlink:href="#u"/><path d="M-.9 1.25h145.5v1.32H-.9z"/></g><path d="M96-169c-40 0-48 33-48 73s9 75 48 75c24 0 41-14 43-38l32 2c-6 37-31 61-74 61-59 0-76-41-82-99-10-93 101-131 147-64 4 7 5 14 7 22l-32 3c-4-21-16-35-41-35" id="A"/><path d="M106-169C34-169 62-67 57 0H25v-261h32l-1 103c12-21 28-36 61-36 89 0 53 116 60 194h-32v-121c2-32-8-49-39-48" id="B"/><path d="M143 0L79-87 56-68V0H24v-261h32v163l83-92h37l-77 82L181 0h-38" id="C"/><path d="M185-189c-5-48-123-54-124 2 14 75 158 14 163 119 3 78-121 87-175 55-17-10-28-26-33-46l33-7c5 56 141 63 141-1 0-78-155-14-162-118-5-82 145-84 179-34 5 7 8 16 11 25" id="D"/><path d="M135-143c-3-34-86-38-87 0 15 53 115 12 119 90S17 21 10-45l28-5c4 36 97 45 98 0-10-56-113-15-118-90-4-57 82-63 122-42 12 7 21 19 24 35" id="E"/><path d="M87 75C49 33 22-17 22-94c0-76 28-126 65-167h31c-38 41-64 92-64 168S80 34 118 75H87" id="F"/><path d="M33-261c38 41 65 92 65 168S71 34 33 75H2C39 34 66-17 66-93S39-220 2-261h31" id="G"/><g id="c"><use transform="matrix(0.05,0,0,0.05,0,0)" xlink:href="#A"/><use transform="matrix(0.05,0,0,0.05,9,0)" xlink:href="#B"/><use transform="matrix(0.05,0,0,0.05,19,0)" xlink:href="#p"/><use transform="matrix(0.05,0,0,0.05,29,0)" xlink:href="#A"/><use transform="matrix(0.05,0,0,0.05,38,0)" xlink:href="#C"/><use transform="matrix(0.05,0,0,0.05,47,0)" xlink:href="#m"/><use transform="matrix(0.05,0,0,0.05,57.300000000000004,0)" xlink:href="#n"/><use transform="matrix(0.05,0,0,0.05,61.25,0)" xlink:href="#o"/><use transform="matrix(0.05,0,0,0.05,76.2,0)" xlink:href="#p"/><use transform="matrix(0.05,0,0,0.05,86.2,0)" xlink:href="#D"/><use transform="matrix(0.05,0,0,0.05,98.2,0)" xlink:href="#B"/><use transform="matrix(0.05,0,0,0.05,108.2,0)" xlink:href="#p"/><use transform="matrix(0.05,0,0,0.05,118.2,0)" xlink:href="#p"/><use transform="matrix(0.05,0,0,0.05,128.2,0)" xlink:href="#w"/><use transform="matrix(0.05,0,0,0.05,133.2,0)" xlink:href="#E"/><use transform="matrix(0.05,0,0,0.05,142.2,0)" xlink:href="#F"/><use transform="matrix(0.05,0,0,0.05,148.14999999999998,0)" xlink:href="#G"/></g><path d="M197 0v-115H63V0H30v-248h33v105h134v-105h34V0h-34" id="H"/><path d="M85-194c31 0 48 13 60 33l-1-100h32l1 261h-30c-2-10 0-23-3-31C134-8 116 4 85 4 32 4 16-35 15-94c0-66 23-100 70-100zm9 24c-40 0-46 34-46 75 0 40 6 74 45 74 42 0 51-32 51-76 0-42-9-74-50-73" id="I"/><path d="M179-190L93 31C79 59 56 82 12 73V49c39 6 53-20 64-50L1-190h34L92-34l54-156h33" id="J"/><g id="d"><use transform="matrix(0.05,0,0,0.05,0,0)" xlink:href="#A"/><use transform="matrix(0.05,0,0,0.05,9,0)" xlink:href="#B"/><use transform="matrix(0.05,0,0,0.05,19,0)" xlink:href="#p"/><use transform="matrix(0.05,0,0,0.05,29,0)" xlink:href="#A"/><use transform="matrix(0.05,0,0,0.05,38,0)" xlink:href="#C"/><use transform="matrix(0.05,0,0,0.05,47,0)" xlink:href="#H"/><use transform="matrix(0.05,0,0,0.05,59.95,0)" xlink:href="#x"/><use transform="matrix(0.05,0,0,0.05,69.95,0)" xlink:href="#u"/><use transform="matrix(0.05,0,0,0.05,73.9,0)" xlink:href="#n"/><use transform="matrix(0.05,0,0,0.05,77.85000000000001,0)" xlink:href="#I"/><use transform="matrix(0.05,0,0,0.05,87.85000000000001,0)" xlink:href="#v"/><use transform="matrix(0.05,0,0,0.05,97.85000000000001,0)" xlink:href="#J"/><use transform="matrix(0.05,0,0,0.05,106.85000000000001,0)" xlink:href="#E"/><use transform="matrix(0.05,0,0,0.05,115.85000000000001,0)" xlink:href="#F"/><use transform="matrix(0.05,0,0,0.05,121.80000000000001,0)" xlink:href="#w"/><use transform="matrix(0.05,0,0,0.05,126.80000000000001,0)" xlink:href="#n"/><use transform="matrix(0.05,0,0,0.05,130.75,0)" xlink:href="#o"/><use transform="matrix(0.05,0,0,0.05,145.7,0)" xlink:href="#p"/><use transform="matrix(0.05,0,0,0.05,155.7,0)" xlink:href="#D"/><use transform="matrix(0.05,0,0,0.05,167.7,0)" xlink:href="#B"/><use transform="matrix(0.05,0,0,0.05,177.7,0)" xlink:href="#p"/><use transform="matrix(0.05,0,0,0.05,187.7,0)" xlink:href="#p"/><use transform="matrix(0.05,0,0,0.05,197.7,0)" xlink:href="#w"/><use transform="matrix(0.05,0,0,0.05,202.7,0)" xlink:href="#E"/><use transform="matrix(0.05,0,0,0.05,211.69999999999996,0)" xlink:href="#G"/></g><g id="e"><use transform="matrix(0.05,0,0,0.05,0,0)" xlink:href="#t"/><use transform="matrix(0.05,0,0,0.05,10,0)" xlink:href="#E"/><use transform="matrix(0.05,0,0,0.05,19,0)" xlink:href="#p"/><use transform="matrix(0.05,0,0,0.05,29,0)" xlink:href="#q"/><use transform="matrix(0.05,0,0,0.05,34.95,0)" xlink:href="#D"/><use transform="matrix(0.05,0,0,0.05,46.95,0)" xlink:href="#w"/><use transform="matrix(0.05,0,0,0.05,51.95,0)" xlink:href="#v"/><use transform="matrix(0.05,0,0,0.05,61.95,0)" xlink:href="#A"/><use transform="matrix(0.05,0,0,0.05,70.95,0)" xlink:href="#C"/></g><path d="M33 0v-248h34V0H33" id="K"/><g id="f"><use transform="matrix(0.05,0,0,0.05,0,0)" xlink:href="#A"/><use transform="matrix(0.05,0,0,0.05,9,0)" xlink:href="#B"/><use transform="matrix(0.05,0,0,0.05,19,0)" xlink:href="#p"/><use transform="matrix(0.05,0,0,0.05,29,0)" xlink:href="#A"/><use transform="matrix(0.05,0,0,0.05,38,0)" xlink:href="#C"/><use transform="matrix(0.05,0,0,0.05,47,0)" xlink:href="#r"/><use transform="matrix(0.05,0,0,0.05,59.95,0)" xlink:href="#p"/><use transform="matrix(0.05,0,0,0.05,69.95,0)" xlink:href="#E"/><use transform="matrix(0.05,0,0,0.05,78.95,0)" xlink:href="#w"/><use transform="matrix(0.05,0,0,0.05,83.95,0)" xlink:href="#q"/><use transform="matrix(0.05,0,0,0.05,89.9,0)" xlink:href="#n"/><use transform="matrix(0.05,0,0,0.05,93.85000000000001,0)" xlink:href="#A"/><use transform="matrix(0.05,0,0,0.05,102.85000000000001,0)" xlink:href="#w"/><use transform="matrix(0.05,0,0,0.05,107.85000000000001,0)" xlink:href="#p"/><use transform="matrix(0.05,0,0,0.05,117.85000000000001,0)" xlink:href="#I"/><use transform="matrix(0.05,0,0,0.05,127.85000000000001,0)" xlink:href="#m"/><use transform="matrix(0.05,0,0,0.05,138.8,0)" xlink:href="#K"/><use transform="matrix(0.05,0,0,0.05,143.8,0)" xlink:href="#o"/><use transform="matrix(0.05,0,0,0.05,158.75,0)" xlink:href="#p"/><use transform="matrix(0.05,0,0,0.05,168.75,0)" xlink:href="#E"/><use transform="matrix(0.05,0,0,0.05,177.75,0)" xlink:href="#F"/><use transform="matrix(0.05,0,0,0.05,183.7,0)" xlink:href="#w"/><use transform="matrix(0.05,0,0,0.05,188.7,0)" xlink:href="#n"/><use transform="matrix(0.05,0,0,0.05,192.64999999999998,0)" xlink:href="#o"/><use transform="matrix(0.05,0,0,0.05,207.59999999999997,0)" xlink:href="#p"/><use transform="matrix(0.05,0,0,0.05,217.59999999999997,0)" xlink:href="#D"/><use transform="matrix(0.05,0,0,0.05,229.59999999999997,0)" xlink:href="#B"/><use transform="matrix(0.05,0,0,0.05,239.59999999999997,0)" xlink:href="#p"/><use transform="matrix(0.05,0,0,0.05,249.59999999999997,0)" xlink:href="#p"/><use transform="matrix(0.05,0,0,0.05,259.59999999999997,0)" xlink:href="#w"/><use transform="matrix(0.05,0,0,0.05,264.59999999999997,0)" xlink:href="#E"/><use transform="matrix(0.05,0,0,0.05,273.59999999999997,0)" xlink:href="#G"/></g><g id="g"><use transform="matrix(0.05,0,0,0.05,0,0)" xlink:href="#A"/><use transform="matrix(0.05,0,0,0.05,9,0)" xlink:href="#B"/><use transform="matrix(0.05,0,0,0.05,19,0)" xlink:href="#p"/><use transform="matrix(0.05,0,0,0.05,29,0)" xlink:href="#A"/><use transform="matrix(0.05,0,0,0.05,38,0)" xlink:href="#C"/><use transform="matrix(0.05,0,0,0.05,47,0)" xlink:href="#m"/><use transform="matrix(0.05,0,0,0.05,57.300000000000004,0)" xlink:href="#n"/><use transform="matrix(0.05,0,0,0.05,61.25,0)" xlink:href="#o"/><use transform="matrix(0.05,0,0,0.05,76.2,0)" xlink:href="#p"/><use transform="matrix(0.05,0,0,0.05,86.2,0)" xlink:href="#r"/><use transform="matrix(0.05,0,0,0.05,99.15,0)" xlink:href="#p"/><use transform="matrix(0.05,0,0,0.05,109.15,0)" xlink:href="#E"/><use transform="matrix(0.05,0,0,0.05,118.15,0)" xlink:href="#w"/><use transform="matrix(0.05,0,0,0.05,123.15,0)" xlink:href="#q"/><use transform="matrix(0.05,0,0,0.05,129.1,0)" xlink:href="#n"/><use transform="matrix(0.05,0,0,0.05,133.04999999999998,0)" xlink:href="#A"/><use transform="matrix(0.05,0,0,0.05,142.04999999999998,0)" xlink:href="#w"/><use transform="matrix(0.05,0,0,0.05,147.04999999999998,0)" xlink:href="#n"/><use transform="matrix(0.05,0,0,0.05,150.99999999999997,0)" xlink:href="#x"/><use transform="matrix(0.05,0,0,0.05,160.99999999999997,0)" xlink:href="#y"/><use transform="matrix(0.05,0,0,0.05,170.99999999999997,0)" xlink:href="#E"/><use transform="matrix(0.05,0,0,0.05,179.99999999999997,0)" xlink:href="#F"/><use transform="matrix(0.05,0,0,0.05,185.94999999999996,0)" xlink:href="#w"/><use transform="matrix(0.05,0,0,0.05,190.94999999999996,0)" xlink:href="#n"/><use transform="matrix(0.05,0,0,0.05,194.89999999999995,0)" xlink:href="#o"/><use transform="matrix(0.05,0,0,0.05,209.8499999999999,0)" xlink:href="#p"/><use transform="matrix(0.05,0,0,0.05,219.8499999999999,0)" xlink:href="#D"/><use transform="matrix(0.05,0,0,0.05,231.8499999999999,0)" xlink:href="#B"/><use transform="matrix(0.05,0,0,0.05,241.8499999999999,0)" xlink:href="#p"/><use transform="matrix(0.05,0,0,0.05,251.8499999999999,0)" xlink:href="#p"/><use transform="matrix(0.05,0,0,0.05,261.8499999999999,0)" xlink:href="#w"/><use transform="matrix(0.05,0,0,0.05,266.8499999999999,0)" xlink:href="#E"/><use transform="matrix(0.05,0,0,0.05,275.8499999999999,0)" xlink:href="#G"/></g><path d="M30 0v-248h33v221h125V0H30" id="L"/><g id="h"><use transform="matrix(0.05,0,0,0.05,0,0)" xlink:href="#A"/><use transform="matrix(0.05,0,0,0.05,9,0)" xlink:href="#B"/><use transform="matrix(0.05,0,0,0.05,19,0)" xlink:href="#p"/><use transform="matrix(0.05,0,0,0.05,29,0)" xlink:href="#A"/><use transform="matrix(0.05,0,0,0.05,38,0)" xlink:href="#C"/><use transform="matrix(0.05,0,0,0.05,47,0)" xlink:href="#m"/><use transform="matrix(0.05,0,0,0.05,57.300000000000004,0)" xlink:href="#n"/><use transform="matrix(0.05,0,0,0.05,61.25,0)" xlink:href="#o"/><use transform="matrix(0.05,0,0,0.05,76.2,0)" xlink:href="#p"/><use transform="matrix(0.05,0,0,0.05,86.2,0)" xlink:href="#L"/><use transform="matrix(0.05,0,0,0.05,96.2,0)" xlink:href="#n"/><use transform="matrix(0.05,0,0,0.05,100.15,0)" xlink:href="#o"/><use transform="matrix(0.05,0,0,0.05,115.10000000000001,0)" xlink:href="#n"/><use transform="matrix(0.05,0,0,0.05,119.05000000000001,0)" xlink:href="#w"/><use transform="matrix(0.05,0,0,0.05,124.05000000000001,0)" xlink:href="#E"/><use transform="matrix(0.05,0,0,0.05,133.05,0)" xlink:href="#F"/><use transform="matrix(0.05,0,0,0.05,139,0)" xlink:href="#w"/><use transform="matrix(0.05,0,0,0.05,144,0)" xlink:href="#n"/><use transform="matrix(0.05,0,0,0.05,147.95,0)" xlink:href="#o"/><use transform="matrix(0.05,0,0,0.05,162.89999999999998,0)" xlink:href="#p"/><use transform="matrix(0.05,0,0,0.05,172.89999999999998,0)" xlink:href="#D"/><use transform="matrix(0.05,0,0,0.05,184.89999999999998,0)" xlink:href="#B"/><use transform="matrix(0.05,0,0,0.05,194.89999999999998,0)" xlink:href="#p"/><use transform="matrix(0.05,0,0,0.05,204.89999999999998,0)" xlink:href="#p"/><use transform="matrix(0.05,0,0,0.05,214.89999999999998,0)" xlink:href="#w"/><use transform="matrix(0.05,0,0,0.05,219.89999999999998,0)" xlink:href="#E"/><use transform="matrix(0.05,0,0,0.05,228.89999999999998,0)" xlink:href="#G"/></g><path d="M266 0h-40l-56-210L115 0H75L2-248h35L96-30l15-64 43-154h32l59 218 59-218h35" id="M"/><g id="i"><use transform="matrix(0.05,0,0,0.05,0,0)" xlink:href="#s"/><use transform="matrix(0.05,0,0,0.05,10,0)" xlink:href="#p"/><use transform="matrix(0.05,0,0,0.05,20,0)" xlink:href="#y"/><use transform="matrix(0.05,0,0,0.05,30,0)" xlink:href="#p"/><use transform="matrix(0.05,0,0,0.05,40,0)" xlink:href="#q"/><use transform="matrix(0.05,0,0,0.05,45.95,0)" xlink:href="#v"/><use transform="matrix(0.05,0,0,0.05,55.95,0)" xlink:href="#w"/><use transform="matrix(0.05,0,0,0.05,60.95,0)" xlink:href="#p"/><use transform="matrix(0.05,0,0,0.05,70.95,0)" xlink:href="#M"/><use transform="matrix(0.05,0,0,0.05,87.25,0)" xlink:href="#v"/><use transform="matrix(0.05,0,0,0.05,97.25,0)" xlink:href="#q"/><use transform="matrix(0.05,0,0,0.05,103.2,0)" xlink:href="#y"/><use transform="matrix(0.05,0,0,0.05,113.2,0)" xlink:href="#n"/><use transform="matrix(0.05,0,0,0.05,117.15,0)" xlink:href="#y"/><use transform="matrix(0.05,0,0,0.05,127.15,0)" xlink:href="#s"/><use transform="matrix(0.05,0,0,0.05,137.15,0)" xlink:href="#E"/><use transform="matrix(0.05,0,0,0.05,146.15,0)" xlink:href="#F"/><use transform="matrix(0.05,0,0,0.05,152.1,0)" xlink:href="#t"/><use transform="matrix(0.05,0,0,0.05,162.1,0)" xlink:href="#E"/><use transform="matrix(0.05,0,0,0.05,171.1,0)" xlink:href="#p"/><use transform="matrix(0.05,0,0,0.05,181.1,0)" xlink:href="#q"/><use transform="matrix(0.05,0,0,0.05,187.04999999999998,0)" xlink:href="#D"/><use transform="matrix(0.05,0,0,0.05,199.04999999999998,0)" xlink:href="#w"/><use transform="matrix(0.05,0,0,0.05,204.04999999999998,0)" xlink:href="#v"/><use transform="matrix(0.05,0,0,0.05,214.04999999999995,0)" xlink:href="#A"/><use transform="matrix(0.05,0,0,0.05,223.04999999999995,0)" xlink:href="#C"/><use transform="matrix(0.05,0,0,0.05,232.04999999999995,0)" xlink:href="#G"/></g><path d="M30-248c118-7 216 8 213 122C240-48 200 0 122 0H30v-248zM63-27c89 8 146-16 146-99s-60-101-146-95v194" id="N"/><path d="M205 0l-28-72H64L36 0H1l101-248h38L239 0h-34zm-38-99l-47-123c-12 45-31 82-46 123h93" id="O"/><path d="M140-251c81 0 123 46 123 126C263-46 219 4 140 4 59 4 17-45 17-125s42-126 123-126zm0 227c63 0 89-41 89-101s-29-99-89-99c-61 0-89 39-89 99S79-25 140-24" id="P"/><g id="j"><use transform="matrix(0.05,0,0,0.05,0,0)" xlink:href="#m"/><use transform="matrix(0.05,0,0,0.05,10.3,0)" xlink:href="#n"/><use transform="matrix(0.05,0,0,0.05,14.25,0)" xlink:href="#o"/><use transform="matrix(0.05,0,0,0.05,29.200000000000003,0)" xlink:href="#p"/><use transform="matrix(0.05,0,0,0.05,39.2,0)" xlink:href="#D"/><use transform="matrix(0.05,0,0,0.05,51.2,0)" xlink:href="#B"/><use transform="matrix(0.05,0,0,0.05,61.2,0)" xlink:href="#p"/><use transform="matrix(0.05,0,0,0.05,71.2,0)" xlink:href="#p"/><use transform="matrix(0.05,0,0,0.05,81.2,0)" xlink:href="#w"/><use transform="matrix(0.05,0,0,0.05,86.2,0)" xlink:href="#N"/><use transform="matrix(0.05,0,0,0.05,99.15,0)" xlink:href="#O"/><use transform="matrix(0.05,0,0,0.05,111.15,0)" xlink:href="#P"/><path d="M-.9 1.25h126.95v1.32H-.9z"/></g><path d="M232-93c-1 65-40 97-104 97C67 4 28-28 28-90v-158h33c8 89-33 224 67 224 102 0 64-133 71-224h33v155" id="Q"/><g id="k"><use transform="matrix(0.05,0,0,0.05,0,0)" xlink:href="#s"/><use transform="matrix(0.05,0,0,0.05,10,0)" xlink:href="#p"/><use transform="matrix(0.05,0,0,0.05,20,0)" xlink:href="#w"/><use transform="matrix(0.05,0,0,0.05,25,0)" xlink:href="#O"/><use transform="matrix(0.05,0,0,0.05,37,0)" xlink:href="#u"/><use transform="matrix(0.05,0,0,0.05,40.95,0)" xlink:href="#u"/><use transform="matrix(0.05,0,0,0.05,44.900000000000006,0)" xlink:href="#Q"/><use transform="matrix(0.05,0,0,0.05,57.85,0)" xlink:href="#y"/><use transform="matrix(0.05,0,0,0.05,67.85000000000001,0)" xlink:href="#u"/><use transform="matrix(0.05,0,0,0.05,71.80000000000001,0)" xlink:href="#x"/><use transform="matrix(0.05,0,0,0.05,81.80000000000001,0)" xlink:href="#A"/><use transform="matrix(0.05,0,0,0.05,90.80000000000001,0)" xlink:href="#C"/><use transform="matrix(0.05,0,0,0.05,99.80000000000001,0)" xlink:href="#p"/><use transform="matrix(0.05,0,0,0.05,109.80000000000001,0)" xlink:href="#I"/><use transform="matrix(0.05,0,0,0.05,119.80000000000001,0)" xlink:href="#m"/><use transform="matrix(0.05,0,0,0.05,130.1,0)" xlink:href="#n"/><use transform="matrix(0.05,0,0,0.05,134.04999999999998,0)" xlink:href="#o"/><use transform="matrix(0.05,0,0,0.05,148.99999999999997,0)" xlink:href="#p"/><use transform="matrix(0.05,0,0,0.05,158.99999999999997,0)" xlink:href="#D"/><use transform="matrix(0.05,0,0,0.05,170.99999999999997,0)" xlink:href="#B"/><use transform="matrix(0.05,0,0,0.05,180.99999999999997,0)" xlink:href="#p"/><use transform="matrix(0.05,0,0,0.05,190.99999999999997,0)" xlink:href="#p"/><use transform="matrix(0.05,0,0,0.05,200.99999999999997,0)" xlink:href="#w"/><use transform="matrix(0.05,0,0,0.05,205.99999999999997,0)" xlink:href="#E"/><use transform="matrix(0.05,0,0,0.05,214.99999999999997,0)" xlink:href="#F"/><use transform="matrix(0.05,0,0,0.05,220.94999999999996,0)" xlink:href="#G"/></g><g id="l"><use transform="matrix(0.05,0,0,0.05,0,0)" xlink:href="#w"/><use transform="matrix(0.05,0,0,0.05,5,0)" xlink:href="#n"/><use transform="matrix(0.05,0,0,0.05,8.95,0)" xlink:href="#o"/><use transform="matrix(0.05,0,0,0.05,23.9,0)" xlink:href="#p"/><use transform="matrix(0.05,0,0,0.05,33.9,0)" xlink:href="#D"/><use transform="matrix(0.05,0,0,0.05,45.9,0)" xlink:href="#B"/><use transform="matrix(0.05,0,0,0.05,55.900000000000006,0)" xlink:href="#p"/><use transform="matrix(0.05,0,0,0.05,65.9,0)" xlink:href="#p"/><use transform="matrix(0.05,0,0,0.05,75.9,0)" xlink:href="#w"/><use transform="matrix(0.05,0,0,0.05,80.9,0)" xlink:href="#E"/></g></defs></g></svg>