<svg xmlns="http://www.w3.org/2000/svg" xmlns:xlink="http://www.w3.org/1999/xlink" width="1323.2" height="1870.4"><g transform="translate(2518.3999999999996 0)"><path d="M-2200 120v1320" fill="none"/><path d="M-2200 120v10m0 10v20m0 10v20m0 10v20m0 10v20m0 10v20m0 10v20m0 10v20m0 10v20m0 10v20m0 10v20m0 10v20m0 10v20m0 10v20m0 10v20m0 10v20m0 10v20m0 10v20m0 10v20m0 10v20m0 10v20m0 10v20m0 10v20m0 10v20m0 10v20m0 10v20m0 10v20m0 10v20m0 10v20m0 10v20m0 10v20m0 10v20m0 10v20m0 10v20m0 10v20m0 10v20m0 10v20m0 10v20m0 10v20m0 10v20m0 10v20m0 10v20m0 10v20m0 10v20m0 10v10" stroke="#000" stroke-width="2" fill="none"/><path d="M-1880 120v1320" fill="none"/><path d="M-1880 120v10m0 10v20m0 10v20m0 10v20m0 10v20m0 10v20m0 10v20m0 10v20m0 10v20m0 10v20m0 10v20m0 10v20m0 10v20m0 10v20m0 10v20m0 10v20m0 10v20m0 10v20m0 10v20m0 10v20m0 10v20m0 10v20m0 10v20m0 10v20m0 10v20m0 10v20m0 10v20m0 10v20m0 10v20m0 10v20m0 10v20m0 10v20m0 10v20m0 10v20m0 10v20m0 10v20m0 10v20m0 10v20m0 10v20m0 10v20m0 10v20m0 10v20m0 10v20m0 10v20m0 10v10" stroke="#000" stroke-width="2" fill="none"/><path d="M-2417.75 192.25c0 6.77-5.48 12.25-12.25 12.25s-12.25-5.48-12.25-12.25S-2436.77 180-2430 180s12.25 5.48 12.25 12.25z" stroke="#000" stroke-width="2" fill="#fff"/><path d="M-2460 185c0-2.76 2.24-5 5-5h50c2.76 0 5 2.24 5 5v88c0 2.76-2.24 5-5 5h-50c-2.76 0-5-2.24-5-5z" fill="none"/><path d="M-2430 204.5v29.3c0 2.76 1.36 6.78 3.04 8.97L-2400 278m-30-39.2l-30 39.2m0-61.25h60" stroke="#000" stroke-width="2" fill="none"/><use xlink:href="#a" transform="matrix(1,0,0,1,-2540,278) translate(91.05 14.6)"/><path d="M-2250 65c0-2.76 2.24-5 5-5h90c2.76 0 5 2.24 5 5v50c0 2.76-2.24 5-5 5h-90c-2.76 0-5-2.24-5-5z" stroke="#000" stroke-width="2" fill="#fff"/><use xlink:href="#b" transform="matrix(1,0,0,1,-2250,60) translate(6.254999999999997 33.15)"/><path d="M-2220 245c0-2.76 2.24-5 5-5h30c2.76 0 5 2.24 5 5v1110c0 2.76-2.24 5-5 5h-30c-2.76 0-5-2.24-5-5z" stroke="#000" stroke-width="2" fill="#fff"/><path d="M-2400 240h182.26c.22 0 .4.18.4.4v.4" stroke="#000" stroke-width="2" fill="none"/><path d="M-2217.34 240.8l-14.5 3.82.52-9.25z"/><path d="M-2216.17 240.2l-.4.05-2.47 1.8-.08.26-13.8 3.64.68-12zm-14.6 3.1l10.2-2.68-9.83-3.82z"/><use xlink:href="#c" transform="matrix(1,0,0,1,-2394.2457678939227,214.39999999999998) translate(0 14.4)"/><path d="M-1630 65c0-2.76 2.24-5 5-5h140c2.76 0 5 2.24 5 5v70c0 2.76-2.24 5-5 5h-140c-2.76 0-5-2.24-5-5z" stroke="#000" stroke-width="2" fill="#fff"/><use xlink:href="#d" transform="matrix(1,0,0,1,-1630,60) translate(34.07999999999999 44.4)"/><path d="M-1940 65c0-2.76 2.24-5 5-5h110c2.76 0 5 2.24 5 5v50c0 2.76-2.24 5-5 5h-110c-2.76 0-5-2.24-5-5z" stroke="#000" stroke-width="2" fill="#fff"/><use xlink:href="#e" transform="matrix(1,0,0,1,-1940,60) translate(6.6049999999999915 33.15)"/><path d="M-1900 285c0-2.76 2.24-5 5-5h30c2.76 0 5 2.24 5 5v490c0 2.76-2.24 5-5 5h-30c-2.76 0-5-2.24-5-5zM-1575 325c0-2.76 2.24-5 5-5h30c2.76 0 5 2.24 5 5v110c0 2.76-2.24 5-5 5h-30c-2.76 0-5-2.24-5-5z" stroke="#000" stroke-width="2" fill="#fff"/><path d="M-2179 283.97h278.3" stroke="#000" stroke-width="2" fill="none"/><path d="M-2179 284.97h-1v-2h1zM-1900.7 283.97l-14.28 4.63v-9.27z"/><path d="M-1899.45 283.32l-.47 1.44-16.06 5.22v-12.03zm-14.53 3.9l10.03-3.25-10.03-3.26z"/><use xlink:href="#f" transform="matrix(1,0,0,1,-2124.682166577045,258.3663794855202) translate(0 14.4)"/><use xlink:href="#g" transform="matrix(1,0,0,1,-2124.682166577045,258.3663794855202) translate(98.8 14.4)"/><path d="M-1860 325h285" stroke="#000" stroke-width="2" fill="none"/><path d="M-1575 325l-14.27 4.64v-9.28z"/><path d="M-1574.7 324.05l-.3.95v1.05l-15.27 4.96v-12zm-13.57 4.2l10.03-3.25-10.03-3.26z"/><use xlink:href="#h" transform="matrix(1,0,0,1,-1849.116915610507,299.40000000000003) translate(0 14.4)"/><path d="M-1555 140v179" fill="none"/><path d="M-1555 140v9.94m0 9.95v19.88m0 9.94v19.9m0 9.94v19.88m0 9.95v19.88m0 9.94v19.9m0 9.94V319" stroke="#000" stroke-width="2" fill="none"/><path d="M-1574.2 437.35H-1860" fill="none"/><path d="M-1574.2 437.35h-9.5m-9.54 0h-19.05m-9.52 0h-19.06m-9.52 0h-19.06m-9.52 0h-19.06m-9.53 0h-19.05m-9.53 0h-19.05m-9.53 0h-19.05m-9.53 0h-19.06m-9.53 0h-19.05m-9.52 0h-9.53" stroke="#000" stroke-width="2" fill="none"/><path d="M-1573.46 438.35h-.73v-1zM-1842.28 428.03l-15.76 9.32 15.76 9.32-1 1.72-16.72-9.9v-2.32l16.7-9.87z"/><use xlink:href="#i" transform="matrix(1,0,0,1,-1744.5428279037849,411.74670893035204) translate(0 14.4)"/><path d="M-2440 465c0-2.76 2.24-5 5-5h90c2.76 0 5 2.24 5 5v10c0 2.76-1.58 6.58-3.54 8.54l-2.92 2.92c-1.96 1.96-5.78 3.54-8.54 3.54h-80c-2.76 0-5-2.24-5-5z" fill="#fff"/><path d="M-2440 465c0-2.76 2.24-5 5-5h970c2.76 0 5 2.24 5 5v830c0 2.76-2.24 5-5 5h-970c-2.76 0-5-2.24-5-5z" stroke="#000" stroke-width="2" fill="none"/><path d="M-2340 460v20l-10 10h-90" stroke="#000" stroke-width="2" fill="#fff"/><path d="M-2440 818.24h20m15 0h20m15 0h20m15 0h20m15 0h20m15 0h20m15 0h20m15 0h20m15 0h20m15 0h20m15 0h20m15 0h20m15 0h20m15 0h20m15 0h20m15 0h20m15 0h20m15 0h20m15 0h20m15 0h20m15 0h20m15 0h20m15 0h20m15 0h20m15 0h20m15 0h20m15 0h20m15 0h20" stroke="#000" stroke-width="2" fill="none"/><use xlink:href="#j" transform="matrix(1,0,0,1,-2432,460) translate(0 18.6)"/><use xlink:href="#k" transform="matrix(1,0,0,1,-2428,498) translate(0 18.6)"/><use xlink:href="#l" transform="matrix(1,0,0,1,-2428,498) translate(64.9 18.6)"/><use xlink:href="#m" transform="matrix(1,0,0,1,-2428,498) translate(80.4 18.6)"/><use xlink:href="#n" transform="matrix(1,0,0,1,-2428,826.2352941176471) translate(0 18.6)"/><use xlink:href="#o" transform="matrix(1,0,0,1,-2428,826.2352941176471) translate(64.9 18.6)"/><use xlink:href="#p" transform="matrix(1,0,0,1,-2428,826.2352941176471) translate(80.4 18.6)"/><path d="M-1553.4 441v999" fill="none"/><path d="M-1553.4 441v10.1m0 10.08v20.18m0 10.1v20.18m0 10.1v20.17m0 10.1v20.18m0 10.1v20.17m0 10.1v20.18m0 10.1V663m0 10.1v20.17m0 10.1v20.18m0 10.1v20.17m0 10.1v20.17m0 10.08v20.18m0 10.1v20.18m0 10.1v20.17m0 10.1v20.18m0 10.1v20.17m0 10.1v20.18m0 10.1V996m0 10.1v20.17m0 10.1v20.18m0 10.1v20.17m0 10.1v20.17m0 10.08v20.18m0 10.1v20.18m0 10.1v20.17m0 10.1v20.18m0 10.1v20.17m0 10.1v20.18m0 10.1V1329m0 10.1v20.17m0 10.1v20.18m0 10.1v20.17m0 10.1V1440" stroke="#000" stroke-width="2" fill="none"/><path d="M-1552.4 441h-2v-1h2z"/><path d="M-1835 1165c0-2.76 2.24-5 5-5h226c2.76 0 6.58 1.58 8.54 3.54l16.92 16.92c1.96 1.96 3.54 5.78 3.54 8.54v86c0 2.76-2.24 5-5 5h-250c-2.76 0-5-2.24-5-5z" stroke="#000" stroke-width="2" fill="#fff"/><path d="M-1597.8 1164.85c-.66-2.68.38-3.27 2.34-1.3l16.92 16.9c1.96 1.97 1.37 3-1.3 2.34l-9.5-2.4c-2.7-.66-5.4-3.37-6.07-6.05z" stroke="#000" stroke-width="2" fill="#b3b3b3"/><use xlink:href="#q" transform="matrix(1,0,0,1,-1835,1160) translate(5.01 29.4)"/><use xlink:href="#r" transform="matrix(1,0,0,1,-1835,1160) translate(90.81000000000002 29.4)"/><use xlink:href="#s" transform="matrix(1,0,0,1,-1835,1160) translate(108.76000000000002 29.4)"/><use xlink:href="#t" transform="matrix(1,0,0,1,-1835,1160) translate(195.66000000000003 29.4)"/><use xlink:href="#u" transform="matrix(1,0,0,1,-1835,1160) translate(5.01 51)"/><use xlink:href="#v" transform="matrix(1,0,0,1,-1835,1160) translate(35.01 51)"/><use xlink:href="#w" transform="matrix(1,0,0,1,-1835,1160) translate(152.81 51)"/><use xlink:href="#x" transform="matrix(1,0,0,1,-1835,1160) translate(182.61 51)"/><use xlink:href="#y" transform="matrix(1,0,0,1,-1835,1160) translate(5.01 72.60000000000001)"/><use xlink:href="#z" transform="matrix(1,0,0,1,-1835,1160) translate(68.91 72.60000000000001)"/><use xlink:href="#A" transform="matrix(1,0,0,1,-1835,1160) translate(156.76 72.60000000000001)"/><use xlink:href="#B" transform="matrix(1,0,0,1,-1835,1160) translate(5.01 94.20000000000002)"/><path d="M-1695.4 1159v-124.5c0-2.76-2.24-5-5-5H-1875m0 0c0-2.76-2.24-5-5-5s-5 2.24-5 5h-50c-2.76 0-5-2.24-5-5V900" stroke="#000" stroke-width="2" fill="none"/><path d="M-1694.4 1160h-2v-1h2z"/><path d="M-1940 900l4.64 14.27h-9.28z" stroke="#000" stroke-width="2"/><path d="M-2219.85 1358.14H-2480" fill="none"/><path d="M-2219.85 1358.14h-9.63m-9.64 0h-19.27m-9.62 0h-19.27m-9.63 0h-19.27m-9.64 0h-19.27m-9.64 0H-2374m-9.65 0h-19.27m-9.63 0h-19.27m-9.64 0h-19.27m-9.63 0h-9.64" stroke="#000" stroke-width="2" fill="none"/><path d="M-2217.95 1359.04l.3.1h-2.2v-2h.5z"/><path d="M-2462.8 1347.96l-17.2 10.18 17.2 10.18M-1900 563.42h-260.25" stroke="#000" stroke-width="2" fill="none"/><path d="M-2146 568.05l-14.25-4.63 14.26-4.64z"/><path d="M-2145 569.43l-15.08-4.9-.17-1.1-.63-.86 15.9-5.16zm-12.02-6l10.03 3.25v-6.52z"/><use xlink:href="#C" transform="matrix(1,0,0,1,-2117.5163969071014,537.819613280384) translate(0 14.4)"/><path d="M-2200 565c0-2.76 2.24-5 5-5h30c2.76 0 5 2.24 5 5v50c0 2.76-2.24 5-5 5h-30c-2.76 0-5-2.24-5-5z" stroke="#000" stroke-width="2" fill="#fff"/><path d="M-2159.4 616.37h129.52c.1 0 .18-.08.18-.2 0-.1.08-.17.2-.17h129.5" fill="none"/><path d="M-2159.4 616.37h9.63m9.62 0h19.24m9.6 0h19.25m9.62 0h19.24m9.63 0h19.25m9.25-.37h19.24m9.62 0h19.23m9.62 0h19.25m9.62 0h19.24m9.62 0h9.62" stroke="#000" stroke-width="2" fill="none"/><path d="M-2159.4 617.37h-1.37l.65-2h.73zM-1900 614.84v2.32l-16.7 9.88-1.02-1.72 15.76-9.32-15.76-9.32 1-1.72z"/><use xlink:href="#D" transform="matrix(1,0,0,1,-2069.15922581995,590.4015173687505) translate(0 14.4)"/><path d="M-1420 605c0-2.76 2.24-5 5-5h140c2.76 0 5 2.24 5 5v70c0 2.76-2.24 5-5 5h-140c-2.76 0-5-2.24-5-5z" stroke="#000" stroke-width="2" fill="#fff"/><use xlink:href="#E" transform="matrix(1,0,0,1,-1420,600) translate(33.779999999999994 44.4)"/><path d="M-1345 680v760" fill="none"/><path d="M-1345 680v10.13m0 10.14v20.26m0 10.14v20.26m0 10.14v20.26m0 10.14v20.26m0 10.14v20.26m0 10.14v20.26m0 10.14v20.26m0 10.14v20.26m0 10.14v20.26m0 10.14v20.26m0 10.14v20.26m0 10.14v20.26m0 10.14v20.26m0 10.14v20.26m0 10.14v20.26m0 10.14v20.26m0 10.14v20.26m0 10.14v20.26m0 10.14v20.26m0 10.14v20.26m0 10.14v20.26m0 10.14v20.26m0 10.14v20.26m0 10.14v20.26m0 10.14V1440" stroke="#000" stroke-width="2" fill="none"/><path d="M-1860 640h301.6m0 0c0-2.76 2.24-5 5-5s5 2.24 5 5h128.4" fill="none"/><path d="M-1860 640h10.05m10.06 0h20.1m10.07 0h20.1m10.06 0h20.1m10.06 0h20.1m10.05 0h20.1m10.06 0h20.1m10.07 0h20.1m10.06 0h20.1m10.06 0h20.1m10.05 0h10.05m0 0l.5-1.5c.25-.8 1-1.85 1.7-2.35l.57-.42c.36-.26 1-.53 1.44-.6.45-.07 1.14-.02 1.56.12l.75.24c.8.25 1.85 1 2.35 1.7l.42.57c.26.36.53 1 .6 1.44.07.45.5.8.93.8h9.9m10.7 0h21.4m10.7 0h21.4m10.7 0h21.4m10.7 0h10.7" stroke="#000" stroke-width="2" fill="none"/><path d="M-1420 638.84v2.32l-16.7 9.88-1.02-1.72 15.76-9.32-15.76-9.32 1-1.72z"/><use xlink:href="#F" transform="matrix(1,0,0,1,-1778.5343194822112,614.4000000000001) translate(0 14.4)"/><path d="M-1899.64 776.72h-139.4c-.15 0-.28.13-.28.3 0 .16-.13.3-.3.3H-2179" fill="none"/><path d="M-1899.64 776.72H-1910m-10.38 0h-20.74m-10.37 0h-20.72m-10.37 0h-20.73m-10.37 0h-20.73m-9.78.6h-20.75m-10.37 0h-20.73m-10.37 0h-20.74m-10.37 0h-20.73m-10.37 0H-2179" stroke="#000" stroke-width="2" fill="none"/><path d="M-1898.9 777.72h-.74v-1zM-2161.28 768l-15.76 9.3 15.76 9.33-1 1.72-17.72-10.47v-1.14l17.7-10.47z"/><path d="M-1900 835c0-2.76 2.24-5 5-5h30c2.76 0 5 2.24 5 5v260c0 2.76-2.24 5-5 5h-30c-2.76 0-5-2.24-5-5zM-2200 880.2c0-2.76 2.24-5 5-5h30c2.76 0 5 2.24 5 5v110c0 2.76-2.24 5-5 5h-30c-2.76 0-5-2.24-5-5z" stroke="#000" stroke-width="2" fill="#fff"/><path d="M-1901 880h-258.02" stroke="#000" stroke-width="2" fill="none"/><path d="M-1900 881h-1v-2h1zM-2144.75 884.64l-14.27-4.64 14.27-4.64z"/><path d="M-2143.75 886l-16.25-5.27v-.53l-.14-.9 16.4-5.3zm-12.03-6l10.03 3.26v-6.52z"/><g><use xlink:href="#G" transform="matrix(1,0,0,1,-2153.1249999999995,854.4000000000001) translate(0 14.4)"/></g><path d="M-2160.1 993.77h215.1m0 0c0-2.76 2.24-5 5-5s5 2.24 5 5h34" fill="none"/><path d="M-2160.1 993.77h10.23m10.24 0h20.5m10.23 0h20.5m10.23 0h20.5m10.23 0h20.5m10.24 0h20.48m10.25 0h20.48m10.26 0h10.24m0 0l.5-1.5c.25-.8 1-1.85 1.7-2.35l.57-.42c.36-.26 1-.53 1.44-.6.45-.07 1.14-.02 1.56.12l.75.24c.8.26 1.85 1.02 2.35 1.7l.42.58c.26.36.53 1 .6 1.44.07.44.5.8.93.8h10.53m11.34 0h11.33" stroke="#000" stroke-width="2" fill="none"/><path d="M-2160.1 994.77h-3v-.05l2.14-1.57.12-.38h.73zM-1900 993.2v1.14l-17.7 10.47-1.02-1.7 15.76-9.33-15.76-9.32 1-1.72z"/><path d="M-1900.7 1096.98H-2179" fill="none"/><path d="M-1900.7 1096.98h-10.3m-10.3 0h-20.62m-10.3 0h-20.63m-10.3 0h-20.62m-10.3 0h-20.62m-10.3 0h-20.62m-10.3 0h-20.62m-10.3 0h-20.62m-10.3 0h-20.62m-10.3 0H-2179" stroke="#000" stroke-width="2" fill="none"/><path d="M-1899.75 1096.58l1.02 1.4h-1.96v-2h.86zM-2161.28 1087.66l-15.76 9.32 15.76 9.32-1 1.72-17.72-10.47v-1.14l17.7-10.47z"/><defs><path d="M232-93c-1 65-40 97-104 97C67 4 28-28 28-90v-158h33c8 89-33 224 67 224 102 0 64-133 71-224h33v155" id="H"/><path d="M135-143c-3-34-86-38-87 0 15 53 115 12 119 90S17 21 10-45l28-5c4 36 97 45 98 0-10-56-113-15-118-90-4-57 82-63 122-42 12 7 21 19 24 35" id="I"/><path d="M100-194c63 0 86 42 84 106H49c0 40 14 67 53 68 26 1 43-12 49-29l28 8c-11 28-37 45-77 45C44 4 14-33 15-96c1-61 26-98 85-98zm52 81c6-60-76-77-97-28-3 7-6 17-6 28h103" id="J"/><path d="M114-163C36-179 61-72 57 0H25l-1-190h30c1 12-1 29 2 39 6-27 23-49 58-41v29" id="K"/><g id="a"><use transform="matrix(0.05,0,0,0.05,0,0)" xlink:href="#H"/><use transform="matrix(0.05,0,0,0.05,12.950000000000001,0)" xlink:href="#I"/><use transform="matrix(0.05,0,0,0.05,21.950000000000003,0)" xlink:href="#J"/><use transform="matrix(0.05,0,0,0.05,31.950000000000003,0)" xlink:href="#K"/></g><path d="M33-154v-36h34v36H33zM33 0v-36h34V0H33" id="L"/><path d="M30 0v-248h33v221h125V0H30" id="M"/><path d="M100-194c62-1 85 37 85 99 1 63-27 99-86 99S16-35 15-95c0-66 28-99 85-99zM99-20c44 1 53-31 53-75 0-43-8-75-51-75s-53 32-53 75 10 74 51 75" id="N"/><path d="M177-190C167-65 218 103 67 71c-23-6-38-20-44-43l32-5c15 47 100 32 89-28v-30C133-14 115 1 83 1 29 1 15-40 15-95c0-56 16-97 71-98 29-1 48 16 59 35 1-10 0-23 2-32h30zM94-22c36 0 50-32 50-73 0-42-14-75-50-75-39 0-46 34-46 75s6 73 46 73" id="O"/><path d="M24-231v-30h32v30H24zM24 0v-190h32V0H24" id="P"/><path d="M117-194c89-4 53 116 60 194h-32v-121c0-31-8-49-39-48C34-167 62-67 57 0H25l-1-190h30c1 10-1 24 2 32 11-22 29-35 61-36" id="Q"/><path d="M137 0h-34L2-248h35l83 218 83-218h36" id="R"/><path d="M206 0h-36l-40-164L89 0H53L-1-190h32L70-26l43-164h34l41 164 42-164h31" id="S"/><g id="b"><use transform="matrix(0.05,0,0,0.05,0,0)" xlink:href="#L"/><use transform="matrix(0.05,0,0,0.05,5,0)" xlink:href="#M"/><use transform="matrix(0.05,0,0,0.05,15,0)" xlink:href="#N"/><use transform="matrix(0.05,0,0,0.05,25,0)" xlink:href="#O"/><use transform="matrix(0.05,0,0,0.05,35,0)" xlink:href="#P"/><use transform="matrix(0.05,0,0,0.05,38.95,0)" xlink:href="#Q"/><use transform="matrix(0.05,0,0,0.05,48.95,0)" xlink:href="#R"/><use transform="matrix(0.05,0,0,0.05,60.6,0)" xlink:href="#P"/><use transform="matrix(0.05,0,0,0.05,64.55,0)" xlink:href="#J"/><use transform="matrix(0.05,0,0,0.05,74.55,0)" xlink:href="#S"/><path d="M-.9 1.25h89.3v1.32H-.9z"/></g><path d="M24 0v-261h32V0H24" id="T"/><path d="M30-248c87 1 191-15 191 75 0 78-77 80-158 76V0H30v-248zm33 125c57 0 124 11 124-50 0-59-68-47-124-48v98" id="U"/><path d="M85-194c31 0 48 13 60 33l-1-100h32l1 261h-30c-2-10 0-23-3-31C134-8 116 4 85 4 32 4 16-35 15-94c0-66 23-100 70-100zm9 24c-40 0-46 34-46 75 0 40 6 74 45 74 42 0 51-32 51-76 0-42-9-74-50-73" id="V"/><path d="M87 75C49 33 22-17 22-94c0-76 28-126 65-167h31c-38 41-64 92-64 168S80 34 118 75H87" id="W"/><path d="M33-261c38 41 65 92 65 168S71 34 33 75H2C39 34 66-17 66-93S39-220 2-261h31" id="X"/><g id="c"><use transform="matrix(0.05,0,0,0.05,0,0)" xlink:href="#T"/><use transform="matrix(0.05,0,0,0.05,3.95,0)" xlink:href="#N"/><use transform="matrix(0.05,0,0,0.05,13.949999999999998,0)" xlink:href="#O"/><use transform="matrix(0.05,0,0,0.05,23.95,0)" xlink:href="#P"/><use transform="matrix(0.05,0,0,0.05,27.899999999999995,0)" xlink:href="#Q"/><use transform="matrix(0.05,0,0,0.05,37.9,0)" xlink:href="#U"/><use transform="matrix(0.05,0,0,0.05,49.9,0)" xlink:href="#K"/><use transform="matrix(0.05,0,0,0.05,55.85,0)" xlink:href="#J"/><use transform="matrix(0.05,0,0,0.05,65.85,0)" xlink:href="#I"/><use transform="matrix(0.05,0,0,0.05,74.85,0)" xlink:href="#I"/><use transform="matrix(0.05,0,0,0.05,83.85,0)" xlink:href="#J"/><use transform="matrix(0.05,0,0,0.05,93.85,0)" xlink:href="#V"/><use transform="matrix(0.05,0,0,0.05,103.84999999999998,0)" xlink:href="#W"/><use transform="matrix(0.05,0,0,0.05,109.80000000000001,0)" xlink:href="#X"/></g><path d="M30-248c118-7 216 8 213 122C240-48 200 0 122 0H30v-248zM63-27c89 8 146-16 146-99s-60-101-146-95v194" id="Y"/><path d="M205 0l-28-72H64L36 0H1l101-248h38L239 0h-34zm-38-99l-47-123c-12 45-31 82-46 123h93" id="Z"/><path d="M140-251c81 0 123 46 123 126C263-46 219 4 140 4 59 4 17-45 17-125s42-126 123-126zm0 227c63 0 89-41 89-101s-29-99-89-99c-61 0-89 39-89 99S79-25 140-24" id="aa"/><g id="d"><use transform="matrix(0.05,0,0,0.05,0,0)" xlink:href="#L"/><use transform="matrix(0.05,0,0,0.05,5,0)" xlink:href="#H"/><use transform="matrix(0.05,0,0,0.05,17.950000000000003,0)" xlink:href="#I"/><use transform="matrix(0.05,0,0,0.05,26.950000000000003,0)" xlink:href="#J"/><use transform="matrix(0.05,0,0,0.05,36.95,0)" xlink:href="#K"/><use transform="matrix(0.05,0,0,0.05,42.900000000000006,0)" xlink:href="#Y"/><use transform="matrix(0.05,0,0,0.05,55.85,0)" xlink:href="#Z"/><use transform="matrix(0.05,0,0,0.05,67.85000000000001,0)" xlink:href="#aa"/><path d="M-.9 1.25h83.65v1.32H-.9z"/></g><path d="M212-179c-10-28-35-45-73-45-59 0-87 40-87 99 0 60 29 101 89 101 43 0 62-24 78-52l27 14C228-24 195 4 139 4 59 4 22-46 18-125c-6-104 99-153 187-111 19 9 31 26 39 46" id="ab"/><path d="M59-47c-2 24 18 29 38 22v24C64 9 27 4 27-40v-127H5v-23h24l9-43h21v43h35v23H59v120" id="ac"/><g id="e"><use transform="matrix(0.05,0,0,0.05,0,0)" xlink:href="#L"/><use transform="matrix(0.05,0,0,0.05,5,0)" xlink:href="#M"/><use transform="matrix(0.05,0,0,0.05,15,0)" xlink:href="#N"/><use transform="matrix(0.05,0,0,0.05,25,0)" xlink:href="#O"/><use transform="matrix(0.05,0,0,0.05,35,0)" xlink:href="#P"/><use transform="matrix(0.05,0,0,0.05,38.95,0)" xlink:href="#Q"/><use transform="matrix(0.05,0,0,0.05,48.95,0)" xlink:href="#ab"/><use transform="matrix(0.05,0,0,0.05,61.900000000000006,0)" xlink:href="#N"/><use transform="matrix(0.05,0,0,0.05,71.9,0)" xlink:href="#Q"/><use transform="matrix(0.05,0,0,0.05,81.9,0)" xlink:href="#ac"/><use transform="matrix(0.05,0,0,0.05,86.9,0)" xlink:href="#K"/><use transform="matrix(0.05,0,0,0.05,92.85000000000001,0)" xlink:href="#N"/><use transform="matrix(0.05,0,0,0.05,102.85000000000001,0)" xlink:href="#T"/><path d="M-.9 1.25h108.6v1.32H-.9z"/></g><path d="M67-158c22-48 132-52 116 29L158 0h-32l25-140c3-38-53-32-70-12C52-117 51-52 38 0H6l36-190h30" id="ad"/><path d="M165-48c-4 18 1 34 23 27l-3 20c-29 8-62 0-52-35h-2C116-14 99 4 63 4 30 4 8-16 8-49c0-68 71-67 138-67 10-26 0-56-31-54-26 1-42 9-47 31l-32-5c8-67 160-71 144 15-5 28-9 54-15 81zM42-50c3 52 80 24 89-6 7-12 7-24 11-38-47 1-103-4-100 44" id="ae"/><path d="M248-111c6-24 9-61-24-58-72 9-57 108-77 169h-31l26-142c3-37-50-30-64-10C52-115 50-51 37 0H6l36-190h30c-1 10-6 24-4 32 13-43 101-52 105 5 13-22 29-41 61-41 90 0 28 129 23 194h-31" id="af"/><path d="M111-194c62-3 86 47 72 106H45c-7 38 6 69 45 68 27-1 43-14 53-32l24 11C152-15 129 4 87 4 38 3 12-23 12-71c0-70 32-119 99-123zm44 81c14-66-71-72-95-28-4 8-8 17-11 28h106" id="ag"/><path d="M68-38c1 34 0 65-14 84H32c9-13 17-26 17-46H33v-38h35" id="ah"/><g id="f"><use transform="matrix(0.05,0,0,0.05,0,0)" xlink:href="#T"/><use transform="matrix(0.05,0,0,0.05,3.95,0)" xlink:href="#N"/><use transform="matrix(0.05,0,0,0.05,13.949999999999998,0)" xlink:href="#O"/><use transform="matrix(0.05,0,0,0.05,23.95,0)" xlink:href="#P"/><use transform="matrix(0.05,0,0,0.05,27.899999999999995,0)" xlink:href="#Q"/><use transform="matrix(0.05,0,0,0.05,37.9,0)" xlink:href="#W"/><use transform="matrix(0.05,0,0,0.05,43.85,0)" xlink:href="#ad"/><use transform="matrix(0.05,0,0,0.05,53.85,0)" xlink:href="#ae"/><use transform="matrix(0.05,0,0,0.05,63.85,0)" xlink:href="#af"/><use transform="matrix(0.05,0,0,0.05,78.8,0)" xlink:href="#ag"/><use transform="matrix(0.05,0,0,0.05,88.8,0)" xlink:href="#ah"/></g><path d="M67-162c32-53 139-36 121 50C175-51 163 2 97 4 68 4 52-11 42-31 38 6 28 39 22 75H-9l50-265h29c-1 10 0 20-3 28zm89 36c0-26-10-43-35-43-54 0-67 50-69 103-1 29 14 45 42 46 53 0 62-58 62-106" id="ai"/><path d="M188 0h-37l-8-164L71 0H34L18-190h31l8 164 75-164h34l8 164 74-164h31" id="aj"/><path d="M179 0l23-115H67L45 0H11l48-248h34L72-143h135l21-105h32L212 0h-33" id="ak"/><path d="M55-144c13 50 104 24 104 88C159 21 15 23 1-39l26-10c6 40 102 42 102-4-13-50-104-23-104-87 0-71 143-71 148-8l-29 4c-5-35-85-37-89 0" id="al"/><path d="M67-158c15-20 31-36 64-36 94 0 33 127 27 194h-32l25-140c3-38-53-32-70-12C52-117 51-51 37 0H6l51-261h31" id="am"/><g id="g"><use transform="matrix(0.05,0,0,0.05,0,0)" xlink:href="#ai"/><use transform="matrix(0.05,0,0,0.05,10,0)" xlink:href="#aj"/><use transform="matrix(0.05,0,0,0.05,22.950000000000003,0)" xlink:href="#ak"/><use transform="matrix(0.05,0,0,0.05,35.900000000000006,0)" xlink:href="#ae"/><use transform="matrix(0.05,0,0,0.05,45.900000000000006,0)" xlink:href="#al"/><use transform="matrix(0.05,0,0,0.05,54.900000000000006,0)" xlink:href="#am"/><use transform="matrix(0.05,0,0,0.05,64.9,0)" xlink:href="#X"/></g><path d="M101-234c-31-9-42 10-38 44h38v23H63V0H32v-167H5v-23h27c-7-52 17-82 69-68v24" id="an"/><g id="h"><use transform="matrix(0.05,0,0,0.05,0,0)" xlink:href="#an"/><use transform="matrix(0.05,0,0,0.05,5,0)" xlink:href="#P"/><use transform="matrix(0.05,0,0,0.05,8.95,0)" xlink:href="#Q"/><use transform="matrix(0.05,0,0,0.05,18.95,0)" xlink:href="#V"/><use transform="matrix(0.05,0,0,0.05,28.950000000000003,0)" xlink:href="#H"/><use transform="matrix(0.05,0,0,0.05,41.9,0)" xlink:href="#I"/><use transform="matrix(0.05,0,0,0.05,50.9,0)" xlink:href="#J"/><use transform="matrix(0.05,0,0,0.05,60.900000000000006,0)" xlink:href="#K"/></g><path d="M44-68c0 29 11 47 38 47 30 0 42-19 51-41l28 9C148-21 126 4 82 4 31 4 10-29 12-85c3-77 74-140 146-93 12 8 15 23 18 40l-31 5c-1-22-13-36-36-36-52 0-65 49-65 101" id="ao"/><path d="M30-147c31-64 166-65 159 27C183-49 158 1 86 4 9 8 1-88 30-147zM88-20c53 0 68-48 68-100 0-31-11-51-44-50-52 1-68 46-68 97 0 32 13 53 44 53" id="ap"/><path d="M66-151c12-25 30-51 66-40l-6 26C45-176 58-65 38 0H6l36-190h30" id="aq"/><path d="M51-54c-9 22 5 41 31 30L79-1C43 14 10-4 19-52l22-115H19l5-23h22l19-43h21l-9 43h35l-4 23H73" id="ar"/><g id="i"><use transform="matrix(0.05,0,0,0.05,0,0)" xlink:href="#ao"/><use transform="matrix(0.05,0,0,0.05,9,0)" xlink:href="#ap"/><use transform="matrix(0.05,0,0,0.05,19,0)" xlink:href="#aq"/><use transform="matrix(0.05,0,0,0.05,24.95,0)" xlink:href="#aq"/><use transform="matrix(0.05,0,0,0.05,30.899999999999995,0)" xlink:href="#ag"/><use transform="matrix(0.05,0,0,0.05,40.9,0)" xlink:href="#ao"/><use transform="matrix(0.05,0,0,0.05,49.9,0)" xlink:href="#ar"/></g><path d="M141-36C126-15 110 5 73 4 37 3 15-17 15-53c-1-64 63-63 125-63 3-35-9-54-41-54-24 1-41 7-42 31l-33-3c5-37 33-52 76-52 45 0 72 20 72 64v82c-1 20 7 32 28 27v20c-31 9-61-2-59-35zM48-53c0 20 12 33 32 33 41-3 63-29 60-74-43 2-92-5-92 41" id="as"/><path d="M108 0H70L1-190h34L89-25l56-165h34" id="at"/><g id="j"><use transform="matrix(0.05,0,0,0.05,0,0)" xlink:href="#Z"/><use transform="matrix(0.05,0,0,0.05,12,0)" xlink:href="#T"/><use transform="matrix(0.05,0,0,0.05,15.949999999999998,0)" xlink:href="#ac"/><use transform="matrix(0.05,0,0,0.05,20.95,0)" xlink:href="#J"/><use transform="matrix(0.05,0,0,0.05,30.950000000000003,0)" xlink:href="#K"/><use transform="matrix(0.05,0,0,0.05,36.9,0)" xlink:href="#Q"/><use transform="matrix(0.05,0,0,0.05,46.9,0)" xlink:href="#as"/><use transform="matrix(0.05,0,0,0.05,56.900000000000006,0)" xlink:href="#ac"/><use transform="matrix(0.05,0,0,0.05,61.900000000000006,0)" xlink:href="#P"/><use transform="matrix(0.05,0,0,0.05,65.85,0)" xlink:href="#at"/><use transform="matrix(0.05,0,0,0.05,74.85,0)" xlink:href="#J"/></g><path d="M26 75v-336h71v23H56V52h41v23H26" id="au"/><path d="M96-169c-40 0-48 33-48 73s9 75 48 75c24 0 41-14 43-38l32 2c-6 37-31 61-74 61-59 0-76-41-82-99-10-93 101-131 147-64 4 7 5 14 7 22l-32 3c-4-21-16-35-41-35" id="av"/><g id="k"><use transform="matrix(0.05,0,0,0.05,0,0)" xlink:href="#au"/><use transform="matrix(0.05,0,0,0.05,5,0)" xlink:href="#av"/><use transform="matrix(0.05,0,0,0.05,14,0)" xlink:href="#N"/><use transform="matrix(0.05,0,0,0.05,24,0)" xlink:href="#K"/><use transform="matrix(0.05,0,0,0.05,29.950000000000003,0)" xlink:href="#K"/><use transform="matrix(0.05,0,0,0.05,35.9,0)" xlink:href="#J"/><use transform="matrix(0.05,0,0,0.05,45.9,0)" xlink:href="#av"/><use transform="matrix(0.05,0,0,0.05,54.900000000000006,0)" xlink:href="#ac"/></g><path d="M18-150v-26h174v26H18zm0 90v-26h174v26H18" id="aw"/><use transform="matrix(0.05,0,0,0.05,0,0)" xlink:href="#aw" id="l"/><path d="M84 4C-5 8 30-112 23-190h32v120c0 31 7 50 39 49 72-2 45-101 50-169h31l1 190h-30c-1-10 1-25-2-33-11 22-28 36-60 37" id="ax"/><path d="M3 75V52h41v-290H3v-23h71V75H3" id="ay"/><g id="m"><use transform="matrix(0.05,0,0,0.05,0,0)" xlink:href="#ac"/><use transform="matrix(0.05,0,0,0.05,5,0)" xlink:href="#K"/><use transform="matrix(0.05,0,0,0.05,10.95,0)" xlink:href="#ax"/><use transform="matrix(0.05,0,0,0.05,20.95,0)" xlink:href="#J"/><use transform="matrix(0.05,0,0,0.05,30.950000000000003,0)" xlink:href="#ay"/></g><g id="n"><use transform="matrix(0.05,0,0,0.05,0,0)" xlink:href="#au"/><use transform="matrix(0.05,0,0,0.05,5,0)" xlink:href="#av"/><use transform="matrix(0.05,0,0,0.05,14,0)" xlink:href="#N"/><use transform="matrix(0.05,0,0,0.05,24,0)" xlink:href="#K"/><use transform="matrix(0.05,0,0,0.05,29.950000000000003,0)" xlink:href="#K"/><use transform="matrix(0.05,0,0,0.05,35.9,0)" xlink:href="#J"/><use transform="matrix(0.05,0,0,0.05,45.9,0)" xlink:href="#av"/><use transform="matrix(0.05,0,0,0.05,54.900000000000006,0)" xlink:href="#ac"/></g><use transform="matrix(0.05,0,0,0.05,0,0)" xlink:href="#aw" id="o"/><g id="p"><use transform="matrix(0.05,0,0,0.05,0,0)" xlink:href="#an"/><use transform="matrix(0.05,0,0,0.05,5,0)" xlink:href="#as"/><use transform="matrix(0.05,0,0,0.05,15,0)" xlink:href="#T"/><use transform="matrix(0.05,0,0,0.05,18.95,0)" xlink:href="#I"/><use transform="matrix(0.05,0,0,0.05,27.950000000000003,0)" xlink:href="#J"/><use transform="matrix(0.05,0,0,0.05,37.95,0)" xlink:href="#ay"/></g><g id="q"><use transform="matrix(0.05,0,0,0.05,0,0)" xlink:href="#J"/><use transform="matrix(0.05,0,0,0.05,10,0)" xlink:href="#K"/><use transform="matrix(0.05,0,0,0.05,15.949999999999998,0)" xlink:href="#K"/><use transform="matrix(0.05,0,0,0.05,21.9,0)" xlink:href="#N"/><use transform="matrix(0.05,0,0,0.05,31.899999999999995,0)" xlink:href="#K"/><use transform="matrix(0.05,0,0,0.05,37.85,0)" xlink:href="#ab"/><use transform="matrix(0.05,0,0,0.05,50.800000000000004,0)" xlink:href="#N"/><use transform="matrix(0.05,0,0,0.05,60.800000000000004,0)" xlink:href="#V"/><use transform="matrix(0.05,0,0,0.05,70.80000000000001,0)" xlink:href="#J"/></g><g id="r"><use transform="matrix(0.05,0,0,0.05,0,0)" xlink:href="#P"/><use transform="matrix(0.05,0,0,0.05,3.95,0)" xlink:href="#I"/></g><g id="s"><use transform="matrix(0.05,0,0,0.05,0,0)" xlink:href="#M"/><use transform="matrix(0.05,0,0,0.05,10,0)" xlink:href="#N"/><use transform="matrix(0.05,0,0,0.05,20,0)" xlink:href="#O"/><use transform="matrix(0.05,0,0,0.05,30,0)" xlink:href="#P"/><use transform="matrix(0.05,0,0,0.05,33.95,0)" xlink:href="#Q"/><use transform="matrix(0.05,0,0,0.05,43.95,0)" xlink:href="#Y"/><use transform="matrix(0.05,0,0,0.05,56.900000000000006,0)" xlink:href="#as"/><use transform="matrix(0.05,0,0,0.05,66.9,0)" xlink:href="#ac"/><use transform="matrix(0.05,0,0,0.05,71.9,0)" xlink:href="#as"/></g><g id="t"><use transform="matrix(0.05,0,0,0.05,0,0)" xlink:href="#as"/><use transform="matrix(0.05,0,0,0.05,10,0)" xlink:href="#Q"/><use transform="matrix(0.05,0,0,0.05,20,0)" xlink:href="#V"/></g><path d="M106-169C34-169 62-67 57 0H25v-261h32l-1 103c12-21 28-36 61-36 89 0 53 116 60 194h-32v-121c2-32-8-49-39-48" id="az"/><g id="u"><use transform="matrix(0.05,0,0,0.05,0,0)" xlink:href="#ac"/><use transform="matrix(0.05,0,0,0.05,5,0)" xlink:href="#az"/><use transform="matrix(0.05,0,0,0.05,15,0)" xlink:href="#J"/></g><path d="M30 0v-248h187v28H63v79h144v27H63v87h162V0H30" id="aA"/><path d="M240 0l2-218c-23 76-54 145-80 218h-23L58-218 59 0H30v-248h44l77 211c21-75 51-140 76-211h43V0h-30" id="aB"/><g id="v"><use transform="matrix(0.05,0,0,0.05,0,0)" xlink:href="#aA"/><use transform="matrix(0.05,0,0,0.05,12,0)" xlink:href="#K"/><use transform="matrix(0.05,0,0,0.05,17.95,0)" xlink:href="#K"/><use transform="matrix(0.05,0,0,0.05,23.9,0)" xlink:href="#N"/><use transform="matrix(0.05,0,0,0.05,33.9,0)" xlink:href="#K"/><use transform="matrix(0.05,0,0,0.05,39.85,0)" xlink:href="#aB"/><use transform="matrix(0.05,0,0,0.05,54.800000000000004,0)" xlink:href="#J"/><use transform="matrix(0.05,0,0,0.05,64.80000000000001,0)" xlink:href="#I"/><use transform="matrix(0.05,0,0,0.05,73.80000000000001,0)" xlink:href="#I"/><use transform="matrix(0.05,0,0,0.05,82.80000000000001,0)" xlink:href="#as"/><use transform="matrix(0.05,0,0,0.05,92.80000000000001,0)" xlink:href="#O"/><use transform="matrix(0.05,0,0,0.05,102.80000000000001,0)" xlink:href="#J"/></g><g id="w"><use transform="matrix(0.05,0,0,0.05,0,0)" xlink:href="#S"/><use transform="matrix(0.05,0,0,0.05,12.950000000000001,0)" xlink:href="#P"/><use transform="matrix(0.05,0,0,0.05,16.900000000000002,0)" xlink:href="#T"/><use transform="matrix(0.05,0,0,0.05,20.85,0)" xlink:href="#T"/></g><path d="M115-194c53 0 69 39 70 98 0 66-23 100-70 100C84 3 66-7 56-30L54 0H23l1-261h32v101c10-23 28-34 59-34zm-8 174c40 0 45-34 45-75 0-40-5-75-45-74-42 0-51 32-51 76 0 43 10 73 51 73" id="aC"/><g id="x"><use transform="matrix(0.05,0,0,0.05,0,0)" xlink:href="#aC"/><use transform="matrix(0.05,0,0,0.05,10,0)" xlink:href="#J"/><use transform="matrix(0.05,0,0,0.05,20,0)" xlink:href="#L"/></g><path d="M109-170H84l-4-78h32zm-65 0H19l-4-78h33" id="aD"/><path d="M266 0h-40l-56-210L115 0H75L2-248h35L96-30l15-64 43-154h32l59 218 59-218h35" id="aE"/><g id="y"><use transform="matrix(0.05,0,0,0.05,0,0)" xlink:href="#aD"/><use transform="matrix(0.05,0,0,0.05,6.3500000000000005,0)" xlink:href="#aE"/><use transform="matrix(0.05,0,0,0.05,22.95,0)" xlink:href="#K"/><use transform="matrix(0.05,0,0,0.05,28.899999999999995,0)" xlink:href="#N"/><use transform="matrix(0.05,0,0,0.05,38.9,0)" xlink:href="#Q"/><use transform="matrix(0.05,0,0,0.05,48.9,0)" xlink:href="#O"/></g><path d="M210-169c-67 3-38 105-44 169h-31v-121c0-29-5-50-35-48C34-165 62-65 56 0H25l-1-190h30c1 10-1 24 2 32 10-44 99-50 107 0 11-21 27-35 58-36 85-2 47 119 55 194h-31v-121c0-29-5-49-35-48" id="aF"/><g id="z"><use transform="matrix(0.05,0,0,0.05,0,0)" xlink:href="#H"/><use transform="matrix(0.05,0,0,0.05,12.950000000000001,0)" xlink:href="#I"/><use transform="matrix(0.05,0,0,0.05,21.950000000000003,0)" xlink:href="#J"/><use transform="matrix(0.05,0,0,0.05,31.950000000000003,0)" xlink:href="#K"/><use transform="matrix(0.05,0,0,0.05,37.900000000000006,0)" xlink:href="#Q"/><use transform="matrix(0.05,0,0,0.05,47.900000000000006,0)" xlink:href="#as"/><use transform="matrix(0.05,0,0,0.05,57.900000000000006,0)" xlink:href="#aF"/><use transform="matrix(0.05,0,0,0.05,72.85000000000001,0)" xlink:href="#J"/></g><g id="A"><use transform="matrix(0.05,0,0,0.05,0,0)" xlink:href="#N"/><use transform="matrix(0.05,0,0,0.05,10,0)" xlink:href="#K"/></g><g id="B"><use transform="matrix(0.05,0,0,0.05,0,0)" xlink:href="#U"/><use transform="matrix(0.05,0,0,0.05,12,0)" xlink:href="#as"/><use transform="matrix(0.05,0,0,0.05,22,0)" xlink:href="#I"/><use transform="matrix(0.05,0,0,0.05,31,0)" xlink:href="#I"/><use transform="matrix(0.05,0,0,0.05,40,0)" xlink:href="#S"/><use transform="matrix(0.05,0,0,0.05,52.95,0)" xlink:href="#N"/><use transform="matrix(0.05,0,0,0.05,62.95,0)" xlink:href="#K"/><use transform="matrix(0.05,0,0,0.05,68.9,0)" xlink:href="#V"/><use transform="matrix(0.05,0,0,0.05,78.9,0)" xlink:href="#aD"/></g><path d="M185-189c-5-48-123-54-124 2 14 75 158 14 163 119 3 78-121 87-175 55-17-10-28-26-33-46l33-7c5 56 141 63 141-1 0-78-155-14-162-118-5-82 145-84 179-34 5 7 8 16 11 25" id="aG"/><path d="M33 0v-248h34V0H33" id="aH"/><g id="C"><use transform="matrix(0.05,0,0,0.05,0,0)" xlink:href="#O"/><use transform="matrix(0.05,0,0,0.05,10,0)" xlink:href="#J"/><use transform="matrix(0.05,0,0,0.05,20,0)" xlink:href="#ac"/><use transform="matrix(0.05,0,0,0.05,25,0)" xlink:href="#aG"/><use transform="matrix(0.05,0,0,0.05,37,0)" xlink:href="#J"/><use transform="matrix(0.05,0,0,0.05,47,0)" xlink:href="#I"/><use transform="matrix(0.05,0,0,0.05,56,0)" xlink:href="#I"/><use transform="matrix(0.05,0,0,0.05,65,0)" xlink:href="#P"/><use transform="matrix(0.05,0,0,0.05,68.95,0)" xlink:href="#N"/><use transform="matrix(0.05,0,0,0.05,78.95,0)" xlink:href="#Q"/><use transform="matrix(0.05,0,0,0.05,88.95,0)" xlink:href="#aH"/><use transform="matrix(0.05,0,0,0.05,93.95,0)" xlink:href="#Y"/></g><path d="M50-231l6-30h32l-6 30H50zM6 0l37-190h31L37 0H6" id="aI"/><path d="M14 0l48-248h34L48 0H14" id="aJ"/><path d="M248-139C247-14 144 9 11 0l48-248c105-6 190 8 189 109zm-34 0c1-70-52-87-126-82L50-27c98 7 163-21 164-112" id="aK"/><g id="D"><use transform="matrix(0.05,0,0,0.05,0,0)" xlink:href="#al"/><use transform="matrix(0.05,0,0,0.05,9,0)" xlink:href="#ag"/><use transform="matrix(0.05,0,0,0.05,19,0)" xlink:href="#al"/><use transform="matrix(0.05,0,0,0.05,28,0)" xlink:href="#al"/><use transform="matrix(0.05,0,0,0.05,37,0)" xlink:href="#aI"/><use transform="matrix(0.05,0,0,0.05,40.95,0)" xlink:href="#ap"/><use transform="matrix(0.05,0,0,0.05,50.95,0)" xlink:href="#ad"/><use transform="matrix(0.05,0,0,0.05,60.95,0)" xlink:href="#aJ"/><use transform="matrix(0.05,0,0,0.05,65.95,0)" xlink:href="#aK"/></g><g id="E"><use transform="matrix(0.05,0,0,0.05,0,0)" xlink:href="#L"/><use transform="matrix(0.05,0,0,0.05,5,0)" xlink:href="#aB"/><use transform="matrix(0.05,0,0,0.05,19.950000000000003,0)" xlink:href="#as"/><use transform="matrix(0.05,0,0,0.05,29.950000000000003,0)" xlink:href="#P"/><use transform="matrix(0.05,0,0,0.05,33.900000000000006,0)" xlink:href="#Q"/><use transform="matrix(0.05,0,0,0.05,43.900000000000006,0)" xlink:href="#R"/><use transform="matrix(0.05,0,0,0.05,55.550000000000004,0)" xlink:href="#P"/><use transform="matrix(0.05,0,0,0.05,59.5,0)" xlink:href="#J"/><use transform="matrix(0.05,0,0,0.05,69.5,0)" xlink:href="#S"/><path d="M-.9 1.25h84.25v1.32H-.9z"/></g><g id="F"><use transform="matrix(0.05,0,0,0.05,0,0)" xlink:href="#T"/><use transform="matrix(0.05,0,0,0.05,3.95,0)" xlink:href="#N"/><use transform="matrix(0.05,0,0,0.05,13.949999999999998,0)" xlink:href="#as"/><use transform="matrix(0.05,0,0,0.05,23.95,0)" xlink:href="#V"/><use transform="matrix(0.05,0,0,0.05,33.95,0)" xlink:href="#R"/><use transform="matrix(0.05,0,0,0.05,45.6,0)" xlink:href="#P"/><use transform="matrix(0.05,0,0,0.05,49.550000000000004,0)" xlink:href="#J"/><use transform="matrix(0.05,0,0,0.05,59.550000000000004,0)" xlink:href="#S"/><use transform="matrix(0.05,0,0,0.05,72.5,0)" xlink:href="#W"/><use transform="matrix(0.05,0,0,0.05,78.45,0)" xlink:href="#I"/><use transform="matrix(0.05,0,0,0.05,87.45,0)" xlink:href="#J"/><use transform="matrix(0.05,0,0,0.05,97.45,0)" xlink:href="#I"/><use transform="matrix(0.05,0,0,0.05,106.45,0)" xlink:href="#I"/><use transform="matrix(0.05,0,0,0.05,115.45,0)" xlink:href="#P"/><use transform="matrix(0.05,0,0,0.05,119.4,0)" xlink:href="#N"/><use transform="matrix(0.05,0,0,0.05,129.4,0)" xlink:href="#Q"/><use transform="matrix(0.05,0,0,0.05,139.4,0)" xlink:href="#aH"/><use transform="matrix(0.05,0,0,0.05,144.4,0)" xlink:href="#Y"/><use transform="matrix(0.05,0,0,0.05,157.35,0)" xlink:href="#X"/></g><path d="M125-24c46 0 70-25 89-51l25 16C214-24 183 4 123 4 8 4-5-146 60-208c32-50 158-61 191-5 5 7 9 14 11 22l-32 10c-9-28-33-43-69-43-74 0-108 51-108 125 0 46 24 75 72 75" id="aL"/><path d="M133-28C103 26-5 8 13-77c13-62 24-115 90-117 29-1 46 15 56 35l19-102h32L160 0h-30zM45-64c-2 27 10 43 35 43 54-1 69-50 69-103 0-29-15-46-42-46-53-1-58 58-62 106" id="aM"/><g id="G"><use transform="matrix(0.05,0,0,0.05,0,0)" xlink:href="#I"/><use transform="matrix(0.05,0,0,0.05,9,0)" xlink:href="#az"/><use transform="matrix(0.05,0,0,0.05,19,0)" xlink:href="#N"/><use transform="matrix(0.05,0,0,0.05,29,0)" xlink:href="#S"/><use transform="matrix(0.05,0,0,0.05,41.95,0)" xlink:href="#aA"/><use transform="matrix(0.05,0,0,0.05,53.95,0)" xlink:href="#K"/><use transform="matrix(0.05,0,0,0.05,59.900000000000006,0)" xlink:href="#K"/><use transform="matrix(0.05,0,0,0.05,65.85000000000001,0)" xlink:href="#N"/><use transform="matrix(0.05,0,0,0.05,75.85000000000001,0)" xlink:href="#K"/><use transform="matrix(0.05,0,0,0.05,81.80000000000001,0)" xlink:href="#aB"/><use transform="matrix(0.05,0,0,0.05,96.75000000000001,0)" xlink:href="#J"/><use transform="matrix(0.05,0,0,0.05,106.75,0)" xlink:href="#I"/><use transform="matrix(0.05,0,0,0.05,115.75,0)" xlink:href="#I"/><use transform="matrix(0.05,0,0,0.05,124.75,0)" xlink:href="#as"/><use transform="matrix(0.05,0,0,0.05,134.75,0)" xlink:href="#O"/><use transform="matrix(0.05,0,0,0.05,144.75,0)" xlink:href="#J"/><use transform="matrix(0.05,0,0,0.05,154.75,0)" xlink:href="#W"/><use transform="matrix(0.05,0,0,0.05,160.7,0)" xlink:href="#ag"/><use transform="matrix(0.05,0,0,0.05,170.7,0)" xlink:href="#aq"/><use transform="matrix(0.05,0,0,0.05,176.64999999999998,0)" xlink:href="#aq"/><use transform="matrix(0.05,0,0,0.05,182.59999999999997,0)" xlink:href="#ap"/><use transform="matrix(0.05,0,0,0.05,192.59999999999997,0)" xlink:href="#aq"/><use transform="matrix(0.05,0,0,0.05,198.54999999999995,0)" xlink:href="#aL"/><use transform="matrix(0.05,0,0,0.05,211.49999999999991,0)" xlink:href="#ap"/><use transform="matrix(0.05,0,0,0.05,221.49999999999991,0)" xlink:href="#aM"/><use transform="matrix(0.05,0,0,0.05,231.49999999999991,0)" xlink:href="#ag"/><use transform="matrix(0.05,0,0,0.05,241.49999999999991,0)" xlink:href="#X"/></g></defs></g></svg>