<svg xmlns="http://www.w3.org/2000/svg" xmlns:xlink="http://www.w3.org/1999/xlink" width="1870.4" height="2646.4"><g transform="translate(0 0)"><path d="M1339 120v455.5c0 .28-.22.5-.5.5s-.5.22-.5.5V1032" fill="none"/><path d="M1339 120v10.14m0 10.15v20.28m0 10.14v20.3m0 10.14v20.28m0 10.15v20.28m0 10.14v20.3m0 10.14v20.28m0 10.15v20.28m0 10.14v20.3m0 10.14v20.28m0 10.15v20.28m0 10.14v20.3m0 10.14v20.28m0 10.15v20.28m0 10.14v20.3m0 10.14v9.14c0 .28-.22.5-.5.5s-.5.22-.5.5v9.14m0 10.15v20.28m0 10.14v20.3m0 10.14v20.28m0 10.15v20.28m0 10.14v20.3m0 10.14v20.28m0 10.15v20.28m0 10.14v20.3m0 10.14v20.28m0 10.15v20.28m0 10.14v20.3m0 10.14v20.28m0 10.15v20.28m0 10.14v20.3m0 10.14V1032" stroke="#000" stroke-width="2" fill="none"/><path d="M1109 120v455.5c0 .28-.22.5-.5.5s-.5.22-.5.5V1032" fill="none"/><path d="M1109 120v10.14m0 10.15v20.28m0 10.14v20.3m0 10.14v20.28m0 10.15v20.28m0 10.14v20.3m0 10.14v20.28m0 10.15v20.28m0 10.14v20.3m0 10.14v20.28m0 10.15v20.28m0 10.14v20.3m0 10.14v20.28m0 10.15v20.28m0 10.14v20.3m0 10.14v9.14c0 .28-.22.5-.5.5s-.5.22-.5.5v9.14m0 10.15v20.28m0 10.14v20.3m0 10.14v20.28m0 10.15v20.28m0 10.14v20.3m0 10.14v20.28m0 10.15v20.28m0 10.14v20.3m0 10.14v20.28m0 10.15v20.28m0 10.14v20.3m0 10.14v20.28m0 10.15v20.28m0 10.14v20.3m0 10.14V1032" stroke="#000" stroke-width="2" fill="none"/><path d="M860 120v1000" fill="none"/><path d="M860 120v10.1m0 10.1v20.2m0 10.1v20.2m0 10.1V221m0 10.1v20.2m0 10.1v20.22m0 10.1v20.2m0 10.1v20.2m0 10.1v20.2m0 10.1v20.2m0 10.1v20.2m0 10.1v20.2m0 10.12v20.2m0 10.1v20.2m0 10.1v20.2m0 10.1v20.2m0 10.1v20.2m0 10.1v20.2m0 10.1v20.22m0 10.1v20.2m0 10.1v20.2m0 10.1v20.2m0 10.1v20.2m0 10.1v20.2m0 10.1v20.2m0 10.1v20.22m0 10.1v20.2m0 10.1v20.2m0 10.1v20.2m0 10.1v20.2m0 10.1v20.2m0 10.1v20.2m0 10.12v20.2m0 10.1v10.1" stroke="#000" stroke-width="2" fill="none"/><path d="M640 120v1000" fill="none"/><path d="M640 120v10.1m0 10.1v20.2m0 10.1v20.2m0 10.1V221m0 10.1v20.2m0 10.1v20.22m0 10.1v20.2m0 10.1v20.2m0 10.1v20.2m0 10.1v20.2m0 10.1v20.2m0 10.1v20.2m0 10.12v20.2m0 10.1v20.2m0 10.1v20.2m0 10.1v20.2m0 10.1v20.2m0 10.1v20.2m0 10.1v20.22m0 10.1v20.2m0 10.1v20.2m0 10.1v20.2m0 10.1v20.2m0 10.1v20.2m0 10.1v20.2m0 10.1v20.22m0 10.1v20.2m0 10.1v20.2m0 10.1v20.2m0 10.1v20.2m0 10.1v20.2m0 10.1v20.2m0 10.12v20.2m0 10.1v10.1" stroke="#000" stroke-width="2" fill="none"/><path d="M350 120v1000" fill="none"/><path d="M350 120v10.1m0 10.1v20.2m0 10.1v20.2m0 10.1V221m0 10.1v20.2m0 10.1v20.22m0 10.1v20.2m0 10.1v20.2m0 10.1v20.2m0 10.1v20.2m0 10.1v20.2m0 10.1v20.2m0 10.12v20.2m0 10.1v20.2m0 10.1v20.2m0 10.1v20.2m0 10.1v20.2m0 10.1v20.2m0 10.1v20.22m0 10.1v20.2m0 10.1v20.2m0 10.1v20.2m0 10.1v20.2m0 10.1v20.2m0 10.1v20.2m0 10.1v20.22m0 10.1v20.2m0 10.1v20.2m0 10.1v20.2m0 10.1v20.2m0 10.1v20.2m0 10.1v20.2m0 10.12v20.2m0 10.1v10.1" stroke="#000" stroke-width="2" fill="none"/><path d="M280 37c0-2.76 2.24-5 5-5h130c2.76 0 5 2.24 5 5v78c0 2.76-2.24 5-5 5H285c-2.76 0-5-2.24-5-5z" stroke="#000" stroke-width="2" fill="#fff"/><use xlink:href="#a" transform="matrix(1,0,0,1,280,32) translate(5.130000000000004 47.4)"/><path d="M72.75 150.75c0 5.94-4.8 10.75-10.75 10.75-5.94 0-10.75-4.8-10.75-10.75 0-5.94 4.8-10.75 10.75-10.75 5.94 0 10.75 4.8 10.75 10.75z" stroke="#000" stroke-width="2" fill="#fff"/><path d="M32 145c0-2.76 2.24-5 5-5h50c2.76 0 5 2.24 5 5v76c0 2.76-2.24 5-5 5H37c-2.76 0-5-2.24-5-5z" fill="none"/><path d="M62 161.5v25.1c0 2.76 1.47 6.7 3.3 8.77L92 226m-30-34.4L32 226m0-53.75h60" stroke="#000" stroke-width="2" fill="none"/><use xlink:href="#b" transform="matrix(1,0,0,1,-48,226) translate(91.05 14.6)"/><path d="M330 195c0-2.76 2.24-5 5-5h30c2.76 0 5 2.24 5 5v850c0 2.76-2.24 5-5 5h-30c-2.76 0-5-2.24-5-5z" stroke="#000" stroke-width="2" fill="#fff"/><path d="M92 194h237.27" stroke="#000" stroke-width="2" fill="none"/><path d="M329.27 194L315 198.64v-9.28z"/><path d="M330.54 193.36l-.47 1.43L314 200v-12zm-14.53 3.9l10.04-3.26-10.03-3.26z"/><use xlink:href="#c" transform="matrix(1,0,0,1,118.1623415897603,168.39999999999998) translate(0.0049999999999954525 14.4)"/><use xlink:href="#d" transform="matrix(1,0,0,1,118.1623415897603,168.39999999999998) translate(114.955 14.4)"/><path d="M371 242.3h249.88" stroke="#000" stroke-width="2" fill="none"/><path d="M371 243.3h-1v-2h1zM620.88 242.3l-14.27 4.65v-9.27z"/><path d="M621.7 241.52l-.74.53-.47 1.44-14.9 4.82V236.3zm-14.1 4.05l10.04-3.26-10.03-3.25z"/><use xlink:href="#e" transform="matrix(1,0,0,1,390.46431643901747,216.71054313022327) translate(0.0049999999999954525 14.4)"/><path d="M550 37c0-2.76 2.24-5 5-5h170c2.76 0 5 2.24 5 5v78c0 2.76-2.24 5-5 5H555c-2.76 0-5-2.24-5-5z" stroke="#000" stroke-width="2" fill="#fff"/><use xlink:href="#f" transform="matrix(1,0,0,1,550,32) translate(15.480000000000013 47.4)"/><path d="M620 245c0-2.76 2.24-5 5-5h30c2.76 0 5 2.24 5 5v750c0 2.76-2.24 5-5 5h-30c-2.76 0-5-2.24-5-5z" stroke="#000" stroke-width="2" fill="#fff"/><path d="M660 272.24h89.92c.08 0 .15.07.15.16 0 .08.07.15.16.15h89.92" stroke="#000" stroke-width="2" fill="none"/><path d="M840.15 272.55l-14.27 4.64v-9.28z"/><path d="M840.46 271.6L840 273v.65l-15.12 4.9v-12zm-13.58 4.2l10.03-3.25-10.02-3.26z"/><use xlink:href="#g" transform="matrix(1,0,0,1,712.6834509373366,246.64328644006707) translate(0.005000000000002558 14.4)"/><path d="M790 37c0-2.76 2.24-5 5-5h130c2.76 0 5 2.24 5 5v78c0 2.76-2.24 5-5 5H795c-2.76 0-5-2.24-5-5z" stroke="#000" stroke-width="2" fill="#fff"/><use xlink:href="#h" transform="matrix(1,0,0,1,790,32) translate(19.12999999999999 47.4)"/><path d="M840 273c0-2.76 2.24-5 5-5h30c2.76 0 5 2.24 5 5v42c0 2.76-2.24 5-5 5h-30c-2.76 0-5-2.24-5-5zM1088 397c0-2.76 2.24-5 5-5h30c2.76 0 5 2.24 5 5v230c0 2.76-2.24 5-5 5h-30c-2.76 0-5-2.24-5-5z" stroke="#000" stroke-width="2" fill="#fff"/><path d="M1099 477c0-2.76 2.24-5 5-5h30c2.76 0 5 2.24 5 5v50c0 2.76-2.24 5-5 5h-30c-2.76 0-5-2.24-5-5z" stroke="#000" stroke-width="2" fill="#fff"/><path d="M661 392.67h194m0 0c0-2.76 2.24-5 5-5s5 2.24 5 5h224.16" stroke="#000" stroke-width="2" fill="none"/><path d="M661 393.67h-1v-2h1zM1089.16 392.67l-14.27 4.63v-9.27z"/><path d="M1091.33 392.32l-1.7 1.25-15.74 5.1v-12.02zm-15.44 3.6l10.02-3.25-10.03-3.26z"/><use xlink:href="#i" transform="matrix(1,0,0,1,866.1345984555279,367.0666666666667) translate(0.0049999999999954525 14.4)"/><path d="M1129 426h45.75c2.76 0 5 2.24 5 5v39.36c0 2.77-2.24 5-5 5h-35" stroke="#000" stroke-width="2" fill="none"/><path d="M1129 427h-1v-2h1zM1154.02 480l-14.27-4.64 14.27-4.63z"/><path d="M1155.02 481.38l-16.16-5.25-.1-.7-.48-.64 16.74-5.45zm-12.03-6.02l10.02 3.26v-6.5z"/><use xlink:href="#j" transform="matrix(1,0,0,1,1133.0885222556412,402.722523244349) translate(0.0049999999999954525 14.4)"/><path d="M1139.16 529.72H1183c2.76 0 5 2.24 5 5v34.17c0 2.75-2.24 5-5 5h-55" fill="none"/><path d="M1139.16 529.72h10.2m10.2 0h20.4m8.04 2.16v20.4m0 10.2v6.9c0 2.5-2 4.5-4.5 4.5h-4.5m-10.2 0h-20.4m-10.2 0H1128" stroke="#000" stroke-width="2" fill="none"/><path d="M1139.16 530.72H1137l1.04-.77.4-1.23h.72zM1145.72 564.57l-15.76 9.32 15.76 9.3-1 1.73-16.72-9.88v-2.33l16.7-9.88z"/><use xlink:href="#k" transform="matrix(1,0,0,1,1196,546.5843714278955) translate(0.005000000000002558 14.4)"/><path d="M1089.3 631.7H865m0 0c0-2.76-2.24-5-5-5s-5 2.24-5 5H661" fill="none"/><path d="M1089.3 631.7h-10.7m-10.67 0h-21.36m-10.68 0h-21.37m-10.68 0H982.5m-10.7 0h-21.35m-10.7 0H918.4m-10.68 0h-21.36m-10.68 0H865m0 0l-.5-1.5c-.25-.8-1-1.86-1.7-2.35l-.57-.42c-.36-.26-1-.53-1.44-.6-.45-.07-1.14-.02-1.56.12l-.75.24c-.8.25-1.85 1-2.35 1.7l-.42.57c-.26.36-.53 1-.6 1.44-.07.45-.5.8-.93.8h-9.98m-10.78 0H811.9m-10.8 0h-21.54m-10.78 0h-21.56m-10.78 0H714.9m-10.8 0h-21.54m-10.78 0H661" stroke="#000" stroke-width="2" fill="none"/><path d="M1090.05 631.04l2.24.73v.93h-3v-2h.5zM678.72 622.38l-15.76 9.32 15.76 9.32-1 1.72L660 632.27v-1.14l17.7-10.47z"/><use xlink:href="#k" transform="matrix(1,0,0,1,897.737552372559,606.098905826464) translate(0.005000000000002558 14.4)"/><path d="M1318 717c0-2.76 2.24-5 5-5h30c2.76 0 5 2.24 5 5v90c0 2.76-2.24 5-5 5h-30c-2.76 0-5-2.24-5-5z" stroke="#000" stroke-width="2" fill="#fff"/><path d="M661 714.05h194m0 0c0-2.76 2.24-5 5-5s5 2.24 5 5h238m0 0c0-2.76 2.24-5 5-5s5 2.24 5 5h205.96" stroke="#000" stroke-width="2" fill="none"/><path d="M661 715.05h-1v-2h1zM1318.96 714.05l-14.26 4.63v-9.27z"/><path d="M1319.96 713.32l-1 .73-.38 1.17-14.88 4.84v-12.02zm-14.26 4l10.03-3.27-10.03-3.26z"/><use xlink:href="#l" transform="matrix(1,0,0,1,731.3573549801442,688.4470649404321) translate(0.0049999999999954525 14.4)"/><use xlink:href="#m" transform="matrix(1,0,0,1,731.3573549801442,688.4470649404321) translate(414.955 14.4)"/><path d="M1317.25 808.62H1113m0 0c0-2.77-2.24-5-5-5s-5 2.23-5 5H865m0 0c0-2.77-2.24-5-5-5s-5 2.23-5 5H661" fill="none"/><path d="M1317.25 808.62h-9.73m-9.72 0h-19.46m-9.72 0h-19.45m-9.73 0H1220m-9.74 0h-19.45m-9.72 0h-19.45m-9.73 0h-19.45m-9.72 0H1113m0 0l-.5-1.5c-.25-.8-1-1.86-1.7-2.35l-.57-.43c-.36-.26-1-.53-1.44-.6-.45-.07-1.14 0-1.56.12l-.75.25c-.8.27-1.85 1.03-2.35 1.7l-.42.6c-.26.35-.53 1-.6 1.43-.07.43-.5.8-.93.8h-9.12m-9.9 0h-19.85m-9.9 0h-19.85m-9.9 0h-19.85m-9.9 0h-19.85m-9.9 0h-19.85m-9.9 0h-19.85m-9.9 0h-19.85m-9.9 0H865m0 0l-.5-1.52c-.25-.8-1-1.84-1.7-2.33l-.57-.43c-.36-.26-1-.53-1.44-.6-.45-.07-1.14 0-1.56.12l-.75.25c-.8.27-1.85 1.03-2.35 1.7l-.42.6c-.26.35-.53 1-.6 1.43-.07.43-.5.8-.93.8h-9.98m-10.78 0H811.9m-10.8 0h-21.54m-10.78 0h-21.56m-10.78 0H714.9m-10.8 0h-21.54m-10.78 0H661" stroke="#000" stroke-width="2" fill="none"/><path d="M1318.25 808.58l.76 1.04h-1.75v-2h.85zM678.72 799.3l-15.76 9.32 15.76 9.32-1 1.72L660 809.2v-1.16l17.7-10.47z"/><use xlink:href="#n" transform="matrix(1,0,0,1,972.1488085962159,783.015343420331) translate(0.004999999999999005 14.4)"/><path d="M619.63 997.42H371" fill="none"/><path d="M619.63 997.42h-10.36m-10.36 0h-20.7m-10.37 0h-20.7m-10.37 0h-20.72m-10.36 0h-20.72m-10.36 0h-20.72m-10.36 0H422.8m-10.36 0h-20.72m-10.36 0H371" stroke="#000" stroke-width="2" fill="none"/><path d="M620.25 996.58l1.35 1.84h-1.97v-2h.6zM388.72 988.1l-15.76 9.32 15.76 9.32-1 1.73L370 998v-1.15l17.7-10.47z"/><use xlink:href="#o" transform="matrix(1,0,0,1,459.74321971614893,971.824640316162) translate(0.004999999999999005 14.4)"/><path d="M979 37c0-2.76 2.24-5 5-5h250c2.76 0 5 2.24 5 5v78c0 2.76-2.24 5-5 5H984c-2.76 0-5-2.24-5-5z" stroke="#000" stroke-width="2" fill="#fff"/><use xlink:href="#p" transform="matrix(1,0,0,1,979,32) translate(43.95499999999999 47.4)"/><path d="M1259 37c0-2.76 2.24-5 5-5h150c2.76 0 5 2.24 5 5v78c0 2.76-2.24 5-5 5h-150c-2.76 0-5-2.24-5-5z" stroke="#000" stroke-width="2" fill="#fff"/><use xlink:href="#q" transform="matrix(1,0,0,1,1259,32) translate(12.104999999999999 47.4)"/><path d="M839.7 317.53h-99.13c-.32 0-.57.26-.57.57 0 .3-.25.57-.57.57H661" fill="none"/><path d="M839.7 317.53h-9.98m-10 0h-19.97m-10 0h-19.98m-10 0H740.1c-.05 0-.1.05-.1.1v.1m-9.06.94h-19.98m-10 0H681m-10 0H661" stroke="#000" stroke-width="2" fill="none"/><path d="M840.25 316.58l1.43 1.95h-1.97v-2h.55zM678.72 309.35l-15.76 9.32 15.76 9.32-1 1.7L660 319.25v-1.14l17.7-10.47z"/><use xlink:href="#r" transform="matrix(1,0,0,1,732.8139503114147,291.9331951825148) translate(0 14.4)"/><path d="M329.06 1045.45H80" fill="none"/><path d="M329.06 1045.45h-10.38m-10.37 0h-20.75m-10.38 0h-20.75m-10.38 0H225.3m-10.4 0h-20.75m-10.37 0h-20.76m-10.38 0H131.9m-10.4 0h-20.74m-10.38 0H80" stroke="#000" stroke-width="2" fill="none"/><path d="M330 1045l.23 1.45h-1.17v-2h.94z"/><path d="M97.2 1035.27L80 1045.45l17.2 10.18" stroke="#000" stroke-width="2" fill="none"/><defs><path d="M33-154v-36h34v36H33zM33 0v-36h34V0H33" id="s"/><path d="M127-220V0H93v-220H8v-28h204v28h-85" id="t"/><path d="M24-231v-30h32v30H24zM24 0v-190h32V0H24" id="u"/><path d="M210-169c-67 3-38 105-44 169h-31v-121c0-29-5-50-35-48C34-165 62-65 56 0H25l-1-190h30c1 10-1 24 2 32 10-44 99-50 107 0 11-21 27-35 58-36 85-2 47 119 55 194h-31v-121c0-29-5-49-35-48" id="v"/><path d="M100-194c63 0 86 42 84 106H49c0 40 14 67 53 68 26 1 43-12 49-29l28 8c-11 28-37 45-77 45C44 4 14-33 15-96c1-61 26-98 85-98zm52 81c6-60-76-77-97-28-3 7-6 17-6 28h103" id="w"/><path d="M185-189c-5-48-123-54-124 2 14 75 158 14 163 119 3 78-121 87-175 55-17-10-28-26-33-46l33-7c5 56 141 63 141-1 0-78-155-14-162-118-5-82 145-84 179-34 5 7 8 16 11 25" id="x"/><path d="M106-169C34-169 62-67 57 0H25v-261h32l-1 103c12-21 28-36 61-36 89 0 53 116 60 194h-32v-121c2-32-8-49-39-48" id="y"/><path d="M59-47c-2 24 18 29 38 22v24C64 9 27 4 27-40v-127H5v-23h24l9-43h21v43h35v23H59v120" id="z"/><path d="M137 0h-34L2-248h35l83 218 83-218h36" id="A"/><path d="M206 0h-36l-40-164L89 0H53L-1-190h32L70-26l43-164h34l41 164 42-164h31" id="B"/><g id="a"><use transform="matrix(0.05,0,0,0.05,0,0)" xlink:href="#s"/><use transform="matrix(0.05,0,0,0.05,5,0)" xlink:href="#t"/><use transform="matrix(0.05,0,0,0.05,15.3,0)" xlink:href="#u"/><use transform="matrix(0.05,0,0,0.05,19.25,0)" xlink:href="#v"/><use transform="matrix(0.05,0,0,0.05,34.2,0)" xlink:href="#w"/><use transform="matrix(0.05,0,0,0.05,44.2,0)" xlink:href="#x"/><use transform="matrix(0.05,0,0,0.05,56.2,0)" xlink:href="#y"/><use transform="matrix(0.05,0,0,0.05,66.2,0)" xlink:href="#w"/><use transform="matrix(0.05,0,0,0.05,76.2,0)" xlink:href="#w"/><use transform="matrix(0.05,0,0,0.05,86.2,0)" xlink:href="#z"/><use transform="matrix(0.05,0,0,0.05,91.2,0)" xlink:href="#A"/><use transform="matrix(0.05,0,0,0.05,102.85000000000001,0)" xlink:href="#u"/><use transform="matrix(0.05,0,0,0.05,106.80000000000001,0)" xlink:href="#w"/><use transform="matrix(0.05,0,0,0.05,116.80000000000001,0)" xlink:href="#B"/><path d="M-.9 1.25h131.55v1.32H-.9z"/></g><path fill="#333" d="M232-93c-1 65-40 97-104 97C67 4 28-28 28-90v-158h33c8 89-33 224 67 224 102 0 64-133 71-224h33v155" id="C"/><path fill="#333" d="M135-143c-3-34-86-38-87 0 15 53 115 12 119 90S17 21 10-45l28-5c4 36 97 45 98 0-10-56-113-15-118-90-4-57 82-63 122-42 12 7 21 19 24 35" id="D"/><path fill="#333" d="M100-194c63 0 86 42 84 106H49c0 40 14 67 53 68 26 1 43-12 49-29l28 8c-11 28-37 45-77 45C44 4 14-33 15-96c1-61 26-98 85-98zm52 81c6-60-76-77-97-28-3 7-6 17-6 28h103" id="E"/><path fill="#333" d="M114-163C36-179 61-72 57 0H25l-1-190h30c1 12-1 29 2 39 6-27 23-49 58-41v29" id="F"/><g id="b"><use transform="matrix(0.05,0,0,0.05,0,0)" xlink:href="#C"/><use transform="matrix(0.05,0,0,0.05,12.950000000000001,0)" xlink:href="#D"/><use transform="matrix(0.05,0,0,0.05,21.950000000000003,0)" xlink:href="#E"/><use transform="matrix(0.05,0,0,0.05,31.950000000000003,0)" xlink:href="#F"/></g><path fill="#333" d="M185-189c-5-48-123-54-124 2 14 75 158 14 163 119 3 78-121 87-175 55-17-10-28-26-33-46l33-7c5 56 141 63 141-1 0-78-155-14-162-118-5-82 145-84 179-34 5 7 8 16 11 25" id="G"/><path fill="#333" d="M59-47c-2 24 18 29 38 22v24C64 9 27 4 27-40v-127H5v-23h24l9-43h21v43h35v23H59v120" id="H"/><path fill="#333" d="M84 4C-5 8 30-112 23-190h32v120c0 31 7 50 39 49 72-2 45-101 50-169h31l1 190h-30c-1-10 1-25-2-33-11 22-28 36-60 37" id="I"/><path fill="#333" d="M117-194c89-4 53 116 60 194h-32v-121c0-31-8-49-39-48C34-167 62-67 57 0H25l-1-190h30c1 10-1 24 2 32 11-22 29-35 61-36" id="J"/><path fill="#333" d="M85-194c31 0 48 13 60 33l-1-100h32l1 261h-30c-2-10 0-23-3-31C134-8 116 4 85 4 32 4 16-35 15-94c0-66 23-100 70-100zm9 24c-40 0-46 34-46 75 0 40 6 74 45 74 42 0 51-32 51-76 0-42-9-74-50-73" id="K"/><path fill="#333" d="M9 0v-24l116-142H16v-24h144v24L44-24h123V0H9" id="L"/><path fill="#333" d="M24 0v-261h32V0H24" id="M"/><g id="c"><use transform="matrix(0.05,0,0,0.05,0,0)" xlink:href="#G"/><use transform="matrix(0.05,0,0,0.05,12,0)" xlink:href="#H"/><use transform="matrix(0.05,0,0,0.05,17,0)" xlink:href="#I"/><use transform="matrix(0.05,0,0,0.05,27,0)" xlink:href="#J"/><use transform="matrix(0.05,0,0,0.05,37,0)" xlink:href="#K"/><use transform="matrix(0.05,0,0,0.05,47,0)" xlink:href="#E"/><use transform="matrix(0.05,0,0,0.05,57,0)" xlink:href="#J"/><use transform="matrix(0.05,0,0,0.05,67,0)" xlink:href="#L"/><use transform="matrix(0.05,0,0,0.05,76,0)" xlink:href="#E"/><use transform="matrix(0.05,0,0,0.05,86,0)" xlink:href="#H"/><use transform="matrix(0.05,0,0,0.05,91,0)" xlink:href="#H"/><use transform="matrix(0.05,0,0,0.05,96,0)" xlink:href="#E"/><use transform="matrix(0.05,0,0,0.05,106,0)" xlink:href="#M"/></g><path fill="#333" d="M141-36C126-15 110 5 73 4 37 3 15-17 15-53c-1-64 63-63 125-63 3-35-9-54-41-54-24 1-41 7-42 31l-33-3c5-37 33-52 76-52 45 0 72 20 72 64v82c-1 20 7 32 28 27v20c-31 9-61-2-59-35zM48-53c0 20 12 33 32 33 41-3 63-29 60-74-43 2-92-5-92 41" id="N"/><path fill="#333" d="M115-194c53 0 69 39 70 98 0 66-23 100-70 100C84 3 66-7 56-30L54 0H23l1-261h32v101c10-23 28-34 59-34zm-8 174c40 0 45-34 45-75 0-40-5-75-45-74-42 0-51 32-51 76 0 43 10 73 51 73" id="O"/><path fill="#333" d="M177-190C167-65 218 103 67 71c-23-6-38-20-44-43l32-5c15 47 100 32 89-28v-30C133-14 115 1 83 1 29 1 15-40 15-95c0-56 16-97 71-98 29-1 48 16 59 35 1-10 0-23 2-32h30zM94-22c36 0 50-32 50-73 0-42-14-75-50-75-39 0-46 34-46 75s6 73 46 73" id="P"/><g id="d"><use transform="matrix(0.05,0,0,0.05,0,0)" xlink:href="#N"/><use transform="matrix(0.05,0,0,0.05,10,0)" xlink:href="#O"/><use transform="matrix(0.05,0,0,0.05,20,0)" xlink:href="#P"/><use transform="matrix(0.05,0,0,0.05,30,0)" xlink:href="#E"/><use transform="matrix(0.05,0,0,0.05,40,0)" xlink:href="#O"/><use transform="matrix(0.05,0,0,0.05,50,0)" xlink:href="#E"/><use transform="matrix(0.05,0,0,0.05,60,0)" xlink:href="#J"/></g><path fill="#333" d="M100-194c62-1 85 37 85 99 1 63-27 99-86 99S16-35 15-95c0-66 28-99 85-99zM99-20c44 1 53-31 53-75 0-43-8-75-51-75s-53 32-53 75 10 74 51 75" id="Q"/><path fill="#333" d="M96-169c-40 0-48 33-48 73s9 75 48 75c24 0 41-14 43-38l32 2c-6 37-31 61-74 61-59 0-76-41-82-99-10-93 101-131 147-64 4 7 5 14 7 22l-32 3c-4-21-16-35-41-35" id="R"/><path fill="#333" d="M143 0L79-87 56-68V0H24v-261h32v163l83-92h37l-77 82L181 0h-38" id="S"/><path fill="#333" d="M127-220V0H93v-220H8v-28h204v28h-85" id="T"/><path fill="#333" d="M24-231v-30h32v30H24zM24 0v-190h32V0H24" id="U"/><path fill="#333" d="M210-169c-67 3-38 105-44 169h-31v-121c0-29-5-50-35-48C34-165 62-65 56 0H25l-1-190h30c1 10-1 24 2 32 10-44 99-50 107 0 11-21 27-35 58-36 85-2 47 119 55 194h-31v-121c0-29-5-49-35-48" id="V"/><path fill="#333" d="M106-169C34-169 62-67 57 0H25v-261h32l-1 103c12-21 28-36 61-36 89 0 53 116 60 194h-32v-121c2-32-8-49-39-48" id="W"/><path fill="#333" d="M87 75C49 33 22-17 22-94c0-76 28-126 65-167h31c-38 41-64 92-64 168S80 34 118 75H87" id="X"/><path fill="#333" d="M33-261c38 41 65 92 65 168S71 34 33 75H2C39 34 66-17 66-93S39-220 2-261h31" id="Y"/><g id="e"><use transform="matrix(0.05,0,0,0.05,0,0)" xlink:href="#M"/><use transform="matrix(0.05,0,0,0.05,3.95,0)" xlink:href="#Q"/><use transform="matrix(0.05,0,0,0.05,13.949999999999998,0)" xlink:href="#R"/><use transform="matrix(0.05,0,0,0.05,22.95,0)" xlink:href="#S"/><use transform="matrix(0.05,0,0,0.05,31.950000000000003,0)" xlink:href="#T"/><use transform="matrix(0.05,0,0,0.05,42.25,0)" xlink:href="#U"/><use transform="matrix(0.05,0,0,0.05,46.2,0)" xlink:href="#V"/><use transform="matrix(0.05,0,0,0.05,61.150000000000006,0)" xlink:href="#E"/><use transform="matrix(0.05,0,0,0.05,71.15,0)" xlink:href="#G"/><use transform="matrix(0.05,0,0,0.05,83.15,0)" xlink:href="#W"/><use transform="matrix(0.05,0,0,0.05,93.15,0)" xlink:href="#E"/><use transform="matrix(0.05,0,0,0.05,103.15,0)" xlink:href="#E"/><use transform="matrix(0.05,0,0,0.05,113.15,0)" xlink:href="#H"/><use transform="matrix(0.05,0,0,0.05,118.15,0)" xlink:href="#X"/><use transform="matrix(0.05,0,0,0.05,124.10000000000001,0)" xlink:href="#H"/><use transform="matrix(0.05,0,0,0.05,129.10000000000002,0)" xlink:href="#U"/><use transform="matrix(0.05,0,0,0.05,133.05,0)" xlink:href="#V"/><use transform="matrix(0.05,0,0,0.05,148,0)" xlink:href="#E"/><use transform="matrix(0.05,0,0,0.05,158,0)" xlink:href="#G"/><use transform="matrix(0.05,0,0,0.05,170,0)" xlink:href="#W"/><use transform="matrix(0.05,0,0,0.05,180,0)" xlink:href="#E"/><use transform="matrix(0.05,0,0,0.05,190,0)" xlink:href="#E"/><use transform="matrix(0.05,0,0,0.05,200,0)" xlink:href="#H"/><use transform="matrix(0.05,0,0,0.05,205,0)" xlink:href="#Y"/></g><path d="M212-179c-10-28-35-45-73-45-59 0-87 40-87 99 0 60 29 101 89 101 43 0 62-24 78-52l27 14C228-24 195 4 139 4 59 4 22-46 18-125c-6-104 99-153 187-111 19 9 31 26 39 46" id="Z"/><path d="M100-194c62-1 85 37 85 99 1 63-27 99-86 99S16-35 15-95c0-66 28-99 85-99zM99-20c44 1 53-31 53-75 0-43-8-75-51-75s-53 32-53 75 10 74 51 75" id="aa"/><path d="M117-194c89-4 53 116 60 194h-32v-121c0-31-8-49-39-48C34-167 62-67 57 0H25l-1-190h30c1 10-1 24 2 32 11-22 29-35 61-36" id="ab"/><path d="M114-163C36-179 61-72 57 0H25l-1-190h30c1 12-1 29 2 39 6-27 23-49 58-41v29" id="ac"/><path d="M24 0v-261h32V0H24" id="ad"/><g id="f"><use transform="matrix(0.05,0,0,0.05,0,0)" xlink:href="#s"/><use transform="matrix(0.05,0,0,0.05,5,0)" xlink:href="#t"/><use transform="matrix(0.05,0,0,0.05,15.3,0)" xlink:href="#u"/><use transform="matrix(0.05,0,0,0.05,19.25,0)" xlink:href="#v"/><use transform="matrix(0.05,0,0,0.05,34.2,0)" xlink:href="#w"/><use transform="matrix(0.05,0,0,0.05,44.2,0)" xlink:href="#x"/><use transform="matrix(0.05,0,0,0.05,56.2,0)" xlink:href="#y"/><use transform="matrix(0.05,0,0,0.05,66.2,0)" xlink:href="#w"/><use transform="matrix(0.05,0,0,0.05,76.2,0)" xlink:href="#w"/><use transform="matrix(0.05,0,0,0.05,86.2,0)" xlink:href="#z"/><use transform="matrix(0.05,0,0,0.05,91.2,0)" xlink:href="#Z"/><use transform="matrix(0.05,0,0,0.05,104.15,0)" xlink:href="#aa"/><use transform="matrix(0.05,0,0,0.05,114.15,0)" xlink:href="#ab"/><use transform="matrix(0.05,0,0,0.05,124.15,0)" xlink:href="#z"/><use transform="matrix(0.05,0,0,0.05,129.15,0)" xlink:href="#ac"/><use transform="matrix(0.05,0,0,0.05,135.1,0)" xlink:href="#aa"/><use transform="matrix(0.05,0,0,0.05,145.1,0)" xlink:href="#ad"/><path d="M-.9 1.25h150.85v1.32H-.9z"/></g><g id="g"><use transform="matrix(0.05,0,0,0.05,0,0)" xlink:href="#P"/><use transform="matrix(0.05,0,0,0.05,10,0)" xlink:href="#E"/><use transform="matrix(0.05,0,0,0.05,20,0)" xlink:href="#H"/><use transform="matrix(0.05,0,0,0.05,25,0)" xlink:href="#C"/><use transform="matrix(0.05,0,0,0.05,37.95,0)" xlink:href="#D"/><use transform="matrix(0.05,0,0,0.05,46.95,0)" xlink:href="#E"/><use transform="matrix(0.05,0,0,0.05,56.95,0)" xlink:href="#F"/><use transform="matrix(0.05,0,0,0.05,62.900000000000006,0)" xlink:href="#X"/><use transform="matrix(0.05,0,0,0.05,68.85000000000001,0)" xlink:href="#Y"/></g><path d="M240 0l2-218c-23 76-54 145-80 218h-23L58-218 59 0H30v-248h44l77 211c21-75 51-140 76-211h43V0h-30" id="ae"/><path d="M141-36C126-15 110 5 73 4 37 3 15-17 15-53c-1-64 63-63 125-63 3-35-9-54-41-54-24 1-41 7-42 31l-33-3c5-37 33-52 76-52 45 0 72 20 72 64v82c-1 20 7 32 28 27v20c-31 9-61-2-59-35zM48-53c0 20 12 33 32 33 41-3 63-29 60-74-43 2-92-5-92 41" id="af"/><g id="h"><use transform="matrix(0.05,0,0,0.05,0,0)" xlink:href="#s"/><use transform="matrix(0.05,0,0,0.05,5,0)" xlink:href="#ae"/><use transform="matrix(0.05,0,0,0.05,19.950000000000003,0)" xlink:href="#af"/><use transform="matrix(0.05,0,0,0.05,29.950000000000003,0)" xlink:href="#u"/><use transform="matrix(0.05,0,0,0.05,33.900000000000006,0)" xlink:href="#ab"/><use transform="matrix(0.05,0,0,0.05,43.900000000000006,0)" xlink:href="#Z"/><use transform="matrix(0.05,0,0,0.05,56.85,0)" xlink:href="#aa"/><use transform="matrix(0.05,0,0,0.05,66.85000000000001,0)" xlink:href="#ab"/><use transform="matrix(0.05,0,0,0.05,76.85000000000001,0)" xlink:href="#z"/><use transform="matrix(0.05,0,0,0.05,81.85000000000001,0)" xlink:href="#ac"/><use transform="matrix(0.05,0,0,0.05,87.80000000000001,0)" xlink:href="#aa"/><use transform="matrix(0.05,0,0,0.05,97.80000000000001,0)" xlink:href="#ad"/><path d="M-.9 1.25h103.55v1.32H-.9z"/></g><g id="i"><use transform="matrix(0.05,0,0,0.05,0,0)" xlink:href="#D"/><use transform="matrix(0.05,0,0,0.05,9,0)" xlink:href="#E"/><use transform="matrix(0.05,0,0,0.05,19,0)" xlink:href="#H"/><use transform="matrix(0.05,0,0,0.05,24,0)" xlink:href="#T"/><use transform="matrix(0.05,0,0,0.05,34.300000000000004,0)" xlink:href="#U"/><use transform="matrix(0.05,0,0,0.05,38.25000000000001,0)" xlink:href="#V"/><use transform="matrix(0.05,0,0,0.05,53.20000000000002,0)" xlink:href="#E"/><use transform="matrix(0.05,0,0,0.05,63.20000000000002,0)" xlink:href="#G"/><use transform="matrix(0.05,0,0,0.05,75.20000000000002,0)" xlink:href="#W"/><use transform="matrix(0.05,0,0,0.05,85.20000000000002,0)" xlink:href="#E"/><use transform="matrix(0.05,0,0,0.05,95.20000000000002,0)" xlink:href="#E"/><use transform="matrix(0.05,0,0,0.05,105.2,0)" xlink:href="#H"/><use transform="matrix(0.05,0,0,0.05,110.2,0)" xlink:href="#G"/><use transform="matrix(0.05,0,0,0.05,122.2,0)" xlink:href="#H"/><use transform="matrix(0.05,0,0,0.05,127.2,0)" xlink:href="#N"/><use transform="matrix(0.05,0,0,0.05,137.20000000000002,0)" xlink:href="#H"/><use transform="matrix(0.05,0,0,0.05,142.20000000000002,0)" xlink:href="#E"/><use transform="matrix(0.05,0,0,0.05,152.20000000000002,0)" xlink:href="#X"/><use transform="matrix(0.05,0,0,0.05,158.15,0)" xlink:href="#M"/><use transform="matrix(0.05,0,0,0.05,162.1,0)" xlink:href="#Q"/><use transform="matrix(0.05,0,0,0.05,172.1,0)" xlink:href="#R"/><use transform="matrix(0.05,0,0,0.05,181.1,0)" xlink:href="#S"/><use transform="matrix(0.05,0,0,0.05,190.1,0)" xlink:href="#E"/><use transform="matrix(0.05,0,0,0.05,200.1,0)" xlink:href="#K"/><use transform="matrix(0.05,0,0,0.05,210.10000000000002,0)" xlink:href="#Y"/></g><path d="M108 0H70L1-190h34L89-25l56-165h34" id="ag"/><path d="M85-194c31 0 48 13 60 33l-1-100h32l1 261h-30c-2-10 0-23-3-31C134-8 116 4 85 4 32 4 16-35 15-94c0-66 23-100 70-100zm9 24c-40 0-46 34-46 75 0 40 6 74 45 74 42 0 51-32 51-76 0-42-9-74-50-73" id="ah"/><g id="j"><use transform="matrix(0.05,0,0,0.05,0,0)" xlink:href="#ag"/><use transform="matrix(0.05,0,0,0.05,9,0)" xlink:href="#af"/><use transform="matrix(0.05,0,0,0.05,19,0)" xlink:href="#ad"/><use transform="matrix(0.05,0,0,0.05,22.95,0)" xlink:href="#u"/><use transform="matrix(0.05,0,0,0.05,26.899999999999995,0)" xlink:href="#ah"/><use transform="matrix(0.05,0,0,0.05,36.9,0)" xlink:href="#af"/><use transform="matrix(0.05,0,0,0.05,46.9,0)" xlink:href="#z"/><use transform="matrix(0.05,0,0,0.05,51.900000000000006,0)" xlink:href="#w"/><use transform="matrix(0.05,0,0,0.05,61.900000000000006,0)" xlink:href="#t"/><use transform="matrix(0.05,0,0,0.05,72.2,0)" xlink:href="#u"/><use transform="matrix(0.05,0,0,0.05,76.15,0)" xlink:href="#v"/><use transform="matrix(0.05,0,0,0.05,91.10000000000001,0)" xlink:href="#w"/><use transform="matrix(0.05,0,0,0.05,101.10000000000001,0)" xlink:href="#x"/><use transform="matrix(0.05,0,0,0.05,113.10000000000001,0)" xlink:href="#y"/><use transform="matrix(0.05,0,0,0.05,123.10000000000001,0)" xlink:href="#w"/><use transform="matrix(0.05,0,0,0.05,133.10000000000002,0)" xlink:href="#w"/><use transform="matrix(0.05,0,0,0.05,143.10000000000002,0)" xlink:href="#z"/><use transform="matrix(0.05,0,0,0.05,148.10000000000002,0)" xlink:href="#X"/><use transform="matrix(0.05,0,0,0.05,154.05,0)" xlink:href="#Y"/></g><path fill="#333" d="M44-68c0 29 11 47 38 47 30 0 42-19 51-41l28 9C148-21 126 4 82 4 31 4 10-29 12-85c3-77 74-140 146-93 12 8 15 23 18 40l-31 5c-1-22-13-36-36-36-52 0-65 49-65 101" id="ai"/><path fill="#333" d="M30-147c31-64 166-65 159 27C183-49 158 1 86 4 9 8 1-88 30-147zM88-20c53 0 68-48 68-100 0-31-11-51-44-50-52 1-68 46-68 97 0 32 13 53 44 53" id="aj"/><path fill="#333" d="M66-151c12-25 30-51 66-40l-6 26C45-176 58-65 38 0H6l36-190h30" id="ak"/><path fill="#333" d="M111-194c62-3 86 47 72 106H45c-7 38 6 69 45 68 27-1 43-14 53-32l24 11C152-15 129 4 87 4 38 3 12-23 12-71c0-70 32-119 99-123zm44 81c14-66-71-72-95-28-4 8-8 17-11 28h106" id="al"/><path fill="#333" d="M51-54c-9 22 5 41 31 30L79-1C43 14 10-4 19-52l22-115H19l5-23h22l19-43h21l-9 43h35l-4 23H73" id="am"/><path fill="#333" d="M67-158c22-48 132-52 116 29L158 0h-32l25-140c3-38-53-32-70-12C52-117 51-52 38 0H6l36-190h30" id="an"/><path fill="#333" d="M55-144c13 50 104 24 104 88C159 21 15 23 1-39l26-10c6 40 102 42 102-4-13-50-104-23-104-87 0-71 143-71 148-8l-29 4c-5-35-85-37-89 0" id="ao"/><g id="k"><use transform="matrix(0.05,0,0,0.05,0,0)" xlink:href="#ai"/><use transform="matrix(0.05,0,0,0.05,9,0)" xlink:href="#aj"/><use transform="matrix(0.05,0,0,0.05,19,0)" xlink:href="#ak"/><use transform="matrix(0.05,0,0,0.05,24.95,0)" xlink:href="#ak"/><use transform="matrix(0.05,0,0,0.05,30.899999999999995,0)" xlink:href="#al"/><use transform="matrix(0.05,0,0,0.05,40.9,0)" xlink:href="#ai"/><use transform="matrix(0.05,0,0,0.05,49.9,0)" xlink:href="#am"/><use transform="matrix(0.05,0,0,0.05,54.900000000000006,0)" xlink:href="#an"/><use transform="matrix(0.05,0,0,0.05,64.9,0)" xlink:href="#al"/><use transform="matrix(0.05,0,0,0.05,74.9,0)" xlink:href="#ao"/><use transform="matrix(0.05,0,0,0.05,83.9,0)" xlink:href="#ao"/></g><path fill="#333" d="M240 0l2-218c-23 76-54 145-80 218h-23L58-218 59 0H30v-248h44l77 211c21-75 51-140 76-211h43V0h-30" id="ap"/><path fill="#333" d="M33 0v-248h34V0H33" id="aq"/><path fill="#333" d="M30-248c118-7 216 8 213 122C240-48 200 0 122 0H30v-248zM63-27c89 8 146-16 146-99s-60-101-146-95v194" id="ar"/><path fill="#333" d="M68-38c1 34 0 65-14 84H32c9-13 17-26 17-46H33v-38h35" id="as"/><path fill="#333" d="M160-131c35 5 61 23 61 61C221 17 115-2 30 0v-248c76 3 177-17 177 60 0 33-19 50-47 57zm-97-11c50-1 110 9 110-42 0-47-63-36-110-37v79zm0 115c55-2 124 14 124-45 0-56-70-42-124-44v89" id="at"/><path fill="#333" d="M109-170H84l-4-78h32zm-65 0H19l-4-78h33" id="au"/><g id="l"><use transform="matrix(0.05,0,0,0.05,0,0)" xlink:href="#D"/><use transform="matrix(0.05,0,0,0.05,9,0)" xlink:href="#E"/><use transform="matrix(0.05,0,0,0.05,19,0)" xlink:href="#J"/><use transform="matrix(0.05,0,0,0.05,29,0)" xlink:href="#K"/><use transform="matrix(0.05,0,0,0.05,39,0)" xlink:href="#ap"/><use transform="matrix(0.05,0,0,0.05,53.95,0)" xlink:href="#E"/><use transform="matrix(0.05,0,0,0.05,63.95,0)" xlink:href="#D"/><use transform="matrix(0.05,0,0,0.05,72.95,0)" xlink:href="#D"/><use transform="matrix(0.05,0,0,0.05,81.95,0)" xlink:href="#N"/><use transform="matrix(0.05,0,0,0.05,91.95,0)" xlink:href="#P"/><use transform="matrix(0.05,0,0,0.05,101.95,0)" xlink:href="#E"/><use transform="matrix(0.05,0,0,0.05,111.95,0)" xlink:href="#X"/><use transform="matrix(0.05,0,0,0.05,117.9,0)" xlink:href="#D"/><use transform="matrix(0.05,0,0,0.05,126.9,0)" xlink:href="#E"/><use transform="matrix(0.05,0,0,0.05,136.9,0)" xlink:href="#D"/><use transform="matrix(0.05,0,0,0.05,145.9,0)" xlink:href="#D"/><use transform="matrix(0.05,0,0,0.05,154.9,0)" xlink:href="#U"/><use transform="matrix(0.05,0,0,0.05,158.85,0)" xlink:href="#Q"/><use transform="matrix(0.05,0,0,0.05,168.85,0)" xlink:href="#J"/><use transform="matrix(0.05,0,0,0.05,178.85,0)" xlink:href="#aq"/><use transform="matrix(0.05,0,0,0.05,183.85,0)" xlink:href="#ar"/><use transform="matrix(0.05,0,0,0.05,196.79999999999998,0)" xlink:href="#as"/><use transform="matrix(0.05,0,0,0.05,201.79999999999998,0)" xlink:href="#at"/><use transform="matrix(0.05,0,0,0.05,213.79999999999995,0)" xlink:href="#E"/><use transform="matrix(0.05,0,0,0.05,223.79999999999995,0)" xlink:href="#H"/><use transform="matrix(0.05,0,0,0.05,228.79999999999995,0)" xlink:href="#F"/><use transform="matrix(0.05,0,0,0.05,234.74999999999997,0)" xlink:href="#E"/><use transform="matrix(0.05,0,0,0.05,244.74999999999997,0)" xlink:href="#I"/><use transform="matrix(0.05,0,0,0.05,254.74999999999997,0)" xlink:href="#E"/><use transform="matrix(0.05,0,0,0.05,264.75,0)" xlink:href="#F"/><use transform="matrix(0.05,0,0,0.05,270.7,0)" xlink:href="#aq"/><use transform="matrix(0.05,0,0,0.05,275.7,0)" xlink:href="#ar"/><use transform="matrix(0.05,0,0,0.05,288.65,0)" xlink:href="#as"/><use transform="matrix(0.05,0,0,0.05,293.65,0)" xlink:href="#au"/><use transform="matrix(0.05,0,0,0.05,300,0)" xlink:href="#G"/><use transform="matrix(0.05,0,0,0.05,312,0)" xlink:href="#H"/><use transform="matrix(0.05,0,0,0.05,317,0)" xlink:href="#I"/><use transform="matrix(0.05,0,0,0.05,327,0)" xlink:href="#J"/><use transform="matrix(0.05,0,0,0.05,337,0)" xlink:href="#K"/><use transform="matrix(0.05,0,0,0.05,347,0)" xlink:href="#E"/><use transform="matrix(0.05,0,0,0.05,357,0)" xlink:href="#J"/><use transform="matrix(0.05,0,0,0.05,367,0)" xlink:href="#L"/><use transform="matrix(0.05,0,0,0.05,376,0)" xlink:href="#E"/><use transform="matrix(0.05,0,0,0.05,386,0)" xlink:href="#H"/><use transform="matrix(0.05,0,0,0.05,391,0)" xlink:href="#H"/><use transform="matrix(0.05,0,0,0.05,396,0)" xlink:href="#E"/><use transform="matrix(0.05,0,0,0.05,406,0)" xlink:href="#M"/></g><g id="m"><use transform="matrix(0.05,0,0,0.05,0,0)" xlink:href="#N"/><use transform="matrix(0.05,0,0,0.05,10,0)" xlink:href="#O"/><use transform="matrix(0.05,0,0,0.05,20,0)" xlink:href="#P"/><use transform="matrix(0.05,0,0,0.05,30,0)" xlink:href="#E"/><use transform="matrix(0.05,0,0,0.05,40,0)" xlink:href="#P"/><use transform="matrix(0.05,0,0,0.05,50,0)" xlink:href="#E"/><use transform="matrix(0.05,0,0,0.05,60,0)" xlink:href="#O"/><use transform="matrix(0.05,0,0,0.05,70,0)" xlink:href="#E"/><use transform="matrix(0.05,0,0,0.05,80,0)" xlink:href="#J"/><use transform="matrix(0.05,0,0,0.05,90,0)" xlink:href="#au"/><use transform="matrix(0.05,0,0,0.05,96.35,0)" xlink:href="#Y"/></g><path fill="#333" d="M68-162c25-46 127-43 121 31C183-60 169 1 98 4 69 5 53-11 43-31L36 0H5l52-261h31zm88 36c2-27-9-43-34-43-55 0-70 51-70 103 0 29 15 45 43 46 52 0 58-58 61-106" id="av"/><path fill="#333" d="M6 0l50-261h32L37 0H6" id="aw"/><g id="n"><use transform="matrix(0.05,0,0,0.05,0,0)" xlink:href="#av"/><use transform="matrix(0.05,0,0,0.05,10,0)" xlink:href="#aj"/><use transform="matrix(0.05,0,0,0.05,20,0)" xlink:href="#aj"/><use transform="matrix(0.05,0,0,0.05,30,0)" xlink:href="#aw"/></g><g id="o"><use transform="matrix(0.05,0,0,0.05,0,0)" xlink:href="#O"/><use transform="matrix(0.05,0,0,0.05,10,0)" xlink:href="#Q"/><use transform="matrix(0.05,0,0,0.05,20,0)" xlink:href="#Q"/><use transform="matrix(0.05,0,0,0.05,30,0)" xlink:href="#M"/></g><g id="p"><use transform="matrix(0.05,0,0,0.05,0,0)" xlink:href="#z"/><use transform="matrix(0.05,0,0,0.05,5,0)" xlink:href="#u"/><use transform="matrix(0.05,0,0,0.05,8.95,0)" xlink:href="#v"/><use transform="matrix(0.05,0,0,0.05,23.9,0)" xlink:href="#w"/><use transform="matrix(0.05,0,0,0.05,33.9,0)" xlink:href="#x"/><use transform="matrix(0.05,0,0,0.05,45.9,0)" xlink:href="#y"/><use transform="matrix(0.05,0,0,0.05,55.900000000000006,0)" xlink:href="#w"/><use transform="matrix(0.05,0,0,0.05,65.9,0)" xlink:href="#w"/><use transform="matrix(0.05,0,0,0.05,75.9,0)" xlink:href="#z"/><use transform="matrix(0.05,0,0,0.05,80.9,0)" xlink:href="#s"/><use transform="matrix(0.05,0,0,0.05,85.9,0)" xlink:href="#t"/><use transform="matrix(0.05,0,0,0.05,96.2,0)" xlink:href="#u"/><use transform="matrix(0.05,0,0,0.05,100.15,0)" xlink:href="#v"/><use transform="matrix(0.05,0,0,0.05,115.10000000000001,0)" xlink:href="#w"/><use transform="matrix(0.05,0,0,0.05,125.10000000000001,0)" xlink:href="#x"/><use transform="matrix(0.05,0,0,0.05,137.10000000000002,0)" xlink:href="#y"/><use transform="matrix(0.05,0,0,0.05,147.10000000000002,0)" xlink:href="#w"/><use transform="matrix(0.05,0,0,0.05,157.10000000000002,0)" xlink:href="#w"/><use transform="matrix(0.05,0,0,0.05,167.10000000000002,0)" xlink:href="#z"/><path d="M-.9 1.25H173v1.32H-.9z"/></g><path d="M135-143c-3-34-86-38-87 0 15 53 115 12 119 90S17 21 10-45l28-5c4 36 97 45 98 0-10-56-113-15-118-90-4-57 82-63 122-42 12 7 21 19 24 35" id="ax"/><path d="M177-190C167-65 218 103 67 71c-23-6-38-20-44-43l32-5c15 47 100 32 89-28v-30C133-14 115 1 83 1 29 1 15-40 15-95c0-56 16-97 71-98 29-1 48 16 59 35 1-10 0-23 2-32h30zM94-22c36 0 50-32 50-73 0-42-14-75-50-75-39 0-46 34-46 75s6 73 46 73" id="ay"/><g id="q"><use transform="matrix(0.05,0,0,0.05,0,0)" xlink:href="#s"/><use transform="matrix(0.05,0,0,0.05,5,0)" xlink:href="#ae"/><use transform="matrix(0.05,0,0,0.05,19.950000000000003,0)" xlink:href="#w"/><use transform="matrix(0.05,0,0,0.05,29.950000000000003,0)" xlink:href="#ax"/><use transform="matrix(0.05,0,0,0.05,38.95,0)" xlink:href="#ax"/><use transform="matrix(0.05,0,0,0.05,47.95,0)" xlink:href="#af"/><use transform="matrix(0.05,0,0,0.05,57.95,0)" xlink:href="#ay"/><use transform="matrix(0.05,0,0,0.05,67.95,0)" xlink:href="#w"/><use transform="matrix(0.05,0,0,0.05,77.95,0)" xlink:href="#Z"/><use transform="matrix(0.05,0,0,0.05,90.9,0)" xlink:href="#aa"/><use transform="matrix(0.05,0,0,0.05,100.9,0)" xlink:href="#ab"/><use transform="matrix(0.05,0,0,0.05,110.9,0)" xlink:href="#z"/><use transform="matrix(0.05,0,0,0.05,115.9,0)" xlink:href="#ac"/><use transform="matrix(0.05,0,0,0.05,121.85000000000001,0)" xlink:href="#aa"/><use transform="matrix(0.05,0,0,0.05,131.85000000000002,0)" xlink:href="#ad"/><path d="M-.9 1.25h137.6v1.32H-.9z"/></g><path d="M67 3c-93-2-31-127-26-193h32L48-50c-3 39 53 32 70 12 30-34 30-101 43-152h32L157 0h-30c1-10 6-24 4-33-14 20-29 37-64 36" id="az"/><path d="M55-144c13 50 104 24 104 88C159 21 15 23 1-39l26-10c6 40 102 42 102-4-13-50-104-23-104-87 0-71 143-71 148-8l-29 4c-5-35-85-37-89 0" id="aA"/><path d="M111-194c62-3 86 47 72 106H45c-7 38 6 69 45 68 27-1 43-14 53-32l24 11C152-15 129 4 87 4 38 3 12-23 12-71c0-70 32-119 99-123zm44 81c14-66-71-72-95-28-4 8-8 17-11 28h106" id="aB"/><path d="M66-151c12-25 30-51 66-40l-6 26C45-176 58-65 38 0H6l36-190h30" id="aC"/><g id="r"><use transform="matrix(0.05,0,0,0.05,0,0)" xlink:href="#az"/><use transform="matrix(0.05,0,0,0.05,10,0)" xlink:href="#aA"/><use transform="matrix(0.05,0,0,0.05,19,0)" xlink:href="#aB"/><use transform="matrix(0.05,0,0,0.05,29,0)" xlink:href="#aC"/></g></defs></g></svg>